<svg width="31" height="36" viewBox="0 0 31 36" fill="none" xmlns="http://www.w3.org/2000/svg">
<path d="M15.6864 5.81055C19.7414 5.81055 23.4133 7.46383 26.0707 10.1365C28.7282 12.8093 30.3723 16.5014 30.3723 20.5794C30.3723 24.6575 28.7282 28.35 26.0707 31.0224C23.4133 33.6948 19.7414 35.3483 15.6864 35.3483C11.6309 35.3483 7.95901 33.6951 5.30184 31.0227C2.64436 28.3503 1 24.6578 1 20.5798C1 16.5017 2.64405 12.8093 5.30184 10.1369C7.95963 7.46445 11.6312 5.81117 15.6864 5.81117V5.81055ZM24.6683 11.5468C22.3699 9.23549 19.1939 7.8056 15.6864 7.8056C12.1784 7.8056 9.00273 9.23549 6.70396 11.5465C4.40551 13.8579 2.98361 17.0517 2.98361 20.5794C2.98361 24.1072 4.40551 27.3007 6.70396 29.6124C9.00242 31.9237 12.1784 33.3533 15.6864 33.3533C19.1939 33.3533 22.3699 31.9234 24.6683 29.612C26.9668 27.3007 28.3884 24.1072 28.3884 20.5794C28.3884 17.052 26.9665 13.8582 24.6683 11.5468Z" fill="#374148" stroke="#F1F1F1" stroke-width="0.6"/>
<path d="M13.1105 2.99524C12.5626 2.99524 12.1187 2.54844 12.1187 1.99786C12.1187 1.44698 12.563 1.00049 13.1105 1.00049H18.262C18.8098 1.00049 19.2538 1.44729 19.2538 1.99786C19.2538 2.54875 18.8095 2.99524 18.262 2.99524H13.1105Z" fill="#374148" stroke="#374148" stroke-width="0.6"/>
<path d="M16.6782 4.16891C16.6782 4.7198 16.2339 5.16629 15.6864 5.16629C15.1386 5.16629 14.6946 4.71949 14.6946 4.16891V1.99737C14.6946 1.44649 15.1389 1 15.6864 1C16.2342 1 16.6782 1.4468 16.6782 1.99737V4.16891Z" fill="#374148" stroke="#374148" stroke-width="0.6"/>
<path d="M14.6944 13.7928C14.6944 13.2419 15.1387 12.7954 15.6862 12.7954C16.234 12.7954 16.678 13.2422 16.678 13.7928V19.5816H20.5581C21.1059 19.5816 21.5499 20.0284 21.5499 20.579C21.5499 21.1299 21.1056 21.5763 20.5581 21.5763H15.6859C15.1381 21.5763 14.6941 21.1295 14.6941 20.579V13.7925L14.6944 13.7928Z" fill="#22B0F5" stroke="#F1F1F1" stroke-width="0.6"/>
<path d="M24.3677 23.2185C24.5238 22.6915 25.0756 22.3914 25.5996 22.5483C26.1236 22.7052 26.4221 23.2601 26.2661 23.7871C25.5619 26.1329 24.1342 28.1093 22.2732 29.4991C20.4116 30.8896 18.1194 31.6931 15.6862 31.6931C12.6348 31.6931 9.87163 30.449 7.87164 28.4378C5.87165 26.4266 4.63452 23.6479 4.63452 20.5793C4.63452 18.2164 5.381 15.9793 6.68333 14.1383C7.98287 12.3014 9.84073 10.8601 12.066 10.0836C12.5813 9.90526 13.1437 10.1805 13.3213 10.6991C13.4987 11.2174 13.2249 11.7829 12.7092 11.9615C10.8875 12.5972 9.36367 13.781 8.29493 15.292C7.22928 16.7986 6.61844 18.6346 6.61844 20.58C6.61844 23.0982 7.63373 25.3785 9.27407 27.0281C10.9147 28.6779 13.182 29.6986 15.6862 29.6986C17.689 29.6986 19.5712 29.0408 21.0954 27.9024C22.6199 26.7637 23.7903 25.1433 24.3677 23.2188V23.2185Z" fill="#0A6397" stroke="#F1F1F1" stroke-width="0.6"/>
<path d="M15.6864 11.4601C15.1386 11.4601 14.6946 11.0133 14.6946 10.4627C14.6946 9.91182 15.1389 9.46533 15.6864 9.46533C18.7292 9.46533 21.4871 10.7051 23.487 12.7104C25.4858 14.7144 26.7257 17.4856 26.7344 20.5502C26.7344 21.0989 26.2919 21.5438 25.7463 21.5438C25.2006 21.5438 24.7582 21.0989 24.7582 20.5502C24.7514 18.039 23.733 15.7662 22.092 14.1207C20.4526 12.4764 18.1878 11.4601 15.6864 11.4601Z" fill="#0A6397" stroke="#F1F1F1" stroke-width="0.6"/>
</svg>
