<svg width="29" height="35" viewBox="0 0 29 35" fill="none" xmlns="http://www.w3.org/2000/svg">
<path d="M9.65156 27.9347C9.91233 27.4528 10.5127 27.2751 10.9922 27.5373C11.4714 27.7996 11.6481 28.4033 11.3874 28.8855C11.1825 29.2618 8.9369 33.3849 8.93999 33.3864C8.7852 33.6704 8.5581 33.8954 8.28497 34.0445L8.2859 34.0461C8.01431 34.1943 7.70317 34.2623 7.37998 34.2378L7.37627 34.2375C7.05401 34.2123 6.75802 34.0967 6.51269 33.91C6.47747 33.8833 6.44472 33.8547 6.41413 33.8245C6.21391 33.6456 6.0585 33.4191 5.96395 33.1559L5.19616 31.0313L3.0009 31.5287C2.6842 31.5999 2.3675 31.5775 2.07984 31.4718L2.07644 31.4706C1.7857 31.3643 1.52771 31.1751 1.33275 30.9151C1.31112 30.8865 1.29165 30.857 1.27373 30.8268C1.11492 30.5857 1.02377 30.316 1.00399 30.0401C0.982367 29.7337 1.04849 29.4215 1.20421 29.1341L3.64016 24.6586C3.90094 24.1767 4.50127 23.999 4.9808 24.2612C5.46001 24.5235 5.63675 25.1272 5.37597 25.6094L3.3006 29.4224L5.05434 29.025C5.45662 28.9343 5.86045 28.9998 6.19847 29.1856C6.53896 29.373 6.81301 29.6803 6.95329 30.0699L7.56629 31.7667L9.65187 27.9347H9.65156Z" fill="#374148" stroke="#F1F1F1" stroke-width="0.6"/>
<path d="M11.0731 14.8722C10.6859 14.4828 10.6859 13.8512 11.0731 13.4619C11.4602 13.0725 12.0884 13.0725 12.4755 13.4619L13.7275 14.7215L16.8382 11.5933C17.2253 11.2039 17.8535 11.2039 18.2406 11.5933C18.6278 11.9826 18.6278 12.6142 18.2406 13.0036L14.4285 16.8368C14.0414 17.2261 13.4132 17.2261 13.0261 16.8368L11.0728 14.8722H11.0731Z" fill="#22B0F5" stroke="#F1F1F1" stroke-width="0.6"/>
<path d="M14.4128 6.23633C16.579 6.23633 18.5407 7.11967 19.9604 8.54769C21.3802 9.97539 22.2589 11.9481 22.2589 14.1265C22.2589 16.3048 21.3805 18.2775 19.9604 19.7052C18.5407 21.1329 16.579 22.0166 14.4128 22.0166C12.2463 22.0166 10.2846 21.1332 8.86487 19.7052C7.44513 18.2775 6.56641 16.3048 6.56641 14.1265C6.56641 11.9481 7.44482 9.97539 8.86487 8.54769C10.2846 7.11998 12.2463 6.23633 14.4128 6.23633ZM18.558 9.95768C17.4976 8.89102 16.0318 8.23108 14.4128 8.23108C12.7938 8.23108 11.3277 8.89102 10.2673 9.95768C9.20659 11.024 8.55033 12.498 8.55033 14.1261C8.55033 15.7543 9.20659 17.2283 10.2673 18.2946C11.328 19.3613 12.7938 20.0212 14.4128 20.0212C16.0318 20.0212 17.4976 19.3613 18.558 18.2946C19.6187 17.2283 20.275 15.7543 20.275 14.1261C20.275 12.498 19.6187 11.024 18.558 9.95768Z" fill="#22B0F5" stroke="#F1F1F1" stroke-width="0.6"/>
<path d="M16.6429 1.95108L16.9667 2.28633C17.1178 2.44293 17.2951 2.54888 17.4836 2.59953C17.6718 2.65017 17.8791 2.64706 18.0901 2.5871L18.5369 2.4594C18.9521 2.34102 19.3628 2.30715 19.765 2.35748C20.1661 2.40751 20.5576 2.54236 20.9351 2.76172H20.9391C21.313 2.9789 21.6241 3.25264 21.8701 3.57981C22.1166 3.90792 22.294 4.2845 22.3997 4.70582L22.5134 5.15883C22.5665 5.37167 22.666 5.55157 22.801 5.68704L22.8047 5.69076C22.9394 5.82654 23.1183 5.92659 23.33 5.98003L23.7805 6.09437C24.1994 6.20064 24.5739 6.37898 24.9002 6.62693C25.2255 6.87425 25.498 7.18713 25.7137 7.56309L25.7489 7.62989C25.9461 7.99001 26.0687 8.36223 26.1157 8.74347C26.1654 9.14802 26.1318 9.56157 26.014 9.97885L25.887 10.4284C25.8271 10.6407 25.8243 10.8491 25.8747 11.0384C25.925 11.2279 26.0304 11.4062 26.1861 11.5579L26.5195 11.8835C26.8266 12.1833 27.0615 12.5257 27.2221 12.9076C27.3837 13.2922 27.4653 13.6993 27.4653 14.1262C27.4653 14.5528 27.3837 14.9601 27.2221 15.3445C27.0615 15.726 26.8269 16.0687 26.5195 16.3686L26.1861 16.6942C26.0304 16.8461 25.925 17.0245 25.8747 17.214C25.8243 17.4032 25.8274 17.6117 25.887 17.8239L26.014 18.2732C26.1318 18.6908 26.1654 19.1037 26.1154 19.5083C26.0656 19.9116 25.9312 20.3052 25.7134 20.6849V20.689C25.4974 21.0649 25.2252 21.3778 24.8999 21.6251C24.5736 21.8731 24.1991 22.0514 23.7802 22.1577L23.3297 22.272C23.118 22.3255 22.9391 22.4255 22.8044 22.5613L22.8007 22.565C22.6657 22.7005 22.5662 22.8804 22.5131 23.0932L22.3994 23.5462C22.2937 23.9676 22.1163 24.3441 21.8698 24.6722C21.6238 24.9994 21.3127 25.2735 20.9388 25.4903L20.8724 25.5258C20.5143 25.724 20.1442 25.8473 19.765 25.8946C19.3628 25.9446 18.9515 25.9107 18.5366 25.7924L18.0895 25.6646C17.8785 25.6044 17.6711 25.6016 17.483 25.6522C17.2945 25.7029 17.1171 25.8088 16.9664 25.9654L16.6426 26.3007C16.3444 26.6095 16.0039 26.8457 15.6242 27.0072C15.2417 27.1697 14.8369 27.2517 14.4124 27.2517C13.9882 27.2517 13.5831 27.1697 13.2009 27.0072C12.8215 26.8457 12.4807 26.6098 12.1825 26.3007L11.8587 25.9654C11.7076 25.8088 11.5303 25.7029 11.3418 25.6522C11.1536 25.6016 10.9463 25.6047 10.7353 25.6646L10.2885 25.7924C9.87325 25.9107 9.46263 25.9446 9.06035 25.8943C8.6593 25.8442 8.26783 25.7091 7.89027 25.49H7.88625C7.51239 25.2728 7.20126 24.9991 6.95531 24.6719C6.70875 24.3438 6.5314 23.9673 6.42573 23.5459L6.31203 23.0929C6.25888 22.8801 6.15939 22.7002 6.02437 22.5647L6.02067 22.561C5.88595 22.4252 5.70706 22.3252 5.49541 22.2717L5.04493 22.1574C4.62596 22.0511 4.25148 21.8728 3.92521 21.6248C3.59986 21.3775 3.32734 21.0646 3.11168 20.6887L3.07646 20.6219C2.87933 20.2617 2.75667 19.8892 2.7097 19.508C2.65996 19.1034 2.69364 18.6899 2.81136 18.2726L2.93835 17.823C2.99829 17.6108 3.00107 17.4023 2.9507 17.2131C2.90034 17.0235 2.79499 16.8452 2.63926 16.6936L2.30588 16.3679C1.99876 16.0681 1.76394 15.7257 1.60327 15.3439C1.44168 14.9592 1.36011 14.5522 1.36011 14.1253C1.36011 13.6986 1.44168 13.2913 1.60327 12.907C1.76363 12.5254 1.99845 12.1827 2.30588 11.8829L2.63926 11.5572C2.79499 11.4053 2.90034 11.227 2.9507 11.0374C3.00107 10.8482 2.99798 10.6397 2.93835 10.4275L2.81136 9.97823C2.69364 9.56064 2.65996 9.1477 2.71001 8.74316C2.75976 8.33986 2.89385 7.9462 3.11199 7.56651V7.56247C3.32796 7.18651 3.60017 6.87363 3.92552 6.62631C4.25179 6.37836 4.62627 6.20002 5.04524 6.09375L5.49572 5.97941C5.70737 5.92597 5.88626 5.82592 6.02098 5.69014L6.02468 5.68641C6.1597 5.55094 6.25919 5.37104 6.31234 5.15821L6.42604 4.7052C6.53171 4.28388 6.70906 3.9073 6.95562 3.57919C7.20156 3.25201 7.5127 2.97797 7.88656 2.76109L7.95299 2.72567C8.31109 2.52744 8.68154 2.40409 9.06066 2.35686C9.46294 2.30684 9.87418 2.34071 10.2891 2.45909L10.7362 2.58679C10.9472 2.64706 11.1546 2.64986 11.3427 2.59922C11.5312 2.54857 11.7086 2.44262 11.8593 2.28602L12.1831 1.95077C12.4813 1.64192 12.8218 1.40579 13.2015 1.24422C13.5778 1.08451 13.9826 1.00373 14.4133 1.00404V1C14.8375 1 15.2426 1.08203 15.6248 1.24453C16.0039 1.40579 16.345 1.64192 16.6432 1.95077L16.6429 1.95108ZM15.5485 3.67302L15.2247 3.33777C15.1091 3.21815 14.9862 3.13022 14.8576 3.07553C14.7319 3.02209 14.5832 2.99506 14.413 2.99506V2.99102C14.2489 2.99102 14.1 3.01929 13.9681 3.07522C13.8396 3.12991 13.7166 3.21784 13.601 3.33746L13.2772 3.67271C12.8709 4.09372 12.3831 4.38082 11.8538 4.52343C11.3245 4.66605 10.76 4.66263 10.2014 4.50355L9.7543 4.37585C9.59765 4.3311 9.44564 4.31805 9.30073 4.33576C9.16941 4.35223 9.04026 4.39387 8.91575 4.46005L8.87836 4.48273C8.73716 4.56476 8.62284 4.66387 8.53664 4.77883C8.45074 4.89318 8.38741 5.0302 8.34786 5.18835L8.23415 5.64136C8.09264 6.20623 7.81302 6.69994 7.42464 7.09144L7.4197 7.09641C7.02978 7.48759 6.5382 7.76909 5.97618 7.91171L5.52569 8.02605C5.36873 8.06582 5.23217 8.12951 5.11847 8.21589C5.00445 8.30258 4.90558 8.41785 4.82401 8.55953L4.82247 8.5586C4.7443 8.69531 4.69579 8.83824 4.67787 8.98427C4.65995 9.13031 4.67293 9.28286 4.71742 9.44008L4.8444 9.88937C5.00291 10.4511 5.006 11.0188 4.86418 11.551C4.72236 12.0836 4.43656 12.5745 4.01821 12.9828L3.68482 13.3084C3.56556 13.4246 3.47812 13.5486 3.42405 13.6778C3.37091 13.804 3.34403 13.9537 3.34403 14.1246C3.34403 14.2955 3.37091 14.4453 3.42405 14.5721C3.47843 14.7013 3.56587 14.825 3.68482 14.9412L4.01821 15.2668C4.43687 15.6754 4.72236 16.166 4.86418 16.6982C5.006 17.2305 5.0026 17.7981 4.8444 18.3599L4.71742 18.8095C4.67293 18.967 4.65995 19.1199 4.67756 19.2656C4.69394 19.3977 4.73534 19.5275 4.80115 19.6528L4.8237 19.6904C4.90527 19.8323 5.00384 19.9473 5.11816 20.034C5.23186 20.1204 5.36811 20.1841 5.52538 20.2238L5.97587 20.3382C6.53727 20.4805 7.02854 20.7617 7.41784 21.1522L7.42279 21.1572C7.81178 21.5493 8.09171 22.0437 8.23353 22.6088L8.34724 23.0618C8.38679 23.2197 8.45012 23.357 8.53602 23.4714C8.62253 23.5863 8.73685 23.6854 8.87775 23.7675L8.87682 23.769C9.01307 23.8476 9.15489 23.8964 9.30011 23.9144C9.44533 23.9325 9.59704 23.9194 9.75338 23.8747L10.2002 23.747C10.7588 23.5876 11.3233 23.5845 11.8525 23.7271C12.3821 23.8697 12.8703 24.1571 13.2763 24.5778L13.6001 24.913C13.7157 25.033 13.8389 25.1209 13.9675 25.1753C14.0929 25.2287 14.2418 25.2558 14.4118 25.2558C14.5817 25.2558 14.7306 25.2287 14.8567 25.1753C14.9852 25.1206 15.1082 25.0327 15.2238 24.913L15.5476 24.5778C15.9535 24.1571 16.4417 23.8697 16.971 23.7271C17.5003 23.5845 18.0648 23.5876 18.6234 23.747L19.0705 23.8747C19.2271 23.9194 19.3791 23.9325 19.524 23.9147C19.6557 23.8983 19.7845 23.8566 19.909 23.7905L19.9464 23.7678C20.0876 23.6857 20.2019 23.5863 20.2881 23.4717C20.374 23.3573 20.4374 23.2203 20.4769 23.0622L20.5906 22.6091C20.7321 22.0446 21.0118 21.5506 21.4001 21.1591L21.4051 21.1541C21.795 20.7629 22.2863 20.4814 22.8486 20.3388L23.2991 20.2245C23.456 20.1847 23.5926 20.121 23.7063 20.0346C23.8206 19.9476 23.9192 19.8327 24.0008 19.691L24.0023 19.6919C24.0805 19.5549 24.129 19.4123 24.1469 19.2662C24.1648 19.1202 24.1518 18.9676 24.1074 18.8104L23.9804 18.3611C23.8219 17.7994 23.8188 17.2317 23.9606 16.6995C24.1024 16.1669 24.3882 15.676 24.8066 15.2677L25.14 14.9421C25.2592 14.8259 25.3467 14.7019 25.4007 14.5727C25.4539 14.4465 25.4807 14.2968 25.4807 14.1259C25.4807 13.955 25.4539 13.8052 25.4007 13.6785C25.3463 13.5492 25.2589 13.4255 25.14 13.3093L24.8066 12.9837C24.3879 12.5751 24.1024 12.0845 23.9606 11.5523C23.8188 11.02 23.8219 10.4524 23.9804 9.89061L24.1074 9.44101C24.1518 9.28348 24.1648 9.13062 24.1472 8.98489C24.1308 8.85253 24.0894 8.72297 24.0236 8.59775L24.0011 8.56015C23.9195 8.41816 23.8209 8.3032 23.7066 8.21651C23.5929 8.13013 23.4567 8.06644 23.2994 8.02667L22.8489 7.91233C22.2872 7.77002 21.7962 7.48883 21.4069 7.09827L21.402 7.0933C21.013 6.70119 20.7331 6.20716 20.5912 5.64167L20.4775 5.18866C20.438 5.03082 20.3747 4.89349 20.2888 4.77915C20.2022 4.66418 20.0879 4.56507 19.947 4.48304L19.948 4.48149C19.8117 4.40288 19.6699 4.3541 19.5247 4.33608C19.3794 4.31805 19.2277 4.3311 19.0714 4.37585L18.6246 4.50355C18.066 4.66294 17.5015 4.66605 16.9722 4.52343C16.4427 4.38082 15.9545 4.09341 15.5485 3.67271V3.67302Z" fill="#374148" stroke="#F1F1F1" stroke-width="0.6"/>
<path d="M17.4376 28.8858C17.1768 28.4039 17.3535 27.8002 17.8327 27.5377C18.312 27.2754 18.9123 27.4531 19.1734 27.935L21.2589 31.7667L21.8719 30.0699C22.0122 29.6803 22.2863 29.373 22.6271 29.1856C22.9651 28.9998 23.3689 28.934 23.7709 29.025L25.5246 29.4224L23.4493 25.6094C23.1885 25.1275 23.3652 24.5238 23.8444 24.2612C24.3237 23.999 24.924 24.1767 25.1851 24.6586L27.6207 29.1341C27.7774 29.4218 27.8435 29.734 27.8209 30.0401C27.7984 30.3517 27.6878 30.6541 27.4922 30.9151C27.2969 31.1754 27.0392 31.3646 26.7491 31.4722C26.4605 31.5787 26.1426 31.6014 25.8243 31.529L23.6291 31.0316L22.8613 33.1562C22.7504 33.4647 22.5591 33.7223 22.3122 33.9103L22.3104 33.9078C22.062 34.0967 21.7644 34.2129 21.4449 34.2381C21.1245 34.2632 20.8146 34.1943 20.5431 34.0467L20.539 34.0426C20.2681 33.8947 20.041 33.6698 19.8849 33.383L17.4372 28.8858H17.4376Z" fill="#374148" stroke="#F1F1F1" stroke-width="0.6"/>
</svg>
