<svg width="29" height="36" viewBox="0 0 29 36" fill="none" xmlns="http://www.w3.org/2000/svg">
<path d="M23.971 11.7726C23.4232 11.7726 22.9792 11.3258 22.9792 10.7752C22.9792 10.2243 23.4235 9.77783 23.971 9.77783C24.9412 9.77783 25.8252 10.1786 26.4679 10.824L26.4697 10.8221C27.1102 11.4662 27.5082 12.3561 27.5082 13.3351V14.7178C27.5082 15.6968 27.1102 16.5864 26.4697 17.2308L26.4064 17.2892C25.7696 17.8991 24.9106 18.2751 23.971 18.2751C23.4232 18.2751 22.9792 17.8283 22.9792 17.2777C22.9792 16.7268 23.4235 16.2803 23.971 16.2803C24.3798 16.2803 24.7518 16.1216 25.028 15.8627L25.0673 15.8208C25.3491 15.5374 25.5246 15.1469 25.5246 14.7181V13.3354C25.5246 12.907 25.3494 12.5164 25.0673 12.2327V12.229C24.788 11.9478 24.3996 11.7732 23.971 11.7732V11.7726Z" fill="#22B0F5" stroke="#F1F1F1" stroke-width="0.6"/>
<path d="M28.1699 34.3505C28.1699 34.9014 27.7256 35.3479 27.1781 35.3479C26.6303 35.3479 26.1863 34.9011 26.1863 34.3505V32.6373C26.1863 31.3432 25.844 30.1311 25.2467 29.0884C24.6241 28.0018 23.725 27.0917 22.6476 26.4573C22.1771 26.1798 22.0192 25.5711 22.2951 25.0976C22.571 24.6244 23.1763 24.4656 23.6472 24.7431C25.0187 25.5506 26.1647 26.7114 26.9593 28.0987C27.729 29.4423 28.1702 30.9933 28.1702 32.637V34.3502L28.1699 34.3505ZM2.98361 34.3505C2.98361 34.9014 2.53931 35.3479 1.9918 35.3479C1.44399 35.3479 1 34.9011 1 34.3505V32.6373C1 30.1218 2.02301 27.835 3.67077 26.178C5.31853 24.5209 7.59257 23.4922 10.094 23.4922H16.5225C17.0703 23.4922 17.5143 23.939 17.5143 24.4896C17.5143 25.0404 17.07 25.4869 16.5225 25.4869H10.094C8.13977 25.4869 6.36193 26.2917 5.0732 27.5879C3.78416 28.8842 2.98392 30.672 2.98392 32.637V34.3502L2.98361 34.3505Z" fill="#374148" stroke="#F1F1F1" stroke-width="0.6"/>
<path d="M21.0803 13.7481C21.0803 11.9221 20.3533 10.2716 19.178 9.07943C18.0036 7.88849 16.3796 7.15149 14.5845 7.15149C12.7899 7.15149 11.1653 7.88849 9.99094 9.07943C8.81561 10.2713 8.08859 11.9218 8.08859 13.7478C8.08859 15.5735 8.81561 17.2237 9.99094 18.4156C11.1653 19.6065 12.7896 20.3435 14.5845 20.3435C16.3796 20.3435 18.0036 19.6065 19.178 18.4156C20.3533 17.2237 21.0803 15.5735 21.0803 13.7475V13.7481ZM20.5804 7.67689C22.1148 9.23323 23.0639 11.3802 23.0639 13.7481C23.0639 16.1157 22.1144 18.263 20.5804 19.8188C19.0451 21.3757 16.9252 22.3389 14.5845 22.3389C12.2443 22.3389 10.1241 21.3757 8.58851 19.8188C7.05415 18.2627 6.10498 16.116 6.10498 13.7481C6.10498 11.3799 7.05415 9.23323 8.58851 7.67689C10.1241 6.11993 12.244 5.15674 14.5845 5.15674C16.9252 5.15674 19.0451 6.11993 20.5804 7.67689Z" fill="#374148" stroke="#F1F1F1" stroke-width="0.6"/>
<path d="M25.5772 7.55781C25.8402 8.03972 25.6653 8.64529 25.1858 8.9097C24.7066 9.17412 24.1044 8.99825 23.8414 8.51604C22.9071 6.81149 21.5535 5.43039 19.9536 4.47621C18.3556 3.52295 16.5083 2.99475 14.5843 2.99475C12.6723 2.99475 10.8377 3.51394 9.24922 4.45321C7.65955 5.39311 6.30903 6.75712 5.36666 8.44488C5.09909 8.92462 4.49536 9.09551 4.01861 8.82643C3.54156 8.55736 3.37162 7.95023 3.63919 7.47081C4.75335 5.47544 6.35723 3.85852 8.25 2.73935C10.1443 1.61924 12.3229 1 14.5846 1C16.866 1 19.0601 1.62794 20.9612 2.76203C22.8611 3.89549 24.4683 5.53479 25.5772 7.5575V7.55781Z" fill="#22B0F5" stroke="#F1F1F1" stroke-width="0.6"/>
<path d="M22.96 23.2553C22.5537 23.6232 21.9271 23.5899 21.5613 23.1813C21.1955 22.7727 21.2285 22.1426 21.6348 21.7747C22.0204 21.4258 22.3807 21.048 22.7122 20.6456C23.0533 20.2318 23.3567 19.8052 23.6191 19.3708C23.9015 18.9019 24.5086 18.7519 24.9748 19.0355C25.4411 19.3195 25.5903 19.9301 25.3082 20.3989C24.9792 20.9436 24.6214 21.451 24.2385 21.9155C23.8465 22.3915 23.4188 22.8395 22.96 23.255V23.2553Z" fill="#22B0F5" stroke="#F1F1F1" stroke-width="0.6"/>
<path d="M20.1736 25.1624C19.6861 25.4075 19.0926 25.2087 18.8488 24.7181C18.605 24.2278 18.8027 23.6309 19.2906 23.3857L19.5257 23.2633V23.2596L19.7627 23.1338C20.2376 22.8647 20.8398 23.034 21.1071 23.5116C21.3746 23.9891 21.2062 24.5947 20.7313 24.8635L20.4554 25.0204L20.4539 25.0173L20.174 25.1624H20.1736Z" fill="#22B0F5" stroke="#F1F1F1" stroke-width="0.6"/>
<path d="M5.19851 9.77699C5.74632 9.77699 6.19031 10.2238 6.19031 10.7744C6.19031 11.3252 5.74601 11.7717 5.19851 11.7717C4.76996 11.7717 4.38158 11.9464 4.10227 12.2275V12.2313C3.82048 12.5146 3.64499 12.9052 3.64499 13.334V14.7166C3.64499 15.1451 3.82018 15.5357 4.10227 15.8193L4.14151 15.8613C4.41773 16.1201 4.78973 16.2789 5.19851 16.2789C5.74632 16.2789 6.19031 16.7257 6.19031 17.2762C6.19031 17.8271 5.74601 18.2736 5.19851 18.2736C4.25892 18.2736 3.39997 17.8977 2.76318 17.2877L2.69984 17.2293C2.05933 16.5852 1.66138 15.6954 1.66138 14.7163V13.3337C1.66138 12.3546 2.05933 11.4651 2.69984 10.8207L2.70169 10.8225C3.34436 10.1772 4.22833 9.77637 5.19851 9.77637V9.77699Z" fill="#22B0F5" stroke="#F1F1F1" stroke-width="0.6"/>
<path d="M15.8365 33.9878C15.8365 34.722 15.2442 35.3176 14.5141 35.3176C13.784 35.3176 13.1917 34.722 13.1917 33.9878V29.8957C13.1917 29.1615 13.784 28.5659 14.5141 28.5659C15.2442 28.5659 15.8365 29.1615 15.8365 29.8957V33.9878Z" fill="#374148" stroke="#F1F1F1" stroke-width="0.6"/>
<path d="M13.7848 28.1564C13.237 28.1564 12.793 27.7096 12.793 27.159C12.793 26.6081 13.2373 26.1616 13.7848 26.1616H15.3463C15.8941 26.1616 16.3381 26.6084 16.3381 27.159C16.3381 27.7099 15.8938 28.1564 15.3463 28.1564H13.7848Z" fill="#374148" stroke="#F1F1F1" stroke-width="0.6"/>
</svg>
