<svg width="56" height="56" viewBox="0 0 56 56" fill="none" xmlns="http://www.w3.org/2000/svg">
<path fill-rule="evenodd" clip-rule="evenodd" d="M17.4053 14.3254C17.4053 13.937 17.7202 13.6221 18.1086 13.6221H33.5701C33.7566 13.6221 33.9355 13.6962 34.0674 13.8281L39.6756 19.4357C39.8076 19.5676 39.8817 19.7466 39.8817 19.9331V24.7702C39.8817 25.1586 39.5668 25.4735 39.1783 25.4735C38.7899 25.4735 38.4749 25.1586 38.4749 24.7702V20.2245L33.2788 15.0288H18.812V42.8075H39.1783C39.5668 42.8075 39.8817 43.1224 39.8817 43.5109C39.8817 43.8993 39.5668 44.2143 39.1783 44.2143H18.1086C17.7202 44.2143 17.4053 43.8993 17.4053 43.5109V14.3254Z" fill="#003C5F"/>
<path d="M32.8697 14.3252C32.8697 13.9368 33.1833 13.6216 33.5707 13.6216C33.9575 13.6216 34.2717 13.9368 34.2717 14.3252H32.8702H32.8697ZM32.8697 19.9334V14.3252H34.2712V19.9334H32.8697ZM34.2712 19.9334C34.2712 20.3218 33.9575 20.637 33.5702 20.637C33.1833 20.637 32.8691 20.3218 32.8691 19.9334H34.2707H34.2712Z" fill="#003C5F"/>
<path fill-rule="evenodd" clip-rule="evenodd" d="M32.8669 19.9329C32.8669 19.5444 33.1818 19.2295 33.5703 19.2295H39.1785C39.567 19.2295 39.8819 19.5444 39.8819 19.9329C39.8819 20.3213 39.567 20.6362 39.1785 20.6362H33.5703C33.1818 20.6362 32.8669 20.3213 32.8669 19.9329Z" fill="#003C5F"/>
<path fill-rule="evenodd" clip-rule="evenodd" d="M32.7512 28.7935V34.7235C32.7512 35.8642 33.5231 37.0733 34.7116 38.1493C35.7977 39.1327 37.1135 39.8953 38.1203 40.2768C39.1271 39.8953 40.443 39.1327 41.5292 38.1493C42.7179 37.0732 43.4899 35.8642 43.4899 34.7235V28.7936C41.6891 27.9798 39.9025 27.5976 38.1244 27.6081L38.1161 27.6082C36.3379 27.5977 34.5514 27.9794 32.7512 28.7935ZM32.0478 28.3468L31.7399 27.7144C33.8528 26.6856 35.9818 26.1894 38.1203 26.2014C40.2589 26.1894 42.3878 26.6862 44.5009 27.7143C44.743 27.8321 44.8966 28.0776 44.8966 28.3468V34.7235C44.8966 36.4674 43.7581 38.029 42.4733 39.1922C41.169 40.373 39.5675 41.2783 38.345 41.6904C38.1992 41.7395 38.0413 41.7395 37.8956 41.6904C36.673 41.2783 35.0717 40.373 33.7674 39.1921C32.4828 38.029 31.3445 36.4674 31.3445 34.7235V28.3468H32.0478Z" fill="#003C5F"/>
<path fill-rule="evenodd" clip-rule="evenodd" d="M41.6415 31.1811C41.9162 31.4558 41.9162 31.9011 41.6415 32.1758L38.4376 35.3797C38.3057 35.5117 38.1268 35.5858 37.9402 35.5858C37.7536 35.5857 37.5747 35.5116 37.4428 35.3797L35.8014 33.7377C35.5268 33.463 35.5268 33.0176 35.8015 32.743C36.0763 32.4684 36.5216 32.4684 36.7962 32.7432L37.9403 33.8876L40.6468 31.1811C40.9215 30.9064 41.3669 30.9064 41.6415 31.1811Z" fill="#003C5F"/>
<path d="M22.2163 20.464C22.6852 20.464 23.0856 20.2984 23.4169 19.9671C23.4865 19.8975 23.5213 19.8129 23.5213 19.7132C23.5213 19.615 23.4865 19.5309 23.4169 19.4613C23.3473 19.3917 23.2632 19.3569 23.165 19.3569C23.0653 19.3569 22.9802 19.3917 22.9106 19.4613C22.7185 19.6534 22.4869 19.7495 22.2163 19.7495C21.9453 19.7495 21.7142 19.6534 21.522 19.4613C21.3299 19.2692 21.2338 19.0376 21.2338 18.767C21.2338 18.4949 21.3299 18.2623 21.522 18.0702C21.7142 17.878 21.9458 17.782 22.2163 17.782C22.4869 17.782 22.7185 17.878 22.9106 18.0702C22.9802 18.1413 23.0648 18.1771 23.165 18.1771C23.2632 18.1771 23.3473 18.1413 23.4169 18.0702C23.4865 18.0006 23.5213 17.9165 23.5213 17.8183C23.5213 17.7202 23.4865 17.6361 23.4169 17.5665C23.0856 17.2336 22.6852 17.0674 22.2163 17.0674C21.7474 17.0674 21.347 17.2336 21.0157 17.5665C20.6844 17.8962 20.5188 18.2966 20.5188 18.767C20.5188 19.2359 20.6844 19.6363 21.0157 19.9676C21.347 20.2989 21.7474 20.4646 22.2163 20.4646V20.464ZM24.8698 17.1734C24.8184 17.122 24.7571 17.0887 24.686 17.0737C24.6149 17.0602 24.5463 17.0669 24.4793 17.0939C24.4129 17.1225 24.3599 17.1666 24.3204 17.2253C24.2794 17.2855 24.2592 17.3525 24.2592 17.4252V20.1052C24.2592 20.2049 24.2939 20.2901 24.3635 20.3597C24.4331 20.4292 24.5178 20.464 24.6175 20.464C24.7156 20.464 24.7997 20.4292 24.8693 20.3597C24.9389 20.2901 24.9737 20.2054 24.9737 20.1052V18.2872L25.7043 19.0178C25.7739 19.0874 25.858 19.1222 25.9562 19.1222C26.0559 19.1222 26.1405 19.0874 26.2101 19.0178L26.9407 18.2872V20.1052C26.9407 20.2049 26.9755 20.2901 27.0451 20.3597C27.1147 20.4292 27.1988 20.464 27.2969 20.464C27.3951 20.464 27.4792 20.4292 27.5488 20.3597C27.6199 20.2901 27.6557 20.2054 27.6557 20.1052V17.4252C27.6557 17.3525 27.6355 17.2861 27.5945 17.2253C27.555 17.1661 27.5015 17.1225 27.433 17.0939C27.3665 17.0669 27.2974 17.0597 27.2263 17.0737C27.1567 17.0887 27.096 17.122 27.0446 17.1734L25.9551 18.2607L24.8677 17.1734H24.8698ZM30.8592 18.3194C30.8592 18.4664 30.8062 18.5926 30.7003 18.6985C30.5959 18.8029 30.4697 18.8553 30.3212 18.8553H29.3387V17.782H30.3212C30.4692 17.782 30.5959 17.8349 30.7003 17.9409C30.8062 18.0452 30.8592 18.1714 30.8592 18.3199V18.3194ZM30.1737 19.5698L30.9635 20.3597C31.0331 20.4292 31.1172 20.464 31.2154 20.464C31.3135 20.464 31.3982 20.4292 31.4693 20.3597C31.5389 20.2901 31.5737 20.2054 31.5737 20.1052C31.5737 20.0071 31.5389 19.923 31.4693 19.8534L30.9905 19.3746C31.1692 19.2609 31.3099 19.1129 31.4127 18.9296C31.5202 18.7406 31.5737 18.537 31.5737 18.3194C31.5737 17.9741 31.4511 17.6792 31.206 17.4341C30.9609 17.189 30.666 17.0664 30.3212 17.0664H28.982C28.8823 17.0664 28.7976 17.1017 28.7281 17.1729C28.6585 17.2424 28.6237 17.3266 28.6237 17.4247V20.1047C28.6237 20.2044 28.6585 20.2896 28.7281 20.3591C28.7976 20.4287 28.8823 20.4635 28.982 20.4635C29.0801 20.4635 29.1642 20.4287 29.2338 20.3591C29.3034 20.2896 29.3382 20.2049 29.3382 20.1047V19.5693H30.1732L30.1737 19.5698Z" fill="#003C5F"/>
<path d="M26.4994 25.0228C26.1889 25.0228 25.9365 24.7066 25.9365 24.3161C25.9365 23.9261 26.1884 23.6094 26.4994 23.6094V25.0228ZM34.1993 25.0228H26.4994V23.6094H34.1993V25.0228ZM34.1993 23.6094C34.5098 23.6094 34.7622 23.9256 34.7622 24.3161C34.7622 24.7061 34.5103 25.0228 34.1993 25.0228V23.6094Z" fill="#003C5F"/>
<path d="M21.4126 25.0212C21.0237 25.0212 20.7085 24.7055 20.7085 24.3165C20.7085 23.9271 21.0237 23.6119 21.4126 23.6119V25.0217V25.0212ZM23.4409 25.0212H21.4126V23.6114H23.4409V25.0212ZM23.4409 23.6114C23.8299 23.6114 24.1451 23.9271 24.1451 24.316C24.1451 24.7055 23.8299 25.0207 23.4409 25.0207V23.6108V23.6114Z" fill="#003C5F"/>
<path fill-rule="evenodd" clip-rule="evenodd" d="M25.7961 27.5596C25.7961 27.1711 26.111 26.8562 26.4995 26.8562H29.1525C29.5409 26.8562 29.8559 27.1711 29.8559 27.5596C29.8559 27.948 29.5409 28.2629 29.1525 28.2629H26.4995C26.111 28.2629 25.7961 27.948 25.7961 27.5596Z" fill="#003C5F"/>
<path d="M21.4121 28.2632C21.0237 28.2632 20.7085 27.948 20.7085 27.5596C20.7085 27.1712 21.0237 26.856 21.4121 26.856V28.2627V28.2632ZM23.4404 28.2632H21.4121V26.8565H23.4404V28.2632ZM23.4404 26.8565C23.8288 26.8565 24.144 27.1717 24.144 27.5601C24.144 27.9485 23.8288 28.2637 23.4404 28.2637V26.857V26.8565Z" fill="#003C5F"/>
<path fill-rule="evenodd" clip-rule="evenodd" d="M25.7961 30.8035C25.7961 30.415 26.111 30.1001 26.4995 30.1001H29.2345C29.623 30.1001 29.9379 30.415 29.9379 30.8035C29.9379 31.1919 29.623 31.5068 29.2345 31.5068H26.4995C26.111 31.5068 25.7961 31.1919 25.7961 30.8035Z" fill="#003C5F"/>
<path d="M21.4121 31.5064C21.0237 31.5064 20.7085 31.1912 20.7085 30.8027C20.7085 30.4143 21.0237 30.0991 21.4121 30.0991V31.5058V31.5064ZM23.4404 31.5064H21.4121V30.0996H23.4404V31.5064ZM23.4404 30.0996C23.8288 30.0996 24.144 30.4148 24.144 30.8033C24.144 31.1917 23.8288 31.5069 23.4404 31.5069V30.1002V30.0996Z" fill="#003C5F"/>
<path d="M21.4121 37.9887C21.0237 37.9887 20.7085 37.6756 20.7085 37.2898C20.7085 36.9039 21.0237 36.5908 21.4121 36.5908V37.9882V37.9887ZM29.3882 37.9887H21.4121V36.5913H29.3882V37.9887ZM29.3882 36.5913C29.7766 36.5913 30.0918 36.9045 30.0918 37.2903C30.0918 37.6761 29.7766 37.9892 29.3882 37.9892V36.5919V36.5913Z" fill="#003C5F"/>
<path fill-rule="evenodd" clip-rule="evenodd" d="M25.7961 34.0466C25.7961 33.6582 26.111 33.3433 26.4995 33.3433H29.2345C29.623 33.3433 29.9379 33.6582 29.9379 34.0466C29.9379 34.4351 29.623 34.75 29.2345 34.75H26.4995C26.111 34.75 25.7961 34.4351 25.7961 34.0466Z" fill="#003C5F"/>
<path d="M21.4121 34.75C21.0237 34.75 20.7085 34.4348 20.7085 34.0464C20.7085 33.658 21.0237 33.3428 21.4121 33.3428V34.7495V34.75ZM23.4404 34.75H21.4121V33.3433H23.4404V34.75ZM23.4404 33.3433C23.8288 33.3433 24.144 33.6585 24.144 34.0469C24.144 34.4353 23.8288 34.7505 23.4404 34.7505V33.3438V33.3433Z" fill="#003C5F"/>
<path fill-rule="evenodd" clip-rule="evenodd" d="M28 54C42.3594 54 54 42.3594 54 28C54 13.6406 42.3594 2 28 2C13.6406 2 2 13.6406 2 28C2 42.3594 13.6406 54 28 54ZM28 56C43.464 56 56 43.464 56 28C56 12.536 43.464 0 28 0C12.536 0 0 12.536 0 28C0 43.464 12.536 56 28 56Z" fill="#008DD2"/>
</svg>
