<svg width="56" height="56" viewBox="0 0 56 56" fill="none" xmlns="http://www.w3.org/2000/svg">
<path fill-rule="evenodd" clip-rule="evenodd" d="M12.865 21.1625C12.865 19.0946 14.5545 17.4053 16.6227 17.4053H39.6241C40.5147 17.4053 41.3362 17.7193 41.9805 18.2405C42.2825 18.4848 42.3293 18.9277 42.085 19.2297C41.8407 19.5317 41.3978 19.5785 41.0958 19.3342C40.6912 19.0069 40.1792 18.812 39.6241 18.812H16.6227C15.3313 18.812 14.2717 19.8717 14.2717 21.1625V35.1321C14.2717 36.4235 15.3313 37.4831 16.6227 37.4831H39.6241C40.2481 37.4831 40.818 37.2367 41.2418 36.8326C41.5229 36.5645 41.9681 36.5751 42.2362 36.8562C42.5043 37.1373 42.4937 37.5826 42.2126 37.8506C41.5396 38.4924 40.6265 38.8898 39.6241 38.8898H16.6227C14.5544 38.8898 12.865 37.2004 12.865 35.1321V21.1625Z" fill="#003C5F"/>
<path d="M22.6882 22.8495V21.4448L22.87 21.4495L23.0496 21.4635L23.2267 21.4864L23.4012 21.518L23.5731 21.558L23.7413 21.6063L23.9064 21.6624L24.0674 21.7263L24.2248 21.7979L24.3774 21.8769L24.5254 21.9631L24.6687 22.0555L24.8074 22.1552L24.9409 22.2611L25.0691 22.3733L25.1917 22.4912L25.3085 22.6148L25.4191 22.7441L25.524 22.8785L25.6221 23.0182L25.7141 23.1626L25.7992 23.3116L25.8771 23.4653L25.9477 23.6227L26.0111 23.7847L26.0666 23.9498L26.1144 24.1191L26.1539 24.2915L26.1845 24.4665L26.2068 24.6441L26.2204 24.8243L26.225 25.0065H24.8183L24.8157 24.8944L24.8074 24.7843L24.7939 24.6758L24.7752 24.5693L24.7513 24.4649L24.7222 24.3626L24.6885 24.2624L24.6501 24.1648L24.6075 24.0692L24.5602 23.9763L24.5088 23.8859L24.4532 23.7982L24.3935 23.7135L24.3302 23.632L24.2627 23.5536L24.1921 23.4783L24.1178 23.4072L24.0404 23.3397L23.9599 23.2758L23.8763 23.2161L23.7896 23.16L23.7003 23.1081L23.6089 23.0608L23.5149 23.0177L23.4188 22.9793L23.3202 22.9455L23.2194 22.9165L23.1171 22.8926L23.0123 22.8739L22.9058 22.8604L22.7978 22.8521L22.6877 22.8489L22.6882 22.8495ZM20.5571 25.006H19.1504L19.1551 24.8238L19.1686 24.6436L19.1909 24.466L19.2215 24.291L19.261 24.1186L19.3088 23.9493L19.3643 23.7842L19.4277 23.6222L19.4983 23.4648L19.5762 23.3111L19.6614 23.1621L19.7533 23.0177L19.8514 22.878L19.9563 22.7435L20.0669 22.6142L20.1838 22.4906L20.3063 22.3728L20.4346 22.2606L20.568 22.1552L20.7067 22.056L20.8505 21.9631L20.9985 21.8769L21.1512 21.7979L21.308 21.7263L21.4695 21.6624L21.6341 21.6063L21.8029 21.558L21.9747 21.518L22.1492 21.4864L22.3268 21.4635L22.5065 21.4495L22.6882 21.4448V22.8495L22.5781 22.8526L22.4701 22.8609L22.3637 22.8744L22.2593 22.8931L22.157 22.917L22.0563 22.9461L21.9576 22.9798L21.861 23.0182L21.767 23.0613L21.6751 23.1086L21.5858 23.1605L21.4996 23.2166L21.416 23.2768L21.335 23.3407L21.2576 23.4082L21.1834 23.4794L21.1127 23.5546L21.0452 23.6331L20.9819 23.7146L20.9222 23.7992L20.8666 23.887L20.8152 23.9773L20.7679 24.0703L20.7254 24.1658L20.6869 24.2635L20.6532 24.3637L20.6241 24.466L20.6002 24.5704L20.5815 24.6768L20.568 24.7853L20.5597 24.8954L20.5571 25.0076V25.006ZM22.6882 27.1626V28.5672L22.5065 28.5626L22.3268 28.5485L22.1492 28.5257L21.9747 28.494L21.8029 28.454L21.6341 28.4057L21.4695 28.3497L21.308 28.2858L21.1512 28.2141L20.9985 28.1352L20.8505 28.049L20.7067 27.956L20.568 27.8569L20.4346 27.7514L20.3063 27.6393L20.1838 27.5214L20.0669 27.3978L19.9563 27.2685L19.8514 27.134L19.7533 26.9943L19.6614 26.8495L19.5762 26.7004L19.4983 26.5472L19.4277 26.3894L19.3643 26.2274L19.3088 26.0622L19.261 25.8935L19.2215 25.7211L19.1909 25.5461L19.1686 25.3685L19.1551 25.1883L19.1504 25.006H20.5571L20.5597 25.1182L20.568 25.2283L20.5815 25.3368L20.6002 25.4433L20.6241 25.5471L20.6532 25.6494L20.6869 25.7496L20.7254 25.8478L20.7679 25.9433L20.8152 26.0363L20.8666 26.1266L20.9222 26.2139L20.9819 26.2985L21.0452 26.38L21.1127 26.4584L21.1834 26.5337L21.2576 26.6049L21.335 26.6724L21.416 26.7363L21.4996 26.7965L21.5858 26.8526L21.6751 26.9045L21.767 26.9518L21.861 26.9949L21.9576 27.0333L22.0563 27.067L22.157 27.0961L22.2593 27.12L22.3637 27.1387L22.4701 27.1522L22.5781 27.1605L22.6882 27.1636V27.1626ZM24.8193 25.006H26.2261L26.2214 25.1883L26.2079 25.3685L26.1856 25.5461L26.1549 25.7211L26.1155 25.8935L26.0677 26.0622L26.0121 26.2274L25.9488 26.3894L25.8781 26.5472L25.8003 26.7004L25.7151 26.8495L25.6232 26.9943L25.525 27.134L25.4201 27.2685L25.3095 27.3978L25.1927 27.5214L25.0702 27.6393L24.9419 27.7514L24.8084 27.8574L24.6698 27.9571L24.5265 28.0495L24.3785 28.1357L24.2258 28.2146L24.0685 28.2863L23.9075 28.3502L23.7424 28.4063L23.5741 28.4545L23.4022 28.4945L23.2278 28.5262L23.0507 28.5491L22.871 28.5631L22.6893 28.5677V27.1631L22.7994 27.16L22.9074 27.1517L23.0138 27.1382L23.1187 27.1195L23.221 27.0956L23.3217 27.0665L23.4204 27.0328L23.5165 26.9943L23.6105 26.9512L23.7019 26.904L23.7912 26.8521L23.8779 26.796L23.9615 26.7363L24.042 26.6724L24.1194 26.6049L24.1936 26.5337L24.2642 26.4584L24.3317 26.38L24.3951 26.2985L24.4548 26.2139L24.5104 26.1266L24.5618 26.0363L24.609 25.9433L24.6516 25.8478L24.69 25.7496L24.7238 25.6494L24.7529 25.5471L24.7768 25.4433L24.7955 25.3368L24.809 25.2283L24.8173 25.1182L24.8199 25.006H24.8193Z" fill="#003C5F"/>
<path d="M29.9 24.4585C29.5126 24.4585 29.199 24.1433 29.199 23.7549C29.199 23.3665 29.5131 23.0513 29.9 23.0513V24.458V24.4585ZM33.8932 24.4585H29.9V23.0518H33.8932V24.4585ZM33.8932 23.0518C34.2806 23.0518 34.5943 23.367 34.5943 23.7554C34.5943 24.1438 34.2801 24.459 33.8932 24.459V23.0523V23.0518Z" fill="#003C5F"/>
<path d="M29.9 28.7095C29.5126 28.7095 29.199 28.3943 29.199 28.0059C29.199 27.6174 29.5131 27.3022 29.9 27.3022V28.709V28.7095ZM33.7951 28.7095H29.9V27.3028H33.7951V28.7095ZM33.7951 27.3028C34.1825 27.3028 34.4961 27.618 34.4961 28.0064C34.4961 28.3948 34.182 28.71 33.7951 28.71V27.3033V27.3028Z" fill="#003C5F"/>
<path d="M28.1583 34.1475C28.1583 34.5359 27.8431 34.8511 27.4547 34.8511C27.0663 34.8511 26.7511 34.5359 26.7511 34.1475H28.1578H28.1583ZM28.1583 32.8576V34.1475H26.7516V32.8576H28.1583ZM24.3873 30.4939V29.0872L24.5805 29.0918L24.7716 29.1064L24.9601 29.1303L25.146 29.1635L25.3282 29.2061L25.5074 29.257L25.6829 29.3167L25.8543 29.3847L26.021 29.4605L26.1835 29.5441L26.3414 29.635L26.494 29.7331L26.6415 29.838L26.7838 29.9502L26.9209 30.0686L27.0517 30.1932L27.1764 30.3241L27.2947 30.4606L27.4069 30.6029L27.5123 30.7509L27.6105 30.9041L27.7013 31.062L27.7849 31.2245L27.8608 31.3917L27.9288 31.5631L27.9885 31.7386L28.0394 31.9177L28.082 32.1L28.1152 32.2859L28.1391 32.4739L28.1536 32.665L28.1583 32.8581H26.7516L26.7485 32.7366L26.7391 32.6172L26.7241 32.4993L26.7033 32.3835L26.6768 32.2698L26.6451 32.1582L26.6083 32.0491L26.5657 31.9421L26.5179 31.8378L26.4655 31.736L26.4083 31.6368L26.3465 31.5407L26.2806 31.4478L26.21 31.358L26.1352 31.2718L26.0563 31.1892L25.9737 31.1103L25.8875 31.0355L25.7977 30.9649L25.7047 30.8984L25.6087 30.8366L25.51 30.7795L25.4077 30.727L25.3033 30.6793L25.1963 30.6367L25.0873 30.5998L24.9757 30.5681L24.8619 30.5417L24.7467 30.5209L24.6288 30.5058L24.5093 30.4965L24.3878 30.4934L24.3873 30.4939ZM20.9866 29.0872H24.3873V30.4939H20.9866V29.0872ZM18.6228 32.8581H17.2161L17.2208 32.665L17.2353 32.4739L17.2592 32.2854L17.2924 32.0995L17.335 31.9172L17.3859 31.7381L17.4456 31.5626L17.5136 31.3912L17.5895 31.2245L17.6731 31.062L17.7639 30.9041L17.8621 30.7514L17.9675 30.6034L18.0797 30.4617L18.198 30.3246L18.3227 30.1937L18.4535 30.0691L18.5906 29.9507L18.7324 29.8391L18.8804 29.7337L19.0336 29.6355L19.1914 29.5446L19.354 29.461L19.5206 29.3852L19.692 29.3172L19.8675 29.2575L20.0467 29.2066L20.2289 29.164L20.4148 29.1308L20.6033 29.1069L20.7939 29.0924L20.9871 29.0877V30.4944L20.8656 30.4975L20.7461 30.5069L20.6283 30.5219L20.513 30.5427L20.3993 30.5692L20.2876 30.6009L20.1786 30.6377L20.0716 30.6803L19.9672 30.7281L19.8649 30.7805L19.7657 30.8376L19.6697 30.8994L19.5772 30.9654L19.4874 31.036L19.4012 31.1108L19.3186 31.1897L19.2397 31.2723L19.1649 31.3585L19.0943 31.4483L19.0284 31.5413L18.9666 31.6373L18.9095 31.736L18.857 31.8383L18.8092 31.9427L18.7667 32.0496L18.7298 32.1587L18.6981 32.2703L18.6716 32.384L18.6509 32.4993L18.6358 32.6172L18.6265 32.7366L18.6233 32.8581H18.6228ZM17.2161 34.148V32.8581H18.6228V34.148H17.2161ZM18.6228 34.148C18.6228 34.5365 18.3076 34.8517 17.9192 34.8517C17.5308 34.8517 17.2156 34.5365 17.2156 34.148H18.6223H18.6228Z" fill="#003C5F"/>
<path fill-rule="evenodd" clip-rule="evenodd" d="M37.29 22.9771V28.9071C37.29 30.0478 38.0619 31.2568 39.2504 32.3329C40.3366 33.3163 41.6523 34.0789 42.6591 34.4604C43.6659 34.0789 44.9818 33.3163 46.068 32.3329C47.2567 31.2568 48.0287 30.0478 48.0287 28.9071V22.9772C46.2279 22.1634 44.4414 21.7812 42.6632 21.7917L42.6549 21.7917C40.8767 21.7813 39.0902 22.163 37.29 22.9771ZM36.5867 22.5304L36.2787 21.898C38.3916 20.8692 40.5206 20.373 42.6591 20.385C44.7977 20.373 46.9266 20.8698 49.0398 21.8979C49.2818 22.0157 49.4354 22.2612 49.4354 22.5304V28.9071C49.4354 30.651 48.297 32.2126 47.0122 33.3758C45.7078 34.5566 44.1063 35.4619 42.8838 35.874C42.738 35.9231 42.5802 35.9231 42.4344 35.874C41.2118 35.4619 39.6105 34.5566 38.3063 33.3757C37.0216 32.2126 35.8833 30.651 35.8833 28.9071V22.5304H36.5867Z" fill="#003C5F"/>
<path fill-rule="evenodd" clip-rule="evenodd" d="M46.1791 25.3647C46.4538 25.6394 46.4538 26.0847 46.1791 26.3594L42.9752 29.5633C42.8433 29.6953 42.6644 29.7694 42.4778 29.7694C42.2912 29.7693 42.1123 29.6952 41.9804 29.5633L40.339 27.9213C40.0644 27.6466 40.0644 27.2012 40.3391 26.9266C40.6139 26.652 41.0592 26.652 41.3338 26.9268L42.4779 28.0712L45.1844 25.3647C45.4591 25.09 45.9045 25.09 46.1791 25.3647Z" fill="#003C5F"/>
<path fill-rule="evenodd" clip-rule="evenodd" d="M28 54C42.3594 54 54 42.3594 54 28C54 13.6406 42.3594 2 28 2C13.6406 2 2 13.6406 2 28C2 42.3594 13.6406 54 28 54ZM28 56C43.464 56 56 43.464 56 28C56 12.536 43.464 0 28 0C12.536 0 0 12.536 0 28C0 43.464 12.536 56 28 56Z" fill="#008DD2"/>
</svg>
