<svg width="56" height="56" viewBox="0 0 56 56" fill="none" xmlns="http://www.w3.org/2000/svg">
<path fill-rule="evenodd" clip-rule="evenodd" d="M28.8044 15.7856C25.1548 15.7639 21.4969 16.5412 17.8271 18.1835C17.823 18.1854 17.8188 18.1872 17.8146 18.189C17.4879 18.3401 17.2986 18.6363 17.2986 18.9986V30.8065C17.2986 33.4055 19.0364 36.0154 21.4755 38.2238C23.8126 40.3396 26.6632 41.9662 28.8086 42.7333C30.954 41.9662 33.8046 40.3396 36.1417 38.2238C38.5808 36.0154 40.3186 33.4055 40.3186 30.8065V18.9986C40.3186 18.632 40.1249 18.3329 39.7909 18.1837C36.1206 16.5413 32.4629 15.7639 28.8128 15.7856H28.8044ZM28.8086 14.3789C24.9529 14.3565 21.1035 15.1785 17.268 16.8926C17.2626 16.8948 17.2573 16.8971 17.252 16.8995C16.4114 17.2756 15.8918 18.0775 15.8918 18.9986V30.8065C15.8918 34.0087 17.9961 36.9712 20.5314 39.2666C23.0862 41.5796 26.2228 43.3485 28.5839 44.1444C28.7297 44.1935 28.8875 44.1935 29.0333 44.1444C31.3944 43.3485 34.531 41.5796 37.0858 39.2666C39.6211 36.9712 41.7254 34.0087 41.7254 30.8065V18.9986C41.7254 18.0786 41.2068 17.2758 40.3652 16.8995M40.3652 16.8995C36.5242 15.1808 32.6699 14.3565 28.8086 14.3789L40.3652 16.8995Z" fill="#003C5F"/>
<path d="M26.0277 19.5662C26.0308 19.1772 26.3491 18.8641 26.7386 18.8672C27.128 18.8703 27.4417 19.1881 27.4386 19.5771L26.0277 19.5662ZM26.023 20.1706L26.0277 19.5662L27.4386 19.5771L27.4339 20.1815L26.023 20.1706ZM27.4339 20.1815C27.4308 20.5704 27.1125 20.8836 26.723 20.8804C26.3335 20.8773 26.0199 20.5595 26.023 20.1706L27.4339 20.1815ZM26.022 23.7427C26.022 23.3538 26.3377 23.038 26.7272 23.038C27.1166 23.038 27.4329 23.3532 27.4334 23.7422L26.0225 23.7432L26.022 23.7427ZM26.0261 30.2612L26.022 23.7427L27.4328 23.7417L27.437 30.2601V30.2607L26.0261 30.2612ZM27.437 30.2601C27.437 30.6491 27.1213 30.9648 26.7318 30.9648C26.3424 30.9648 26.0261 30.6496 26.0256 30.2607L27.4365 30.2596L27.437 30.2601ZM26.0261 32.6509V30.2607H27.437V32.6509H26.0261ZM27.437 32.6509C27.437 33.0398 27.1213 33.355 26.7313 33.355C26.3418 33.355 26.0256 33.0398 26.0256 32.6509H27.4365H27.437ZM26.0261 36.1628C26.0261 35.7738 26.3418 35.4586 26.7318 35.4586C27.1213 35.4586 27.4375 35.7738 27.4375 36.1628H26.0266H26.0261ZM26.0261 36.6457V36.1628H27.437V36.6457H26.0261ZM27.437 36.6457C27.437 37.0346 27.1213 37.3498 26.7313 37.3498C26.3418 37.3498 26.0256 37.0346 26.0256 36.6457H27.4365H27.437Z" fill="#003C5F"/>
<path fill-rule="evenodd" clip-rule="evenodd" d="M25.8314 22.6836C24.5161 22.6836 23.4372 23.7624 23.4372 25.0777C23.4372 26.0595 24.0396 26.914 24.8993 27.2812C25.2565 27.4338 25.4224 27.847 25.2698 28.2043C25.1173 28.5615 24.704 28.7274 24.3467 28.5749C22.9912 27.9959 22.0305 26.6466 22.0305 25.0777C22.0305 22.9855 23.7392 21.2769 25.8314 21.2769H28.9221C29.3106 21.2769 29.6255 21.5918 29.6255 21.9802C29.6255 22.3687 29.3106 22.6836 28.9221 22.6836H25.8314ZM27.8423 28.1747C27.8423 27.7862 28.1572 27.4713 28.5456 27.4713H29.3194C29.7078 27.4713 30.0227 27.7862 30.0227 28.1747C30.0227 28.5631 29.7078 28.878 29.3194 28.878H28.5456C28.1572 28.878 27.8423 28.5631 27.8423 28.1747ZM32.4085 28.1569C32.568 27.8027 32.9845 27.6449 33.3387 27.8044C34.6579 28.3986 35.5868 29.7289 35.5868 31.2716C35.5868 33.3639 33.8781 35.0725 31.7859 35.0725H29.1148C28.7263 35.0725 28.4114 34.7576 28.4114 34.3691C28.4114 33.9807 28.7263 33.6658 29.1148 33.6658H31.7859C33.1012 33.6658 34.18 32.5869 34.18 31.2716C34.18 30.3063 33.5978 29.464 32.761 29.0871C32.4068 28.9275 32.249 28.5111 32.4085 28.1569Z" fill="#003C5F"/>
<path fill-rule="evenodd" clip-rule="evenodd" d="M27.4683 21.9797C27.4683 21.5913 27.7832 21.2764 28.1716 21.2764H31.4265C32.9202 21.2764 34.2378 22.0531 34.9983 23.2159C35.211 23.541 35.1198 23.9769 34.7947 24.1895C34.4696 24.4022 34.0337 24.311 33.8211 23.9859C33.3073 23.2004 32.4221 22.6831 31.4265 22.6831H28.1716C27.7832 22.6831 27.4683 22.3682 27.4683 21.9797Z" fill="#003C5F"/>
<path fill-rule="evenodd" clip-rule="evenodd" d="M22.4915 32.1592C22.8166 31.9466 23.2525 32.0378 23.4652 32.3629C23.979 33.1484 24.8642 33.6657 25.8598 33.6657H29.1146C29.5031 33.6657 29.818 33.9806 29.818 34.3691C29.818 34.7575 29.5031 35.0724 29.1146 35.0724H25.8598C24.366 35.0724 23.0484 34.2957 22.2879 33.1329C22.0753 32.8078 22.1664 32.3719 22.4915 32.1592Z" fill="#003C5F"/>
<path d="M30.4027 19.5662C30.4058 19.1772 30.7241 18.8641 31.1136 18.8672C31.503 18.8703 31.8167 19.1881 31.8136 19.5771L30.4027 19.5662ZM30.398 20.1706L30.4027 19.5662L31.8136 19.5771L31.8089 20.1815L30.398 20.1706ZM31.8089 20.1815C31.8058 20.5704 31.4875 20.8836 31.098 20.8804C30.7085 20.8773 30.3949 20.5595 30.398 20.1706L31.8089 20.1815ZM30.397 23.7427C30.397 23.3538 30.7127 23.038 31.1022 23.038C31.4916 23.038 31.8078 23.3532 31.8084 23.7422L30.3975 23.7432L30.397 23.7427ZM30.4011 30.2612L30.397 23.7427L31.8078 23.7417L31.812 30.2601V30.2607L30.4011 30.2612ZM31.812 30.2601C31.812 30.6491 31.4963 30.9648 31.1068 30.9648C30.7174 30.9648 30.4011 30.6496 30.4006 30.2607L31.8115 30.2596L31.812 30.2601ZM30.4011 32.6509V30.2607H31.812V32.6509H30.4011ZM31.812 32.6509C31.812 33.0398 31.4963 33.355 31.1063 33.355C30.7168 33.355 30.4006 33.0398 30.4006 32.6509H31.8115H31.812ZM30.4011 36.1628C30.4011 35.7738 30.7168 35.4586 31.1068 35.4586C31.4963 35.4586 31.8125 35.7738 31.8125 36.1628H30.4016H30.4011ZM30.4011 36.6457V36.1628H31.812V36.6457H30.4011ZM31.812 36.6457C31.812 37.0346 31.4963 37.3498 31.1063 37.3498C30.7168 37.3498 30.4006 37.0346 30.4006 36.6457H31.8115H31.812Z" fill="#003C5F"/>
<path fill-rule="evenodd" clip-rule="evenodd" d="M28 54C42.3594 54 54 42.3594 54 28C54 13.6406 42.3594 2 28 2C13.6406 2 2 13.6406 2 28C2 42.3594 13.6406 54 28 54ZM28 56C43.464 56 56 43.464 56 28C56 12.536 43.464 0 28 0C12.536 0 0 12.536 0 28C0 43.464 12.536 56 28 56Z" fill="#008DD2"/>
</svg>
