<svg width="56" height="56" viewBox="0 0 56 56" fill="none" xmlns="http://www.w3.org/2000/svg">
<path d="M24.8017 27.1317C24.4569 27.1317 24.177 26.8508 24.177 26.5049C24.177 26.1586 24.4569 25.8782 24.8017 25.8782V27.1317ZM32.5597 27.1317H24.8017V25.8782H32.5597V27.1317ZM32.5597 25.8782C32.9045 25.8782 33.1844 26.1591 33.1844 26.5049C33.1844 26.8513 32.9045 27.1317 32.5597 27.1317V25.8782Z" fill="#003C5F"/>
<path d="M25.1775 26.9485C24.9329 27.1931 24.5357 27.1931 24.2911 26.9485C24.0465 26.7039 24.0465 26.3067 24.2911 26.0621L25.1775 26.9485ZM26.7317 25.3943L25.1775 26.9485L24.2911 26.0621L25.8453 24.5079L26.7317 25.3943ZM25.8453 24.5079C26.0899 24.2633 26.4871 24.2633 26.7317 24.5079C26.9763 24.7525 26.9763 25.1497 26.7317 25.3943L25.8453 24.5079Z" fill="#003C5F"/>
<path d="M32.4923 28.1807C32.8371 28.1807 33.117 28.4616 33.117 28.8074C33.117 29.1538 32.8371 29.4342 32.4923 29.4342V28.1807ZM24.7343 28.1807H32.4923V29.4342H24.7343V28.1807ZM24.7343 29.4342C24.3895 29.4342 24.1096 29.1533 24.1096 28.8074C24.1096 28.4611 24.3895 28.1807 24.7343 28.1807V29.4342Z" fill="#003C5F"/>
<path d="M32.117 28.3643C32.3616 28.1198 32.7589 28.1198 33.0034 28.3643C33.248 28.6089 33.248 29.0062 33.0034 29.2508L32.117 28.3643ZM30.5628 29.9185L32.117 28.3643L33.0034 29.2508L31.4492 30.8049L30.5628 29.9185ZM31.4492 30.8049C31.2047 31.0495 30.8074 31.0495 30.5628 30.8049C30.3182 30.5604 30.3182 30.1631 30.5628 29.9185L31.4492 30.8049Z" fill="#003C5F"/>
<path d="M18.666 20.3968V18.92L18.9049 18.9262L19.1412 18.9444L19.3743 18.9745L19.6038 19.016L19.8292 19.0685L20.0504 19.1318L20.267 19.2056L20.4788 19.2897L20.685 19.3837L20.8859 19.4876L21.0807 19.6008L21.2692 19.7223L21.4514 19.8531L21.6269 19.9923L21.7952 20.1392L21.9567 20.2945L22.1104 20.457L22.2563 20.6268L22.3939 20.8039L22.5232 20.9872L22.6437 21.1773L22.7553 21.373L22.8582 21.575L22.9511 21.7828L23.0342 21.9951L23.1074 22.2127L23.1697 22.435L23.2216 22.6614L23.2627 22.8914L23.2923 23.1256L23.3104 23.3624L23.3167 23.6023H21.8378L21.8336 23.4361L21.8212 23.2726L21.8009 23.1116L21.7729 22.9537L21.7376 22.7985L21.695 22.6468L21.6451 22.4978L21.588 22.3519L21.5246 22.2101L21.4545 22.072L21.3782 21.9375L21.2956 21.8077L21.2069 21.682L21.1129 21.561L21.0132 21.4447L20.9077 21.3331L20.7977 21.2271L20.6824 21.1264L20.5624 21.0314L20.4383 20.942L20.3095 20.859L20.1771 20.7821L20.0406 20.712L19.9003 20.6481L19.757 20.591L19.6101 20.5406L19.4605 20.4975L19.3079 20.4622L19.1521 20.4342L18.9937 20.4139L18.8327 20.4015L18.6691 20.3973L18.666 20.3968ZM15.4958 23.6013H14.0169L14.0232 23.3614L14.0413 23.1246L14.0709 22.8904L14.112 22.6603L14.1639 22.4339L14.2262 22.2117L14.2994 21.9941L14.3825 21.7817L14.4755 21.574L14.5783 21.372L14.6899 21.1762L14.8104 20.9862L14.9397 20.8029L15.0773 20.6258L15.2232 20.456L15.3769 20.2935L15.5384 20.1382L15.7067 19.9912L15.8822 19.8521L16.0644 19.7212L16.2529 19.5997L16.4477 19.4865L16.6486 19.3827L16.8548 19.2887L17.0667 19.2045L17.2832 19.1308L17.5044 19.0675L17.7298 19.015L17.9593 18.9735L18.1924 18.9433L18.4287 18.9252L18.6676 18.9189V20.3958L18.504 20.3999L18.343 20.4124L18.1847 20.4326L18.0289 20.4607L17.8762 20.496L17.7267 20.5391L17.5797 20.5895L17.4364 20.6466L17.2962 20.7105L17.1596 20.7806L17.0272 20.8574L16.8984 20.9405L16.7743 21.0298L16.6543 21.1248L16.5391 21.2256L16.429 21.3315L16.3241 21.4432L16.2239 21.5595L16.1299 21.6805L16.0411 21.8061L15.9585 21.9359L15.8822 22.0704L15.8121 22.2086L15.7487 22.3503L15.6916 22.4962L15.6418 22.6453L15.5992 22.7969L15.5639 22.9522L15.5358 23.11L15.5156 23.271L15.5031 23.4346L15.499 23.6007L15.4958 23.6013ZM18.666 26.8057V28.2825L18.4272 28.2763L18.1909 28.2581L17.9577 28.228L17.7282 28.1865L17.5028 28.134L17.2816 28.0707L17.0651 27.9969L16.8532 27.9128L16.6471 27.8188L16.4461 27.715L16.2514 27.6018L16.0629 27.4803L15.8806 27.3494L15.7051 27.2102L15.5369 27.0633L15.3754 26.908L15.2217 26.7455L15.0757 26.5757L14.9381 26.3986L14.8088 26.2153L14.6884 26.0253L14.5767 25.8295L14.4739 25.6275L14.381 25.4198L14.2979 25.2074L14.2246 24.9898L14.1623 24.7676L14.1104 24.5412L14.0694 24.3111L14.0398 24.0769L14.0216 23.8401L14.0154 23.6002H15.4943L15.4984 23.7664L15.5109 23.93L15.5312 24.0909L15.5592 24.2488L15.5945 24.4041L15.6371 24.5557L15.6869 24.7047L15.7441 24.8506L15.8074 24.9924L15.8775 25.1305L15.9538 25.265L16.0364 25.3948L16.1252 25.5205L16.2192 25.6415L16.3194 25.7578L16.4243 25.8695L16.5344 25.9754L16.6497 26.0761L16.7696 26.1712L16.8937 26.2605L17.0225 26.3436L17.1549 26.4204L17.2915 26.4905L17.4317 26.5544L17.575 26.6115L17.722 26.6619L17.8715 26.705L18.0242 26.7403L18.18 26.7683L18.3384 26.7886L18.4993 26.801L18.6629 26.8052L18.666 26.8057ZM21.8362 23.6013H23.3151L23.3089 23.8412L23.2907 24.078L23.2611 24.3122L23.2201 24.5422L23.1682 24.7686L23.1058 24.9908L23.0326 25.2084L22.9495 25.4208L22.8566 25.6285L22.7538 25.8305L22.6421 26.0263L22.5217 26.2163L22.3924 26.3996L22.2548 26.5767L22.1088 26.7465L21.9551 26.9091L21.7936 27.0643L21.6254 27.2113L21.4499 27.3504L21.2676 27.4813L21.0791 27.6028L20.8844 27.716L20.6834 27.8199L20.4773 27.9139L20.2654 27.998L20.0489 28.0717L19.8276 28.1351L19.6023 28.1875L19.3728 28.2291L19.1396 28.2592L18.9033 28.2774L18.6645 28.2836V26.8068L18.828 26.8026L18.989 26.7901L19.1474 26.7699L19.3032 26.7419L19.4558 26.7065L19.6054 26.6634L19.7524 26.6131L19.8957 26.556L20.0359 26.4921L20.1725 26.422L20.3049 26.3451L20.4336 26.262L20.5578 26.1727L20.6777 26.0777L20.793 25.977L20.9031 25.871L21.0085 25.7594L21.1082 25.6431L21.2022 25.5221L21.291 25.3964L21.3735 25.2666L21.4499 25.1321L21.52 24.994L21.5833 24.8522L21.6404 24.7063L21.6903 24.5573L21.7329 24.4056L21.7682 24.2504L21.7962 24.0925L21.8165 23.9315L21.8289 23.768L21.8331 23.6018L21.8362 23.6013Z" fill="#003C5F"/>
<path d="M25.9814 36.2103C25.9814 36.6184 25.6501 36.9497 25.242 36.9497C24.8338 36.9497 24.5025 36.6184 24.5025 36.2103H25.9814ZM25.9814 34.4312V36.2103H24.5025V34.4312H25.9814ZM21.0114 30.9401V29.4612L21.2659 29.468L21.5172 29.4872L21.7659 29.5189L22.0105 29.563L22.2504 29.6185L22.4867 29.6861L22.7173 29.7645L22.9431 29.8538L23.1633 29.9535L23.3773 30.0636L23.585 30.1835L23.7864 30.3128L23.9812 30.4515L24.1686 30.5989L24.3488 30.7552L24.5217 30.9199L24.6858 31.0923L24.8421 31.2724L24.9901 31.4604L25.1288 31.6552L25.2581 31.8566L25.378 32.0643L25.4881 32.2783L25.5878 32.4985L25.6771 32.7243L25.7555 32.9554L25.8231 33.1912L25.8786 33.4311L25.9228 33.6757L25.9544 33.9244L25.9736 34.1757L25.9804 34.4302H24.5015L24.4968 34.251L24.4833 34.0745L24.461 33.901L24.4304 33.7302L24.3909 33.5614L24.3436 33.3963L24.2886 33.2348L24.2258 33.0769L24.1557 32.9227L24.0783 32.7721L23.9936 32.6257L23.9022 32.4839L23.8046 32.3468L23.7008 32.2144L23.5902 32.0872L23.4738 31.9652L23.3523 31.8494L23.2256 31.7393L23.0932 31.6354L22.9561 31.5378L22.8144 31.4464L22.6679 31.3618L22.5173 31.2844L22.3631 31.2143L22.2052 31.1515L22.0438 31.0964L21.8791 31.0492L21.7109 31.0102L21.5401 30.9791L21.3666 30.9567L21.1901 30.9432L21.0109 30.9386L21.0114 30.9401ZM16.3213 29.4612H21.0114V30.9401H16.3213V29.4612ZM12.8302 34.4312H11.3513L11.3581 34.1768L11.3773 33.9254L11.409 33.6767L11.4531 33.4321L11.5087 33.1922L11.5762 32.9565L11.6551 32.7254L11.7444 32.5L11.8446 32.2799L11.9547 32.0654L12.0747 31.8572L12.204 31.6557L12.3426 31.4609L12.4901 31.2735L12.6464 31.0933L12.811 30.9204L12.9839 30.7558L13.1641 30.5995L13.3516 30.452L13.5463 30.3133L13.7478 30.184L13.956 30.0641L14.1705 29.954L14.3906 29.8538L14.616 29.7645L14.8471 29.6855L15.0828 29.618L15.3227 29.5625L15.5673 29.5183L15.8161 29.4867L16.0674 29.4674L16.3218 29.4607V30.9396L16.1427 30.9443L15.9661 30.9578L15.7927 30.9801L15.6219 31.0107L15.4531 31.0502L15.2885 31.0974L15.1265 31.1525L14.9686 31.2153L14.8144 31.2854L14.6638 31.3628L14.5174 31.4469L14.3756 31.5383L14.2385 31.6359L14.1061 31.7403L13.9789 31.8504L13.8573 31.9662L13.7416 32.0877L13.6315 32.2149L13.5271 32.3473L13.4295 32.4844L13.3381 32.6262L13.2539 32.7726L13.1766 32.9232L13.1065 33.0775L13.0436 33.2353L12.9886 33.3973L12.9413 33.5619L12.9019 33.7307L12.8712 33.9016L12.8489 34.075L12.8354 34.2515L12.8307 34.4307L12.8302 34.4312ZM11.3513 36.2103V34.4312H12.8302V36.2103H11.3513ZM12.8302 36.2103C12.8302 36.6184 12.4989 36.9497 12.0908 36.9497C11.6826 36.9497 11.3513 36.6184 11.3513 36.2103H12.8302Z" fill="#003C5F"/>
<path d="M38.8938 20.3968V18.92L39.1327 18.9262L39.3689 18.9444L39.6021 18.9745L39.8311 19.016L40.0565 19.0685L40.2777 19.1318L40.4942 19.2056L40.7061 19.2897L40.9122 19.3837L41.1132 19.4876L41.3079 19.6008L41.4964 19.7223L41.6787 19.8531L41.8537 19.9923L42.0225 20.1392L42.1839 20.2945L42.3377 20.457L42.4836 20.6268L42.6212 20.8034L42.7505 20.9872L42.871 21.1773L42.9826 21.373L43.0854 21.575L43.1784 21.7828L43.2614 21.9951L43.3347 22.2127L43.397 22.435L43.4489 22.6614L43.4899 22.8914L43.5195 23.1256L43.5377 23.3624L43.5439 23.6023H42.065L42.0609 23.4361L42.0484 23.2726L42.0282 23.1116L42.0001 22.9537L41.9648 22.7985L41.9222 22.6468L41.8724 22.4978L41.8153 22.3519L41.7519 22.2101L41.6818 22.072L41.6055 21.9375L41.5229 21.8077L41.4341 21.682L41.3396 21.561L41.2399 21.4447L41.1345 21.3331L41.0244 21.2271L40.9091 21.1264L40.7892 21.0314L40.6651 20.942L40.5363 20.859L40.4033 20.7821L40.2673 20.712L40.1271 20.6481L39.9838 20.591L39.8368 20.5412L39.6867 20.4981L39.5341 20.4628L39.3783 20.4347L39.2204 20.4145L39.0595 20.402L38.8959 20.3978L38.8938 20.3968ZM35.7236 23.6013H34.2447L34.251 23.3614L34.2691 23.1246L34.2987 22.8904L34.3397 22.6603L34.3917 22.4339L34.454 22.2117L34.5272 21.9941L34.6103 21.7817L34.7032 21.574L34.8061 21.372L34.9177 21.1762L35.0382 20.9862L35.1675 20.8029L35.3051 20.6258L35.451 20.456L35.6047 20.2935L35.7662 20.1382L35.9344 19.9912L36.11 19.8521L36.2922 19.7212L36.4807 19.5997L36.6755 19.4865L36.8764 19.3827L37.0826 19.2887L37.2944 19.2045L37.511 19.1308L37.7322 19.0675L37.9576 19.015L38.1871 18.9735L38.4202 18.9433L38.6565 18.9252L38.8954 18.9189V20.3958L38.7318 20.3999L38.5708 20.4124L38.4124 20.4326L38.2567 20.4607L38.104 20.496L37.9544 20.5391L37.8075 20.5895L37.6642 20.6466L37.524 20.7105L37.3874 20.7806L37.255 20.8574L37.1262 20.9405L37.0021 21.0298L36.8821 21.1248L36.7668 21.2256L36.6568 21.3315L36.5519 21.4432L36.4516 21.5595L36.3577 21.6805L36.2689 21.8061L36.1863 21.9359L36.11 22.0704L36.0399 22.2086L35.9765 22.3503L35.9194 22.4962L35.8695 22.6453L35.827 22.7969L35.7916 22.9522L35.7636 23.11L35.7434 23.271L35.7309 23.4346L35.7267 23.6007L35.7236 23.6013ZM38.8938 26.8057V28.2825L38.6549 28.2763L38.4187 28.2581L38.1855 28.228L37.956 28.1865L37.7306 28.134L37.5094 28.0707L37.2929 27.9969L37.081 27.9128L36.8749 27.8188L36.6739 27.715L36.4792 27.6018L36.2907 27.4803L36.1084 27.3494L35.9329 27.2102L35.7646 27.0633L35.6031 26.908L35.4494 26.7455L35.3035 26.5757L35.1659 26.3986L35.0366 26.2153L34.9161 26.0253L34.8045 25.8295L34.7017 25.6275L34.6087 25.4198L34.5256 25.2074L34.4524 24.9898L34.3901 24.7676L34.3382 24.5412L34.2972 24.3111L34.2676 24.0769L34.2494 23.8401L34.2432 23.6002H35.7221L35.7262 23.7664L35.7387 23.93L35.7589 24.0909L35.787 24.2488L35.8223 24.4041L35.8649 24.5557L35.9147 24.7047L35.9718 24.8506L36.0352 24.9924L36.1053 25.1305L36.1816 25.265L36.2642 25.3948L36.353 25.5205L36.447 25.6415L36.5472 25.7578L36.6521 25.8695L36.7622 25.9754L36.8775 26.0761L36.9974 26.1712L37.1215 26.2605L37.2503 26.3436L37.3827 26.4204L37.5193 26.4905L37.6595 26.5544L37.8028 26.6115L37.9498 26.6619L38.0993 26.705L38.252 26.7403L38.4078 26.7683L38.5661 26.7886L38.7271 26.801L38.8907 26.8052L38.8938 26.8057ZM42.064 23.6013H43.5429L43.5367 23.8412L43.5185 24.078L43.4889 24.3122L43.4479 24.5422L43.3959 24.7686L43.3336 24.9908L43.2604 25.2084L43.1773 25.4208L43.0844 25.6285L42.9816 25.8305L42.8699 26.0263L42.7494 26.2163L42.6201 26.4002L42.4825 26.5767L42.3366 26.7465L42.1829 26.9091L42.0214 27.0643L41.8527 27.2113L41.6777 27.3504L41.4954 27.4813L41.3069 27.6028L41.1122 27.716L40.9112 27.8199L40.705 27.9139L40.4932 27.998L40.2766 28.0717L40.0554 28.1351L39.8301 28.1875L39.6011 28.2291L39.3679 28.2592L39.1316 28.2774L38.8928 28.2836V26.8068L39.0563 26.8026L39.2173 26.7901L39.3752 26.7699L39.531 26.7419L39.6836 26.7065L39.8337 26.6634L39.9807 26.6136L40.124 26.5565L40.2642 26.4926L40.4002 26.4225L40.5332 26.3456L40.6619 26.2626L40.7861 26.1732L40.906 26.0782L41.0213 25.9775L41.1314 25.8715L41.2368 25.7599L41.3365 25.6436L41.431 25.5226L41.5198 25.3969L41.6024 25.2671L41.6787 25.1326L41.7488 24.9945L41.8121 24.8527L41.8693 24.7068L41.9191 24.5578L41.9617 24.4061L41.997 24.2509L42.0251 24.093L42.0453 23.932L42.0578 23.7685L42.0619 23.6023L42.064 23.6013Z" fill="#003C5F"/>
<path d="M46.2085 36.2103C46.2085 36.6184 45.8772 36.9497 45.469 36.9497C45.0609 36.9497 44.7296 36.6184 44.7296 36.2103H46.2085ZM46.2085 34.4312V36.2103H44.7296V34.4312H46.2085ZM41.2385 30.9401V29.4612L41.4929 29.468L41.7443 29.4872L41.993 29.5189L42.2376 29.563L42.4775 29.6185L42.7137 29.6861L42.9443 29.7645L43.1702 29.8538L43.3904 29.9535L43.6043 30.0636L43.812 30.1835L44.0135 30.3128L44.2082 30.4515L44.3957 30.5989L44.5759 30.7552L44.7488 30.9199L44.9129 31.0923L45.0692 31.2724L45.2172 31.4604L45.3558 31.6552L45.4851 31.8566L45.6051 32.0643L45.7152 32.2783L45.8149 32.4985L45.9042 32.7243L45.9826 32.9554L46.0501 33.1912L46.1057 33.4311L46.1498 33.6757L46.1815 33.9244L46.2007 34.1757L46.2074 34.4302H44.7285L44.7239 34.251L44.7104 34.0745L44.688 33.901L44.6574 33.7302L44.6179 33.5614L44.5707 33.3963L44.5156 33.2348L44.4528 33.0769L44.3827 32.9227L44.3053 32.7721L44.2207 32.6257L44.1293 32.4839L44.0317 32.3468L43.9278 32.2144L43.8172 32.0872L43.7009 31.9652L43.5794 31.8494L43.4527 31.7393L43.3203 31.6354L43.1832 31.5378L43.0414 31.4464L42.895 31.3618L42.7444 31.2844L42.5902 31.2143L42.4323 31.1515L42.2708 31.0964L42.1062 31.0492L41.9379 31.0102L41.7671 30.9791L41.5937 30.9567L41.4171 30.9432L41.238 30.9386L41.2385 30.9401ZM36.5484 29.4612H41.2385V30.9401H36.5484V29.4612ZM33.0573 34.4312H31.5784L31.5851 34.1768L31.6043 33.9254L31.636 33.6767L31.6801 33.4321L31.7357 33.1922L31.8032 32.9565L31.8821 32.7254L31.9715 32.5L32.0717 32.2799L32.1818 32.0654L32.3017 31.8572L32.431 31.6557L32.5697 31.4609L32.7171 31.2735L32.8734 31.0933L33.0381 30.9204L33.211 30.7558L33.3912 30.5995L33.5786 30.452L33.7734 30.3133L33.9748 30.184L34.1831 30.0641L34.3975 29.954L34.6177 29.8538L34.8431 29.7645L35.0741 29.6855L35.3099 29.618L35.5498 29.5625L35.7944 29.5183L36.0431 29.4867L36.2944 29.4674L36.5489 29.4607V30.9396L36.3697 30.9443L36.1932 30.9578L36.0197 30.9801L35.8489 31.0107L35.6801 31.0502L35.5155 31.0974L35.3535 31.1525L35.1957 31.2153L35.0414 31.2854L34.8908 31.3628L34.7444 31.4469L34.6026 31.5383L34.4656 31.6359L34.3331 31.7403L34.2059 31.8504L34.0844 31.9662L33.9686 32.0877L33.8585 32.2149L33.7541 32.3473L33.6565 32.4844L33.5651 32.6262L33.481 32.7726L33.4036 32.9232L33.3335 33.0775L33.2707 33.2353L33.2157 33.3973L33.1684 33.5619L33.1289 33.7307L33.0983 33.9016L33.076 34.075L33.0625 34.2515L33.0578 34.4307L33.0573 34.4312ZM31.5784 36.2103V34.4312H33.0573V36.2103H31.5784ZM33.0573 36.2103C33.0573 36.6184 32.726 36.9497 32.3178 36.9497C31.9097 36.9497 31.5784 36.6184 31.5784 36.2103H33.0573Z" fill="#003C5F"/>
<path fill-rule="evenodd" clip-rule="evenodd" d="M28 54C42.3594 54 54 42.3594 54 28C54 13.6406 42.3594 2 28 2C13.6406 2 2 13.6406 2 28C2 42.3594 13.6406 54 28 54ZM28 56C43.464 56 56 43.464 56 28C56 12.536 43.464 0 28 0C12.536 0 0 12.536 0 28C0 43.464 12.536 56 28 56Z" fill="#008DD2"/>
</svg>
