<svg width="56" height="56" viewBox="0 0 56 56" fill="none" xmlns="http://www.w3.org/2000/svg">
<path fill-rule="evenodd" clip-rule="evenodd" d="M17.3552 19.5757C16.4932 19.5757 15.7851 20.2837 15.7851 21.1457V35.9223C15.7851 36.7842 16.4932 37.4923 17.3552 37.4923H40.0881C40.9501 37.4923 41.6581 36.7842 41.6581 35.9223V21.1457C41.6581 20.2837 40.9501 19.5757 40.0881 19.5757H17.3552ZM14.3784 21.1457C14.3784 19.5068 15.7163 18.1689 17.3552 18.1689H40.0881C41.727 18.1689 43.0648 19.5068 43.0648 21.1457V35.9223C43.0648 37.5611 41.727 38.899 40.0881 38.899H17.3552C15.7163 38.899 14.3784 37.5611 14.3784 35.9223V21.1457Z" fill="#003C5F"/>
<path fill-rule="evenodd" clip-rule="evenodd" d="M17.3552 19.5762C16.4932 19.5762 15.7851 20.2842 15.7851 21.1462V21.828C15.7851 24.8496 18.198 27.2625 21.2196 27.2625H23.9131C24.3016 27.2625 24.6165 27.5774 24.6165 27.9659C24.6165 28.3543 24.3016 28.6692 23.9131 28.6692H21.2196C17.4211 28.6692 14.3784 25.6265 14.3784 21.828V21.1462C14.3784 19.5073 15.7163 18.1694 17.3552 18.1694H40.0881C41.727 18.1694 43.0648 19.5073 43.0648 21.1462V21.828C43.0648 25.6265 40.0222 28.6692 36.2236 28.6692H33.4486C33.0602 28.6692 32.7453 28.3543 32.7453 27.9659C32.7453 27.5774 33.0602 27.2625 33.4486 27.2625H36.2236C39.2453 27.2625 41.6581 24.8496 41.6581 21.828V21.1462C41.6581 20.2842 40.9501 19.5762 40.0881 19.5762H17.3552Z" fill="#003C5F"/>
<path fill-rule="evenodd" clip-rule="evenodd" d="M31.8466 17.3634C31.1536 16.3762 30.0403 15.7704 28.7289 15.7854L28.7209 15.7855V15.7855C27.4035 15.7855 26.2747 16.4277 25.5767 17.4233C25.3537 17.7413 24.9151 17.8184 24.597 17.5955C24.279 17.3725 24.2019 16.9339 24.4248 16.6158C25.3723 15.2642 26.9203 14.3801 28.7169 14.3787C30.4966 14.3597 32.0425 15.1942 32.998 16.5552C33.2212 16.8731 33.1444 17.3118 32.8264 17.535C32.5085 17.7582 32.0698 17.6814 31.8466 17.3634Z" fill="#003C5F"/>
<path fill-rule="evenodd" clip-rule="evenodd" d="M28.7218 22.8389C27.5109 22.8389 26.5294 23.8205 26.5294 25.0314C26.5294 26.2422 27.5109 27.2238 28.7218 27.2238C29.9326 27.2238 30.9142 26.2422 30.9142 25.0314C30.9142 23.8205 29.9326 22.8389 28.7218 22.8389ZM25.064 25.0314C25.064 23.0112 26.7016 21.3735 28.7218 21.3735C30.7419 21.3735 32.3796 23.0112 32.3796 25.0314C32.3796 27.0515 30.7419 28.6892 28.7218 28.6892C26.7016 28.6892 25.064 27.0515 25.064 25.0314Z" fill="#003C5F"/>
<path fill-rule="evenodd" clip-rule="evenodd" d="M28.7217 28.6893C27.2799 28.6893 26.1112 29.858 26.1112 31.2998C26.1112 32.7415 27.2799 33.9103 28.7217 33.9103C30.1634 33.9103 31.3322 32.7415 31.3322 31.2998C31.3322 29.858 30.1634 28.6893 28.7217 28.6893ZM24.6458 31.2998C24.6458 29.0487 26.4706 27.2239 28.7217 27.2239C30.9727 27.2239 32.7976 29.0487 32.7976 31.2998C32.7976 33.5508 30.9727 35.3757 28.7217 35.3757C26.4706 35.3757 24.6458 33.5508 24.6458 31.2998Z" fill="#003C5F"/>
<path fill-rule="evenodd" clip-rule="evenodd" d="M28 54C42.3594 54 54 42.3594 54 28C54 13.6406 42.3594 2 28 2C13.6406 2 2 13.6406 2 28C2 42.3594 13.6406 54 28 54ZM28 56C43.464 56 56 43.464 56 28C56 12.536 43.464 0 28 0C12.536 0 0 12.536 0 28C0 43.464 12.536 56 28 56Z" fill="#008DD2"/>
</svg>
