<svg width="56" height="56" viewBox="0 0 56 56" fill="none" xmlns="http://www.w3.org/2000/svg">
<path fill-rule="evenodd" clip-rule="evenodd" d="M24.2221 33.0094C24.4158 32.8153 24.6841 32.6953 24.9803 32.6953C25.2765 32.6953 25.5443 32.8153 25.7385 33.0094C25.9322 33.2031 26.0522 33.4714 26.0522 33.7676C26.0522 34.0638 25.9322 34.3316 25.7385 34.5258C25.5443 34.7195 25.2765 34.8395 24.9803 34.8395C24.6841 34.8395 24.4163 34.7195 24.2221 34.5258C24.028 34.3316 23.908 34.0638 23.908 33.7676C23.908 33.4714 24.028 33.2031 24.2221 33.0094ZM42.485 33.0094C42.6787 32.8153 42.947 32.6953 43.2432 32.6953C43.5394 32.6953 43.8077 32.8153 44.0014 33.0094C44.1951 33.2031 44.3155 33.4714 44.3155 33.7676C44.3155 34.0638 44.1955 34.3316 44.0014 34.5258C43.8077 34.7195 43.5394 34.8395 43.2432 34.8395C42.947 34.8395 42.6792 34.7195 42.485 34.5258C42.2913 34.3316 42.1709 34.0638 42.1709 33.7676C42.1709 33.4714 42.2909 33.2031 42.485 33.0094ZM15.3116 35.9661C14.7601 35.4147 14.4141 34.657 14.4002 33.8202H12.9328C12.4969 33.8202 12.1014 33.6427 11.8151 33.3564C11.5288 33.0701 11.3513 32.6746 11.3513 32.2387V18.9868C11.3513 18.5508 11.5288 18.1554 11.8151 17.8691C12.1014 17.5828 12.4969 17.4053 12.9328 17.4053H37.6367C38.0727 17.4053 38.4682 17.5828 38.7544 17.8691C39.0407 18.1554 39.2182 18.5508 39.2182 18.9868V20.4631H43.2432C43.6791 20.4631 44.0746 20.6406 44.3614 20.9269C44.6476 21.2132 44.8251 21.6087 44.8251 22.0446C44.8251 22.259 44.7825 22.4697 44.6984 22.6661C44.6207 22.8481 44.5065 23.018 44.3578 23.1654L45.2211 26.6183C45.8305 26.7248 46.368 27.0443 46.7531 27.4965C47.1396 27.9504 47.3733 28.5386 47.3733 29.18V32.2382C47.3733 32.5771 47.2659 32.8921 47.083 33.1501C46.9028 33.4049 46.6484 33.604 46.3527 33.7168L46.3541 33.7676C46.3541 34.6251 46.0053 35.403 45.4417 35.9661C44.8786 36.5293 44.1007 36.878 43.2432 36.878C42.3857 36.878 41.6078 36.5293 41.0447 35.9661C40.4932 35.4147 40.1472 34.657 40.1333 33.8202H28.0907C28.0768 34.657 27.7307 35.4147 27.1793 35.9661C26.6162 36.5293 25.8382 36.878 24.9807 36.878C24.1233 36.878 23.3453 36.5293 22.7822 35.9661C22.2308 35.4147 21.8847 34.657 21.8708 33.8202H20.621C20.607 34.657 20.261 35.4147 19.7096 35.9661C19.1464 36.5293 18.3685 36.878 17.511 36.878C16.6535 36.878 15.8756 36.5293 15.3125 35.9661H15.3116ZM19.3028 31.2284C19.8102 31.587 20.2093 32.0958 20.43 32.6953H22.06C22.2802 32.0958 22.6793 31.5875 23.1871 31.2284C23.6986 30.8666 24.3201 30.6567 24.9803 30.6567C25.64 30.6567 26.2616 30.8666 26.773 31.2284C27.2804 31.587 27.6795 32.0958 27.9002 32.6953H38.0938V18.9863C38.0938 18.8605 38.0426 18.7459 37.9599 18.6632C37.8772 18.5805 37.763 18.5293 37.6367 18.5293H12.9328C12.8065 18.5293 12.6924 18.5805 12.6097 18.6632C12.527 18.7459 12.4758 18.8605 12.4758 18.9863V32.2382C12.4758 32.3641 12.527 32.4787 12.6097 32.5614C12.6924 32.6441 12.8065 32.6953 12.9328 32.6953H14.5898C14.81 32.0958 15.2091 31.5875 15.7169 31.2284C16.2284 30.8666 16.8499 30.6567 17.5101 30.6567C18.1699 30.6567 18.7914 30.8666 19.3028 31.2284ZM16.1061 35.1711C16.4657 35.5307 16.9623 35.7536 17.5097 35.7536C18.0571 35.7536 18.5541 35.5307 18.9136 35.1711C19.2732 34.8116 19.4961 34.3145 19.4961 33.7672C19.4961 33.2166 19.2723 32.7223 18.915 32.365C18.5532 32.0032 18.0535 31.7807 17.5097 31.7807C16.9663 31.7807 16.4666 32.0032 16.1039 32.365C15.7471 32.7218 15.5232 33.2157 15.5232 33.7667C15.5232 34.3141 15.7462 34.8111 16.1057 35.1707L16.1061 35.1711ZM44.0522 26.5787L43.3138 23.6256H39.2182V25.7833L40.2973 24.7042C40.4074 24.5946 40.5512 24.5393 40.695 24.5393C40.8384 24.5393 40.9826 24.5941 41.0923 24.7038C41.2024 24.8139 41.2572 24.9577 41.2572 25.1015C41.2572 25.2453 41.2024 25.3891 41.0928 25.4988L40.0137 26.5783H44.0526L44.0522 26.5787ZM43.5663 22.3673C43.649 22.2846 43.7003 22.1704 43.7003 22.0441C43.7003 21.9183 43.649 21.8037 43.5663 21.721C43.4836 21.6383 43.369 21.5871 43.2432 21.5871H39.2182V22.5016H43.2432C43.3695 22.5012 43.4836 22.4504 43.5663 22.3677V22.3673ZM23.5763 35.1707C23.9359 35.5302 24.4325 35.7531 24.9799 35.7531C25.5272 35.7531 26.0243 35.5302 26.3834 35.1707C26.7429 34.8111 26.9658 34.3141 26.9658 33.7667C26.9658 33.2162 26.7425 32.7218 26.3847 32.3645C26.0229 32.0027 25.5236 31.7803 24.9794 31.7803C24.4361 31.7803 23.9363 32.0027 23.5736 32.3645C23.2168 32.7214 22.993 33.2153 22.993 33.7663C22.993 34.3136 23.2159 34.8107 23.5754 35.1702L23.5763 35.1707ZM41.8392 35.1707C42.1988 35.5302 42.6954 35.7531 43.2428 35.7531C43.7901 35.7531 44.2872 35.5302 44.6467 35.1707C45.0063 34.8111 45.2292 34.3141 45.2292 33.7667C45.2292 33.2162 45.0054 32.7218 44.6481 32.3645C44.2863 32.0027 43.7865 31.7803 43.2428 31.7803C42.6994 31.7803 42.1997 32.0027 41.837 32.3645C41.4801 32.7214 41.2563 33.2153 41.2563 33.7663C41.2563 34.3136 41.4792 34.8107 41.8388 35.1702L41.8392 35.1707ZM44.9923 31.1978C45.4826 31.5322 45.8759 32.0041 46.1114 32.5636C46.1469 32.529 46.1765 32.489 46.199 32.4445C46.2305 32.3829 46.2485 32.3124 46.2485 32.2373V29.7417H44.7721C44.6171 29.7417 44.4764 29.6784 44.3748 29.5768C44.2728 29.4748 44.2099 29.3341 44.2099 29.1791C44.2099 29.0236 44.2728 28.8829 44.3744 28.7813C44.4764 28.6798 44.6171 28.6168 44.7721 28.6168H46.137C46.0296 28.3566 45.8494 28.1333 45.6224 27.9728C45.382 27.803 45.0885 27.7027 44.7721 27.7027H39.2182V32.6944H40.3229C40.5431 32.0949 40.9422 31.5866 41.45 31.2275C41.9615 30.8657 42.5835 30.6558 43.2432 30.6558C43.8845 30.6558 44.4894 30.8545 44.9923 31.1974V31.1978ZM42.3358 28.7822C42.4374 28.6802 42.5781 28.6173 42.7331 28.6173C42.8877 28.6173 43.0288 28.6802 43.1304 28.7822C43.2324 28.8842 43.2953 29.0249 43.2953 29.1795C43.2953 29.3346 43.2324 29.4752 43.1304 29.5768C43.0284 29.6784 42.8877 29.7417 42.7331 29.7417C42.5781 29.7417 42.4374 29.6784 42.3358 29.5768C42.2338 29.4752 42.1709 29.3346 42.1709 29.1795C42.1709 29.0249 42.2343 28.8838 42.3358 28.7822ZM16.7519 33.0085C16.9456 32.8144 17.2139 32.6944 17.5101 32.6944C17.8058 32.6944 18.0741 32.8144 18.2678 33.0085C18.462 33.2022 18.582 33.4705 18.582 33.7667C18.582 34.0629 18.462 34.3307 18.2678 34.5249C18.0737 34.7186 17.8054 34.8386 17.5097 34.8386C17.2135 34.8386 16.9456 34.7186 16.7515 34.5249C16.5574 34.3307 16.4374 34.0629 16.4374 33.7667C16.4374 33.4705 16.5574 33.2022 16.7515 33.0085H16.7519Z" fill="#003C5F"/>
<path d="M16.8079 23.8072V27.2668C16.8079 27.4155 16.8596 27.5418 16.9634 27.6452C17.0695 27.749 17.1953 27.8007 17.3418 27.8007C17.4883 27.8007 17.6132 27.749 17.7166 27.6452C17.82 27.5418 17.8721 27.4155 17.8721 27.2668V23.8072H19.0037C19.1503 23.8072 19.2761 23.7555 19.3822 23.6517C19.486 23.5479 19.5376 23.4229 19.5376 23.2769C19.5376 23.1303 19.486 23.0054 19.3822 22.9021C19.2761 22.796 19.1503 22.7434 19.0037 22.7434H15.6794C15.5307 22.7434 15.4048 22.7964 15.301 22.9021C15.1976 23.0059 15.1455 23.1308 15.1455 23.2769C15.1455 23.4234 15.1972 23.5483 15.301 23.6517C15.4048 23.755 15.5307 23.8072 15.6794 23.8072H16.8079ZM23.586 24.608C23.586 24.8264 23.5073 25.0148 23.3496 25.1721C23.1941 25.3276 23.0062 25.4053 22.7856 25.4053H21.3227V23.8072H22.7856C23.0062 23.8072 23.1941 23.8863 23.3496 24.0436C23.5073 24.1991 23.586 24.3869 23.586 24.6076V24.608ZM22.5658 26.4695L23.7415 27.6452C23.8453 27.749 23.9702 27.8007 24.1163 27.8007C24.2628 27.8007 24.3886 27.749 24.4947 27.6452C24.5981 27.5418 24.6502 27.4155 24.6502 27.2668C24.6502 27.1203 24.5985 26.9953 24.4947 26.892L23.7819 26.1792C24.0475 26.0102 24.257 25.7895 24.4102 25.5172C24.5702 25.2354 24.6502 24.9325 24.6502 24.6085C24.6502 24.0948 24.4677 23.6557 24.1028 23.2908C23.7379 22.9259 23.2988 22.7434 22.7856 22.7434H20.7924C20.6437 22.7434 20.5174 22.7964 20.414 22.9021C20.3102 23.0059 20.2585 23.1308 20.2585 23.2769V27.2668C20.2585 27.4155 20.3102 27.5418 20.414 27.6452C20.5174 27.749 20.6437 27.8007 20.7924 27.8007C20.9389 27.8007 21.0639 27.749 21.1672 27.6452C21.271 27.5418 21.3227 27.4155 21.3227 27.2668V26.4695H22.5658ZM25.8542 22.7771C25.7481 22.8153 25.6641 22.8796 25.6007 22.9699C25.5356 23.062 25.5027 23.1645 25.5027 23.2773V27.2672C25.5027 27.416 25.5544 27.5423 25.6582 27.6456C25.7616 27.7494 25.8879 27.8011 26.0366 27.8011C26.1832 27.8011 26.3081 27.7494 26.4115 27.6456C26.5153 27.5423 26.567 27.416 26.567 27.2672V24.7469L28.952 27.6083C29.0581 27.7369 29.1942 27.8011 29.3605 27.8011C29.4234 27.8011 29.4846 27.7908 29.543 27.7706C29.6491 27.7324 29.7331 27.6668 29.7965 27.5746C29.8616 27.4825 29.8944 27.38 29.8944 27.2672V23.2773C29.8944 23.1308 29.8428 23.0059 29.7389 22.9025C29.6329 22.7964 29.507 22.7439 29.3605 22.7439C29.214 22.7439 29.0891 22.7969 28.9857 22.9025C28.8823 23.0063 28.8302 23.1312 28.8302 23.2773V25.7976L26.4452 22.9362C26.3733 22.8508 26.2829 22.7933 26.1751 22.7641C26.0668 22.7349 25.9598 22.7394 25.8542 22.7776V22.7771ZM31.2813 26.7365C31.1326 26.7365 31.0063 26.7881 30.9029 26.892C30.7991 26.9953 30.7474 27.1207 30.7474 27.2668C30.7474 27.4155 30.7991 27.5418 30.9029 27.6452C31.0063 27.749 31.1326 27.8007 31.2813 27.8007H33.6089C34.03 27.8007 34.3904 27.651 34.6897 27.3513C34.9895 27.052 35.1391 26.6915 35.1391 26.2704C35.1391 25.8493 34.9895 25.4889 34.6897 25.1896C34.3899 24.8898 34.03 24.7402 33.6089 24.7402H32.2777C32.1492 24.7402 32.0399 24.6952 31.9501 24.6049C31.8579 24.5123 31.8116 24.4022 31.8116 24.2737C31.8116 24.1451 31.8579 24.0359 31.9501 23.946C32.0399 23.8539 32.1496 23.8076 32.2777 23.8076H34.6052C34.7517 23.8076 34.8776 23.7559 34.9836 23.6521C35.087 23.5483 35.1391 23.4234 35.1391 23.2773C35.1391 23.1308 35.0874 23.0059 34.9836 22.9025C34.8776 22.7964 34.7517 22.7439 34.6052 22.7439H32.2777C31.8566 22.7439 31.4962 22.8935 31.1968 23.1933C30.8971 23.493 30.7474 23.853 30.7474 24.2741C30.7474 24.6975 30.8971 25.0579 31.1968 25.355C31.4962 25.6547 31.8566 25.8044 32.2777 25.8044H33.6089C33.7374 25.8044 33.8466 25.8507 33.9365 25.9428C34.0291 26.0327 34.0749 26.1419 34.0749 26.2704C34.0749 26.399 34.0286 26.5091 33.9365 26.6016C33.8466 26.6915 33.7374 26.7369 33.6089 26.7369H31.2813V26.7365Z" fill="#003C5F"/>
<path fill-rule="evenodd" clip-rule="evenodd" d="M28 54C42.3594 54 54 42.3594 54 28C54 13.6406 42.3594 2 28 2C13.6406 2 2 13.6406 2 28C2 42.3594 13.6406 54 28 54ZM28 56C43.464 56 56 43.464 56 28C56 12.536 43.464 0 28 0C12.536 0 0 12.536 0 28C0 43.464 12.536 56 28 56Z" fill="#008DD2"/>
</svg>
