<svg width="13" height="12" viewBox="0 0 13 12" fill="none" xmlns="http://www.w3.org/2000/svg">
<path fill-rule="evenodd" clip-rule="evenodd" d="M7.2389 0.487901C7.82926 0.198937 8.34424 0.103759 9.14317 0.103769C11.1877 0.112236 12.7009 1.83654 12.7009 4.033C12.7009 5.70952 11.7662 7.32899 10.025 8.89498C9.11109 9.71697 7.9442 10.5304 7.10852 10.9632L6.63038 11.2108L6.15224 10.9632C5.31656 10.5304 4.14967 9.71697 3.23574 8.89498C1.49459 7.32899 0.559814 5.70952 0.559814 4.033C0.559814 1.81305 2.05893 0.10376 4.12188 0.10376C4.89215 0.10376 5.43355 0.207939 6.03536 0.505595C6.24489 0.609227 6.44175 0.732152 6.62485 0.874038C6.81528 0.723726 7.02033 0.594885 7.2389 0.487901Z" fill="#DADADA"/>
</svg>
