<svg width="195" height="51" viewBox="0 0 195 51" fill="none" xmlns="http://www.w3.org/2000/svg">
<g clip-path="url(#clip0)">
<path d="M8.30666 39.7483H0V6.44238H8.30235L8.34535 16.1058H15.5943C16.3625 16.0764 17.1161 16.3278 17.723 16.816C18.33 17.3041 18.7514 17.9977 18.9135 18.7753C19.322 20.6483 23.5785 39.7216 23.5785 39.7216H15.0526L11.3464 23.0909C11.0153 21.5782 10.7746 21.4581 10.0996 21.4581H8.31096L8.30666 39.7483Z" fill="#E32119"/>
<path d="M33.3598 25.2526V22.2851C33.3598 22.0715 33.4418 21.8666 33.5877 21.7156C33.7336 21.5646 33.9316 21.4798 34.138 21.4798H37.2551C37.4615 21.4798 37.6595 21.5646 37.8054 21.7156C37.9513 21.8666 38.0333 22.0715 38.0333 22.2851V25.2526H33.3598ZM46.3314 18.7925C46.3314 18.0845 46.0596 17.4055 45.5758 16.9049C45.092 16.4043 44.4359 16.123 43.7517 16.123H27.65C26.9658 16.123 26.3097 16.4043 25.8259 16.9049C25.3421 17.4055 25.0703 18.0845 25.0703 18.7925V37.056C25.0703 37.764 25.3421 38.443 25.8259 38.9436C26.3097 39.4443 26.9658 39.7255 27.65 39.7255H43.7388C44.423 39.7255 45.0791 39.4443 45.5629 38.9436C46.0467 38.443 46.3185 37.764 46.3185 37.056V34.3866H34.1337C33.9273 34.3866 33.7294 34.3018 33.5834 34.1507C33.4375 33.9997 33.3555 33.7949 33.3555 33.5813V30.6316H46.3314V18.7925Z" fill="#E32119"/>
<path d="M58.1335 39.735L49.8269 39.7394V6.44238H58.1292L58.1335 39.735Z" fill="#E32119"/>
<path d="M69.9399 39.735L61.6333 39.7394V6.44238H69.9356L69.9399 39.735Z" fill="#E32119"/>
<path d="M94.7268 39.7435H86.4502L86.4287 21.5022H81.7551V39.7435H73.4485V16.1144H102.014C102.783 16.085 103.536 16.3364 104.143 16.8245C104.75 17.3126 105.172 18.0063 105.334 18.7838C105.742 20.6569 109.999 39.7302 109.999 39.7302H101.473L97.7622 23.1039C97.4312 21.5868 97.1947 21.4711 96.5154 21.4711H94.7268V39.7435Z" fill="#E32119"/>
<path d="M111.469 18.7925C111.469 18.0845 111.741 17.4055 112.225 16.9049C112.709 16.4043 113.365 16.123 114.049 16.123H130.138C130.822 16.123 131.478 16.4043 131.962 16.9049C132.446 17.4055 132.718 18.0845 132.718 18.7925V39.7478H114.066C113.382 39.7478 112.726 39.4665 112.242 38.9659C111.758 38.4653 111.487 37.7863 111.487 37.0783V27.9176C111.487 27.2096 111.758 26.5306 112.242 26.03C112.726 25.5294 113.382 25.2482 114.066 25.2482H124.45V22.2806C124.45 22.067 124.368 21.8622 124.222 21.7112C124.076 21.5602 123.878 21.4753 123.671 21.4753H111.469V18.7925ZM124.45 30.6049H120.554C120.348 30.6049 120.15 30.6897 120.004 30.8407C119.858 30.9917 119.776 31.1966 119.776 31.4102V33.568C119.776 33.7815 119.858 33.9864 120.004 34.1374C120.15 34.2884 120.348 34.3732 120.554 34.3732H124.45V30.6049Z" fill="#E32119"/>
<path d="M144.558 39.7394H136.252V16.1058H151.846C152.614 16.0764 153.368 16.3279 153.975 16.816C154.582 17.3041 155.003 17.9977 155.165 18.7753C155.574 20.6484 159.83 39.7216 159.83 39.7216H151.304L147.598 23.0909C147.267 21.5782 147.026 21.4581 146.351 21.4581H144.563L144.558 39.7394Z" fill="#E32119"/>
<path d="M169.581 39.7394H161.274V16.1058H176.869C177.637 16.0764 178.391 16.3279 178.997 16.816C179.604 17.3041 180.026 17.9977 180.188 18.7753C180.596 20.6484 184.853 39.7216 184.853 39.7216H176.327L172.617 23.0909C172.285 21.5782 172.045 21.4581 171.37 21.4581H169.581V39.7394Z" fill="#E32119"/>
<path d="M5.17696 49.3626L6.10995 44.6377H7.15473L5.75309 50.9109H4.747L3.59473 46.3284L2.41666 50.9109H1.40628L0.00463867 44.6377H1.04942L1.99102 49.3537L3.14759 44.6377H4.02898L5.17696 49.3626Z" fill="#004C99"/>
<path d="M17.8813 47.9438C17.8925 48.5004 17.7869 49.053 17.5717 49.5633C17.3926 49.9988 17.0935 50.3702 16.7118 50.631C16.3136 50.8754 15.8591 51.0043 15.3961 51.0043C14.9332 51.0043 14.4787 50.8754 14.0805 50.631C13.6896 50.3744 13.3802 50.0047 13.1905 49.5677C12.9729 49.0689 12.8643 48.5266 12.8723 47.9794V47.6279C12.8615 47.0708 12.9686 46.5181 13.1862 46.0084C13.3724 45.567 13.6805 45.1924 14.0719 44.9318C14.4696 44.6883 14.9233 44.5598 15.3854 44.5598C15.8475 44.5598 16.3012 44.6883 16.6989 44.9318C17.0887 45.1865 17.3969 45.5549 17.5846 45.9906C17.8026 46.4972 17.9111 47.0468 17.9028 47.6012L17.8813 47.9438ZM16.8279 47.6146C16.8615 47.0542 16.7279 46.4966 16.4452 46.0173C16.3198 45.8451 16.1574 45.7053 15.9709 45.609C15.7844 45.5128 15.5788 45.4627 15.3703 45.4627C15.1619 45.4627 14.9563 45.5128 14.7698 45.609C14.5833 45.7053 14.4209 45.8451 14.2955 46.0173C14.0102 46.4844 13.872 47.0316 13.8999 47.5834V47.9438C13.8678 48.5052 14.0045 49.0632 14.2912 49.541C14.4105 49.7216 14.572 49.8681 14.7607 49.9669C14.9493 50.0656 15.159 50.1135 15.3703 50.106C15.58 50.1159 15.7886 50.0704 15.9767 49.9739C16.1647 49.8774 16.3259 49.733 16.4452 49.5544C16.7266 49.0698 16.8586 48.508 16.8236 47.9438L16.8279 47.6146Z" fill="#004C99"/>
<path d="M26.2783 48.5041H25.1046V50.92H24.0469V44.6468H26.1966C26.7756 44.6087 27.3492 44.7819 27.8175 45.1361C28.0112 45.31 28.1635 45.5276 28.2626 45.7722C28.3618 46.0168 28.4052 46.2818 28.3894 46.5465C28.4017 46.9211 28.2993 47.2901 28.097 47.6009C27.8896 47.8941 27.6065 48.1208 27.2801 48.255L28.6431 50.8666V50.9244H27.5123L26.2783 48.5041ZM25.1046 47.6143H26.188C26.4897 47.6339 26.7874 47.5355 27.0221 47.3384C27.1231 47.2422 27.2024 47.1241 27.2544 46.9927C27.3064 46.8612 27.3298 46.7195 27.3231 46.5777C27.3317 46.4352 27.3117 46.2925 27.2644 46.1585C27.217 46.0245 27.1433 45.9021 27.0479 45.7991C26.818 45.5986 26.5226 45.4967 26.2224 45.5143H25.1089L25.1046 47.6143Z" fill="#004C99"/>
<path d="M35.5439 50.0436H38.2955V50.9334H34.4905V44.6602H35.5439V50.0436Z" fill="#004C99"/>
<path d="M44.2117 50.9154V44.6422H46.0046C46.5036 44.632 46.9963 44.7594 47.432 45.0114C47.845 45.257 48.1797 45.6219 48.3951 46.0614C48.6291 46.5457 48.7457 47.0817 48.7348 47.6231V47.9389C48.7461 48.4837 48.628 49.023 48.3908 49.5095C48.1709 49.9493 47.8297 50.3116 47.4105 50.5506C46.9633 50.8005 46.4611 50.9262 45.953 50.9154H44.2117ZM45.2651 45.5186V50.0434H45.953C46.1934 50.0612 46.4346 50.022 46.6581 49.9287C46.8817 49.8354 47.0817 49.6905 47.2428 49.505C47.5647 49.0634 47.7247 48.5179 47.6943 47.9656V47.6186C47.7308 47.0622 47.5788 46.5099 47.2643 46.057C47.1106 45.874 46.9181 45.7302 46.7018 45.6368C46.4855 45.5434 46.2513 45.503 46.0175 45.5186H45.2651Z" fill="#004C99"/>
<path d="M59.6904 49.3626L60.6234 44.6377H61.6682L60.2665 50.9109H59.2604L58.1082 46.3284L56.9301 50.9109H55.9197L54.5181 44.6377H55.5628L56.5044 49.3537L57.661 44.6377H58.5424L59.6904 49.3626Z" fill="#004C99"/>
<path d="M68.6504 50.9158H67.6013V44.6426H68.6504V50.9158Z" fill="#004C99"/>
<path d="M75.0608 50.9154V44.6422H76.8537C77.3527 44.632 77.8454 44.7594 78.2811 45.0114C78.6941 45.257 79.0288 45.6219 79.2442 46.0614C79.4782 46.5457 79.5948 47.0817 79.5839 47.6231V47.9389C79.5952 48.4837 79.4771 49.023 79.2399 49.5095C79.02 49.9493 78.6788 50.3116 78.2596 50.5506C77.8124 50.8005 77.3102 50.9262 76.8021 50.9154H75.0608ZM76.1142 45.5186V50.0434H76.8021C77.0425 50.0612 77.2837 50.022 77.5073 49.9287C77.7308 49.8354 77.9308 49.6905 78.0919 49.505C78.4138 49.0634 78.5738 48.5179 78.5434 47.9656V47.6186C78.5799 47.0622 78.4279 46.5099 78.1134 46.057C77.9597 45.874 77.7672 45.7302 77.5509 45.6368C77.3346 45.5434 77.1004 45.503 76.8666 45.5186H76.1142Z" fill="#004C99"/>
<path d="M89.2962 48.1127H86.8068V50.0436H89.7176V50.9334H85.7534V44.6602H89.6875V45.55H86.8068V47.2807H89.2962V48.1127Z" fill="#004C99"/>
<path d="M103.975 50.0436H106.727V50.9334H102.922V44.6602H103.975V50.0436Z" fill="#004C99"/>
<path d="M117.244 47.9434C117.255 48.5 117.149 49.0525 116.934 49.5628C116.755 49.9984 116.456 50.3697 116.074 50.6306C115.676 50.8749 115.221 51.0039 114.758 51.0039C114.295 51.0039 113.841 50.8749 113.443 50.6306C113.052 50.3742 112.742 50.0044 112.553 49.5673C112.335 49.0684 112.227 48.5261 112.235 47.979V47.6275C112.224 47.0704 112.331 46.5177 112.549 46.008C112.734 45.565 113.042 45.1887 113.434 44.9269C113.832 44.6834 114.286 44.5549 114.748 44.5549C115.21 44.5549 115.663 44.6834 116.061 44.9269C116.451 45.1814 116.759 45.5499 116.947 45.9858C117.165 46.4923 117.273 47.0419 117.265 47.5963L117.244 47.9434ZM116.19 47.6141C116.224 47.0537 116.09 46.4962 115.808 46.0169C115.682 45.8446 115.52 45.7048 115.333 45.6086C115.147 45.5123 114.941 45.4622 114.733 45.4622C114.524 45.4622 114.319 45.5123 114.132 45.6086C113.946 45.7048 113.783 45.8446 113.658 46.0169C113.374 46.4846 113.236 47.0313 113.262 47.583V47.9434C113.23 48.5048 113.367 49.0628 113.653 49.5406C113.773 49.7212 113.934 49.8677 114.123 49.9664C114.312 50.0652 114.521 50.1131 114.733 50.1056C114.942 50.115 115.151 50.0694 115.339 49.9729C115.527 49.8765 115.688 49.7323 115.808 49.5539C116.089 49.0693 116.221 48.5075 116.186 47.9434L116.19 47.6141Z" fill="#004C99"/>
<path d="M128.052 50.1011C127.816 50.4097 127.5 50.6427 127.14 50.7729C126.716 50.9311 126.267 51.008 125.816 50.9998C125.343 51.0102 124.877 50.8871 124.466 50.6439C124.072 50.4037 123.756 50.0474 123.559 49.6206C123.338 49.1352 123.224 48.6046 123.228 48.0678V47.5785C123.181 46.7791 123.414 45.989 123.886 45.3539C124.113 45.0853 124.397 44.8736 124.715 44.7349C125.033 44.5961 125.377 44.534 125.722 44.5531C126.301 44.5213 126.871 44.7061 127.33 45.0736C127.75 45.4569 128.009 45.9949 128.052 46.573H127.02C127.012 46.409 126.972 46.2484 126.902 46.1012C126.832 45.9539 126.733 45.8231 126.612 45.7168C126.492 45.6105 126.351 45.5309 126.199 45.4831C126.047 45.4352 125.888 45.42 125.73 45.4384C125.523 45.427 125.316 45.4694 125.128 45.5618C124.94 45.6543 124.778 45.7939 124.655 45.9679C124.378 46.4314 124.244 46.9717 124.273 47.5162V47.9967C124.244 48.5578 124.395 49.1129 124.703 49.5761C124.837 49.7591 125.013 49.9053 125.214 50.0023C125.416 50.0992 125.637 50.1438 125.859 50.1322C126.065 50.1536 126.274 50.1311 126.471 50.0661C126.668 50.001 126.851 49.8948 127.007 49.7541V48.5261H125.756V47.6986H128.052V50.1011Z" fill="#004C99"/>
<path d="M135.448 50.9158H134.399V44.6426H135.448V50.9158Z" fill="#004C99"/>
<path d="M145.031 49.3C145.037 49.1786 145.015 49.0573 144.966 48.9465C144.918 48.8358 144.844 48.7388 144.751 48.6638C144.439 48.4594 144.096 48.3091 143.737 48.2189C143.329 48.1028 142.937 47.9323 142.572 47.7117C142.324 47.5764 142.116 47.3743 141.97 47.1268C141.824 46.8794 141.745 46.5957 141.742 46.3058C141.739 46.0633 141.791 45.8235 141.895 45.6062C141.999 45.3888 142.151 45.2001 142.339 45.0556C142.787 44.7122 143.335 44.5393 143.891 44.5662C144.281 44.5584 144.667 44.6405 145.022 44.8065C145.339 44.9561 145.609 45.1951 145.8 45.4961C145.987 45.7891 146.086 46.1328 146.084 46.4838H145.035C145.043 46.3409 145.02 46.1979 144.969 46.065C144.918 45.9321 144.839 45.8123 144.738 45.7141C144.496 45.5125 144.189 45.4139 143.879 45.4382C143.595 45.4207 143.314 45.5005 143.079 45.6651C142.986 45.7399 142.911 45.8367 142.862 45.9474C142.813 46.0581 142.79 46.1795 142.795 46.3014C142.796 46.4161 142.826 46.5287 142.88 46.6289C142.934 46.7292 143.011 46.8138 143.105 46.8753C143.418 47.0774 143.761 47.2275 144.119 47.3202C144.517 47.4323 144.899 47.5984 145.254 47.814C145.511 47.9696 145.727 48.1881 145.882 48.4503C146.019 48.7075 146.087 48.9977 146.08 49.2911C146.088 49.5319 146.039 49.7709 145.938 49.9879C145.837 50.2049 145.686 50.3932 145.499 50.5369C145.036 50.8626 144.481 51.0192 143.922 50.9818C143.506 50.9859 143.094 50.8995 142.713 50.7282C142.371 50.5822 142.074 50.3422 141.853 50.0341C141.647 49.7312 141.54 49.3679 141.548 48.9975H142.602C142.593 49.1532 142.619 49.3088 142.678 49.4523C142.737 49.5959 142.827 49.7234 142.941 49.825C143.225 50.0388 143.572 50.1427 143.922 50.1187C144.214 50.141 144.505 50.0594 144.747 49.8873C144.835 49.8185 144.906 49.7297 144.955 49.6279C145.004 49.526 145.03 49.4139 145.031 49.3Z" fill="#004C99"/>
<path d="M156.506 45.5187H154.615V50.9155H153.57V45.5187H151.699V44.6289H156.511L156.506 45.5187Z" fill="#004C99"/>
<path d="M163.532 50.9158H162.482V44.6426H163.532V50.9158Z" fill="#004C99"/>
<path d="M174.573 48.8733C174.543 49.4731 174.285 50.0363 173.855 50.4394C173.386 50.8325 172.794 51.0322 172.191 51C171.737 51.0117 171.289 50.8882 170.901 50.644C170.525 50.402 170.226 50.0508 170.041 49.6341C169.832 49.1561 169.725 48.6371 169.728 48.1125V47.5252C169.717 46.9863 169.821 46.4517 170.033 45.9591C170.214 45.5321 170.513 45.17 170.893 44.918C171.289 44.6693 171.745 44.5427 172.208 44.5532C172.796 44.5234 173.373 44.7235 173.825 45.1138C174.252 45.5296 174.508 46.1003 174.539 46.7066H173.49C173.475 46.3456 173.34 46.0011 173.107 45.7322C172.856 45.5161 172.534 45.4093 172.208 45.4341C172.004 45.423 171.8 45.4648 171.616 45.5557C171.431 45.6466 171.271 45.7837 171.151 45.9547C170.875 46.4106 170.743 46.9438 170.772 47.4807V48.0369C170.739 48.5791 170.862 49.1192 171.125 49.5896C171.238 49.7633 171.392 49.9038 171.573 49.9974C171.754 50.091 171.955 50.1344 172.157 50.1235C172.492 50.1493 172.824 50.0463 173.09 49.8343C173.328 49.5729 173.468 49.2322 173.485 48.8733H174.573Z" fill="#004C99"/>
<path d="M183.804 49.3C183.81 49.1786 183.788 49.0573 183.739 48.9465C183.691 48.8358 183.617 48.7388 183.524 48.6638C183.212 48.4594 182.869 48.3091 182.51 48.2189C182.102 48.1028 181.71 47.9323 181.345 47.7117C181.097 47.5764 180.889 47.3743 180.743 47.1268C180.597 46.8794 180.518 46.5957 180.515 46.3058C180.512 46.0633 180.564 45.8235 180.668 45.6062C180.772 45.3888 180.924 45.2001 181.112 45.0556C181.56 44.7122 182.108 44.5393 182.665 44.5662C183.054 44.5584 183.44 44.6405 183.795 44.8065C184.112 44.9561 184.382 45.1951 184.573 45.4961C184.76 45.7891 184.859 46.1328 184.857 46.4838H183.808C183.821 46.3361 183.801 46.1874 183.751 46.0487C183.7 45.91 183.62 45.785 183.516 45.6829C183.273 45.4814 182.966 45.3828 182.656 45.4071C182.372 45.3896 182.091 45.4693 181.856 45.634C181.763 45.7087 181.689 45.8056 181.639 45.9163C181.59 46.027 181.567 46.1484 181.572 46.2702C181.574 46.385 181.603 46.4976 181.657 46.5978C181.711 46.698 181.788 46.7827 181.882 46.8441C182.196 47.0462 182.538 47.1963 182.897 47.289C183.294 47.4012 183.676 47.5672 184.032 47.7829C184.288 47.9384 184.504 48.1569 184.659 48.4191C184.796 48.6764 184.864 48.9665 184.857 49.26C184.865 49.5007 184.816 49.7398 184.715 49.9568C184.614 50.1737 184.464 50.3621 184.277 50.5057C183.813 50.8315 183.258 50.988 182.699 50.9507C182.283 50.9547 181.872 50.8683 181.491 50.6971C181.148 50.551 180.851 50.311 180.631 50.003C180.425 49.7 180.318 49.3368 180.326 48.9664H181.366C181.357 49.122 181.384 49.2777 181.442 49.4212C181.501 49.5647 181.591 49.6922 181.706 49.7939C181.989 50.0076 182.336 50.1116 182.686 50.0875C182.979 50.1098 183.27 50.0282 183.512 49.8562C183.597 49.7915 183.667 49.7081 183.718 49.6119C183.768 49.5158 183.798 49.4093 183.804 49.3Z" fill="#004C99"/>
<path d="M186.956 0C185.362 0 183.804 0.488987 182.479 1.40514C181.154 2.32128 180.122 3.62344 179.512 5.14694C178.902 6.67044 178.742 8.34686 179.053 9.9642C179.364 11.5815 180.132 13.0672 181.258 14.2332C182.385 15.3992 183.821 16.1933 185.384 16.515C186.947 16.8367 188.567 16.6716 190.039 16.0406C191.511 15.4095 192.77 14.3408 193.655 12.9697C194.541 11.5986 195.013 9.98663 195.013 8.3376C195.011 6.12706 194.161 4.00772 192.651 2.44463C191.14 0.881533 189.092 0.00235541 186.956 0ZM186.956 15.6341C185.72 15.6372 184.507 15.2961 183.443 14.6464C183.914 14.6408 184.384 14.5871 184.845 14.4863C185.32 14.3705 185.785 14.2112 186.233 14.0102C186.869 13.7708 187.438 13.3754 187.893 12.8579C188.248 12.4312 188.656 12.0543 189.106 11.7367C189.562 11.4132 190.045 11.1333 190.55 10.9003C190.729 10.8111 190.924 10.7626 191.122 10.7579C191.474 10.7433 191.819 10.6556 192.137 10.4999C192.395 10.4094 192.66 10.3365 192.928 10.2819C192.962 10.2819 193.014 10.2819 193.027 10.2151C193.04 10.1484 192.928 10.1662 192.881 10.1395C192.539 10.0552 192.205 9.9406 191.883 9.79691C191.664 9.73966 191.435 9.73966 191.217 9.79691C190.901 9.8967 190.609 10.0617 190.357 10.2819C189.937 10.6422 189.468 10.9347 188.964 11.1494C188.599 11.3056 188.216 11.4117 187.824 11.4653C187.719 11.4892 187.611 11.4892 187.506 11.4653C187.852 11.2807 188.16 11.0284 188.413 10.7223C188.602 10.4544 188.804 10.1974 189.02 9.95263C189.362 9.65484 189.724 9.38134 190.103 9.134L190.993 8.61345C191.173 8.50974 191.365 8.4319 191.565 8.3821C191.697 8.34615 191.833 8.32821 191.969 8.32871C192.348 8.24848 192.717 8.11995 193.065 7.94608C193.22 7.89714 193.392 7.8838 193.547 7.81707C193.573 7.81707 193.603 7.76367 193.581 7.72808L193.547 7.70584C193.143 7.64892 192.747 7.54596 192.365 7.39885C192.034 7.3292 191.69 7.37619 191.389 7.53232C191.083 7.73253 190.817 7.97722 190.529 8.20858L190.271 8.38655C189.929 8.63722 189.552 8.83088 189.153 8.96047C188.773 9.0812 188.376 9.13534 187.979 9.12065C187.909 9.12184 187.84 9.10344 187.78 9.06741C187.719 9.03138 187.669 8.97904 187.635 8.91598C187.557 8.75009 187.508 8.57059 187.493 8.38655C187.493 8.27087 187.493 8.1552 187.463 8.03952C187.442 7.6908 187.452 7.34076 187.493 6.99398C187.564 6.69112 187.596 6.37999 187.588 6.06857C187.515 5.78828 187.158 5.46794 186.337 4.76498C185.516 4.03102 184.803 3.17663 184.221 2.229C184.178 2.14891 184.127 2.02879 184.105 2.02879C184.084 2.02879 183.998 2.08218 183.963 2.12667C183.792 2.36754 183.67 2.64233 183.606 2.93396C183.542 3.22558 183.536 3.52779 183.589 3.82177C183.709 4.43853 183.99 5.00944 184.402 5.47238C184.635 5.74426 184.837 6.04281 185.004 6.3622C185.124 6.62239 185.171 6.91202 185.141 7.19864L184.496 6.71369C184.496 6.71369 184.221 6.51792 183.864 6.23763C183.376 5.90481 182.932 5.5069 182.544 5.05417C182.54 5.04932 182.535 5.04546 182.529 5.04282C182.523 5.04018 182.516 5.03882 182.51 5.03882C182.504 5.03882 182.497 5.04018 182.491 5.04282C182.485 5.04546 182.48 5.04932 182.476 5.05417C182.42 5.08976 182.411 5.1565 182.398 5.24993C182.295 5.97068 182.261 6.80267 182.648 7.40774C182.887 7.76374 183.159 8.09457 183.46 8.39544C183.654 8.5912 183.864 8.78252 184.071 8.96493C184.292 9.11939 184.446 9.35728 184.501 9.62784C184.516 9.91677 184.45 10.2041 184.312 10.4554C184.212 10.6799 184.074 10.8835 183.903 11.056C183.641 11.2206 183.28 11.1183 182.974 11.1272C182.764 11.1272 182.622 11.363 182.544 11.5276C182.399 11.73 182.329 11.9793 182.347 12.2306C182.389 12.4812 182.473 12.7222 182.596 12.9424C182.639 13.0003 182.699 13.0848 182.781 13.0625C182.918 13.0395 183.047 12.9762 183.151 12.8801C183.554 12.4311 184.081 12.1205 184.66 11.9903C184.352 12.1846 184.084 12.4384 183.869 12.7378C183.344 13.3562 182.871 13.6276 182.149 13.4719C182.057 13.4578 181.968 13.4261 181.887 13.3784C180.67 12.0255 179.99 10.2481 179.982 8.3999C179.982 6.47064 180.723 4.6204 182.041 3.25621C183.359 1.89202 185.147 1.12562 187.012 1.12562C188.876 1.12562 190.664 1.89202 191.982 3.25621C193.301 4.6204 194.041 6.47064 194.041 8.3999C194.002 10.3232 193.24 12.155 191.917 13.5065C190.595 14.858 188.815 15.6228 186.956 15.6386V15.6341Z" fill="#004C99"/>
</g>
<defs>
<clipPath id="clip0">
<rect width="195" height="51" fill="white"/>
</clipPath>
</defs>
</svg>
