<svg width="220" height="35" viewBox="0 0 220 35" fill="none" xmlns="http://www.w3.org/2000/svg">
<path fill-rule="evenodd" clip-rule="evenodd" d="M108.452 2.36067C115.621 2.36067 120.275 6.19177 119.989 11.3032H90.3272C93.7194 6.19177 101.184 2.36067 108.452 2.36067ZM119.891 12.0935C119.792 12.6836 119.605 13.3738 119.407 13.964L115.818 23.7968H99.2416L101.953 16.2246H106.026L106.805 13.964L107.485 12.0935H119.891ZM115.522 24.577L112.327 33.5196H99.7247L103.018 24.577H115.522ZM101.569 12.0935C100.257 16.0246 98.8668 19.9157 97.3975 23.7968H85.3868L88.9762 13.964C89.1833 13.3038 89.4791 12.6736 89.844 12.0935H101.569ZM97.2102 24.577C96.0466 27.5279 94.9816 30.5787 93.9166 33.5196H81.896L85.091 24.577H97.2102ZM34.8884 3.1409H60.5764L57.5688 11.4033H32.078L34.8884 3.1409ZM50.7844 12.0935L46.5244 23.7968H33.922L38.182 12.0935H50.7844ZM46.2286 24.577L43.0336 33.4296H30.4312L33.6262 24.577H46.2286ZM204.104 2.36067C212.436 2.36067 218.255 6.00171 219.615 11.4033H181.917C187.242 5.99171 195.771 2.36067 204.104 2.36067ZM219.813 12.0935C220.197 13.964 220 15.9245 219.231 17.9951C218.422 20.1458 217.209 22.1263 215.641 23.7968H198.582C201.974 23.0066 205.169 20.7459 206.145 17.9951C207.112 15.1443 205.563 12.7837 202.467 12.0935H219.813ZM214.961 24.577C209.725 29.9886 201.106 33.7196 192.675 33.7196C184.342 33.7196 178.426 29.9886 177.075 24.577H214.961ZM176.878 23.7968C176.68 22.0263 176.878 20.0557 177.558 17.9951C178.337 15.9346 179.589 13.964 181.246 12.0935H198.493C194.904 12.7837 191.61 15.1443 190.545 17.9951C189.579 20.7459 191.028 23.0066 193.937 23.7968H176.878ZM154.099 33.4296H141.891L145.095 24.577H157.402L155.371 30.0786L154.099 33.4296ZM145.372 23.7968L149.632 12.0935H161.938L160.972 14.5542C161.741 13.964 162.52 13.3738 163.2 12.7837L163.881 12.0935H176.483C176.483 12.0935 176.483 12.1935 176.385 12.1935C175.605 13.0737 174.935 14.154 173.959 14.8442L171.73 16.7148L171.631 16.9148C174.728 16.9148 176.187 19.9657 175.024 23.7968H162.618C162.717 22.2264 161.652 21.046 159.907 21.046C159.522 21.046 159.039 21.146 158.644 21.146L157.678 23.7968H145.372ZM149.937 11.4033L152.945 3.1409H165.153L162.145 11.4033H149.937ZM164.561 11.4033C164.946 10.9131 165.242 10.523 165.626 10.0229C166.79 8.7425 167.855 7.37211 168.92 5.99171L171.247 3.1409H183.849C182.784 4.42126 181.818 5.79165 180.753 6.97199C179.589 8.44241 178.426 9.92284 177.164 11.3933L164.561 11.4033ZM174.836 24.577L171.543 33.4296H159.335L162.53 24.577H174.836ZM134.13 3.1409H149.346L146.338 11.4033H122.109V11.3032C123.766 6.78194 129.091 3.1409 134.13 3.1409ZM135.106 12.0935C135.008 12.3835 134.919 12.6836 134.82 12.9737L134.919 12.8737C135.106 13.3638 135.205 13.854 135.402 14.3441V14.5442L136.95 15.7245L137.049 15.8245H137.147L140.441 18.1852C142.285 19.2655 143.251 21.3361 142.965 23.7868H129.771V23.6868L129.19 22.2163L127.641 21.036L127.444 20.846C127.444 20.846 127.543 20.846 127.543 20.7459L124.348 18.4853C123.963 18.2852 123.667 17.9951 123.381 17.7951L123.086 17.505C121.823 16.2246 121.34 14.2641 121.823 12.0935H135.106ZM142.758 24.577C142.66 24.7771 142.571 25.0672 142.571 25.2672C140.924 29.7885 135.501 33.4296 130.452 33.4296H113.885L117.08 24.577H142.758ZM70.753 26.5476L68.2286 33.4296H80.1506L82.675 26.5476C82.8722 25.8574 83.0596 25.1672 83.2568 24.577H71.1376C71.1376 25.1672 70.9404 25.8574 70.753 26.5476ZM83.3456 23.7968C83.9274 20.7459 83.1483 18.4853 81.4029 18.1952C84.3119 16.5247 86.4419 14.4641 87.4083 12.1035H75.1116C75.792 12.3935 76.078 12.9837 75.792 13.7739C75.4074 14.7542 74.2438 15.5444 73.1788 15.5444L70.753 15.6445L68.0313 23.2066L71.1376 23.3067V23.7968H83.3456ZM87.6154 11.4033C89.065 6.39183 84.1246 2.4607 76.4724 2.4607C68.7216 2.4607 60.961 6.39183 58.831 11.4033H87.6154ZM58.5352 12.0935L54.2752 23.7968H66.0986L70.3586 12.0935H58.5352ZM53.9794 24.577L50.6858 33.4296H62.5092L65.8027 24.577H53.9794ZM7.07037 1.28037H7.16898H7.07037ZM7.07037 1.38039C2.71179 5.50157 0 11.6033 0 18.2852C0 24.8771 2.52443 30.7688 6.68579 34.9V35V34.9L11.5276 29.1983C12.4939 30.9688 13.7562 32.6393 15.117 34.1097L29.2676 17.405L15.2156 0C13.5688 1.77051 12.1094 3.83109 11.0444 6.19177L20.7378 18.2852L11.5374 29.1983C9.5948 25.6573 8.5298 21.5262 8.5298 17.1049C8.5298 13.1738 9.39758 9.4327 10.9556 6.19177L7.07037 1.38039Z" fill="#33348E"/>
</svg>
