<svg width="15" height="16" viewBox="0 0 15 16" fill="none" xmlns="http://www.w3.org/2000/svg">
<path fill-rule="evenodd" clip-rule="evenodd" d="M7.47738 15.3334C3.42729 15.3334 0.144043 12.0502 0.144043 8.00008C0.144043 3.94999 3.42729 0.666748 7.47738 0.666748C11.5275 0.666748 14.8107 3.94999 14.8107 8.00008C14.8107 12.0502 11.5275 15.3334 7.47738 15.3334ZM12.4104 11.4165C13.0831 10.447 13.4774 9.26956 13.4774 8.00008C13.4774 4.68637 10.7911 2.00008 7.47738 2.00008C4.16367 2.00008 1.47738 4.68637 1.47738 8.00008C1.47738 9.26956 1.87163 10.447 2.54438 11.4165C3.29468 10.4255 5.05778 10.0001 7.47737 10.0001C9.89697 10.0001 11.6601 10.4255 12.4104 11.4165ZM11.4538 12.4933C11.2587 11.7916 9.85696 11.3334 7.47737 11.3334C5.09779 11.3334 3.69604 11.7916 3.50092 12.4933C4.55957 13.4309 5.952 14.0001 7.47738 14.0001C9.00275 14.0001 10.3952 13.4309 11.4538 12.4933ZM7.47738 4.00008C5.86344 4.00008 4.81071 5.17059 4.81071 6.66675C4.81071 8.95166 5.98462 10.0001 7.47738 10.0001C8.9561 10.0001 10.144 8.98649 10.144 6.80008C10.144 5.28113 9.08684 4.00008 7.47738 4.00008ZM6.14404 6.66675C6.14404 8.17959 6.68952 8.66675 7.47738 8.66675C8.26251 8.66675 8.81071 8.19901 8.81071 6.80008C8.81071 5.96703 8.28781 5.33342 7.47738 5.33342C6.6332 5.33342 6.14404 5.8773 6.14404 6.66675Z" fill="black"/>
</svg>
