<svg width="26" height="33" viewBox="0 0 26 33" fill="none" xmlns="http://www.w3.org/2000/svg">
<path d="M21.5949 20.2675C21.0731 20.104 20.7817 19.5457 20.9442 19.0209C21.1068 18.4961 21.662 18.2031 22.1839 18.3666C23.0947 18.6527 23.8165 18.9877 24.326 19.3543C25.0252 19.8573 25.3904 20.4548 25.3904 21.1225C25.3904 22.4297 23.8504 23.4768 21.361 24.1131C19.2582 24.6503 16.3696 24.9828 13.1952 24.9828C10.0208 24.9828 7.13219 24.6503 5.02931 24.1131C2.53991 23.4771 1 22.4297 1 21.1225C1 20.4862 1.33307 19.913 1.97419 19.4233C2.44197 19.066 3.10164 18.7391 3.93463 18.4567C4.45247 18.2824 5.01264 18.5632 5.18597 19.084C5.35931 19.6047 5.08 20.168 4.56216 20.3424C3.93062 20.5564 3.46128 20.7805 3.16745 21.0051C3.04664 21.0974 2.98392 21.1073 2.98392 21.1225C2.98392 21.3963 3.95224 21.7806 5.5175 22.1808C7.46929 22.6795 10.183 22.988 13.1952 22.988C16.2077 22.988 18.9214 22.6795 20.8729 22.1808C22.4381 21.7809 23.4065 21.3963 23.4065 21.1225C23.4065 21.1123 23.3283 21.0822 23.1791 20.975C22.8401 20.7311 22.3065 20.4912 21.5949 20.2678V20.2675Z" fill="white" stroke="#0A6397" stroke-width="0.6"/>
<path d="M23.6696 25.0888C24.1467 24.8222 24.7486 24.9946 25.014 25.4744C25.2791 25.9541 25.1076 26.5594 24.6306 26.8263C23.5322 27.4399 21.855 27.9352 19.8449 28.2708C17.8835 28.5979 15.5891 28.7816 13.2025 28.7816C10.7984 28.7816 8.49132 28.5958 6.52377 28.2652C4.51019 27.9268 2.83184 27.4253 1.73777 26.8039C1.26288 26.5348 1.09448 25.9296 1.36205 25.452C1.62962 24.9745 2.2315 24.8051 2.70639 25.0742C3.59129 25.5769 5.04656 25.9989 6.84911 26.3018C8.6977 26.6122 10.8914 26.7868 13.2025 26.7868C15.5028 26.7868 17.6861 26.6144 19.5275 26.3074C21.3199 26.0085 22.7736 25.59 23.67 25.0891L23.6696 25.0888Z" fill="white" stroke="#0A6397" stroke-width="0.6"/>
<path d="M12.9986 1C15.8455 1 18.4241 2.16112 20.2903 4.03748C22.1565 5.91416 23.3109 8.50671 23.3109 11.3702C23.3109 14.2334 22.1562 16.8262 20.2903 18.7026C18.4241 20.5793 15.8458 21.7401 12.9989 21.7401C10.1517 21.7401 7.573 20.579 5.7068 18.7026C3.8406 16.8259 2.68628 14.2334 2.68628 11.3702C2.68628 8.50702 3.84091 5.91385 5.7068 4.03748C7.573 2.16112 10.1514 1 12.9989 1H12.9986ZM18.8879 5.44779C17.381 3.93247 15.2986 2.99475 12.9986 2.99475C10.6983 2.99475 8.61578 3.93215 7.10891 5.44748C5.60205 6.9628 4.66958 9.05698 4.66958 11.3702C4.66958 13.6828 5.60174 15.777 7.10891 17.2923C8.61578 18.8076 10.6986 19.745 12.9986 19.745C15.2986 19.745 17.3811 18.8076 18.8876 17.2923C20.3945 15.777 21.3269 13.6828 21.3269 11.3702C21.3269 9.05698 20.3948 6.96311 18.8879 5.44779Z" fill="white" stroke="#0A6397" stroke-width="0.6"/>
<path d="M12.0161 5.5443C12.0183 4.99559 12.4623 4.55283 13.0079 4.55469C13.5536 4.55687 13.9939 5.00336 13.992 5.55207L13.9895 5.87147C13.9874 6.42019 13.5434 6.86295 12.9977 6.86108C12.4521 6.85891 12.0118 6.41242 12.0137 5.86371L12.0161 5.5443ZM9.64383 14.4104C9.34443 13.9502 9.47266 13.3325 9.93056 13.0311C10.3882 12.7301 11.0024 12.859 11.3021 13.3195C11.388 13.4515 11.5032 13.5596 11.6361 13.6323C11.7594 13.6998 11.9061 13.7383 12.0665 13.7383H14.0118C14.1928 13.7383 14.3588 13.6628 14.479 13.5419C14.5991 13.4211 14.6742 13.2542 14.6742 13.0721C14.6742 13.0203 14.673 12.9864 14.6705 12.9705C14.6653 12.9364 14.6575 12.9028 14.6477 12.872C14.534 12.5119 13.747 12.4656 12.9588 12.4197C11.6138 12.3407 10.2655 12.2615 9.60614 10.9018C9.52056 10.7291 9.45382 10.5392 9.40778 10.3376C9.36298 10.1403 9.33887 9.94113 9.33887 9.74445C9.33887 9.01149 9.63641 8.34596 10.1156 7.86436C10.5945 7.38276 11.2567 7.08355 11.9852 7.08355H13.9305C14.4224 7.08355 14.892 7.2128 15.3064 7.439C15.7315 7.6711 16.0924 8.00511 16.3529 8.40623C16.6523 8.86639 16.5241 9.48408 16.0662 9.78547C15.6086 10.0865 14.9943 9.9576 14.6946 9.49713C14.6087 9.36508 14.4935 9.25695 14.3606 9.18456C14.237 9.11713 14.0906 9.07861 13.9302 9.07861H11.9849C11.8036 9.07861 11.6379 9.1538 11.5177 9.27497C11.3976 9.39584 11.3225 9.56269 11.3225 9.74476C11.3225 9.80256 11.3274 9.85258 11.337 9.89391C11.3469 9.93678 11.3639 9.98339 11.3867 10.0303V10.0343C11.536 10.3432 12.3026 10.3882 13.0673 10.433C14.537 10.5187 16.0044 10.6054 16.5305 12.2721C16.5713 12.4004 16.6022 12.5328 16.6232 12.667C16.6461 12.8161 16.6581 12.9522 16.6581 13.0725C16.6581 13.8048 16.3606 14.4709 15.8814 14.9525C15.4022 15.4345 14.74 15.7337 14.0118 15.7337H12.0665C11.5746 15.7337 11.1046 15.6044 10.6906 15.3782C10.2652 15.1458 9.90461 14.8115 9.64414 14.411L9.64383 14.4104ZM13.9951 17.135C13.9951 17.6858 13.5508 18.1323 13.0033 18.1323C12.4555 18.1323 12.0115 17.6855 12.0115 17.135V16.9209C12.0115 16.37 12.4558 15.9235 13.0033 15.9235C13.5511 15.9235 13.9951 16.3703 13.9951 16.9209V17.135Z" fill="white" stroke="#0A6397" stroke-width="0.6"/>
<path d="M23.6695 28.8891C24.1465 28.6225 24.7484 28.7949 25.0138 29.2747C25.2789 29.7544 25.1074 30.3597 24.6304 30.6266C23.532 31.2405 21.8549 31.7355 19.8444 32.0711C17.883 32.3982 15.5889 32.5819 13.2021 32.5819C10.7979 32.5819 8.49083 32.3961 6.52298 32.0655C4.5094 31.7274 2.83105 31.2256 1.73728 30.6042C1.26239 30.3351 1.09399 29.7299 1.36156 29.2523C1.62913 28.7747 2.23102 28.6054 2.70592 28.8745C3.59051 29.3772 5.04577 29.7995 6.84832 30.1021C8.69691 30.4128 10.8906 30.5871 13.2021 30.5871C15.5024 30.5871 17.6856 30.4147 19.5268 30.1077C21.3194 29.8085 22.7731 29.3903 23.6695 28.8894V28.8891Z" fill="white" stroke="#0A6397" stroke-width="0.6"/>
</svg>
