<svg width="30" height="34" viewBox="0 0 30 34" fill="none" xmlns="http://www.w3.org/2000/svg">
<path d="M1.79623 4.10247L14.6715 1.02708C14.8312 0.988862 14.9916 0.99228 15.1405 1.02988L28.037 4.11024C28.4931 4.21868 28.8002 4.6285 28.7999 5.08027L28.8002 18.7101C28.8002 21.6572 27.175 24.4545 24.913 26.8143C22.0281 29.8242 18.0594 32.156 15.2137 33.1205C15.0021 33.1916 14.7827 33.1869 14.5862 33.1205C11.7405 32.156 7.77177 29.8242 4.88689 26.8143C2.62489 24.4542 1 21.6569 1 18.7101V5.08027C1 4.59712 1.34203 4.19382 1.79592 4.10247H1.79623ZM14.9001 3.02214L2.98392 5.86823V18.7104C2.98392 21.0774 4.37585 23.4142 6.31281 25.4354C8.8674 28.1007 12.3254 30.1827 14.9001 31.1245C17.4748 30.1827 20.9331 28.1007 23.4874 25.4354C25.4247 23.4142 26.8163 21.0774 26.8163 18.7104V5.86823L14.8998 3.02214H14.9001Z" fill="white" stroke="#0A6397" stroke-width="0.6"/>
<path d="M5.95125 7.61593L14.6717 5.53294C14.8315 5.49472 14.9918 5.49814 15.1408 5.53574L23.8822 7.6237C24.3383 7.73213 24.6454 8.14196 24.6451 8.59373L24.6454 18.1806C24.6454 20.2723 23.5059 22.2435 21.9196 23.8983C19.9271 25.9775 17.1828 27.5889 15.214 28.2563C15.0023 28.3274 14.783 28.3228 14.5865 28.2563C12.6177 27.5892 9.87337 25.9775 7.8808 23.8983C6.29484 22.2435 5.15503 20.2726 5.15503 18.1806V8.59373C5.15503 8.11058 5.49706 7.70728 5.95095 7.61593H5.95125ZM14.9004 7.528L7.13896 9.38168V18.1806C7.13896 19.6925 8.04517 21.2029 9.3064 22.5187C10.969 24.2534 13.2047 25.6156 14.9004 26.2578C16.596 25.6156 18.8318 24.2534 20.4943 22.5187C21.7556 21.2029 22.6618 19.6925 22.6618 18.1806V9.38168L14.9004 7.528Z" fill="white" stroke="#0A6397" stroke-width="0.6"/>
</svg>
