<svg width="1865" height="759" fill="none" xmlns="http://www.w3.org/2000/svg"><path d="M1001.81 177.895l-.08 1.998.08.002v-2zm78.59 0h2c0-1.105-.9-2-2-2v2zm70.47 0l.07-1.999a2 2 0 00-2.07 1.999h2zm49.44-3.754l.49 1.94.02-.006-.51-1.934zm25.69-8.558l.73 1.862.01-.004-.74-1.858zm66.57-22.373l.46 1.947a1.999 1.999 0 00-.16-3.924l-.3 1.977zM1281 128.345l1.84.786c0-.009.01-.019.01-.028l-1.85-.758zM1300.99 83l1.82.815a1.98 1.98 0 00-.19-1.965 1.988 1.988 0 00-1.78-.844l.15 1.994zm-16.08 1.201l.14 1.995h.01l-.15-1.995zm-16.83 7.658l1.31 1.51v-.004l-1.31-1.506zm-281.444 59.009l.713 1.868c.382-.145.71-.405.94-.743l-1.653-1.125zm-8.265 3.153l.689 1.878.024-.009-.713-1.869zm148.759 11.412l.36 1.968a1.998 1.998 0 001.64-1.968h-2zm0-7.958h2a2 2 0 00-1.67-1.974l-.33 1.974zm-39.07 7.657l2 .096v-.096h-2zm20.44-12.612h2c0-1.105-.9-2-2-2v2zm-10.67 0v-2c-1.1 0-2 .895-2 2h2zm0 18.318h-2c0 1.105.9 2 2 2v-2zm10.67 0v2c1.1 0 2-.895 2-2h-2zm123.37-14.415l-.49 1.941.01.003.02.003.46-1.947zm-3.46.151l-.55-1.924-.09.028-.1.036.74 1.86zm-61.01 14.864l.01-2h-.01v2zm-5.56 6.457l-1.99.095.09 1.88 1.88.025.02-2zm44.63-5.556l-.51-1.933-.01.004.52 1.929zm33.21-12.012l.78 1.843.06-.025.05-.029-.89-1.789zm-.15-2.102l.55-1.923-.05-.013-.04-.011-.46 1.947zm-91.51 17.517a2 2 0 002.4-3.201l-2.4 3.201zm-.6-2.952l-1.2 1.6 1.2-1.6zm-53.2-3.952c-1.1 0-2 .895-2 2 0 1.104.9 2 2 2v-4zm52.6-15.117l-.73 1.865c.08.03.16.055.24.075l.49-1.94zm-32.61-12.613v-2c-.96 0-1.79.687-1.97 1.633a2.01 2.01 0 001.25 2.233l.72-1.866zm-64.46 4.805l.27-1.981-.01-.001-.26 1.982zm.6-8.559v2c1.05 0 1.92-.817 1.99-1.869a1.998 1.998 0 00-1.73-2.113l-.26 1.982zm-.15 0v-2c-1.05 0-1.92.804-2 1.846a2.006 2.006 0 001.69 2.131l.31-1.977zm243.12 5.856l1.62 1.172c.42-.575.5-1.328.21-1.977a1.984 1.984 0 00-1.6-1.181l-.23 1.986zm-12.92-1.501l.23-1.987a1.942 1.942 0 00-.17-.012l-.06 1.999zm-46.13-1.352l-.07 1.999.01.001.06-2zm-.75 6.307l-.07 1.999h.01l.06-1.999zm44.48.6l.05 2 .01-.001-.06-1.999zm13.37-1.351l.61 1.906c.4-.13.76-.387 1.01-.734l-1.62-1.172zm-94.97 15.915l.4 1.96a1.99 1.99 0 001.6-1.971 1.99 1.99 0 00-1.62-1.953l-.38 1.964zm-53.34-2.102l.45 1.948h.01l-.46-1.948zm2.55 6.156l-.15 1.994v.001l.15-1.995zm162.44-20.57l.34 1.97a2.01 2.01 0 001.65-1.74c.1-.879-.39-1.72-1.2-2.068l-.79 1.838zm-34.11-2.853l.41 1.957.02-.003-.43-1.954zm1.5 4.355l.25-1.985-.01-.001-.24 1.986zm-241.62 11.562h2-2zm264.16-68.62l1.83.818c.28-.635.21-1.372-.18-1.946a1.99 1.99 0 00-1.75-.869l.1 1.998zm-18.48 41.292v2c.79 0 1.5-.463 1.82-1.183l-1.82-.817zm-19.38-2.853l1.69 1.061c.01-.009.01-.019.02-.028l-1.71-1.033zm21.18-35.135l-1.68-1.074-.03.041 1.71 1.033zm4.66-2.703v2c.03 0 .07 0 .1-.002l-.1-1.998zm-19.99 27.279c-1.1 0-2 .896-2 2 0 1.105.9 2 2 2v-4zm2.86 4c1.1 0 2-.895 2-2 0-1.104-.9-2-2-2v4zm7.36-21.567c-1.1 0-2 .896-2 2 0 1.105.9 2 2 2v-4zm2.86 4c1.1 0 2-.895 2-2 0-1.104-.9-2-2-2v4zm220.35 444.617c-1.1 0-2 .895-2 2 0 1.104.9 2 2 2v-4zm161.63 4c1.11 0 2-.896 2-2 0-1.105-.89-2-2-2v4zm57.59-39.296l1.52 1.298c.04-.048.08-.099.12-.151l-1.64-1.147zm-32.92 38.576l1.51 1.308.01-.009-1.52-1.299zm-2.72 6.163l-1.98-.274c0 .01-.01.019-.01.028l1.99.246zm-1.12 9.044v2c1.01 0 1.86-.752 1.98-1.754l-1.98-.246zm-356.1-13.286l-1.87.713a1.996 1.996 0 001.87 1.287v-2zm-14.9-39.057l-1.88.698c.01.005.01.01.01.015l1.87-.713zm95.63-5.922h-2c0 .062 0 .124.01.186l1.99-.186zm247.65 0l-1.98-.248c0 .02-.01.041-.01.062l1.99.186zm61.76-1.121v2l.06-.001-.06-1.999zm-201.6-5.122l-1.99-.181-.01.091v.09h2zm0-18.328l-1.99-.166-.01.083v.083h2zm67.12 0l-2-.166v.166h2zm-198.8-3.841v-2c-1.1 0-2 .896-2 2h2zm6.49 0h2c0-1.104-.89-2-2-2v2zm0 6.483v2c1.11 0 2-.896 2-2h-2zm-6.49 0h-2c0 1.104.9 2 2 2v-2zm-10.09-6.483v-2c-1.1 0-2 .896-2 2h2zm6.49 0h2c0-1.104-.9-2-2-2v2zm0 6.483v2c1.1 0 2-.896 2-2h-2zm-6.49 0h-2c0 1.104.9 2 2 2v-2zm-10.01-6.323v-2c-1.11 0-2 .895-2 2h2zm6.49 0h2c0-1.105-.9-2-2-2v2zm0 6.483v2c1.1 0 2-.896 2-2h-2zm-6.49 0h-2c0 1.104.89 2 2 2v-2zm-10.01-6.483v-2c-1.11 0-2 .895-2 2h2zm6.48 0h2c0-1.105-.89-2-2-2v2zm0 6.483v2c1.11 0 2-.896 2-2h-2zm-6.48 0h-2c0 1.104.89 2 2 2v-2zm-28.68 18.569c-1.1 0-2 .895-2 2 0 1.104.9 2 2 2v-4zm56.87 4c1.11 0 2-.896 2-2 0-1.105-.89-2-2-2v4zm327.04 82.307c.94.571 2.17.267 2.74-.679.57-.946.27-2.175-.68-2.746l-2.06 3.425zm-3.22-4.273l1.04-1.713-.01-.003-1.03 1.716zm-14.33-.16l.95 1.756c.01-.007.03-.013.04-.02l-.99-1.736zm-.88.48l-.96-1.756c-.01.004-.02.008-.02.011l.98 1.745zm-14.58-.32l1.06-1.697c-.01-.003-.01-.007-.02-.01l-1.04 1.707zm-14.18-.481l-.94-1.763-.01.002.95 1.761zm-2.08 1.121l.94 1.763.01-.002-.95-1.761zm-14.18-.48l1.04-1.707a.938.938 0 00-.14-.082l-.9 1.789zm-.16-.08l-1.06 1.692c.05.035.11.068.17.097l.89-1.789zm-15.22-2.151a2.005 2.005 0 00-.79 2.719 2.006 2.006 0 002.72.782l-1.93-3.501zm232.95 27.146c.95.571 2.18.267 2.75-.679.57-.946.26-2.175-.68-2.745l-2.07 3.424zm-3.21-4.273l1.03-1.713v-.002l-1.03 1.715zm-14.34-.16l.96 1.756.03-.019-.99-1.737zm-.88.48l-.96-1.756c0 .004-.01.008-.02.012l.98 1.744zm-14.58-.32l1.06-1.696c0-.004-.01-.008-.01-.011l-1.05 1.707zm-14.17-.48l-.95-1.764v.002l.95 1.762zm-2.09 1.12l.95 1.763v-.002l-.95-1.761zm-14.17-.48l1.04-1.707c-.05-.029-.1-.057-.15-.082l-.89 1.789zm-.16-.08l-1.07 1.693c.06.035.11.067.17.096l.9-1.789zm-15.23-2.15a2.009 2.009 0 00-.78 2.718 2 2 0 002.72.782l-1.94-3.5zm-594.17-36.657c.95.571 2.18.267 2.75-.679.57-.946.26-2.175-.68-2.745l-2.07 3.424zm-3.21-4.273l1.03-1.713v-.002l-1.03 1.715zm-14.34-.16l.96 1.756.03-.019-.99-1.737zm-.88.48l-.96-1.756c0 .004-.01.008-.02.012l.98 1.744zm-14.58-.32l1.06-1.696c0-.004-.01-.008-.01-.011l-1.05 1.707zm-14.17-.48l-.95-1.764v.002l.95 1.762zm-2.09 1.12l.95 1.763v-.002l-.95-1.761zm-14.17-.48l1.04-1.707c-.05-.029-.1-.057-.15-.082l-.89 1.789zm-.16-.08l-1.07 1.693c.06.035.11.067.17.096l.9-1.789zm-15.23-2.15a2.009 2.009 0 00-.78 2.718 2 2 0 002.72.782l-1.94-3.5zm648.62 105.682c.91.625 2.16.394 2.78-.517.63-.911.39-2.156-.52-2.781l-2.26 3.298zm-1.33-3.34l1.13-1.649v-.003l-1.13 1.652zm-8.32-.105l1.05 1.699c.01-.007.03-.014.04-.022l-1.09-1.677zm-.51.317l-1.06-1.7c0 .005-.01.009-.02.014l1.08 1.686zm-8.46-.212l1.16-1.63c-.01-.004-.01-.008-.02-.012l-1.14 1.642zm-8.23-.317l-1.04-1.708v.003l1.04 1.705zm-1.21.74l1.04 1.708.01-.002-1.05-1.706zm-8.22-.317l1.14-1.642c-.05-.035-.1-.067-.16-.097l-.98 1.739zm-.1-.053l-1.16 1.627c.06.04.11.078.18.112l.98-1.739zm-9.34-1.957a2.002 2.002 0 002.14 3.386l-2.14-3.386zm-278.8-66.84c.94.571 2.17.267 2.74-.679.57-.946.27-2.175-.68-2.746l-2.06 3.425zm-3.22-4.273l1.04-1.713-.01-.003-1.03 1.716zm-14.33-.16l.95 1.756a.147.147 0 00.04-.02l-.99-1.736zm-.88.48l-.96-1.756c-.01.004-.02.008-.02.012l.98 1.744zm-14.58-.32l1.06-1.697c-.01-.003-.01-.007-.02-.01l-1.04 1.707zm-14.18-.48l-.94-1.764-.01.002.95 1.762zm-2.08 1.12l.94 1.763.01-.002-.95-1.761zm-14.18-.48l1.05-1.707c-.05-.03-.1-.057-.15-.082l-.9 1.789zm-.16-.08l-1.06 1.693c.05.034.11.067.17.096l.89-1.789zm-15.22-2.15a1.991 1.991 0 00-.78 2.718 1.992 1.992 0 002.71.782l-1.93-3.5zm219.56 167.088c.95.571 2.18.267 2.75-.679.57-.946.26-2.175-.68-2.745l-2.07 3.424zm-3.21-4.273l1.03-1.713v-.002l-1.03 1.715zm-14.34-.16l.96 1.756.03-.019-.99-1.737zm-.88.48l-.96-1.756c0 .004-.01.008-.02.012l.98 1.744zm-14.58-.32l1.06-1.696c0-.004-.01-.008-.01-.011l-1.05 1.707zm-14.17-.48l-.95-1.764v.002l.95 1.762zm-2.09 1.12l.95 1.763v-.002l-.95-1.761zm-14.17-.48l1.04-1.707c-.05-.029-.1-.057-.15-.082l-.89 1.789zm-.16-.08l-1.07 1.693c.06.035.11.067.17.096l.9-1.789zm-15.23-2.15a2.009 2.009 0 00-.78 2.718 2 2 0 002.72.782l-1.94-3.5zm56.82-119.483c.95.57 2.17.266 2.74-.68.58-.945.27-2.175-.67-2.745l-2.07 3.425zm-3.21-4.274l1.03-1.712v-.003l-1.03 1.715zm-14.34-.16l.96 1.756.03-.019-.99-1.737zm-.88.48l-.96-1.756c0 .004-.01.008-.02.012l.98 1.744zm-14.58-.32l1.06-1.696c0-.004-.01-.007-.02-.011l-1.04 1.707zm-14.17-.48l-.95-1.763v.002l.95 1.761zm-2.09 1.12l.95 1.764v-.002l-.95-1.762zm-14.17-.48l1.04-1.707c-.05-.029-.1-.057-.15-.082l-.89 1.789zm-.16-.08l-1.07 1.693c.06.035.11.067.17.096l.9-1.789zm-15.23-2.15a1.992 1.992 0 00-.78 2.718 2 2 0 002.72.782l-1.94-3.5zm140.84 18.17c.95.571 2.18.267 2.75-.679.57-.946.26-2.175-.68-2.745l-2.07 3.424zm-3.21-4.273l1.03-1.713v-.002l-1.03 1.715zm-14.34-.16l.96 1.756.03-.019-.99-1.737zm-.88.48l-.96-1.756c0 .004-.01.008-.02.012l.98 1.744zm-14.58-.32l1.06-1.696c0-.004-.01-.008-.01-.011l-1.05 1.707zm-14.17-.48l-.95-1.764v.002l.95 1.762zm-2.09 1.12l.95 1.763v-.002l-.95-1.761zm-14.17-.48l1.04-1.707c-.05-.029-.1-.057-.15-.082l-.89 1.789zm-.16-.08l-1.07 1.693c.06.035.11.067.17.096l.9-1.789zm-15.23-2.15a2.009 2.009 0 00-.78 2.718 2 2 0 002.72.782l-1.94-3.5zm204.84 44.035c.98.506 2.18.12 2.69-.862.51-.983.12-2.188-.86-2.694l-1.83 3.556zm-1.55-3.046l.91-1.778v-.002l-.91 1.78zm-8.32-.079l.84 1.813.03-.015-.87-1.798zm-.51.238l-.85-1.814c0 .003-.01.006-.02.01l.87 1.804zm-8.46-.159l.94-1.765c-.01-.003-.01-.006-.02-.009l-.92 1.774zm-8.23-.238l-.83-1.819v.002l.83 1.817zm-1.21.555l.83 1.819.01-.001-.84-1.818zm-8.22-.238l.92-1.773c-.05-.024-.09-.046-.14-.067l-.78 1.84zm-.1-.039l-.94 1.762c.05.028.1.054.16.078l.78-1.84zm-9.12-2.007a2.002 2.002 0 00-.96 2.662 1.996 1.996 0 002.66.955l-1.7-3.617zm-80.56-87.599c.95.568 2.18.261 2.74-.687.57-.947.26-2.175-.68-2.743l-2.06 3.43zm-13.31-1.875l.96 1.756.03-.019-.99-1.737zm-.88.48l-.96-1.756c0 .004-.01.008-.02.012l.98 1.744zm-14.58-.32l1.06-1.696c0-.004-.01-.007-.01-.011l-1.05 1.707zm-14.17-.48l-.95-1.763v.002l.95 1.761zm-3.03-.641a1.999 1.999 0 101.89 3.523l-1.89-3.523zm113-20.967c-1.1.04-1.96.966-1.92 2.07a1.997 1.997 0 002.07 1.928l-.15-3.998zm6.56.158l-.95-1.756c-.01.004-.02.007-.02.011l.97 1.745zm.88-.48l.96 1.756c.01-.004.02-.008.02-.012l-.98-1.744zm14.58.32l-1.06 1.697c.01.003.01.007.02.01l1.04-1.707zm14.18.48l.94 1.764.01-.002-.95-1.762zm3.03.641a1.995 1.995 0 00.81-2.709 1.998 1.998 0 00-2.71-.813l1.9 3.522zM1364.52 444c0-1.105-.9-2-2-2-1.11 0-2 .895-2 2h4zm-4 30.413c0 1.105.89 2 2 2 1.1 0 2-.895 2-2h-4zm417.28 92.839a1.995 1.995 0 002.01-1.992c0-1.104-.89-2.003-1.99-2.008l-.02 4zm-39-2.16l.01-2h-.01v2zm-7.85-1.441l-.65 1.89.01.002.64-1.892zm-11.29.881l-.92-1.773-.03.012.95 1.761zm-3.03-.641a1.995 1.995 0 00-.81 2.709 1.999 1.999 0 002.71.814l-1.9-3.523zm-400.38 4.24c.95.568 2.18.26 2.75-.687.56-.947.26-2.176-.69-2.744l-2.06 3.431zm-13.31-1.876l.96 1.756a.498.498 0 00.03-.019l-.99-1.737zm-.88.481l-.96-1.756c0 .003-.01.007-.02.011l.98 1.745zm-14.58-.321l1.06-1.696c0-.003-.01-.007-.01-.01l-1.05 1.706zm-14.17-.48l-.95-1.763v.002l.95 1.761zm-2.08 1.121l.94 1.763v-.002l-.94-1.761zm-14.18-.48l1.04-1.707c-.05-.03-.1-.057-.15-.082l-.89 1.789zm-.16-.081l-1.06 1.699.16.09.9-1.789zm-11.94-1.44l.62 1.904.01-.003-.63-1.901zm-36.12-1.04c-1.1 0-2 .896-2 2 0 1.105.9 2 2 2v-4zm88.34 21.524a1.999 1.999 0 10-1.91-3.512l1.91 3.512zm-1.84-1.276l-.95-1.756c-.01.004-.02.008-.02.012l.97 1.744zm-14.57-.32l1.06-1.696c-.01-.004-.02-.007-.02-.011l-1.04 1.707zm-14.18-.48l.94 1.768v-.005l-.94-1.763zm-31.32-.879c-1.1 0-2 .895-2 2 0 1.104.9 2 2 2v-4zm213.02-441.372c0 1.104.9 2 2 2 1.11 0 2-.896 2-2h-4zm9.74-10.624l.54 1.926a1.993 1.993 0 001.46-1.811l-2-.115zm44.49-11.036l-1.7 1.044c.44.729 1.3 1.093 2.14.908l-.44-1.952zm18.08 21.209a1.996 1.996 0 001.5 2.399 2.004 2.004 0 002.4-1.498l-3.9-.901zm-70.31 2.864c1.11 0 2-.896 2-2 0-1.105-.89-2-2-2v4zm-105.28-4c-1.1 0-2 .895-2 2 0 1.104.9 2 2 2v-4zm177.12 1.031c-1.1 0-2 .895-2 2 0 1.104.9 2 2 2v-4zm122.21 4c1.11 0 2-.896 2-2 0-1.105-.89-2-2-2v4zM1384.95 129c-1.11 0-2 .896-2 2 0 1.105.89 2 2 2v-4zm70.7 4c1.1 0 2-.895 2-2 0-1.104-.9-2-2-2v4zM429.283 338.212a2 2 0 004 0h-4zm9.742-10.624l.537 1.926a1.998 1.998 0 001.459-1.811l-1.996-.115zm44.487-11.036l-1.706 1.044a2 2 0 002.14.908l-.434-1.952zm18.076 21.209a1.999 1.999 0 103.897.901l-3.897-.901zm-70.305 2.864a2 2 0 000-4v4zm-105.283-4a2 2 0 100 4v-4zm177.124 1.031a2 2 0 100 4v-4zm122.211 4a2 2 0 000-4v4zM365.945 326a2 2 0 000 4v-4zm70.705 4a2 2 0 100-4v4zM170.283 485.212a2 2 0 004 0h-4zm9.742-10.624l.537 1.926a1.998 1.998 0 001.459-1.811l-1.996-.115zm44.487-11.036l-1.706 1.044a2 2 0 002.14.908l-.434-1.952zm18.076 21.209a1.999 1.999 0 103.897.901l-3.897-.901zm-70.305 2.864a2 2 0 000-4v4zm-105.283-4a2 2 0 100 4v-4zm177.124 1.031a2 2 0 100 4v-4zm122.211 4a2 2 0 000-4v4zM106.945 473a2 2 0 000 4v-4zm70.705 4a2 2 0 100-4v4zm19.633 176.135a2 2 0 004 0h-4zm9.742-10.624l.537 1.927a2 2 0 001.459-1.812l-1.996-.115zm44.487-11.036l-1.706 1.045a2.002 2.002 0 002.14.908l-.434-1.953zm18.076 21.21a2 2 0 103.897.9l-3.897-.9zm-70.305 2.863a2 2 0 000-4v4zm-105.283-4a2 2 0 100 4v-4zm177.124 1.031a2 2 0 000 4v-4zm122.211 4a2 2 0 000-4v4zm-259.39-15.655a2 2 0 000 4v-4zm70.705 4a2 2 0 000-4v4zm1474.81-421.78v2c.53 0 1.04-.211 1.41-.586.38-.375.59-.884.59-1.414h-2zm7.62-5.735a2 2 0 001.27-3.795l-1.27 3.795zm30.77-5.342c-1.1 0-2 .896-2 2 0 1.105.9 2 2 2v-4zm7.29 11.077c0 1.104.9 2 2 2 1.11 0 2-.896 2-2h-4zm-73.14-2c-1.1 0-2 .895-2 2 0 1.104.9 2 2 2v-4zm109.31 4c1.1 0 2-.896 2-2 0-1.105-.9-2-2-2v4zm-34.06-4c-1.11 0-2 .895-2 2 0 1.104.89 2 2 2v-4zm-41.62-5.874a1.99 1.99 0 001.74 2.227c1.1.133 2.09-.647 2.23-1.744l-3.97-.483zm30.38-.765a1.993 1.993 0 002.38 1.514 2.003 2.003 0 001.52-2.389l-3.9.875zM264.456 550.067v2a2 2 0 002-2h-2zm7.626-5.735a2 2 0 101.264-3.795l-1.264 3.795zm30.772-5.341a2 2 0 100 4v-4zm7.289 11.076a2 2 0 004 0h-4zm-73.143-2a2 2 0 100 4v-4zm109.309 4a2 2 0 000-4v4zm-34.062-4a2 2 0 100 4v-4zm-41.622-5.874a2 2 0 103.971.484l-3.971-.484zm30.38-.765a2.001 2.001 0 003.903-.874l-3.903.874zM29.456 687.067v2a2 2 0 002-2h-2zm7.626-5.735a2 2 0 101.264-3.795l-1.264 3.795zm30.771-5.341a2 2 0 100 4v-4zm7.29 11.076a2 2 0 104 0h-4zm-73.143-2a2 2 0 100 4v-4zm109.309 4a2 2 0 000-4v4zm-34.062-4a2 2 0 100 4v-4zm-41.622-5.874a2 2 0 103.97.484l-3.97-.484zm30.38-.765a2 2 0 003.903-.874l-3.903.874zM1656.24 43v2c.53 0 1.04-.21 1.41-.586.38-.375.59-.883.59-1.414h-2zm15.38-12.902a2 2 0 101.26-3.796l-1.26 3.796zm59.08-6.698c-1.11 0-2 .895-2 2s.89 2 2 2v-4zm16.01 19.6c0 1.105.9 2 2 2 1.11 0 2-.895 2-2h-4zM1603 41c-1.1 0-2 .895-2 2 0 1.104.9 2 2 2v-4zm211.96 4c1.11 0 2-.896 2-2 0-1.105-.89-2-2-2v4zm-66.05-4c-1.1 0-2 .895-2 2 0 1.104.9 2 2 2v-4zm-78.84-13.041a1.99 1.99 0 001.74 2.227c1.1.133 2.09-.648 2.23-1.744l-3.97-.483zm58.88-2.122a1.994 1.994 0 002.38 1.515 2.003 2.003 0 001.52-2.39l-3.9.875zM1219.97 451.98a2.006 2.006 0 002.43 1.455 1.997 1.997 0 001.45-2.426l-3.88.971zm13.09-11.418l-.48 1.94c1.04.26 2.1-.349 2.4-1.38l-1.92-.56zm23.02 1.341l-1.97.329c.12.715.61 1.31 1.3 1.554l.67-1.883zm2.82 8.732a2 2 0 001.38 2.473 1.996 1.996 0 002.47-1.373l-3.85-1.1zm-75.9-1.037c-1.1 0-2 .895-2 2 0 1.104.9 2 2 2v-4zm38.81 4c1.1 0 2-.896 2-2 0-1.105-.9-2-2-2v4zm39.02-4.206c-1.11 0-2 .895-2 2 0 1.104.89 2 2 2v-4zm18.99 4c1.1 0 2-.896 2-2 0-1.105-.9-2-2-2v4zm270.82-66.247v2a2 2 0 001.41-.586c.38-.375.59-.884.59-1.414h-2zm13.09-10.789a2 2 0 101.26-3.795l-1.26 3.795zm50.73-6.297c-1.11 0-2 .895-2 2 0 1.104.89 2 2 2v-4zm13.44 17.086c0 1.104.89 2 2 2 1.1 0 2-.896 2-2h-4zm-122.9-2c-1.1 0-2 .895-2 2 0 1.104.9 2 2 2v-4zm181.69 4c1.1 0 2-.896 2-2 0-1.105-.9-2-2-2v4zm-56.62-4c-1.1 0-2 .895-2 2 0 1.104.9 2 2 2v-4zm-67.87-10.928a2.004 2.004 0 001.75 2.227 1.994 1.994 0 002.22-1.743l-3.97-.484zm50.48-1.721a1.999 1.999 0 103.9-.874l-3.9.874zM715.449 616.923v2a2 2 0 002-2h-2zm13.037-10.737a2 2 0 101.264-3.795l-1.264 3.795zm50.523-6.287a2 2 0 000 4v-4zm13.378 17.024a2 2 0 104 0h-4zm-122.387-2a2 2 0 100 4v-4zm180.942 4a2 2 0 000-4v4zm-56.384-4a2 2 0 100 4v-4zm-67.597-10.875a2 2 0 003.971.483l-3.971-.483zm50.268-1.712a2 2 0 103.903-.874l-3.903.874zm224.581-422.441h78.59v-4h-78.59v4zm76.59-2c0 3.731 3.07 7.105 6.96 7.105v-4c-1.53 0-2.96-1.431-2.96-3.105h-4zm6.96 7.105h60.55v-4h-60.55v4zm60.55 0c3.81 0 6.96-3.146 6.96-6.955h-4c0 1.597-1.35 2.955-2.96 2.955v4zm6.96-6.955v-.15h-4v.15h4zm-2-.15l-.07 1.999h.01l.02.001.07.002.26.008 1.01.025c.88.02 2.15.042 3.73.054 3.16.024 7.58.005 12.6-.165 10.01-.339 22.54-1.282 32.3-3.738l-.98-3.879c-9.32 2.348-21.51 3.282-31.45 3.619-4.96.168-9.32.186-12.44.163a257.131 257.131 0 01-4.65-.078l-.26-.007-.06-.002-.01-.001h-.01l-.07 1.999zm49.95-1.82c10.91-2.878 14.75-4.257 25.91-8.63l-1.45-3.725c-11.08 4.336-14.76 5.66-25.48 8.487l1.02 3.868zm25.92-8.634c20.54-8.162 37.13-13.738 48.58-17.271a396.764 396.764 0 0113.16-3.835c1.5-.407 2.65-.702 3.41-.896.38-.097.67-.168.86-.215l.22-.052.05-.012.01-.003v-.001l-.46-1.946-.46-1.946-.01.001c0 .001 0 .003-.01.004a.733.733 0 01-.06.014l-.23.056a206.69 206.69 0 00-4.36 1.135c-3.05.825-7.53 2.093-13.3 3.874-11.54 3.561-28.23 9.172-48.87 17.376l1.47 3.717zm65.83-24.231l.3-1.977-.02-.004-.12-.02a23.263 23.263 0 01-2.15-.512c-1.4-.403-3.15-1.046-4.72-2.007-1.58-.966-2.81-2.161-3.43-3.611-.59-1.383-.73-3.277.41-5.948l-3.68-1.571c-1.49 3.485-1.5 6.527-.41 9.085 1.06 2.492 3.04 4.244 5.02 5.455 1.98 1.216 4.11 1.981 5.7 2.441a26.686 26.686 0 002.56.607l.17.028.05.008.01.002.01.001.3-1.977zm-9.72-14.107c1.34-3.269 6.32-14.57 10.99-25.097 2.32-5.254 4.57-10.302 6.23-14.037.83-1.867 1.52-3.405 2-4.477.23-.536.42-.956.55-1.24.06-.143.11-.253.14-.326.02-.037.03-.065.04-.083 0-.01.01-.017.01-.021v-.007l-1.82-.815-1.83-.814v.006c-.01.005-.01.012-.01.021-.01.02-.02.047-.04.084a5.61 5.61 0 01-.15.325c-.12.286-.31.705-.55 1.241-.48 1.073-1.16 2.612-1.99 4.48-1.67 3.736-3.91 8.785-6.24 14.042-4.65 10.493-9.66 21.865-11.03 25.203l3.7 1.515zm17.99-48.097l-16.08 1.2.3 3.99 16.08-1.202-.3-3.988zm-16.07 1.2c-6.87.49-12.98 3.75-18.01 8.147l2.63 3.012c4.59-4.011 9.91-6.758 15.66-7.169l-.28-3.99zm-18 8.144c-12.45 10.824-21.51 19.07-28.48 25.325-7 6.281-11.83 10.494-15.93 13.358-4.04 2.824-7.3 4.289-11.13 5.082-3.91.811-8.49.939-15.28.939v4c6.74 0 11.72-.116 16.09-1.022 4.46-.924 8.22-2.65 12.61-5.72 4.34-3.029 9.35-7.412 16.32-13.66 6.99-6.273 16-14.487 28.42-25.284l-2.62-3.018zm-70.82 44.704c-17.21 0-45.53.075-74.33.15-28.79.075-58.05.15-77.13.15v4c19.08 0 48.35-.075 77.14-.15 28.8-.075 57.12-.15 74.32-.15v-4zm-151.46.3c-8.17 0-20.27-.38-31.56 1.144-11.18 1.51-22.315 4.968-27.948 13.245l3.307 2.25c4.586-6.738 14.111-10.037 25.171-11.531 10.95-1.478 22.67-1.108 31.03-1.108v-4zm-58.567 13.645l-8.265 3.153 1.426 3.738 8.265-3.154-1.426-3.737zm-8.241 3.145c-2.458.902-4.535 3.102-5.681 5.739-1.167 2.686-1.456 6.011-.098 9.291 2.73 6.593 11.552 11.961 29.827 12.719l.17-3.996c-17.944-.744-24.524-5.961-26.302-10.254-.896-2.163-.715-4.356.071-6.166.808-1.857 2.168-3.13 3.391-3.578l-1.378-3.755zm6.55 1.624h17.428v-4h-17.428v4zm17.428 0c2.32 0 3.65-2.13 3.65-3.952h-4c0 .057-.02.088-.01.081 0-.006.12-.129.36-.129v4zm3.65-3.952v-2.552h-4v2.552h4zm0-2.552c0-.646-.2-1.309-.62-1.848-.44-.561-1.17-1.053-2.13-1.053v4c-.5 0-.86-.267-1.03-.49a.967.967 0 01-.22-.609h4zm-2.75-2.901h-11.416v4h11.416v-4zm115.76 24.69l9.17-1.652-.71-3.937-9.17 1.652.71 3.937zm10.81-3.62v-7.958h-4v7.958h4zm-1.67-9.932l-9.17-1.502-.65 3.948 9.17 1.501.65-3.947zm-33.54 17.487h16.98v-4h-16.98v4zm16.98 0c6.22 0 11.17-4.948 11.17-11.159h-4c0 3.999-3.16 7.159-7.17 7.159v4zm11.17-11.159c0-6.211-4.95-11.159-11.17-11.159v4c4.01 0 7.17 3.16 7.17 7.159h4zm-11.17-11.159h-16.98v4h16.98v-4zm-16.98 0c-4.44 0-7.86 3.63-7.86 7.856h4c0-2.081 1.69-3.856 3.86-3.856v-4zm-7.86 7.856v6.606h4v-6.606h-4zm.01 6.511c-.21 4.386 3.5 7.951 7.85 7.951v-4c-2.25 0-3.95-1.84-3.86-3.76l-3.99-.191zm22.43-14.517h-10.67v4h10.67v-4zm-12.67 2v18.318h4V152.52h-4zm2 20.318h10.67v-4h-10.67v4zm12.67-2V152.52h-4v18.318h4zm70.55-11.325l-62.51-24.174-1.45 3.73 62.51 24.175 1.45-3.731zm51.3-5.03c-1.66-.414-3.24-.19-4.49.167l1.1 3.847c.85-.244 1.68-.319 2.42-.133l.97-3.881zm-4.68.231c-7.35 2.909-32.78 14.872-60.26 14.724l-.02 4c28.43.153 54.69-12.208 61.76-15.005l-1.48-3.719zm-60.27 14.724c-2.36 0-4.32 1.186-5.62 2.782-1.29 1.582-2.03 3.675-1.93 5.77l3.99-.19c-.05-1.058.34-2.193 1.04-3.051.69-.845 1.58-1.311 2.52-1.311v-4zm-5.56 8.457l-.02 2h.07l.21.002a143.022 143.022 0 003.75-.047c2.53-.064 6.13-.211 10.4-.543 8.54-.662 19.84-2.065 30.75-5.038l-1.05-3.859c-10.58 2.882-21.6 4.257-30.01 4.909-4.19.325-7.72.469-10.2.532a140.888 140.888 0 01-3.62.046l-.19-.001-.05-.001h-.01l-.03 2zm45.14-3.622c14.89-3.947 26.75-9.263 33.48-12.103l-1.56-3.685c-6.79 2.866-18.38 8.06-32.94 11.921l1.02 3.867zm33.59-12.157a3.15 3.15 0 001.76-2.983 3.05 3.05 0 00-2.25-2.831l-1.1 3.846a.912.912 0 01-.45-.32.962.962 0 01-.19-.521.815.815 0 01.45-.769l1.78 3.578zm-.58-5.838l-7.67-1.801-.91 3.893 7.66 1.802.92-3.894zm-89.57 16.263l-1.8-1.352-2.4 3.201 1.8 1.352 2.4-3.201zm-1.8-1.352c-2.15-1.61-4.38-2.351-7.06-2.351v4c1.82 0 3.2.46 4.66 1.552l2.4-3.201zm-7.06-2.351h-47.34v4h47.34v-4zm19.38-16.817h-12.32v4h12.32v-4zm-12.32 0c-.31 0-.67-.078-1.32-.24l-.97 3.88c.56.139 1.4.36 2.29.36v-4zm-1.08-.165l-32.61-12.613-1.44 3.731 32.6 12.612 1.45-3.73zm-33.33-8.748h13.52v-4h-13.52v4zm27.28 19.496c-29.85-8.284-59.08-14.157-91.47-18.672l-.55 3.962c32.23 4.494 61.29 10.333 90.95 18.565l1.07-3.855zm-91.48-18.673c-1.26-.169-1.92-.648-2.25-1.073-.35-.442-.48-1.003-.41-1.58.15-1.146 1.09-2.157 2.74-1.941l.52-3.965c-4.07-.535-6.81 2.283-7.22 5.379-.21 1.543.15 3.206 1.22 4.572 1.08 1.381 2.75 2.29 4.87 2.573l.53-3.965zm.34-8.577h-.15v4h.15v-4zm-.46 3.977c35.49 5.537 65.28 13.316 92.06 22.586l1.31-3.78c-27.01-9.348-57.02-17.185-92.75-22.759l-.62 3.953zm243.66 1.893l-12.92-1.502-.46 3.973 12.92 1.502.46-3.973zm-13.09-1.514l-46.13-1.352-.12 3.999 46.13 1.351.12-3.998zm-46.12-1.351c-3.3-.118-6 .198-7.99.822-.99.311-1.89.722-2.6 1.261-.7.528-1.38 1.311-1.57 2.379-.21 1.142.24 2.142.88 2.864.61.686 1.46 1.197 2.38 1.584 1.86.78 4.55 1.277 8.01 1.394l.14-3.998c-3.23-.109-5.37-.569-6.6-1.084-.62-.26-.88-.482-.95-.563-.04-.045.14.153.07.507-.05.28-.19.289.06.105.22-.172.66-.408 1.37-.632 1.43-.446 3.65-.749 6.66-.642l.14-3.997zm-.88 10.304c5.37.149 26.34 1.053 44.59.601l-.1-3.999c-18.12.449-38.92-.449-44.38-.6l-.11 3.998zm44.6.6c5.09-.152 8.51-.494 10.68-.807 1.09-.157 1.87-.306 2.39-.421a14.927 14.927 0 00.76-.19c.02-.006.04-.011.05-.016.01-.002.02-.004.02-.006l.01-.002v-.002s.01 0-.6-1.906-.61-1.906-.6-1.906v-.003l.01-.001-.01.002-.08.021c-.08.022-.22.057-.43.103-.41.092-1.09.224-2.09.367-1.99.288-5.26.621-10.23.769l.12 3.998zm14.93-2.178l1.95-2.703-3.24-2.343-1.95 2.702 3.24 2.344zm-96.21 12.779c-5.62-1.077-16.66-2.171-27.45-2.717-5.41-.274-10.8-.411-15.45-.338-4.61.073-8.64.354-11.28.97l.92 3.895c2.17-.51 5.84-.793 10.42-.865 4.54-.072 9.83.062 15.18.333 10.74.543 21.56 1.626 26.91 2.651l.75-3.929zm-54.17-2.085c-1.41.327-2.66.956-3.56 1.865-.9.917-1.51 2.225-1.24 3.69.26 1.446 1.29 2.527 2.57 3.233 1.29.706 2.99 1.146 5.08 1.309l.31-3.987c-1.74-.137-2.84-.486-3.46-.826-.62-.341-.59-.563-.57-.45.02.132-.07.08.17-.163.24-.25.76-.578 1.6-.776l-.9-3.895zm2.85 10.098c8.02.616 34.2-.602 51.34-4.089l-.79-3.919c-16.82 3.42-42.63 4.604-50.24 4.019l-.31 3.989zm163.38-24.403c-1.82-.777-4.55-1.407-7.59-1.911-3.08-.511-6.63-.916-10.16-1.192-3.52-.275-7.06-.423-10.11-.416-3.01.007-5.71.164-7.47.551l.86 3.907c1.31-.289 3.64-.451 6.62-.458 2.93-.007 6.35.136 9.79.404 3.44.269 6.87.662 9.82 1.15 2.99.496 5.32 1.067 6.66 1.642l1.58-3.677zm-35.31-2.972c-1.87.392-4.05 1.908-3.76 4.373.15 1.203.9 2.142 1.85 2.764.94.611 2.15.987 3.58 1.16l.48-3.971c-1.05-.127-1.62-.371-1.87-.538-.24-.157-.1-.156-.06.108.03.256-.1.362-.05.308.06-.059.25-.206.65-.29l-.82-3.914zm1.66 8.296c2.58.321 8.08.428 14.26.221 6.2-.208 13.25-.738 18.94-1.737l-.69-3.94c-5.43.953-12.27 1.474-18.39 1.679-6.15.206-11.38.087-13.62-.192l-.5 3.969zm-243.17 5.776h-4.51v4h4.51v-4zm-4.51 0c-2.16 0-3.81 1.645-3.81 3.802h4c0-.024.01-.015 0 .014-.02.03-.04.069-.07.105a.364.364 0 01-.11.071c-.03.012-.04.008-.01.008v-4zm-3.81 3.802v9.159h4v-9.159h-4zm0 9.159c0 2.157 1.65 3.802 3.81 3.802v-4c-.03 0-.02-.004.01.007.03.012.07.035.11.071.03.036.05.075.07.105.01.029 0 .038 0 .015h-4zm3.81 3.802h4.51v-4h-4.51v4zm4.51 0c2.15 0 3.8-1.645 3.8-3.802h-4c0 .023 0 .014.01-.015.01-.03.03-.069.07-.105a.258.258 0 01.1-.071c.03-.011.04-.007.02-.007v4zm3.8-3.802v-9.159h-4v9.159h4zm0-9.159c0-2.158-1.65-3.802-3.8-3.802v4c.02 0 .01.004-.02-.008a.248.248 0 01-.1-.071.246.246 0 01-.07-.105c-.01-.029-.01-.038-.01-.014h4zm260.34-69.436l-18.49 41.291 3.65 1.634 18.49-41.291-3.65-1.634zm-16.66 40.108h-17.73v4h17.73v-4zm-17.73 0c-.01 0 0 0 .01.003s.02.008.03.014c.02.01.03.019.03.021 0 .001 0 .015.01.047 0 .04-.02.087-.04.123l-3.39-2.121c-1.61 2.579.33 5.913 3.35 5.913v-4zm.06.18l21.18-35.135-3.42-2.066-21.19 35.135 3.43 2.066zm21.16-35.094c.74-1.166 1.8-1.777 2.97-1.777v-4c-2.74 0-4.98 1.492-6.34 3.629l3.37 2.148zm3.07-1.78l12.02-.6-.2-3.995-12.02.6.2 3.996zm-20.09 29.282h2.86v-4h-2.86v4zm10.22-17.567h2.86v-4h-2.86v4zm223.21 448.617h161.63v-4H1499.4v4zm217.7-40.594l-32.92 38.576 3.04 2.597 32.92-38.577-3.04-2.596zm-32.91 38.567c-1.8 2.079-2.83 4.529-3.19 7.196l3.96.547c.27-1.974 1.01-3.686 2.25-5.128l-3.02-2.615zm-3.2 7.224l-1.12 9.044 3.97.492 1.12-9.044-3.97-.492zm.87 7.29h-354.74v4h354.74v-4zm-354.74 0a.748.748 0 01.72.719h-4a3.26 3.26 0 003.28 3.281v-4zm.72.719v-11.765h-4v11.765h4zm0-11.765c0-.016 0-.086-.01-.166 0-.076-.01-.214-.04-.376-.03-.131-.1-.465-.34-.81-.3-.422-.87-.888-1.69-.888v4c-.79 0-1.33-.446-1.6-.835-.22-.313-.28-.602-.3-.682-.03-.179-.02-.323-.02-.243h4zm-.22-.953l-14.89-39.056-3.74 1.425 14.9 39.057 3.73-1.426zm-14.89-39.042a3.186 3.186 0 013.01-4.345v-4c-5.08 0-8.52 5-6.76 9.741l3.75-1.396zm3.01-4.345h12.5v-4h-12.5v4zm12.5 0c1.82 0 3.28-1.454 3.28-3.28h-4c0-.172.07-.361.22-.505a.711.711 0 01.5-.215v4zm3.28-3.28v-30.413h-4v30.413h4zm0-30.413c0 .172-.07.36-.22.504a.711.711 0 01-.5.215v-4a3.266 3.266 0 00-3.28 3.281h4zm-.72.719h10.97v-4h-10.97v4zm10.97 0c1.83 0 3.29-1.454 3.29-3.28h-4a.729.729 0 01.71-.72v4zm3.29-3.28v-6.003h-4v6.003h4zm0-6.003c0 .172-.08.36-.22.504a.708.708 0 01-.5.216v-4a3.26 3.26 0 00-3.28 3.28h4zm-.72.72h6v-4h-6v4zm6 0a.73.73 0 01-.71-.72h4c0-1.826-1.46-3.28-3.29-3.28v4zm-.71-.72v6.003h4v-6.003h-4zm0 6.003a3.26 3.26 0 003.28 3.28v-4c.17 0 .36.071.5.215a.75.75 0 01.22.505h-4zm3.28 3.28h40.85v-4h-40.85v4zm40.85 0a.752.752 0 01-.51-.215.735.735 0 01-.21-.504h4a3.266 3.266 0 00-3.28-3.281v4zm-.72-.719v30.413h4v-30.413h-4zm0 30.413c0 1.826 1.46 3.28 3.28 3.28v-4c.17 0 .36.071.5.215.15.145.22.333.22.505h-4zm3.28 3.28h8.97v-4h-8.97v4zm8.97 0a.732.732 0 01-.5-.199.928.928 0 01-.3-.68h4c0-1.921-1.64-3.121-3.2-3.121v4zm-.79-.693c.66 7.033 6.65 12.538 13.85 12.538v-4c-5.14 0-9.4-3.938-9.87-8.91l-3.98.372zm13.85 12.538h223.94v-4h-223.94v4zm223.94 0c7.2 0 13.19-5.505 13.84-12.538l-3.98-.372c-.46 4.972-4.72 8.91-9.86 8.91v4zm13.84-12.476a.709.709 0 01-.22.4.82.82 0 01-.57.231v-4c-1.77 0-2.99 1.367-3.18 2.873l3.97.496zm-.79.631h60.56v-4h-60.56v4zm60.62-.001c.47-.013.9.247 1.16.761.25.508.25 1.142-.14 1.695l3.28 2.295c2.51-3.58.15-8.883-4.42-8.749l.12 3.998zm-13.2 7.606a2.481 2.481 0 01-2.48 2.481v4c3.58 0 6.48-2.9 6.48-6.481h-4zm-2.48 2.481a2.483 2.483 0 01-2.49-2.481h-4c0 3.581 2.91 6.481 6.49 6.481v-4zm-2.49-2.481c0-1.37 1.11-2.482 2.49-2.482v-4c-3.58 0-6.49 2.9-6.49 6.482h4zm2.49-2.482c1.37 0 2.48 1.112 2.48 2.482h4c0-3.582-2.9-6.482-6.48-6.482v4zm-187.66-15.925h-35.49v4h35.49v-4zm-35.49 0c-2.12 0-3.68 1.756-3.68 3.68h4a.32.32 0 01-.08.221.337.337 0 01-.24.099v-4zm-3.68 3.68v12.326h4v-12.326h-4zm0 12.326c0 2.127 1.76 3.68 3.68 3.68v-4c.11 0 .18.04.22.082.06.052.1.141.1.238h-4zm3.68 3.68h35.49v-4h-35.49v4zm35.49 0c2.12 0 3.68-1.756 3.68-3.68h-4a.32.32 0 01.08-.221.337.337 0 01.24-.099v4zm3.68-3.68v-12.326h-4v12.326h4zm-.01-12.144c.2-2.228-1.72-3.862-3.67-3.862v4c-.08 0-.14-.03-.19-.075a.572.572 0 01-.12-.426l3.98.363zm-45.8-22.19H1435v4h35.49v-4zm-35.49 0c-2.12 0-3.68 1.756-3.68 3.68h4a.32.32 0 01-.08.221.337.337 0 01-.24.099v-4zm-3.68 3.68v12.326h4v-12.326h-4zm0 12.326c0 2.127 1.76 3.68 3.68 3.68v-4c.11 0 .18.04.22.083.06.051.1.14.1.237h-4zm3.68 3.68h35.49v-4H1435v4zm35.49 0c2.12 0 3.68-1.756 3.68-3.68h-4a.32.32 0 01.08-.221.337.337 0 01.24-.099v4zm3.68-3.68v-12.326h-4v12.326h4zm0-12.326c0-2.066-1.62-3.68-3.68-3.68v4a.36.36 0 01-.32-.32h4zm38.45-3.68h-35.49v4h35.49v-4zm-35.49 0c-2.12 0-3.68 1.756-3.68 3.68h4a.32.32 0 01-.08.221.337.337 0 01-.24.099v-4zm-3.68 3.68v12.326h4v-12.326h-4zm0 12.326c0 2.127 1.76 3.68 3.68 3.68v-4c.11 0 .18.04.22.083.06.051.1.14.1.237h-4zm3.68 3.68h35.49v-4h-35.49v4zm35.49 0c2.12 0 3.68-1.756 3.68-3.68h-4a.32.32 0 01.08-.221.337.337 0 01.24-.099v4zm3.68-3.68v-12.326h-4v12.326h4zm-.01-12.159c.2-2.35-1.78-3.847-3.67-3.847v4c-.02 0-.08-.006-.16-.082a.522.522 0 01-.12-.18c-.03-.082-.04-.162-.03-.224l3.98.333zm-45.8 14.481H1435v4h35.49v-4zm-35.49 0c-2.12 0-3.68 1.756-3.68 3.68h4a.32.32 0 01-.08.221.337.337 0 01-.24.099v-4zm-3.68 3.68v12.326h4v-12.326h-4zm0 12.326c0 2.127 1.76 3.68 3.68 3.68v-4c.11 0 .18.04.22.082.06.052.1.141.1.238h-4zm3.68 3.68h35.49v-4H1435v4zm35.49 0c2.12 0 3.68-1.756 3.68-3.68h-4a.32.32 0 01.08-.221.337.337 0 01.24-.099v4zm3.68-3.68v-12.326h-4v12.326h4zm0-12.326c0-1.924-1.56-3.68-3.68-3.68v4c-.1 0-.19-.045-.24-.099a.32.32 0 01-.08-.221h4zm154.82-22.008h-17.22v4h17.22v-4zm-17.22 0c-2.12 0-3.68 1.757-3.68 3.68h4a.32.32 0 01-.08.221.337.337 0 01-.24.099v-4zm-3.68 3.68v30.654h4v-30.654h-4zm0 30.654c0 2.127 1.76 3.68 3.68 3.68v-4c.11 0 .18.04.22.083.06.051.1.14.1.237h-4zm3.68 3.68h17.22v-4h-17.22v4zm17.22 0c2.13 0 3.69-1.756 3.69-3.68h-4a.32.32 0 01.08-.221.331.331 0 01.23-.099v4zm3.69-3.68v-30.654h-4v30.654h4zm0-30.654c0-2.066-1.62-3.68-3.69-3.68v4a.346.346 0 01-.21-.105.306.306 0 01-.1-.215h4zm-28.2-3.68h-17.22v4h17.22v-4zm-17.22 0c-2.12 0-3.68 1.756-3.68 3.68h4a.32.32 0 01-.08.221.337.337 0 01-.24.099v-4zm-3.68 3.68v30.654h4v-30.654h-4zm0 30.654c0 2.127 1.76 3.68 3.68 3.68v-4c.11 0 .18.04.22.082.06.052.1.141.1.238h-4zm3.68 3.68h17.22v-4h-17.22v4zm17.22 0c2.13 0 3.69-1.756 3.69-3.68h-4a.32.32 0 01.08-.221.331.331 0 01.23-.099v4zm3.69-3.68v-30.654h-4v30.654h4zm0-30.654c0-2.066-1.62-3.68-3.69-3.68v4a.36.36 0 01-.31-.32h4zm-28.43-3.68h-17.22v4h17.22v-4zm-17.22 0c-2.13 0-3.69 1.757-3.69 3.68h4a.32.32 0 01-.08.221.331.331 0 01-.23.099v-4zm-3.69 3.68v30.654h4v-30.654h-4zm0 30.654c0 2.127 1.76 3.68 3.69 3.68v-4c.1 0 .17.04.21.083.06.051.1.14.1.237h-4zm3.69 3.68h17.22v-4h-17.22v4zm17.22 0c2.12 0 3.68-1.756 3.68-3.68h-4a.32.32 0 01.08-.221.337.337 0 01.24-.099v4zm3.68-3.68v-30.654h-4v30.654h4zm-.01-30.487c.2-2.35-1.78-3.847-3.67-3.847v4c-.02 0-.08-.006-.16-.082a.522.522 0 01-.12-.18.664.664 0 01-.04-.224l3.99.333zm-28.42-3.847h-35.49v4h35.49v-4zm-35.49 0c-2.12 0-3.68 1.756-3.68 3.68h4a.32.32 0 01-.08.221.337.337 0 01-.24.099v-4zm-3.68 3.68v12.326h4v-12.326h-4zm0 12.326c0 2.127 1.76 3.68 3.68 3.68v-4c.11 0 .18.04.22.083.06.051.1.14.1.237h-4zm3.68 3.68h35.49v-4h-35.49v4zm35.49 0c2.12 0 3.68-1.756 3.68-3.68h-4a.32.32 0 01.08-.221.337.337 0 01.24-.099v4zm3.68-3.68v-12.326h-4v12.326h4zm0-12.326c0-2.127-1.76-3.68-3.68-3.68v4c-.11 0-.18-.04-.22-.082a.318.318 0 01-.1-.238h4zm-3.68 14.648h-35.49v4h35.49v-4zm-35.49 0c-2.12 0-3.68 1.756-3.68 3.68h4a.32.32 0 01-.08.221.337.337 0 01-.24.099v-4zm-3.68 3.68v12.326h4v-12.326h-4zm0 12.326c0 2.127 1.76 3.68 3.68 3.68v-4c.11 0 .18.04.22.082.06.052.1.141.1.238h-4zm3.68 3.68h35.49v-4h-35.49v4zm35.49 0c2.12 0 3.68-1.756 3.68-3.68h-4a.32.32 0 01.08-.221.337.337 0 01.24-.099v4zm3.68-3.68v-12.326h-4v12.326h4zm0-12.326c0-1.986-1.7-3.68-3.68-3.68v4c-.17 0-.24-.068-.25-.075 0-.008-.07-.078-.07-.245h4zm-176.05-20.169h6.49v-4h-6.49v4zm4.49-2v6.483h4v-6.483h-4zm2 4.483h-6.49v4h6.49v-4zm-4.49 2v-6.483h-4v6.483h4zm-12.09-4.483h6.49v-4h-6.49v4zm4.49-2v6.483h4v-6.483h-4zm2 4.483h-6.49v4h6.49v-4zm-4.49 2v-6.483h-4v6.483h4zm-12.01-4.323h6.49v-4h-6.49v4zm4.49-2v6.483h4v-6.483h-4zm2 4.483h-6.49v4h6.49v-4zm-4.49 2v-6.483h-4v6.483h4zm-12.01-4.483h6.48v-4h-6.48v4zm4.48-2v6.483h4v-6.483h-4zm2 4.483h-6.48v4h6.48v-4zm-4.48 2v-6.483h-4v6.483h4zm-51.5 102.765h-2.96v4h2.96v-4zm-2.96 0c.26 0 .46.113.57.225.11.111.22.305.22.574h-4c0 1.746 1.46 3.201 3.21 3.201v-4zm.79.799v-45.139h-4v45.139h4zm0-45.139a.81.81 0 01-.22.574.805.805 0 01-.57.225v-4c-1.75 0-3.21 1.454-3.21 3.201h4zm-.79.799h2.96v-4h-2.96v4zm2.96 0a.787.787 0 01-.57-.225.772.772 0 01-.23-.574h4c0-1.747-1.46-3.201-3.2-3.201v4zm-.8-.799v45.139h4v-45.139h-4zm0 45.139c0-.18.07-.379.22-.541a.824.824 0 01.58-.258v4c1.91 0 3.2-1.543 3.2-3.201h-4zm12.49-.799h-2.96v4h2.96v-4zm-2.96 0c.27 0 .46.113.57.225a.81.81 0 01.23.574h-4c0 1.746 1.46 3.201 3.2 3.201v-4zm.8.799v-45.139h-4v45.139h4zm0-45.139c0 .269-.12.462-.23.574a.787.787 0 01-.57.225v-4c-1.74 0-3.2 1.454-3.2 3.201h4zm-.8.799h2.96v-4h-2.96v4zm2.96 0a.805.805 0 01-.57-.225.812.812 0 01-.23-.574h4c0-1.747-1.45-3.201-3.2-3.201v4zm-.8-.799v45.139h4v-45.139h-4zm0 45.139a.81.81 0 01.23-.574.805.805 0 01.57-.225v4c1.75 0 3.2-1.455 3.2-3.201h-4zm12.1-.799h-2.97v4h2.97v-4zm-2.97 0c.27 0 .46.113.58.225.11.111.22.305.22.574h-4c0 1.746 1.46 3.201 3.2 3.201v-4zm.8.799v-45.139h-4v45.139h4zm0-45.139a.81.81 0 01-.22.574.832.832 0 01-.58.225v-4c-1.74 0-3.2 1.454-3.2 3.201h4zm-.8.799h2.97v-4h-2.97v4zm2.97 0a.832.832 0 01-.58-.225.81.81 0 01-.22-.574h4c0-1.747-1.46-3.201-3.2-3.201v4zm-.8-.799v45.139h4v-45.139h-4zm0 45.139c0-.269.11-.463.22-.574a.832.832 0 01.58-.225v4c1.74 0 3.2-1.455 3.2-3.201h-4zm12.41-.799h-2.96v4h2.96v-4zm-2.96 0c.26 0 .46.113.57.225a.81.81 0 01.23.574h-4c0 1.746 1.45 3.201 3.2 3.201v-4zm.8.799v-45.139h-4v45.139h4zm0-45.139c0 .269-.12.462-.23.574a.805.805 0 01-.57.225v-4c-1.75 0-3.2 1.454-3.2 3.201h4zm-.8.799h2.96v-4h-2.96v4zm2.96 0a.787.787 0 01-.57-.225.812.812 0 01-.23-.574h4c0-1.747-1.46-3.201-3.2-3.201v4zm-.8-.799v45.139h4v-45.139h-4zm0 45.139c0-.18.07-.379.22-.541.17-.176.4-.258.58-.258v4c1.91 0 3.2-1.543 3.2-3.201h-4zm12.81-.639h-2.96v4h2.96v-4zm-2.96 0c.27 0 .46.113.57.225.12.112.23.305.23.574h-4c0 1.746 1.46 3.201 3.2 3.201v-4zm.8.799v-45.139h-4v45.139h4zm0-45.139a.77.77 0 01-.23.574.787.787 0 01-.57.225v-4c-1.74 0-3.2 1.455-3.2 3.201h4zm-.8.799h2.96v-4h-2.96v4zm2.96 0a.805.805 0 01-.57-.225.808.808 0 01-.22-.574h4c0-1.746-1.46-3.201-3.21-3.201v4zm-.79-.799v45.139h4v-45.139h-4zm0 45.139a.84.84 0 01.25-.577.82.82 0 01.54-.222v4c1.66 0 3.21-1.288 3.21-3.201h-4zm12.81-.959h-2.96v4h2.96v-4zm-2.96 0c.26 0 .46.113.57.225.11.111.22.305.22.574h-4c0 1.746 1.46 3.201 3.21 3.201v-4zm.79.799v-45.139h-4v45.139h4zm0-45.139a.81.81 0 01-.22.574.805.805 0 01-.57.225v-4c-1.75 0-3.21 1.454-3.21 3.201h4zm-.79.799h2.96v-4h-2.96v4zm2.96 0a.787.787 0 01-.57-.225.772.772 0 01-.23-.574h4c0-1.747-1.46-3.201-3.2-3.201v4zm-.8-.799v45.139h4v-45.139h-4zm0 45.139a.77.77 0 01.23-.574c.11-.112.3-.225.57-.225v4c1.74 0 3.2-1.455 3.2-3.201h-4zm13.29-.799h-2.96v4h2.96v-4zm-2.96 0c.27 0 .46.113.57.225a.81.81 0 01.23.574h-4c0 1.746 1.46 3.201 3.2 3.201v-4zm.8.799v-45.139h-4v45.139h4zm0-45.139c0 .269-.12.462-.23.574a.787.787 0 01-.57.225v-4c-1.74 0-3.2 1.454-3.2 3.201h4zm-.8.799h2.96v-4h-2.96v4zm2.96 0a.805.805 0 01-.57-.225.812.812 0 01-.23-.574h4c0-1.747-1.45-3.201-3.2-3.201v4zm-.8-.799v45.139h4v-45.139h-4zm0 45.139a.81.81 0 01.23-.574.805.805 0 01.57-.225v4c1.75 0 3.2-1.455 3.2-3.201h-4zm12.82-.799h-2.97v4h2.97v-4zm-2.97 0c.27 0 .46.113.58.225.11.111.22.305.22.574h-4c0 1.746 1.46 3.201 3.2 3.201v-4zm.8.799v-45.139h-4v45.139h4zm0-45.139a.81.81 0 01-.22.574.832.832 0 01-.58.225v-4c-1.74 0-3.2 1.454-3.2 3.201h4zm-.8.799h2.97v-4h-2.97v4zm2.97 0a.832.832 0 01-.58-.225.81.81 0 01-.22-.574h4c0-1.747-1.46-3.201-3.2-3.201v4zm-.8-.799v45.139h4v-45.139h-4zm0 45.139c0-.269.11-.463.22-.574a.832.832 0 01.58-.225v4c1.74 0 3.2-1.455 3.2-3.201h-4zm13.29-.799h-2.96v4h2.96v-4zm-2.96 0c.27 0 .46.113.57.225a.81.81 0 01.23.574h-4c0 1.746 1.45 3.201 3.2 3.201v-4zm.8.799v-45.139h-4v45.139h4zm0-45.139c0 .269-.12.462-.23.574a.787.787 0 01-.57.225v-4c-1.75 0-3.2 1.454-3.2 3.201h4zm-.8.799h2.96v-4h-2.96v4zm2.96 0a.787.787 0 01-.57-.225.812.812 0 01-.23-.574h4c0-1.747-1.45-3.201-3.2-3.201v4zm-.8-.799v45.139h4v-45.139h-4zm0 45.139a.81.81 0 01.23-.574c.11-.112.3-.225.57-.225v4c1.75 0 3.2-1.455 3.2-3.201h-4zm12.26-.639h-2.97v4h2.97v-4zm-2.97 0c.27 0 .46.113.57.225.12.112.23.305.23.574h-4c0 1.746 1.46 3.201 3.2 3.201v-4zm.8.799v-45.139h-4v45.139h4zm0-45.139a.77.77 0 01-.23.574.787.787 0 01-.57.225v-4c-1.74 0-3.2 1.455-3.2 3.201h4zm-.8.799h2.97v-4h-2.97v4zm2.97 0a.813.813 0 01-.58-.225.808.808 0 01-.22-.574h4c0-1.746-1.46-3.201-3.2-3.201v4zm-.8-.799v45.139h4v-45.139h-4zm0 45.139a.81.81 0 01.26-.577.784.784 0 01.54-.222v4c1.65 0 3.2-1.288 3.2-3.201h-4zm12.17-.959h-2.96v4h2.96v-4zm-2.96 0c.26 0 .46.113.57.225.11.111.22.305.22.574h-4c0 1.746 1.46 3.201 3.21 3.201v-4zm.79.799v-45.139h-4v45.139h4zm0-45.139a.81.81 0 01-.22.574.805.805 0 01-.57.225v-4c-1.75 0-3.21 1.454-3.21 3.201h4zm-.79.799h2.96v-4h-2.96v4zm2.96 0a.787.787 0 01-.57-.225.772.772 0 01-.23-.574h4c0-1.747-1.46-3.201-3.2-3.201v4zm-.8-.799v45.139h4v-45.139h-4zm0 45.139a.77.77 0 01.23-.574c.11-.112.3-.225.57-.225v4c1.74 0 3.2-1.455 3.2-3.201h-4zm12.17-.639h-2.96v4h2.96v-4zm-2.96 0c.27 0 .46.113.57.225.11.112.23.305.23.574h-4c0 1.746 1.46 3.201 3.2 3.201v-4zm.8.799v-45.139h-4v45.139h4zm0-45.139a.81.81 0 01-.23.574.787.787 0 01-.57.225v-4c-1.74 0-3.2 1.455-3.2 3.201h4zm-.8.799h2.96v-4h-2.96v4zm2.96 0a.805.805 0 01-.57-.225.81.81 0 01-.23-.574h4c0-1.746-1.45-3.201-3.2-3.201v4zm-.8-.799v45.139h4v-45.139h-4zm0 45.139c0-.095.04-.329.26-.544.22-.215.45-.255.54-.255v4c.82 0 1.65-.28 2.29-.916.63-.635.91-1.47.91-2.285h-4zm12.74-.959h-2.97v4h2.97v-4zm-2.97 0c.27 0 .46.113.58.225.11.111.22.305.22.574h-4c0 1.746 1.46 3.201 3.2 3.201v-4zm.8.799v-45.139h-4v45.139h4zm0-45.139a.81.81 0 01-.22.574.832.832 0 01-.58.225v-4c-1.74 0-3.2 1.454-3.2 3.201h4zm-.8.799h2.97v-4h-2.97v4zm2.97 0a.832.832 0 01-.58-.225.81.81 0 01-.22-.574h4c0-1.747-1.46-3.201-3.2-3.201v4zm-.8-.799v45.139h4v-45.139h-4zm0 45.139c0-.269.11-.463.22-.574a.832.832 0 01.58-.225v4c1.74 0 3.2-1.455 3.2-3.201h-4zm12.65-.639h-2.96v4h2.96v-4zm-2.96 0c.26 0 .46.113.57.225.11.112.23.305.23.574h-4c0 1.746 1.45 3.201 3.2 3.201v-4zm.8.799v-45.139h-4v45.139h4zm0-45.139a.81.81 0 01-.23.574.805.805 0 01-.57.225v-4c-1.75 0-3.2 1.455-3.2 3.201h4zm-.8.799h2.96v-4h-2.96v4zm2.96 0a.787.787 0 01-.57-.225.81.81 0 01-.23-.574h4c0-1.747-1.46-3.201-3.2-3.201v4zm-.8-.799v45.139h4v-45.139h-4zm0 45.139c0-.095.04-.329.26-.544a.808.808 0 01.54-.255v4c.82 0 1.65-.28 2.29-.916.63-.635.91-1.469.91-2.285h-4zm12.57-.879h-2.96v4h2.96v-4zm-2.96 0c.27 0 .46.113.57.225.12.112.23.305.23.574h-4c0 1.746 1.46 3.201 3.2 3.201v-4zm.8.799v-45.139h-4v45.139h4zm0-45.139a.77.77 0 01-.23.574.787.787 0 01-.57.225v-4c-1.74 0-3.2 1.455-3.2 3.201h4zm-.8.799h2.96v-4h-2.96v4zm2.96 0a.805.805 0 01-.57-.225.808.808 0 01-.22-.574h4c0-1.746-1.46-3.201-3.21-3.201v4zm-.79-.799v45.139h4v-45.139h-4zm0 45.139c0-.185.08-.409.26-.577a.774.774 0 01.53-.222v4c1.66 0 3.21-1.288 3.21-3.201h-4zm12.73-.959h-2.97v4h2.97v-4zm-2.97 0c.27 0 .47.113.58.225.11.111.22.305.22.574h-4c0 1.746 1.46 3.201 3.2 3.201v-4zm.8.799v-45.139h-4v45.139h4zm0-45.139a.81.81 0 01-.22.574.813.813 0 01-.58.225v-4c-1.74 0-3.2 1.454-3.2 3.201h4zm-.8.799h2.97v-4h-2.97v4zm2.97 0a.787.787 0 01-.57-.225.772.772 0 01-.23-.574h4c0-1.747-1.46-3.201-3.2-3.201v4zm-.8-.799v45.139h4v-45.139h-4zm0 45.139a.77.77 0 01.23-.574c.11-.112.3-.225.57-.225v4c1.74 0 3.2-1.455 3.2-3.201h-4zm12.65-.639h-2.96v4h2.96v-4zm-2.96 0c.27 0 .46.113.57.225.11.112.23.305.23.574h-4c0 1.746 1.45 3.201 3.2 3.201v-4zm.8.799v-45.139h-4v45.139h4zm0-45.139a.81.81 0 01-.23.574.787.787 0 01-.57.225v-4c-1.75 0-3.2 1.455-3.2 3.201h4zm-.8.799h2.96v-4h-2.96v4zm2.96 0a.787.787 0 01-.57-.225.81.81 0 01-.23-.574h4c0-1.746-1.45-3.201-3.2-3.201v4zm-.8-.799v45.139h4v-45.139h-4zm0 45.139c0-.185.09-.409.26-.577a.797.797 0 01.54-.222v4c1.66 0 3.2-1.288 3.2-3.201h-4zm-167.56-81.075h56.87v-4h-56.87v4zm385.97 78.882l-4.24-2.561-2.07 3.425 4.25 2.561 2.06-3.425zm-4.25-2.564a16.152 16.152 0 00-16.36-.181l1.99 3.473c3.85-2.2 8.53-2.133 12.31.139l2.06-3.431zm-16.32-.201l-.88.481 1.91 3.512.88-.48-1.91-3.513zm-.9.492c-3.94 2.21-8.69 2.137-12.54-.272l-2.12 3.393c5.11 3.194 11.42 3.281 16.61.368l-1.95-3.489zm-12.56-.282c-4.91-2.997-11.03-3.285-16.16-.537l1.89 3.527c3.83-2.054 8.44-1.862 12.19.424l2.08-3.414zm-16.17-.535l-2.08 1.121 1.9 3.522 2.08-1.12-1.9-3.523zm-2.08 1.119c-3.83 2.054-8.44 1.861-12.19-.424l-2.08 3.414c4.91 2.997 11.03 3.284 16.16.536l-1.89-3.526zm-12.33-.506l-.16-.08-1.79 3.578.16.08 1.79-3.578zm.01.016a16.004 16.004 0 00-16.29-.458l1.93 3.501a12.016 12.016 0 0112.23.342l2.13-3.385zm218.73 23.264l-4.25-2.562-2.06 3.425 4.24 2.561 2.07-3.424zm-4.25-2.564a16.15 16.15 0 00-16.36-.182l1.98 3.474a12.15 12.15 0 0112.32.138l2.06-3.43zm-16.33-.201l-.88.48 1.92 3.512.88-.48-1.92-3.512zm-.9.492c-3.94 2.209-8.68 2.136-12.54-.272l-2.12 3.392c5.12 3.194 11.43 3.281 16.62.368l-1.96-3.488zm-12.55-.283c-4.91-2.997-11.03-3.285-16.17-.537l1.89 3.527c3.84-2.054 8.45-1.861 12.19.424l2.09-3.414zm-16.17-.535l-2.08 1.121 1.89 3.522 2.08-1.12-1.89-3.523zm-2.08 1.119c-3.84 2.054-8.45 1.861-12.19-.424l-2.09 3.414c4.91 2.997 11.03 3.284 16.17.536l-1.89-3.526zm-12.34-.506l-.16-.08-1.79 3.578.16.08 1.79-3.578zm.01.016a16.003 16.003 0 00-16.29-.457l1.94 3.5a11.996 11.996 0 0112.22.343l2.13-3.386zm-608.39-40.538l-4.25-2.562-2.06 3.425 4.24 2.561 2.07-3.424zm-4.25-2.564a16.15 16.15 0 00-16.36-.182l1.98 3.474a12.15 12.15 0 0112.32.138l2.06-3.43zm-16.33-.201l-.88.48 1.92 3.512.88-.48-1.92-3.512zm-.9.492c-3.94 2.209-8.68 2.136-12.54-.272l-2.12 3.392c5.12 3.194 11.43 3.281 16.62.368l-1.96-3.488zm-12.55-.283c-4.91-2.997-11.03-3.285-16.17-.537l1.89 3.527c3.84-2.054 8.45-1.861 12.19.424l2.09-3.414zm-16.17-.535l-2.08 1.121 1.89 3.522 2.08-1.12-1.89-3.523zm-2.08 1.119c-3.84 2.054-8.45 1.861-12.19-.424l-2.09 3.414c4.91 2.997 11.03 3.284 16.17.536l-1.89-3.526zm-12.34-.506l-.16-.08-1.79 3.578.16.08 1.79-3.578zm.01.016a16.003 16.003 0 00-16.29-.457l1.94 3.5a11.996 11.996 0 0112.22.343l2.13-3.386zm634.59 101.927l-2.46-1.691-2.26 3.298 2.46 1.691 2.26-3.298zm-2.46-1.694c-3.22-2.193-7.25-2.265-10.54-.13l2.18 3.354c1.92-1.247 4.2-1.213 6.1.081l2.26-3.305zm-10.51-.153l-.51.317 2.11 3.399.51-.317-2.11-3.399zm-.53.331c-1.97 1.256-4.29 1.217-6.22-.156l-2.32 3.261c3.27 2.325 7.36 2.392 10.69.267l-2.15-3.372zm-6.24-.168c-3.13-2.174-7.1-2.399-10.41-.383l2.08 3.417c1.9-1.154 4.16-1.063 6.05.251l2.28-3.285zm-10.41-.38l-1.21.739 2.09 3.412 1.21-.74-2.09-3.411zm-1.21.737c-1.89 1.154-4.15 1.062-6.04-.251l-2.28 3.285c3.12 2.173 7.09 2.398 10.4.382l-2.08-3.416zm-6.2-.348l-.09-.053-1.97 3.478.09.053 1.97-3.478zm.09.06c-3.17-2.265-7.21-2.406-10.51-.331l2.14 3.386c1.9-1.201 4.18-1.131 6.04.198l2.33-3.253zm-287.25-70.596l-4.24-2.561-2.07 3.425 4.25 2.561 2.06-3.425zm-4.25-2.564a16.134 16.134 0 00-16.35-.181l1.98 3.473c3.85-2.2 8.53-2.133 12.32.139l2.05-3.431zm-16.32-.2l-.88.48 1.91 3.512.88-.48-1.91-3.512zm-.9.492c-3.94 2.209-8.69 2.136-12.54-.273l-2.12 3.393c5.11 3.194 11.42 3.281 16.61.368l-1.95-3.488zm-12.56-.283c-4.91-2.997-11.03-3.285-16.16-.537l1.89 3.527c3.83-2.054 8.44-1.862 12.19.424l2.08-3.414zm-16.17-.535l-2.08 1.121 1.9 3.522 2.08-1.12-1.9-3.523zm-2.07 1.119c-3.84 2.054-8.45 1.861-12.19-.424l-2.09 3.414c4.91 2.997 11.03 3.284 16.16.536l-1.88-3.526zm-12.34-.506l-.16-.08-1.79 3.578.16.08 1.79-3.578zm.01.016a16.001 16.001 0 00-16.29-.457l1.93 3.5a12.014 12.014 0 0112.23.343l2.13-3.386zm205.34 163.207l-4.25-2.562-2.06 3.425 4.24 2.561 2.07-3.424zm-4.25-2.564a16.15 16.15 0 00-16.36-.182l1.98 3.474a12.15 12.15 0 0112.32.138l2.06-3.43zm-16.33-.201l-.88.48 1.92 3.512.88-.48-1.92-3.512zm-.9.492c-3.94 2.209-8.68 2.136-12.54-.272l-2.12 3.392c5.12 3.194 11.43 3.281 16.62.368l-1.96-3.488zm-12.55-.283c-4.91-2.997-11.03-3.285-16.17-.537l1.89 3.527c3.84-2.054 8.45-1.861 12.19.424l2.09-3.414zm-16.17-.535l-2.08 1.121 1.89 3.522 2.08-1.12-1.89-3.523zm-2.08 1.119c-3.84 2.054-8.45 1.861-12.19-.424l-2.09 3.414c4.91 2.997 11.03 3.284 16.17.536l-1.89-3.526zm-12.34-.506l-.16-.08-1.79 3.578.16.08 1.79-3.578zm.01.016a16.003 16.003 0 00-16.29-.457l1.94 3.5a11.996 11.996 0 0112.22.343l2.13-3.386zm42.6-123.365l-4.25-2.561-2.07 3.425 4.25 2.561 2.07-3.425zm-4.25-2.564c-5.03-3.011-11.24-3.104-16.36-.182l1.98 3.474c3.86-2.2 8.53-2.133 12.32.139l2.06-3.431zm-16.33-.201l-.88.48 1.92 3.512.88-.48-1.92-3.512zm-.9.492c-3.94 2.209-8.68 2.136-12.54-.272l-2.12 3.393c5.12 3.194 11.43 3.281 16.62.368l-1.96-3.489zm-12.56-.283c-4.9-2.997-11.03-3.284-16.16-.536l1.89 3.526c3.84-2.054 8.45-1.861 12.19.424l2.08-3.414zm-16.16-.534l-2.08 1.12 1.89 3.523 2.08-1.121-1.89-3.522zm-2.08 1.118c-3.84 2.054-8.45 1.862-12.19-.424l-2.09 3.414c4.91 2.997 11.03 3.285 16.17.537l-1.89-3.527zm-12.34-.506l-.16-.08-1.79 3.578.16.08 1.79-3.578zm.01.016a16.006 16.006 0 00-16.29-.457l1.94 3.5a11.997 11.997 0 0112.22.343l2.13-3.386zm126.62 14.289l-4.25-2.562-2.06 3.425 4.24 2.561 2.07-3.424zm-4.25-2.564a16.15 16.15 0 00-16.36-.182l1.98 3.474a12.15 12.15 0 0112.32.138l2.06-3.43zm-16.33-.201l-.88.48 1.92 3.512.88-.48-1.92-3.512zm-.9.492c-3.94 2.209-8.68 2.136-12.54-.272l-2.12 3.392c5.12 3.194 11.43 3.281 16.62.368l-1.96-3.488zm-12.55-.283c-4.91-2.997-11.03-3.285-16.17-.537l1.89 3.527c3.84-2.054 8.45-1.861 12.19.424l2.09-3.414zm-16.17-.535l-2.08 1.121 1.89 3.522 2.08-1.12-1.89-3.523zm-2.08 1.119c-3.84 2.054-8.45 1.861-12.19-.424l-2.09 3.414c4.91 2.997 11.03 3.284 16.17.536l-1.89-3.526zm-12.34-.506l-.16-.08-1.79 3.578.16.08 1.79-3.578zm.01.016a16.003 16.003 0 00-16.29-.457l1.94 3.5a11.996 11.996 0 0112.22.343l2.13-3.386zm190.38 40.022l-2.47-1.268-1.83 3.556 2.47 1.268 1.83-3.556zm-2.47-1.27c-3.11-1.594-6.94-1.641-10.11-.097l1.75 3.596c2.04-.992 4.54-.96 6.54.062l1.82-3.561zm-10.07-.113l-.52.238 1.69 3.627.51-.238-1.68-3.627zm-.54.248c-2.08.999-4.62.962-6.65-.12l-1.88 3.53c3.17 1.692 7.05 1.734 10.26.198l-1.73-3.608zm-6.67-.129c-3.04-1.585-6.8-1.734-9.98-.283l1.66 3.639c2.03-.926 4.5-.839 6.47.192l1.85-3.548zm-9.98-.281l-1.21.555 1.67 3.635 1.21-.555-1.67-3.635zm-1.21.553c-2.03.926-4.49.838-6.47-.192l-1.85 3.547c3.04 1.585 6.81 1.735 9.98.283l-1.66-3.638zm-6.61-.259l-.09-.039-1.57 3.68.09.04 1.57-3.681zm.07.039c-3.07-1.65-6.9-1.742-10.07-.245l1.7 3.617c2.04-.96 4.53-.893 6.48.152l1.89-3.524zm-88.57-91.274a16.15 16.15 0 00-16.36-.182l1.98 3.474a12.152 12.152 0 0112.32.138l2.06-3.43zm-16.33-.201l-.88.48 1.92 3.512.88-.48-1.92-3.512zm-.9.492c-3.94 2.209-8.68 2.136-12.54-.272l-2.12 3.392c5.12 3.194 11.43 3.281 16.62.368l-1.96-3.488zm-12.55-.283c-4.91-2.997-11.03-3.284-16.17-.536l1.89 3.526c3.84-2.054 8.45-1.861 12.19.424l2.09-3.414zm-16.17-.534l-2.08 1.12 1.89 3.523 2.08-1.121-1.89-3.522zm111.07-15.849c2.57-.092 5.12-.824 7.39-2.094l-1.95-3.491c-1.74.971-3.67 1.519-5.59 1.587l.15 3.998zm7.37-2.084l.88-.48-1.91-3.512-.88.48 1.91 3.512zm.9-.492c3.94-2.209 8.69-2.136 12.54.273l2.12-3.393c-5.11-3.194-11.42-3.281-16.61-.368l1.95 3.488zm12.56.283c4.91 2.997 11.03 3.285 16.16.537l-1.88-3.527c-3.84 2.054-8.45 1.861-12.2-.424l-2.08 3.414zm16.17.535l2.08-1.121-1.9-3.522-2.08 1.12 1.9 3.523zM1360.52 444v30.413h4V444h-4zm417.3 119.252l-39.01-.16-.01 4 39 .16.02-4zm-39.02-.16c-2.36 0-4.78-.502-7.2-1.332l-1.29 3.783c2.7.931 5.57 1.549 8.49 1.549v-4zm-7.19-1.33c-4.22-1.466-8.87-1.093-12.87.997l1.85 3.546c3.04-1.592 6.56-1.86 9.71-.764l1.31-3.779zm-12.9 1.009l-2.08 1.12 1.9 3.523 2.08-1.121-1.9-3.522zm-400.4 1.929a16.152 16.152 0 00-16.36-.181l1.98 3.473c3.86-2.2 8.53-2.133 12.32.139l2.06-3.431zm-16.32-.201l-.89.481 1.92 3.512.88-.481-1.91-3.512zm-.91.492c-3.93 2.21-8.68 2.136-12.54-.272l-2.11 3.393c5.11 3.194 11.42 3.281 16.61.368l-1.96-3.489zm-12.55-.282c-4.91-2.997-11.03-3.285-16.17-.537l1.89 3.526c3.84-2.054 8.45-1.861 12.19.424l2.09-3.413zm-16.17-.535l-2.08 1.12 1.89 3.523 2.09-1.121-1.9-3.522zm-2.08 1.118c-3.84 2.055-8.45 1.862-12.19-.423l-2.08 3.413c4.9 2.998 11.03 3.285 16.16.537l-1.89-3.527zm-12.34-.505l-.16-.08-1.79 3.577.16.08 1.79-3.577zm0 .01a16.283 16.283 0 00-13.61-1.643l1.25 3.802c3.37-1.1 7.16-.686 10.25 1.238l2.11-3.397zm-13.6-1.646c-1.98.637-4.08.864-6.27.864v4c2.45 0 5-.253 7.5-1.056l-1.23-3.808zm-6.27.864h-29.24v4h29.24v-4zm57.19 18.012l-.88.48 1.91 3.513.88-.481-1.91-3.512zm-.9.492c-3.94 2.209-8.69 2.136-12.54-.272l-2.12 3.393c5.11 3.194 11.42 3.281 16.61.368l-1.95-3.489zm-12.56-.283c-4.91-2.997-11.03-3.284-16.16-.536l1.88 3.526c3.84-2.054 8.45-1.861 12.19.424l2.09-3.414zm-16.16-.541c-1.09.578-2.29.889-3.47.889v4c1.87 0 3.72-.491 5.35-1.353l-1.88-3.536zm-3.47.889h-26.91v4h26.91v-4zm190.11-441.372v-.413h-4v.413h4zm0-.413c0-3.927 2.69-7.282 6.28-8.285l-1.07-3.853c-5.28 1.473-9.21 6.369-9.21 12.138h4zm7.74-10.096c.66-11.533 10.22-20.703 21.95-20.703v-4c-13.87 0-25.16 10.84-25.94 24.473l3.99.23zM1481.97 110c7.94 0 14.95 4.251 18.84 10.596l3.41-2.089c-4.58-7.475-12.85-12.507-22.25-12.507v4zm20.98 11.504c.67-.15 1.47-.158 2.56-.158v-4c-.99 0-2.25-.009-3.43.253l.87 3.905zm2.56-.158c8.59 0 15.54 6.944 15.54 15.534h4c0-10.802-8.74-19.534-19.54-19.534v4zm15.54 15.534c0 1.367-.18 2.658-.46 3.881l3.9.901c.33-1.459.56-3.056.56-4.782h-4zm-70.77 2.745H1345v4h105.28v-4zm71.84 5.031h122.21v-4h-122.21v4zM1384.95 133h70.7v-4h-70.7v4zM433.283 338.212v-.413h-4v.413h4zm0-.413c0-3.927 2.682-7.282 6.279-8.285l-1.075-3.853c-5.28 1.473-9.204 6.369-9.204 12.138h4zm7.738-10.096C441.684 316.17 451.24 307 462.971 307v-4c-13.867 0-25.16 10.84-25.943 24.473l3.993.23zM462.971 307c7.942 0 14.949 4.251 18.835 10.596l3.412-2.089C480.64 308.032 472.371 303 462.971 303v4zm20.975 11.504c.674-.15 1.476-.158 2.559-.158v-4c-.981 0-2.244-.009-3.427.253l.868 3.905zm2.559-.158c8.6 0 15.548 6.944 15.548 15.534h4c0-10.802-8.742-19.534-19.548-19.534v4zm15.548 15.534c0 1.367-.183 2.658-.465 3.881l3.897.901c.337-1.459.568-3.056.568-4.782h-4zm-70.77 2.745H326v4h105.283v-4zm71.841 5.031h122.211v-4H503.124v4zM365.945 330h70.705v-4h-70.705v4zM174.283 485.212v-.413h-4v.413h4zm0-.413c0-3.927 2.682-7.282 6.279-8.285l-1.075-3.853c-5.28 1.473-9.204 6.369-9.204 12.138h4zm7.738-10.096C182.684 463.17 192.24 454 203.971 454v-4c-13.867 0-25.16 10.84-25.943 24.473l3.993.23zM203.971 454c7.942 0 14.949 4.251 18.835 10.596l3.412-2.089C221.64 455.032 213.371 450 203.971 450v4zm20.975 11.504c.674-.15 1.476-.158 2.559-.158v-4c-.981 0-2.244-.009-3.427.253l.868 3.905zm2.559-.158c8.6 0 15.548 6.944 15.548 15.534h4c0-10.802-8.742-19.534-19.548-19.534v4zm15.548 15.534c0 1.367-.183 2.658-.465 3.881l3.897.901c.337-1.459.568-3.056.568-4.782h-4zm-70.77 2.745H67v4h105.283v-4zm71.841 5.031h122.211v-4H244.124v4zM106.945 477h70.705v-4h-70.705v4zm94.338 176.135v-.413h-4v.413h4zm0-.413c0-3.926 2.682-7.281 6.279-8.284l-1.075-3.853c-5.28 1.472-9.204 6.369-9.204 12.137h4zm7.738-10.096c.663-11.533 10.219-20.703 21.95-20.703v-4c-13.867 0-25.16 10.84-25.943 24.474l3.993.229zm21.95-20.703c7.942 0 14.949 4.251 18.835 10.597l3.412-2.089c-4.578-7.476-12.847-12.508-22.247-12.508v4zm20.975 11.505c.674-.15 1.476-.159 2.559-.159v-4c-.981 0-2.244-.009-3.427.254l.868 3.905zm2.559-.159c8.6 0 15.548 6.945 15.548 15.534h4c0-10.801-8.742-19.534-19.548-19.534v4zm15.548 15.534a17.19 17.19 0 01-.465 3.882l3.897.9c.337-1.458.568-3.055.568-4.782h-4zm-70.77 2.745H94v4h105.283v-4zm71.841 5.031h122.211v-4H271.124v4zm-137.179-11.655h70.705v-4h-70.705v4zm1547.515-421.78v-.31h-4v.31h4zm0-.31c0-3.019 2.4-5.426 5.43-5.426v-4a9.398 9.398 0 00-9.43 9.426h4zm5.43-5.426a7.556 7.556 0 01.21.003l-.02-.004c-.01-.002-.01-.003 0 .002l1.27-3.795c-.64-.214-1.13-.206-1.46-.206v4zm30.96-1.341h.21v-4h-.21v4zm.21 0c3.95 0 7.08 3.129 7.08 7.077h4c0-6.16-4.92-11.077-11.08-11.077v4zm-38.6 5.077H1652v4h27.46v-4zm81.85 0h-34.06v4h34.06v-4zm-71.71-5.391c.8-6.638 6.46-11.753 13.29-11.753v-4c-8.87 0-16.21 6.643-17.26 15.27l3.97.483zM1702.89 204c6.37 0 11.77 4.489 13.12 10.505l3.9-.875c-1.75-7.805-8.74-13.63-17.02-13.63v4zM266.456 550.067v-.309h-4v.309h4zm0-.309a5.398 5.398 0 015.432-5.426v-4a9.398 9.398 0 00-9.432 9.426h4zm5.432-5.426a7.168 7.168 0 01.214.003l-.023-.004c-.01-.002-.011-.003.003.001l1.264-3.795c-.641-.213-1.13-.205-1.458-.205v4zm30.966-1.341h.206v-4h-.206v4zm.206 0c3.955 0 7.083 3.128 7.083 7.076h4c0-6.16-4.922-11.076-11.083-11.076v4zm-38.604 5.076H237v4h27.456v-4zm81.853 0h-34.062v4h34.062v-4zm-71.713-5.39c.808-6.638 6.466-11.754 13.291-11.754v-4c-8.865 0-16.212 6.643-17.262 15.27l3.971.484zm13.291-11.754c6.373 0 11.77 4.489 13.118 10.505l3.903-.874c-1.748-7.805-8.737-13.631-17.021-13.631v4zM31.457 687.067v-.309h-4v.309h4zm0-.309a5.398 5.398 0 015.43-5.426v-4a9.398 9.398 0 00-9.43 9.426h4zm5.43-5.426l.17.001c.035 0 .046.002.045.002l-.023-.004c-.01-.002-.01-.003.003.001l1.264-3.795c-.64-.213-1.13-.205-1.458-.205v4zm30.966-1.341h.207v-4h-.208v4zm.207 0c3.955 0 7.083 3.128 7.083 7.076h4c0-6.16-4.922-11.076-11.083-11.076v4zm-38.604 5.076H2v4h27.456v-4zm81.853 0H77.247v4h34.062v-4zm-71.713-5.39c.808-6.638 6.467-11.754 13.29-11.754v-4c-8.864 0-16.211 6.643-17.261 15.27l3.97.484zm13.29-11.754c6.374 0 11.771 4.489 13.12 10.505l3.902-.874c-1.748-7.805-8.737-13.631-17.021-13.631v4zM1658.24 43v-.599h-4V43h4zm0-.6c0-6.894 5.51-12.4 12.41-12.4v-4c-9.11 0-16.41 7.294-16.41 16.4h4zm12.41-12.4c.58 0 .7.008.97.098l1.26-3.796c-.93-.31-1.61-.302-2.23-.302v4zm60.05-2.6h.4v-4h-.4v4zm.4 0c8.7 0 15.61 6.906 15.61 15.6h4c0-10.906-8.7-19.6-19.61-19.6v4zM1656.24 41H1603v4h53.24v-4zm158.72 0h-66.05v4h66.05v-4zm-140.92-12.558C1675.72 14.636 1687.48 4 1701.67 4V0c-16.23 0-29.68 12.164-31.6 27.959l3.97.483zM1701.67 4c13.26 0 24.47 9.332 27.28 21.837l3.9-.874C1729.65 10.668 1716.84 0 1701.67 0v4zm-477.82 447.008c-.03-.135-.04-.303-.04-.752h-4c0 .376-.01 1.033.16 1.723l3.88-.971zm-.04-.752a7.797 7.797 0 017.81-7.798v-4c-6.59 0-11.81 5.342-11.81 11.798h4zm7.81-7.798c.59 0 .83.012.96.043l.97-3.881c-.71-.175-1.5-.162-1.93-.162v4zm3.36-1.337c1.21-4.13 4.99-7.121 9.44-7.121v-4c-6.29 0-11.59 4.229-13.28 10l3.84 1.121zm9.44-7.121c4.87 0 8.91 3.596 9.69 8.231l3.94-.658c-1.08-6.505-6.74-11.573-13.63-11.573v4zm10.99 9.785c2.14.766 3.73 2.831 3.73 5.233h4c0-4.198-2.75-7.703-6.39-9l-1.34 3.767zm3.73 5.233a5.76 5.76 0 01-.24 1.616l3.85 1.1c.26-.893.39-1.8.39-2.716h-4zm-76.14 4.579h38.81v-4H1183v4zm77.83-.206h18.99v-4h-18.99v4zm291.81-66.247v-.515h-4v.515h4zm0-.515c0-5.751 4.59-10.343 10.35-10.343v-4c-7.97 0-14.35 6.38-14.35 14.343h4zm10.35-10.343c.28 0 .39.002.49.012.06.006.13.018.25.057l1.26-3.795c-.84-.282-1.47-.274-2-.274v4zm51.47-2.228h.34v-4h-.34v4zm.34 0c7.3 0 13.1 5.792 13.1 13.086h4c0-9.506-7.59-17.086-17.1-17.086v4zm-64.16 11.086H1505v4h45.64v-4zm136.05 0h-56.62v4h56.62v-4zM1566.17 374.7c1.43-11.692 11.39-20.7 23.41-20.7v-4c-14.06 0-25.71 10.536-27.38 24.216l3.97.484zm23.41-20.7c11.23 0 20.72 7.904 23.1 18.495l3.9-.874c-2.77-12.381-13.86-21.621-27-21.621v4zM717.449 616.923v-.512h-4v.512h4zm0-.512c0-5.723 4.57-10.293 10.302-10.293v-4a14.246 14.246 0 00-14.302 14.293h4zm10.302-10.293c.277 0 .388.002.484.012.066.006.134.018.251.056l1.264-3.795c-.844-.281-1.468-.273-1.999-.273v4zm51.258-2.219h.342v-4h-.342v4zm.342 0c7.269 0 13.036 5.765 13.036 13.024h4c0-9.471-7.561-17.024-17.036-17.024v4zm-63.902 11.024H670v4h45.449v-4zm135.493 0h-56.384v4h56.384v-4zm-120.01-10.392c1.417-11.64 11.337-20.608 23.302-20.608v-4c-14.006 0-25.614 10.496-27.273 24.125l3.971.483zm23.302-20.608c11.176 0 20.632 7.869 22.995 18.413l3.903-.874c-2.764-12.334-13.811-21.539-26.898-21.539v4z" fill="#074F79"/></svg>