<svg width="626" height="192" viewBox="0 0 626 192" fill="none" xmlns="http://www.w3.org/2000/svg">
<path d="M289.547 164.344H535.235" stroke="#2C373D" stroke-width="4" stroke-miterlimit="10" stroke-linecap="round" stroke-linejoin="round"/>
<path d="M622.771 107.669L572.733 166.29C570.419 168.965 569.08 172.127 568.593 175.654L566.889 189.397H27.665C26.5693 189.397 25.7171 188.546 25.7171 187.451V169.573C25.7171 169.452 25.717 169.208 25.5953 169.208L2.9501 109.858C1.00213 104.628 4.77632 99.1556 10.3767 99.1556H29.3695C30.4652 99.1556 31.3175 98.3043 31.3175 97.2097V50.9943C31.3175 49.8998 32.1697 49.0484 33.2655 49.0484H49.945C51.0407 49.0484 51.893 48.1971 51.893 47.1025V37.9811C51.893 36.8865 52.7452 36.0352 53.841 36.0352H62.9721C64.0678 36.0352 64.9201 36.8865 64.9201 37.9811V47.1025C64.9201 48.1971 65.7723 49.0484 66.868 49.0484H128.96C130.055 49.0484 130.908 49.8998 130.908 50.9943V97.2097C130.908 98.3043 131.76 99.1556 132.856 99.1556H146.492C147.465 99.1556 148.318 99.8853 148.318 100.858C149.17 109.98 156.962 117.155 166.336 117.155H506.745C516.12 117.155 523.912 109.98 524.764 100.858C524.886 99.8853 525.616 99.1556 526.59 99.1556H618.632C622.771 99.034 625.328 104.02 622.771 107.669Z" stroke="#2C373D" stroke-width="4" stroke-miterlimit="10" stroke-linejoin="round"/>
<path d="M599.959 113.75C599.959 116.543 597.692 118.811 594.891 118.811C592.09 118.811 589.823 116.543 589.823 113.75C589.823 110.957 592.09 108.689 594.891 108.689C597.692 108.689 599.959 110.957 599.959 113.75Z" stroke="#2C373D" stroke-width="3.5"/>
<path d="M309.634 88.8179H255.7C254.239 88.8179 253.143 90.0341 253.143 91.3719V110.101C253.143 111.561 254.361 112.655 255.7 112.655H309.634C311.095 112.655 312.191 111.439 312.191 110.101V91.3719C312.313 90.0341 311.095 88.8179 309.634 88.8179ZM245.595 60.967H191.66C190.199 60.967 189.104 62.1832 189.104 63.5211V82.2504C189.104 83.7099 190.321 84.8045 191.66 84.8045H245.595C247.056 84.8045 248.152 83.5883 248.152 82.2504V63.5211C248.152 62.0616 247.056 60.967 245.595 60.967ZM309.634 60.967H255.7C254.239 60.967 253.143 62.1832 253.143 63.5211V82.2504C253.143 83.7099 254.361 84.8045 255.7 84.8045H309.634C311.095 84.8045 312.191 83.5883 312.191 82.2504V63.5211C312.313 62.0616 311.095 60.967 309.634 60.967ZM245.595 88.8179H191.66C190.199 88.8179 189.104 90.0341 189.104 91.3719V110.101C189.104 111.561 190.321 112.655 191.66 112.655H245.595C247.056 112.655 248.152 111.439 248.152 110.101V91.3719C248.152 90.0341 247.056 88.8179 245.595 88.8179ZM486.535 60.967H460.359C458.898 60.967 457.802 62.1832 457.802 63.5211V110.101C457.802 111.561 459.02 112.655 460.359 112.655H486.535C487.996 112.655 489.092 111.439 489.092 110.101V63.5211C489.092 62.0616 487.996 60.967 486.535 60.967ZM449.28 60.967H423.104C421.643 60.967 420.547 62.1832 420.547 63.5211V110.101C420.547 111.561 421.765 112.655 423.104 112.655H449.28C450.741 112.655 451.837 111.439 451.837 110.101V63.5211C451.837 62.0616 450.741 60.967 449.28 60.967ZM411.66 60.967H385.484C384.023 60.967 382.927 62.1832 382.927 63.5211V110.101C382.927 111.561 384.145 112.655 385.484 112.655H411.66C413.121 112.655 414.216 111.439 414.216 110.101V63.5211C414.338 62.0616 413.121 60.967 411.66 60.967ZM374.039 60.967H320.105C318.644 60.967 317.548 62.1832 317.548 63.5211V82.2504C317.548 83.7099 318.766 84.8045 320.105 84.8045H374.039C375.5 84.8045 376.596 83.5883 376.596 82.2504V63.5211C376.596 62.0616 375.379 60.967 374.039 60.967ZM374.039 88.8179H320.105C318.644 88.8179 317.548 90.0341 317.548 91.3719V110.101C317.548 111.561 318.766 112.655 320.105 112.655H374.039C375.5 112.655 376.596 111.439 376.596 110.101V91.3719C376.596 90.0341 375.379 88.8179 374.039 88.8179Z" fill="url(#paint0_linear)"/>
<path d="M121.899 57.6833H112.037V67.5345H121.899V57.6833Z" stroke="#2C373D" stroke-width="4" stroke-miterlimit="10" stroke-linejoin="round"/>
<path d="M106.559 57.6833H96.6973V67.5345H106.559V57.6833Z" stroke="#2C373D" stroke-width="4" stroke-miterlimit="10" stroke-linejoin="round"/>
<path d="M91.3401 57.9265H81.4785V67.7776H91.3401V57.9265Z" stroke="#2C373D" stroke-width="4" stroke-miterlimit="10" stroke-linejoin="round"/>
<path d="M76.1214 57.9265H66.2598V67.7776H76.1214V57.9265Z" stroke="#2C373D" stroke-width="4" stroke-miterlimit="10" stroke-linejoin="round"/>
<path d="M22.6738 99.0339H109.115" stroke="#2C373D" stroke-width="4" stroke-miterlimit="10" stroke-linecap="round" stroke-linejoin="round"/>
<path d="M81.4785 2.22485V48.4402" stroke="#2C373D" stroke-width="4" stroke-miterlimit="10" stroke-linecap="round" stroke-linejoin="round"/>
<defs>
<linearGradient id="paint0_linear" x1="189.097" y1="86.8578" x2="489.141" y2="86.8578" gradientUnits="userSpaceOnUse">
<stop stop-color="#008DD2"/>
<stop offset="1" stop-color="#003C5F"/>
</linearGradient>
</defs>
</svg>
