<svg width="443" height="133" viewBox="0 0 443 133" fill="none" xmlns="http://www.w3.org/2000/svg">
<path d="M245.003 91.9054L237.365 103.303C237.001 103.909 236.273 104.273 235.546 104.273H185.228L180.015 111.184C179.53 111.79 178.923 112.032 178.317 112.032H174.074C172.619 112.032 171.285 111.548 170.072 110.82C168.86 110.093 168.011 108.88 167.405 107.546C167.041 106.819 166.678 106.091 166.314 105.485C165.829 104.758 165.344 104.151 164.859 103.545C163.404 101.969 161.706 100.757 159.766 99.9078C157.826 99.059 155.765 98.574 153.583 98.574C151.4 98.574 149.339 99.059 147.399 99.9078C145.459 100.757 143.641 102.09 142.307 103.545L142.186 103.666C141.701 104.273 141.216 104.879 140.731 105.485C140.246 106.213 139.882 106.94 139.518 107.668C138.912 109.001 138.063 110.093 136.851 110.82C135.759 111.548 134.426 112.032 132.971 112.032H132.85C131.395 112.032 130.061 111.548 128.848 110.82L128.727 110.699C127.636 109.971 126.787 108.759 126.181 107.546C125.817 106.819 125.453 106.091 125.09 105.485C124.726 104.879 124.241 104.151 123.635 103.545C122.18 101.848 120.482 100.514 118.421 99.544C116.481 98.6953 114.299 98.2103 111.995 98.2103C109.691 98.2103 107.509 98.6953 105.569 99.544C103.508 100.514 101.81 101.848 100.355 103.545C99.8703 104.151 99.2641 104.879 98.9003 105.606C98.4153 106.334 98.0516 107.061 97.8091 107.91C97.3241 109.123 96.4754 110.214 95.3841 110.941C94.2929 111.669 93.0805 112.154 91.6255 112.154H87.9881C87.1393 112.154 86.4118 111.669 86.0481 110.941L82.047 104.394H49.189C47.9765 104.394 47.0065 103.424 47.0065 102.211V90.8142C47.0065 89.6018 47.9765 88.6318 49.189 88.6318H107.509V83.4181C107.509 82.2057 108.479 81.2357 109.691 81.2357H123.877C125.09 81.2357 126.06 82.2057 126.06 83.4181V88.6318H218.208V83.4181C218.208 82.2057 219.178 81.2357 220.39 81.2357H233.97C235.182 81.2357 236.152 82.2057 236.152 83.4181V88.6318H243.427C244.639 88.6318 245.609 89.6018 245.609 90.8142C245.367 91.178 245.246 91.5417 245.003 91.9054ZM14.0273 127.795C15.2397 127.795 16.2097 128.765 16.2097 129.977C16.2097 131.19 15.2397 132.16 14.0273 132.16H2.38753C1.17506 132.16 0.205078 131.19 0.205078 129.977C0.205078 128.765 1.17506 127.795 2.38753 127.795H14.0273ZM65.0723 127.795C66.2848 127.795 67.2548 128.765 67.2548 129.977C67.2548 131.19 66.2848 132.16 65.0723 132.16H23.2421C22.0296 132.16 21.0596 131.19 21.0596 129.977C21.0596 128.765 22.0296 127.795 23.2421 127.795H65.0723ZM440.817 127.795C442.03 127.795 443 128.765 443 129.977C443 131.19 442.03 132.16 440.817 132.16H74.6509C73.4384 132.16 72.4684 131.19 72.4684 129.977C72.4684 128.765 73.4384 127.795 74.6509 127.795H273.133C269.495 127.673 266.221 126.097 263.675 123.672C261.129 121.126 259.553 117.489 259.553 113.609C259.553 109.729 261.129 106.091 263.675 103.545C266.221 100.999 269.859 99.4228 273.739 99.4228C277.619 99.4228 281.256 100.999 283.802 103.545C286.349 106.091 287.925 109.729 287.925 113.609C287.925 117.489 286.349 121.126 283.802 123.672C281.377 126.097 278.104 127.673 274.345 127.795H369.767C366.129 127.673 362.855 126.097 360.309 123.672C357.763 121.126 356.187 117.489 356.187 113.609C356.187 109.729 357.763 106.091 360.309 103.545C362.855 100.999 366.493 99.4228 370.373 99.4228C374.253 99.4228 377.89 100.999 380.436 103.545C382.983 106.091 384.559 109.729 384.559 113.609C384.559 117.489 382.983 121.126 380.436 123.672C378.011 126.097 374.738 127.673 370.979 127.795H440.817ZM119.997 113.366C119.997 115.427 119.149 117.367 117.694 118.822C116.36 120.156 114.42 121.126 112.238 121.126C110.176 121.126 108.236 120.277 106.781 118.822C105.448 117.489 104.478 115.549 104.478 113.366C104.478 111.305 105.326 109.365 106.781 107.91C108.236 106.455 110.055 105.606 112.238 105.606C114.299 105.606 116.239 106.455 117.694 107.91C119.149 109.244 119.997 111.184 119.997 113.366ZM114.784 115.67C115.39 115.064 115.754 114.215 115.754 113.245C115.754 112.275 115.39 111.426 114.784 110.82C114.177 110.214 113.329 109.85 112.359 109.85C111.389 109.85 110.54 110.214 109.934 110.82C109.328 111.426 108.964 112.275 108.964 113.245C108.964 114.215 109.328 115.064 109.934 115.67C110.54 116.276 111.389 116.64 112.359 116.64C113.329 116.64 114.177 116.276 114.784 115.67ZM126.666 113.366C126.666 117.246 125.09 120.884 122.544 123.43C119.997 125.976 116.36 127.552 112.48 127.552C108.6 127.552 104.963 125.976 102.416 123.43C99.8703 120.884 98.2941 117.246 98.2941 113.366C98.2941 109.486 99.8703 105.849 102.416 103.303C104.963 100.756 108.6 99.1803 112.48 99.1803C116.36 99.1803 119.997 100.756 122.544 103.303C125.09 105.97 126.666 109.486 126.666 113.366ZM119.391 120.399C121.21 118.58 122.301 116.155 122.301 113.366C122.301 110.699 121.21 108.153 119.391 106.334C117.572 104.515 115.147 103.424 112.359 103.424C109.691 103.424 107.145 104.515 105.326 106.334C103.508 108.153 102.416 110.578 102.416 113.366C102.416 116.034 103.508 118.58 105.326 120.399C107.145 122.217 109.57 123.308 112.359 123.308C115.147 123.308 117.694 122.217 119.391 120.399ZM160.979 113.366C160.979 115.549 160.13 117.367 158.675 118.822L158.554 118.944C157.22 120.277 155.28 121.126 153.219 121.126C151.158 121.126 149.218 120.277 147.763 118.822C146.308 117.367 145.459 115.549 145.459 113.366C145.459 111.305 146.308 109.365 147.763 107.91C149.218 106.576 151.037 105.606 153.219 105.606C155.28 105.606 157.22 106.455 158.675 107.91C160.13 109.244 160.979 111.184 160.979 113.366ZM155.644 115.67C156.25 115.064 156.614 114.215 156.614 113.245C156.614 112.275 156.25 111.426 155.644 110.82C155.038 110.214 154.189 109.85 153.219 109.85C152.249 109.85 151.4 110.214 150.794 110.82C150.188 111.426 149.824 112.275 149.824 113.245C149.824 114.215 150.188 115.064 150.794 115.67C151.4 116.276 152.249 116.64 153.219 116.64C154.189 116.64 155.038 116.397 155.644 115.67ZM167.647 113.366C167.647 117.246 166.071 120.884 163.525 123.43C160.979 125.976 157.341 127.552 153.462 127.552C149.582 127.552 145.944 125.976 143.398 123.43C140.852 120.884 139.276 117.246 139.276 113.366C139.276 109.486 140.852 105.849 143.398 103.303C145.944 100.756 149.582 99.1803 153.462 99.1803C157.341 99.1803 160.979 100.756 163.525 103.303C166.071 105.97 167.647 109.486 167.647 113.366ZM160.373 120.399C162.191 118.58 163.283 116.155 163.283 113.366C163.283 110.699 162.191 108.153 160.373 106.334C158.554 104.515 156.129 103.424 153.34 103.424C150.552 103.424 148.127 104.515 146.308 106.334C144.489 108.153 143.398 110.578 143.398 113.366C143.398 116.034 144.489 118.58 146.308 120.399C148.127 122.217 150.552 123.308 153.34 123.308C156.129 123.308 158.554 122.217 160.373 120.399ZM378.133 113.487C378.133 115.549 377.284 117.489 375.829 118.944C374.495 120.277 372.555 121.247 370.373 121.247C368.312 121.247 366.372 120.399 364.917 118.944C363.462 117.489 362.613 115.67 362.613 113.487C362.613 111.305 363.462 109.486 364.917 108.031L365.038 107.91C366.372 106.576 368.312 105.728 370.373 105.728C372.555 105.728 374.374 106.576 375.829 108.031C377.284 109.486 378.133 111.426 378.133 113.487ZM372.798 115.912C373.404 115.306 373.768 114.457 373.768 113.487C373.768 112.517 373.404 111.669 372.798 111.063C372.192 110.456 371.343 110.093 370.373 110.093C369.524 110.093 368.675 110.456 368.069 110.941L367.948 111.063C367.342 111.669 366.978 112.517 366.978 113.487C366.978 114.457 367.342 115.306 367.948 115.912C368.554 116.519 369.403 116.882 370.373 116.882C371.343 116.882 372.192 116.519 372.798 115.912ZM377.526 120.641C379.345 118.822 380.436 116.397 380.436 113.609C380.436 110.941 379.345 108.395 377.526 106.576C375.708 104.758 373.283 103.666 370.494 103.666C367.827 103.666 365.28 104.758 363.462 106.576C361.643 108.395 360.552 110.82 360.552 113.609C360.552 116.276 361.643 118.822 363.462 120.641C365.28 122.46 367.705 123.551 370.494 123.551C373.283 123.551 375.708 122.339 377.526 120.641ZM281.499 113.487C281.499 115.549 280.65 117.489 279.195 118.944C277.861 120.277 275.921 121.247 273.739 121.247C271.556 121.247 269.738 120.399 268.283 118.944L268.161 118.822C266.828 117.489 265.979 115.549 265.979 113.487C265.979 111.426 266.828 109.486 268.283 108.031C269.616 106.698 271.556 105.728 273.739 105.728C275.921 105.728 277.74 106.576 279.195 108.031C280.65 109.486 281.499 111.426 281.499 113.487ZM276.164 115.912C276.77 115.306 277.134 114.457 277.134 113.487C277.134 112.517 276.77 111.669 276.164 111.063C275.558 110.456 274.709 110.093 273.739 110.093C272.769 110.093 271.92 110.456 271.314 111.063C270.708 111.669 270.344 112.517 270.344 113.487C270.344 114.336 270.708 115.185 271.193 115.791L271.314 115.912C271.92 116.519 272.769 116.882 273.739 116.882C274.709 116.882 275.558 116.519 276.164 115.912ZM280.892 120.641C282.711 118.822 283.802 116.397 283.802 113.609C283.802 110.941 282.711 108.395 280.892 106.576C279.074 104.758 276.649 103.666 273.86 103.666C271.193 103.666 268.646 104.758 266.828 106.576C265.009 108.395 263.918 110.82 263.918 113.609C263.918 116.276 265.009 118.822 266.828 120.641C268.646 122.46 271.071 123.551 273.86 123.551C276.527 123.551 279.074 122.339 280.892 120.641ZM374.495 65.2311V43.8915C374.495 42.6791 375.465 41.7091 376.678 41.7091H385.65C388.56 41.7091 391.349 42.8003 393.531 44.4978C395.714 46.1952 397.29 48.7415 397.896 51.6514L400.078 62.1999C400.2 62.5636 400.2 62.8061 400.2 63.0486C400.2 64.0186 399.836 64.9886 399.23 65.716C398.623 66.4435 397.775 67.0498 396.805 67.171C396.441 67.2923 396.198 67.2923 395.956 67.2923H376.92C375.465 67.4135 374.495 66.4435 374.495 65.2311ZM378.86 46.074V63.0486H395.714C394.986 59.5325 394.38 56.0163 393.531 52.5001C393.167 50.6814 392.076 48.9839 390.742 47.8927C389.287 46.8015 387.59 46.074 385.65 46.074H378.86ZM398.745 116.882H398.987C400.442 116.761 401.776 116.155 402.746 115.185C403.716 114.215 404.322 112.881 404.322 111.426V111.184L402.018 59.1687C401.291 50.5601 397.653 42.9216 392.197 37.1017C386.862 31.5244 379.588 27.8869 371.343 27.1594L339.334 24.492C339.091 24.492 338.849 24.6132 338.727 24.7345C338.606 24.8557 338.485 25.0982 338.485 25.3407L337.394 90.0867C337.394 91.2992 336.424 92.2692 335.211 92.2692H259.189C257.37 92.2692 255.673 92.9967 254.461 94.2091C253.248 95.4216 252.521 97.1191 252.521 98.9378V116.882H252.642C252.884 116.882 253.127 116.761 253.248 116.64C253.369 116.519 253.491 116.276 253.491 116.034V114.821C253.491 109.244 255.794 104.151 259.432 100.393C263.069 96.6341 268.161 94.3304 273.739 94.2091C274.103 94.2091 273.981 94.2091 274.103 94.2091C279.801 94.2091 284.894 96.6341 288.652 100.393C292.411 104.151 294.715 109.365 294.836 114.942C294.836 115.427 294.836 115.185 294.836 115.306V116.882H349.397V111.911C349.397 106.334 351.701 101.241 355.338 97.4828C358.976 93.7242 364.068 91.4205 369.645 91.2992C370.009 91.2992 369.888 91.2992 370.009 91.2992C375.708 91.2992 380.8 93.7242 384.559 97.4828C388.317 101.241 390.621 106.455 390.742 112.032C390.742 112.396 390.742 112.275 390.742 112.396V116.882H398.745ZM399.23 121.247H398.745H388.56C387.347 121.247 386.377 120.277 386.377 119.065V112.396C386.377 111.911 386.377 112.275 386.377 112.032C386.256 107.546 384.438 103.424 381.406 100.393C378.496 97.3616 374.374 95.5429 370.009 95.5429C369.645 95.5429 369.888 95.5429 369.767 95.5429C365.28 95.6641 361.279 97.4828 358.491 100.393C355.581 103.303 353.883 107.304 353.883 111.79V118.944C353.883 120.156 352.913 121.126 351.701 121.126H292.775C291.562 121.126 290.592 120.156 290.592 118.944V115.185C290.592 114.7 290.592 115.064 290.592 114.821C290.471 110.335 288.652 106.213 285.621 103.181C282.711 100.15 278.71 98.3316 274.224 98.3316C273.86 98.3316 274.103 98.3316 273.86 98.3316C269.374 98.4528 265.373 100.272 262.584 103.181C259.674 106.091 257.977 110.093 257.977 114.579V115.791C257.977 117.246 257.37 118.58 256.4 119.55C255.43 120.52 254.097 121.126 252.642 121.126H250.338C249.126 121.126 248.156 120.156 248.156 118.944V98.8166C248.156 95.7854 249.368 92.9967 251.429 90.9355C253.491 88.8743 256.158 87.6618 259.31 87.6618H268.889V85.4794H283.439V87.6618H332.907L333.877 25.0982C333.877 23.6433 334.484 22.4308 335.454 21.4608C336.424 20.4908 337.636 20.0059 339.091 20.0059H339.212L371.343 22.6733C380.8 23.4008 388.924 27.6444 394.986 33.9493C401.17 40.3754 405.171 48.9839 406.02 58.5625C406.02 58.6837 406.02 58.6837 406.02 58.805L408.323 110.82V111.305C408.323 113.972 407.232 116.276 405.535 118.095C404.201 119.914 401.776 121.126 399.23 121.247ZM234.455 99.9078L239.183 92.8754H233.848C232.636 92.8754 231.666 91.9054 231.666 90.693V85.4794H222.33V90.693C222.33 91.9054 221.36 92.8754 220.148 92.8754H123.635C122.422 92.8754 121.452 91.9054 121.452 90.693V85.4794H111.631V90.693C111.631 91.9054 110.661 92.8754 109.449 92.8754H51.3714V99.9078H83.6232C84.3506 99.9078 85.0781 100.272 85.4419 100.999L89.5643 107.668H91.9892C92.4742 107.668 92.838 107.546 93.2017 107.304C93.5654 107.061 93.9292 106.698 94.0504 106.213C94.4142 105.243 94.8992 104.273 95.5054 103.303C96.1116 102.333 96.7179 101.484 97.4453 100.635C99.2641 98.4528 101.568 96.7553 104.114 95.5429C106.66 94.3304 109.449 93.7242 112.359 93.7242C115.269 93.7242 118.057 94.3304 120.604 95.5429C123.15 96.7553 125.453 98.4528 127.272 100.635C127.878 101.363 128.485 102.211 129.091 103.06C129.576 103.909 130.061 104.879 130.546 105.728C130.788 106.213 131.152 106.698 131.516 107.061C132.001 107.304 132.486 107.546 132.971 107.546H133.092C133.698 107.546 134.183 107.425 134.547 107.061C135.032 106.698 135.396 106.334 135.638 105.728C136.002 104.758 136.608 103.788 137.093 102.939C137.578 102.09 138.184 101.363 138.912 100.514L139.033 100.393C140.852 98.3316 143.156 96.7553 145.58 95.6641C148.005 94.5729 150.673 93.9667 153.462 93.9667C156.25 93.9667 158.918 94.5729 161.343 95.6641C163.889 96.7553 166.071 98.4528 167.89 100.393C168.617 101.241 169.224 101.969 169.83 102.818C170.436 103.666 170.921 104.636 171.285 105.485C171.527 106.091 171.891 106.576 172.497 106.819C172.982 107.183 173.467 107.304 174.074 107.304H177.226L182.318 100.514C182.682 99.9078 183.41 99.544 184.137 99.544L234.455 99.9078Z" fill="#374148"/>
<path d="M51.4926 85.7218H325.148C327.33 85.7218 329.027 83.9031 329.027 81.8419V3.87989C329.027 1.69744 327.209 0 325.148 0H51.4926C49.3101 0 47.6127 1.69744 47.6127 3.87989V81.8419C47.4914 84.0243 49.3101 85.7218 51.4926 85.7218ZM61.5561 71.4146H57.5549C56.7062 71.4146 55.9787 70.6871 55.9787 69.8384V8.60856C55.9787 7.75983 56.7062 7.03232 57.5549 7.03232H61.5561C62.4048 7.03232 63.1323 7.75983 63.1323 8.60856V69.8384C63.1323 70.6871 62.4048 71.4146 61.5561 71.4146ZM318.115 71.5359H314.114C313.265 71.5359 312.538 70.8084 312.538 69.9596V8.72978C312.538 7.88105 313.265 7.15358 314.114 7.15358H318.115C318.964 7.15358 319.691 7.88105 319.691 8.72978V69.9596C319.813 70.8084 319.085 71.5359 318.115 71.5359ZM301.989 71.2934H297.988C297.139 71.2934 296.412 70.5659 296.412 69.7171V8.48731C296.412 7.63858 297.139 6.91107 297.988 6.91107H301.989C302.838 6.91107 303.566 7.63858 303.566 8.48731V69.5959C303.687 70.5659 302.959 71.2934 301.989 71.2934ZM285.863 71.5359H281.862C281.014 71.5359 280.286 70.8084 280.286 69.9596V8.72978C280.286 7.88105 281.014 7.15358 281.862 7.15358H285.863C286.712 7.15358 287.44 7.88105 287.44 8.72978V69.9596C287.44 70.8084 286.712 71.5359 285.863 71.5359ZM269.98 71.6571H265.979C265.13 71.6571 264.403 70.9296 264.403 70.0809V8.85103C264.403 8.0023 265.13 7.27483 265.979 7.27483H269.98C270.829 7.27483 271.556 8.0023 271.556 8.85103V70.0809C271.556 70.9296 270.829 71.6571 269.98 71.6571ZM253.854 71.4146H249.853C249.004 71.4146 248.277 70.6871 248.277 69.8384V8.60856C248.277 7.75983 249.004 7.03232 249.853 7.03232H253.854C254.703 7.03232 255.43 7.75983 255.43 8.60856V69.8384C255.43 70.6871 254.703 71.4146 253.854 71.4146ZM237.728 71.6571H233.727C232.878 71.6571 232.151 70.9296 232.151 70.0809V8.85103C232.151 8.0023 232.878 7.27483 233.727 7.27483H237.728C238.577 7.27483 239.305 8.0023 239.305 8.85103V70.0809C239.305 70.9296 238.577 71.6571 237.728 71.6571ZM222.209 71.4146H218.208C217.359 71.4146 216.631 70.6871 216.631 69.8384V8.60856C216.631 7.75983 217.359 7.03232 218.208 7.03232H222.209C223.057 7.03232 223.785 7.75983 223.785 8.60856V69.8384C223.785 70.6871 223.057 71.4146 222.209 71.4146ZM206.81 71.6571H202.809C201.96 71.6571 201.233 70.9296 201.233 70.0809V8.85103C201.233 8.0023 201.96 7.27483 202.809 7.27483H206.81C207.659 7.27483 208.386 8.0023 208.386 8.85103V70.0809C208.386 70.9296 207.659 71.6571 206.81 71.6571ZM191.169 71.4146H187.168C186.319 71.4146 185.592 70.6871 185.592 69.8384V8.60856C185.592 7.75983 186.319 7.03232 187.168 7.03232H191.169C192.018 7.03232 192.746 7.75983 192.746 8.60856V69.8384C192.867 70.6871 192.139 71.4146 191.169 71.4146ZM174.316 71.4146H170.315C169.466 71.4146 168.739 70.6871 168.739 69.8384V8.60856C168.739 7.75983 169.466 7.03232 170.315 7.03232H174.316C175.165 7.03232 175.892 7.75983 175.892 8.60856V69.8384C175.892 70.6871 175.165 71.4146 174.316 71.4146ZM157.948 71.4146H153.946C153.098 71.4146 152.37 70.6871 152.37 69.8384V8.60856C152.37 7.75983 153.098 7.03232 153.946 7.03232H157.948C158.796 7.03232 159.524 7.75983 159.524 8.60856V69.8384C159.645 70.6871 158.918 71.4146 157.948 71.4146ZM140.973 71.4146H136.972C136.123 71.4146 135.396 70.6871 135.396 69.8384V8.60856C135.396 7.75983 136.123 7.03232 136.972 7.03232H140.973C141.822 7.03232 142.549 7.75983 142.549 8.60856V69.8384C142.67 70.6871 141.943 71.4146 140.973 71.4146ZM124.726 71.6571H120.725C119.876 71.6571 119.149 70.9296 119.149 70.0809V8.85103C119.149 8.0023 119.876 7.27483 120.725 7.27483H124.726C125.575 7.27483 126.302 8.0023 126.302 8.85103V70.0809C126.423 70.9296 125.575 71.6571 124.726 71.6571ZM108.479 71.4146H104.478C103.629 71.4146 102.901 70.6871 102.901 69.8384V8.60856C102.901 7.75983 103.629 7.03232 104.478 7.03232H108.479C109.327 7.03232 110.055 7.75983 110.055 8.60856V69.8384C110.055 70.6871 109.327 71.4146 108.479 71.4146ZM92.7166 71.4146H88.7155C87.8667 71.4146 87.1393 70.6871 87.1393 69.8384V8.60856C87.1393 7.75983 87.8667 7.03232 88.7155 7.03232H92.7166C93.5654 7.03232 94.2928 7.75983 94.2928 8.60856V69.8384C94.2928 70.6871 93.5654 71.4146 92.7166 71.4146ZM77.3182 71.4146H73.3171C72.4683 71.4146 71.7409 70.6871 71.7409 69.8384V8.60856C71.7409 7.75983 72.4683 7.03232 73.3171 7.03232H77.3182C78.167 7.03232 78.8945 7.75983 78.8945 8.60856V69.8384C79.0157 70.6871 78.2882 71.4146 77.3182 71.4146Z" fill="url(#paint0_linear)"/>
<defs>
<linearGradient id="paint0_linear" x1="47.6004" y1="42.9381" x2="329.074" y2="42.9381" gradientUnits="userSpaceOnUse">
<stop stop-color="#008DD2"/>
<stop offset="1" stop-color="#003C5F"/>
</linearGradient>
</defs>
</svg>
