<svg width="724" height="150" viewBox="0 0 724 150" fill="none" xmlns="http://www.w3.org/2000/svg">
<path d="M291.704 104.626L293.368 105.736C293.778 105.122 293.816 104.333 293.468 103.683C293.12 103.032 292.442 102.626 291.704 102.626V104.626ZM283.182 117.396V119.396C283.85 119.396 284.475 119.062 284.846 118.506L283.182 117.396ZM225.595 117.396V115.396C224.971 115.396 224.382 115.688 224.004 116.184L225.595 117.396ZM219.021 126.031V128.031C219.645 128.031 220.234 127.739 220.612 127.242L219.021 126.031ZM209.037 122.504L210.886 121.742C210.875 121.713 210.862 121.685 210.849 121.657L209.037 122.504ZM205.628 117.396L204.147 118.74C204.169 118.764 204.192 118.788 204.215 118.811L205.628 117.396ZM176.652 117.396L178.121 118.753C178.124 118.75 178.128 118.746 178.131 118.742L176.652 117.396ZM173.243 122.626L171.411 121.823C171.405 121.836 171.4 121.85 171.394 121.863L173.243 122.626ZM162.895 122.504L161.038 123.247C161.04 123.254 161.043 123.26 161.046 123.266L162.895 122.504ZM159.729 117.396L158.19 118.673C158.211 118.698 158.233 118.724 158.256 118.748L159.729 117.396ZM130.022 117.396L128.501 116.097L128.496 116.103L130.022 117.396ZM118.091 126.031L116.392 127.085C116.756 127.673 117.399 128.031 118.091 128.031V126.031ZM112.734 117.396L114.434 116.342C114.069 115.754 113.426 115.396 112.734 115.396V117.396ZM74.2617 117.396H72.2617C72.2617 118.5 73.1571 119.396 74.2617 119.396V117.396ZM74.2617 104.626V102.626C73.1571 102.626 72.2617 103.521 72.2617 104.626H74.2617ZM141.954 104.626V106.626C143.058 106.626 143.954 105.73 143.954 104.626H141.954ZM141.954 96.3557V94.3557C140.849 94.3557 139.954 95.2511 139.954 96.3557H141.954ZM157.781 96.3557H159.781C159.781 95.2511 158.886 94.3557 157.781 94.3557V96.3557ZM157.781 104.626H155.781C155.781 105.73 156.677 106.626 157.781 106.626V104.626ZM265.772 104.626V106.626C266.877 106.626 267.772 105.73 267.772 104.626H265.772ZM265.772 96.3557V94.3557C264.667 94.3557 263.772 95.2511 263.772 96.3557H265.772ZM280.991 96.3557H282.991C282.991 95.2511 282.095 94.3557 280.991 94.3557V96.3557ZM280.991 104.626H278.991C278.991 105.73 279.886 106.626 280.991 106.626V104.626ZM474.449 127.368L472.451 127.46L472.451 127.468L474.449 127.368ZM454.36 136.368H452.36V138.368H454.36V136.368ZM433.298 107.666L433.256 105.667L433.254 105.667L433.298 107.666ZM412.966 136.368V138.368H414.966V136.368H412.966ZM346.856 136.368H344.856V138.368H346.856V136.368ZM325.794 110.828L325.773 108.828L325.762 108.828L325.75 108.829L325.794 110.828ZM299.496 136.247H297.496V138.247H299.496V136.247ZM394.46 103.774V105.774H396.427L396.46 103.808L394.46 103.774ZM395.677 31.2891L397.677 31.3227L397.677 31.3059V31.2891H395.677ZM399.086 27.8838L399.248 25.8903L399.167 25.8838H399.086V27.8838ZM435.124 30.8026L435.292 28.8097L435.285 28.8092L435.124 30.8026ZM471.77 68.8695L473.768 68.7781L473.766 68.7396L473.763 68.7013L471.77 68.8695ZM462.517 61.4507L460.558 61.8519L460.558 61.855L462.517 61.4507ZM441.211 52.2077V50.2077H439.211V52.2077H441.211ZM441.211 76.1667H439.211V78.1667H441.211V76.1667ZM465.927 136.369V134.369C464.822 134.369 463.927 135.265 463.927 136.369H465.927ZM474.571 127.369L472.573 127.461L472.573 127.469L474.571 127.369ZM471.892 69.1136L473.89 69.0218C473.889 68.9919 473.887 68.9621 473.884 68.9324L471.892 69.1136ZM435.246 31.0468L435.415 29.0539L435.407 29.0533L435.246 31.0468ZM399.208 28.1279L399.37 26.1345C399.316 26.1301 399.262 26.1279 399.208 26.1279V28.1279ZM395.799 31.5333L397.799 31.5668C397.799 31.5556 397.799 31.5445 397.799 31.5333L395.799 31.5333ZM394.582 104.018V106.018C395.673 106.018 396.563 105.143 396.582 104.052L394.582 104.018ZM299.618 136.491H297.618C297.618 137.595 298.514 138.491 299.618 138.491V136.491ZM325.916 111.072L325.874 109.073L325.873 109.073L325.916 111.072ZM346.978 136.612H344.978C344.978 137.717 345.874 138.612 346.978 138.612V136.612ZM413.088 136.612V138.612C414.192 138.612 415.088 137.717 415.088 136.612H413.088ZM433.42 107.91L433.378 105.911L433.377 105.911L433.42 107.91ZM454.482 136.491H452.482C452.482 137.595 453.378 138.491 454.482 138.491V136.491ZM465.927 136.491V138.491C467.031 138.491 467.927 137.595 467.927 136.491H465.927ZM722 149C723.105 149 724 148.105 724 147C724 145.895 723.105 145 722 145V149ZM123 145C121.895 145 121 145.895 121 147C121 148.105 121.895 149 123 149V145ZM110.786 149.071C111.891 149.071 112.786 148.175 112.786 147.071C112.786 145.966 111.891 145.071 110.786 145.071V149.071ZM44.4336 145.071C43.329 145.071 42.4336 145.966 42.4336 147.071C42.4336 148.175 43.329 149.071 44.4336 149.071V145.071ZM32.7457 149.071C33.8503 149.071 34.7457 148.175 34.7457 147.071C34.7457 145.966 33.8503 145.071 32.7457 145.071V149.071ZM2.30859 145.071C1.20402 145.071 0.308594 145.966 0.308594 147.071C0.308594 148.175 1.20402 149.071 2.30859 149.071V145.071ZM290.041 103.516L281.518 116.286L284.846 118.506L293.368 105.736L290.041 103.516ZM283.182 115.396H225.595V119.396H283.182V115.396ZM224.004 116.184L217.429 124.819L220.612 127.242L227.186 118.607L224.004 116.184ZM219.021 124.031H214.272V128.031H219.021V124.031ZM214.272 124.031C212.798 124.031 211.441 123.087 210.886 121.742L207.188 123.266C208.338 126.056 211.12 128.031 214.272 128.031V124.031ZM210.849 121.657C209.943 119.717 208.728 117.666 207.042 115.981L204.215 118.811C205.45 120.045 206.427 121.642 207.225 123.35L210.849 121.657ZM207.11 116.052C203.222 111.767 197.459 108.95 191.14 108.95V112.95C196.266 112.95 200.973 115.242 204.147 118.74L207.11 116.052ZM191.14 108.95C184.829 108.95 179.186 111.64 175.173 116.05L178.131 118.742C181.423 115.125 186.007 112.95 191.14 112.95V108.95ZM175.183 116.039C173.565 117.789 172.349 119.681 171.411 121.823L175.075 123.428C175.842 121.678 176.817 120.165 178.121 118.753L175.183 116.039ZM171.394 121.863C170.849 123.186 169.628 124.031 168.13 124.031V128.031C171.258 128.031 173.933 126.2 175.092 123.388L171.394 121.863ZM168.13 124.031H168.008V128.031H168.13V124.031ZM168.008 124.031C166.584 124.031 165.318 123.136 164.744 121.742L161.046 123.266C162.175 126.007 164.806 128.031 168.008 128.031V124.031ZM164.751 121.76C163.942 119.739 162.724 117.702 161.203 116.044L158.256 118.748C159.413 120.009 160.386 121.62 161.038 123.247L164.751 121.76ZM161.268 116.119C157.348 111.392 151.421 108.585 144.876 108.585V112.585C150.262 112.585 155.049 114.886 158.19 118.673L161.268 116.119ZM144.876 108.585C138.305 108.585 132.399 111.532 128.502 116.097L131.543 118.695C134.707 114.989 139.515 112.585 144.876 112.585V108.585ZM128.496 116.103C127.036 117.828 125.688 119.969 124.863 122.166L128.608 123.572C129.244 121.877 130.331 120.126 131.549 118.689L128.496 116.103ZM124.863 122.166C124.436 123.302 123.377 124.031 122.109 124.031V128.031C124.98 128.031 127.573 126.327 128.608 123.572L124.863 122.166ZM122.109 124.031H118.091V128.031H122.109V124.031ZM119.791 124.977L114.434 116.342L111.035 118.45L116.392 127.085L119.791 124.977ZM112.734 115.396H74.2617V119.396H112.734V115.396ZM76.2617 117.396V104.626H72.2617V117.396H76.2617ZM74.2617 106.626H141.954V102.626H74.2617V106.626ZM143.954 104.626V96.3557H139.954V104.626H143.954ZM141.954 98.3557H157.781V94.3557H141.954V98.3557ZM155.781 96.3557V104.626H159.781V96.3557H155.781ZM157.781 106.626H265.772V102.626H157.781V106.626ZM267.772 104.626V96.3557H263.772V104.626H267.772ZM265.772 98.3557H280.991V94.3557H265.772V98.3557ZM278.991 96.3557V104.626H282.991V96.3557H278.991ZM280.991 106.626H291.704V102.626H280.991V106.626ZM472.451 127.468C472.637 131.184 469.659 134.368 465.804 134.368V138.368C471.933 138.368 476.747 133.283 476.446 127.268L472.451 127.468ZM465.804 134.368H454.36V138.368H465.804V134.368ZM456.36 136.368V128.828H452.36V136.368H456.36ZM456.36 128.828C456.36 116.222 446.01 105.398 433.256 105.667L433.34 109.666C443.717 109.447 452.36 118.326 452.36 128.828H456.36ZM433.254 105.667C420.985 105.933 410.966 115.924 410.966 128.341H414.966C414.966 118.138 423.208 109.886 433.341 109.666L433.254 105.667ZM410.966 128.341V136.368H414.966V128.341H410.966ZM412.966 134.368H346.856V138.368H412.966V134.368ZM348.856 136.368V132.112H344.856V136.368H348.856ZM348.856 132.112C348.856 119.501 338.506 108.694 325.773 108.828L325.815 112.828C336.213 112.719 344.856 121.615 344.856 132.112H348.856ZM325.75 108.829C313.482 109.095 303.462 119.086 303.462 131.504H307.462C307.462 121.3 315.704 113.048 325.837 112.828L325.75 108.829ZM303.462 131.504V132.841H307.462V131.504H303.462ZM303.462 132.841C303.462 133.634 302.823 134.247 302.053 134.247V138.247C304.935 138.247 307.462 135.94 307.462 132.841H303.462ZM302.053 134.247H299.496V138.247H302.053V134.247ZM301.496 136.247V113.747H297.496V136.247H301.496ZM301.496 113.747C301.496 109.381 305.103 105.774 309.479 105.774V101.774C302.898 101.774 297.496 107.168 297.496 113.747H301.496ZM396.46 103.808L397.677 31.3227L393.678 31.2555L392.46 103.741L396.46 103.808ZM397.677 31.2891C397.677 30.5714 398.363 29.8838 399.086 29.8838V25.8838C396.158 25.8838 393.677 28.3582 393.677 31.2891H397.677ZM398.925 29.8773L434.962 32.7961L435.285 28.8092L399.248 25.8903L398.925 29.8773ZM434.956 32.7956C454.101 34.4085 468.147 49.7247 469.777 69.0378L473.763 68.7013C471.985 47.6367 456.567 30.6021 435.292 28.8097L434.956 32.7956ZM469.772 68.961L472.451 127.46L476.447 127.277L473.768 68.7781L469.772 68.961ZM462.517 78.1667C465.434 78.1667 467.355 75.4981 466.925 72.9187L462.979 73.5769C463.003 73.7165 462.963 73.8748 462.863 73.9991C462.773 74.1101 462.661 74.1667 462.517 74.1667V78.1667ZM466.911 72.8435L464.476 61.0465L460.558 61.855L462.993 73.6521L466.911 72.8435ZM464.477 61.0495C463.193 54.783 457.639 50.2077 451.316 50.2077V54.2077C455.708 54.2077 459.65 57.416 460.558 61.8519L464.477 61.0495ZM451.316 50.2077H441.211V54.2077H451.316V50.2077ZM439.211 52.2077V76.1667H443.211V52.2077H439.211ZM441.211 78.1667H462.517V74.1667H441.211V78.1667ZM463.012 73.7334C463.022 73.7714 463.027 73.8567 462.929 73.9734C462.831 74.0917 462.682 74.1667 462.517 74.1667V78.1667C465.259 78.1667 467.607 75.6188 466.892 72.7622L463.012 73.7334ZM451.316 54.2077C455.817 54.2077 459.647 57.4032 460.558 61.8519L464.477 61.0495C463.196 54.7958 457.773 50.2077 451.316 50.2077V54.2077ZM465.927 138.369C471.914 138.369 476.87 133.302 476.568 127.269L472.573 127.469C472.758 131.166 469.678 134.369 465.927 134.369V138.369ZM476.569 127.277L473.89 69.0218L469.894 69.2055L472.573 127.461L476.569 127.277ZM473.884 68.9324C471.98 48.0098 456.576 30.8476 435.415 29.0539L435.077 33.0396C454.092 34.6514 468.152 50.0831 469.9 69.2949L473.884 68.9324ZM435.407 29.0533L399.37 26.1345L399.047 30.1214L435.084 33.0403L435.407 29.0533ZM399.208 26.1279C396.326 26.1279 393.799 28.4345 393.799 31.5333H397.799C397.799 30.7402 398.438 30.1279 399.208 30.1279V26.1279ZM393.8 31.4997L392.582 103.985L396.582 104.052L397.799 31.5668L393.8 31.4997ZM309.602 102.018C303.02 102.018 297.618 107.412 297.618 113.991H301.618C301.618 109.625 305.225 106.018 309.602 106.018V102.018ZM297.618 113.991V136.491H301.618V113.991H297.618ZM299.618 138.491H302.175V134.491H299.618V138.491ZM302.175 138.491C305.272 138.491 307.584 135.969 307.584 133.085H303.584C303.584 133.85 302.974 134.491 302.175 134.491V138.491ZM307.584 133.085V131.748H303.584V133.085H307.584ZM307.584 131.748C307.584 121.536 315.712 113.292 325.959 113.072L325.873 109.073C313.474 109.339 303.584 119.338 303.584 131.748H307.584ZM325.958 113.072C336.328 112.854 344.978 121.725 344.978 132.356H348.978C348.978 119.636 338.636 108.804 325.874 109.073L325.958 113.072ZM344.978 132.356V136.612H348.978V132.356H344.978ZM346.978 138.612H413.088V134.612H346.978V138.612ZM415.088 136.612V128.585H411.088V136.612H415.088ZM415.088 128.585C415.088 118.374 423.216 110.13 433.463 109.91L433.377 105.911C420.978 106.177 411.088 116.176 411.088 128.585H415.088ZM433.462 109.91C443.839 109.691 452.482 118.57 452.482 129.072H456.482C456.482 116.466 446.132 105.642 433.378 105.911L433.462 109.91ZM452.482 129.072V136.491H456.482V129.072H452.482ZM454.482 138.491H465.927V134.491H454.482V138.491ZM467.927 136.491V136.369H463.927V136.491H467.927ZM337.43 130.287C337.43 136.637 332.276 141.787 325.915 141.787V145.787C334.482 145.787 341.43 138.85 341.43 130.287H337.43ZM325.915 141.787C319.554 141.787 314.401 136.637 314.401 130.287H310.401C310.401 138.85 317.349 145.787 325.915 145.787V141.787ZM314.401 130.287C314.401 123.938 319.554 118.788 325.915 118.788V114.788C317.349 114.788 310.401 121.725 310.401 130.287H314.401ZM325.915 118.788C332.276 118.788 337.43 123.938 337.43 130.287H341.43C341.43 121.725 334.482 114.788 325.915 114.788V118.788ZM330.003 130.166C330.003 132.485 328.121 134.369 325.794 134.369V138.369C330.326 138.369 334.003 134.698 334.003 130.166H330.003ZM325.794 134.369C323.467 134.369 321.585 132.485 321.585 130.166H317.585C317.585 134.698 321.262 138.369 325.794 138.369V134.369ZM321.585 130.166C321.585 127.847 323.467 125.963 325.794 125.963V121.963C321.262 121.963 317.585 125.634 317.585 130.166H321.585ZM325.794 125.963C328.121 125.963 330.003 127.847 330.003 130.166H334.003C334.003 125.634 330.326 121.963 325.794 121.963V125.963ZM445.786 130.287C445.786 136.637 440.633 141.787 434.272 141.787V145.787C442.838 145.787 449.786 138.85 449.786 130.287H445.786ZM434.272 141.787C427.911 141.787 422.758 136.637 422.758 130.287H418.758C418.758 138.85 425.706 145.787 434.272 145.787V141.787ZM422.758 130.287C422.758 123.938 427.911 118.788 434.272 118.788V114.788C425.706 114.788 418.758 121.725 418.758 130.287H422.758ZM434.272 118.788C440.633 118.788 445.786 123.938 445.786 130.287H449.786C449.786 121.725 442.838 114.788 434.272 114.788V118.788ZM438.36 130.166C438.36 132.485 436.477 134.369 434.151 134.369V138.369C438.682 138.369 442.36 134.698 442.36 130.166H438.36ZM434.151 134.369C431.824 134.369 429.941 132.485 429.941 130.166H425.941C425.941 134.698 429.619 138.369 434.151 138.369V134.369ZM429.941 130.166C429.941 127.847 431.824 125.963 434.151 125.963V121.963C429.619 121.963 425.941 125.634 425.941 130.166H429.941ZM434.151 125.963C436.477 125.963 438.36 127.847 438.36 130.166H442.36C442.36 125.634 438.682 121.963 434.151 121.963V125.963ZM383.381 0.951904H76.8185V4.9519H383.381V0.951904ZM76.8185 0.951904C73.281 0.951904 70.4355 3.79125 70.4355 7.33021H74.4355C74.4355 6.00439 75.4861 4.9519 76.8185 4.9519V0.951904ZM70.4355 7.33021V94.6529H74.4355V7.33021H70.4355ZM70.4355 94.6529C70.4355 98.1918 73.281 101.031 76.8185 101.031V97.0312C75.4861 97.0312 74.4355 95.9787 74.4355 94.6529H70.4355ZM383.503 101.031C387.04 101.031 389.886 98.1918 389.886 94.6529H385.886C385.886 95.9787 384.835 97.0312 383.503 97.0312V101.031ZM389.886 94.6529V7.33021H385.886V94.6529H389.886ZM389.886 7.33021C389.886 3.72085 386.847 0.951904 383.381 0.951904V4.9519C384.785 4.9519 385.886 6.07479 385.886 7.33021H389.886ZM155.955 101.031H264.068V97.0312H155.955V101.031ZM88.0194 80.9776H83.5147V84.9776H88.0194V80.9776ZM83.5147 80.9776C83.5645 80.9776 83.601 80.9887 83.6211 80.9975C83.6396 81.0056 83.6473 81.0128 83.6498 81.0153C83.6523 81.0178 83.6598 81.0257 83.6681 81.0448C83.6772 81.0653 83.6885 81.1025 83.6885 81.1533H79.6885C79.6885 83.2328 81.4382 84.9776 83.5147 84.9776V80.9776ZM83.6885 81.1533V12.5599H79.6885V81.1533H83.6885ZM83.6885 12.5599C83.6885 12.6106 83.6772 12.6478 83.6681 12.6684C83.6598 12.6874 83.6523 12.6953 83.6498 12.6978C83.6473 12.7004 83.6396 12.7076 83.6211 12.7157C83.601 12.7245 83.5645 12.7356 83.5147 12.7356V8.7356C81.4382 8.7356 79.6885 10.4804 79.6885 12.5599H83.6885ZM83.5147 12.7356H88.0194V8.7356H83.5147V12.7356ZM88.0194 12.7356C87.9696 12.7356 87.9332 12.7245 87.9131 12.7157C87.8945 12.7076 87.8869 12.7004 87.8843 12.6978C87.8818 12.6953 87.8744 12.6874 87.866 12.6684C87.857 12.6478 87.8457 12.6106 87.8457 12.5599H91.8457C91.8457 10.4804 90.096 8.7356 88.0194 8.7356V12.7356ZM87.8457 12.5599V81.1533H91.8457V12.5599H87.8457ZM87.8457 81.1533C87.8457 81.1396 87.8516 81.0966 87.8975 81.0486C87.921 81.0239 87.9506 81.0033 87.9818 80.9899C88.0142 80.9761 88.0309 80.9776 88.0194 80.9776V84.9776C90.3044 84.9776 91.8457 83.1442 91.8457 81.1533H87.8457ZM105.795 80.9776H101.29V84.9776H105.795V80.9776ZM101.29 80.9776C101.34 80.9776 101.376 80.9887 101.396 80.9975C101.415 81.0056 101.423 81.0128 101.425 81.0153C101.428 81.0179 101.435 81.0257 101.444 81.0448C101.453 81.0654 101.464 81.1025 101.464 81.1533H97.4639C97.4639 83.2328 99.2135 84.9776 101.29 84.9776V80.9776ZM101.464 81.1533V12.5599H97.4639V81.1533H101.464ZM101.464 12.5599C101.464 12.6106 101.453 12.6478 101.444 12.6684C101.435 12.6874 101.428 12.6953 101.425 12.6978C101.423 12.7004 101.415 12.7076 101.396 12.7157C101.376 12.7245 101.34 12.7356 101.29 12.7356V8.7356C99.2135 8.7356 97.4639 10.4804 97.4639 12.5599H101.464ZM101.29 12.7356H105.795V8.7356H101.29V12.7356ZM105.795 12.7356C105.745 12.7356 105.709 12.7245 105.688 12.7157C105.67 12.7076 105.662 12.7004 105.66 12.6978C105.657 12.6953 105.65 12.6874 105.641 12.6684C105.632 12.6478 105.621 12.6106 105.621 12.5599H109.621C109.621 10.4804 107.871 8.7356 105.795 8.7356V12.7356ZM105.621 12.5599V81.1533H109.621V12.5599H105.621ZM105.621 81.1533C105.621 81.1025 105.632 81.0654 105.641 81.0448C105.65 81.0257 105.657 81.0179 105.66 81.0153C105.662 81.0128 105.67 81.0056 105.688 80.9975C105.709 80.9887 105.745 80.9776 105.795 80.9776V84.9776C107.871 84.9776 109.621 83.2328 109.621 81.1533H105.621ZM122.961 80.9776H118.456V84.9776H122.961V80.9776ZM118.456 80.9776C118.506 80.9776 118.542 80.9887 118.562 80.9975C118.581 81.0056 118.589 81.0128 118.591 81.0153C118.594 81.0178 118.601 81.0257 118.61 81.0448C118.619 81.0653 118.63 81.1025 118.63 81.1533H114.63C114.63 83.2328 116.38 84.9776 118.456 84.9776V80.9776ZM118.63 81.1533V12.5599H114.63V81.1533H118.63ZM118.63 12.5599C118.63 12.6106 118.619 12.6478 118.61 12.6684C118.601 12.6874 118.594 12.6953 118.591 12.6978C118.589 12.7004 118.581 12.7076 118.562 12.7157C118.542 12.7245 118.506 12.7356 118.456 12.7356V8.7356C116.38 8.7356 114.63 10.4804 114.63 12.5599H118.63ZM118.456 12.7356H122.961V8.7356H118.456V12.7356ZM122.961 12.7356C122.911 12.7356 122.875 12.7245 122.854 12.7157C122.836 12.7076 122.828 12.7004 122.826 12.6978C122.823 12.6953 122.816 12.6874 122.807 12.6684C122.798 12.6478 122.787 12.6106 122.787 12.5599H126.787C126.787 10.4804 125.037 8.7356 122.961 8.7356V12.7356ZM122.787 12.5599V81.1533H126.787V12.5599H122.787ZM122.787 81.1533C122.787 81.1025 122.798 81.0653 122.807 81.0448C122.816 81.0257 122.823 81.0178 122.826 81.0153C122.828 81.0128 122.836 81.0056 122.854 80.9975C122.875 80.9887 122.911 80.9776 122.961 80.9776V84.9776C125.037 84.9776 126.787 83.2328 126.787 81.1533H122.787ZM140.614 80.9776H136.109V84.9776H140.614V80.9776ZM136.109 80.9776C136.159 80.9776 136.196 80.9887 136.216 80.9975C136.234 81.0056 136.242 81.0128 136.245 81.0153C136.247 81.0178 136.254 81.0257 136.263 81.0448C136.272 81.0653 136.283 81.1025 136.283 81.1533H132.283C132.283 83.2328 134.033 84.9776 136.109 84.9776V80.9776ZM136.283 81.1533V12.5599H132.283V81.1533H136.283ZM136.283 12.5599C136.283 12.6106 136.272 12.6478 136.263 12.6684C136.254 12.6874 136.247 12.6953 136.245 12.6978C136.242 12.7004 136.234 12.7076 136.216 12.7157C136.196 12.7245 136.159 12.7356 136.109 12.7356V8.7356C134.033 8.7356 132.283 10.4804 132.283 12.5599H136.283ZM136.109 12.7356H140.614V8.7356H136.109V12.7356ZM140.614 12.7356C140.564 12.7356 140.528 12.7245 140.508 12.7157C140.489 12.7076 140.482 12.7004 140.479 12.6978C140.477 12.6953 140.469 12.6874 140.461 12.6684C140.452 12.6478 140.44 12.6106 140.44 12.5599H144.44C144.44 10.4804 142.691 8.7356 140.614 8.7356V12.7356ZM140.44 12.5599V81.1533H144.44V12.5599H140.44ZM140.44 81.1533C140.44 81.1395 140.446 81.0966 140.492 81.0486C140.516 81.0239 140.545 81.0033 140.577 80.9899C140.609 80.9761 140.626 80.9776 140.614 80.9776V84.9776C142.899 84.9776 144.44 83.1442 144.44 81.1533H140.44ZM158.877 81.2206H154.372V85.2206H158.877V81.2206ZM154.372 81.2206C154.422 81.2206 154.458 81.2317 154.478 81.2405C154.497 81.2486 154.505 81.2558 154.507 81.2584C154.51 81.2609 154.517 81.2688 154.526 81.2878C154.535 81.3084 154.546 81.3456 154.546 81.3963H150.546C150.546 83.4758 152.296 85.2206 154.372 85.2206V81.2206ZM154.546 81.3963V12.803H150.546V81.3963H154.546ZM154.546 12.803C154.546 12.8538 154.535 12.891 154.526 12.9116C154.517 12.9306 154.51 12.9385 154.507 12.941C154.505 12.9435 154.497 12.9508 154.478 12.9589C154.458 12.9677 154.422 12.9788 154.372 12.9788V8.97876C152.296 8.97876 150.546 10.7235 150.546 12.803H154.546ZM154.372 12.9788H158.877V8.97876H154.372V12.9788ZM158.877 12.9788C158.827 12.9788 158.791 12.9677 158.77 12.9589C158.752 12.9508 158.744 12.9435 158.742 12.941C158.739 12.9385 158.732 12.9306 158.723 12.9116C158.714 12.891 158.703 12.8538 158.703 12.803H162.703C162.703 10.7235 160.953 8.97876 158.877 8.97876V12.9788ZM158.703 12.803V81.3963H162.703V12.803H158.703ZM158.703 81.3963C158.703 81.4069 158.702 81.3895 158.716 81.3565C158.729 81.3247 158.75 81.295 158.775 81.2715C158.823 81.2258 158.865 81.2206 158.877 81.2206V85.2206C160.865 85.2206 162.703 83.6841 162.703 81.3963H158.703ZM177.14 80.9776H172.635V84.9776H177.14V80.9776ZM172.635 80.9776C172.685 80.9776 172.721 80.9887 172.741 80.9975C172.76 81.0056 172.767 81.0128 172.77 81.0153C172.772 81.0178 172.78 81.0257 172.788 81.0447C172.797 81.0653 172.809 81.1025 172.809 81.1533H168.809C168.809 83.2328 170.558 84.9776 172.635 84.9776V80.9776ZM172.809 81.1533V12.5599H168.809V81.1533H172.809ZM172.809 12.5599C172.809 12.6106 172.797 12.6478 172.788 12.6684C172.78 12.6874 172.772 12.6953 172.77 12.6978C172.767 12.7004 172.76 12.7076 172.741 12.7157C172.721 12.7245 172.685 12.7356 172.635 12.7356V8.7356C170.558 8.7356 168.809 10.4804 168.809 12.5599H172.809ZM172.635 12.7356H177.14V8.7356H172.635V12.7356ZM177.14 12.7356C177.09 12.7356 177.053 12.7245 177.033 12.7157C177.015 12.7076 177.007 12.7004 177.004 12.6978C177.002 12.6953 176.994 12.6874 176.986 12.6684C176.977 12.6478 176.966 12.6106 176.966 12.5599H180.966C180.966 10.4804 179.216 8.7356 177.14 8.7356V12.7356ZM176.966 12.5599V81.1533H180.966V12.5599H176.966ZM176.966 81.1533C176.966 81.1025 176.977 81.0653 176.986 81.0447C176.994 81.0257 177.002 81.0178 177.004 81.0153C177.007 81.0128 177.015 81.0056 177.033 80.9975C177.053 80.9887 177.09 80.9776 177.14 80.9776V84.9776C179.216 84.9776 180.966 83.2328 180.966 81.1533H176.966ZM196.132 80.9776H191.627V84.9776H196.132V80.9776ZM191.627 80.9776C191.677 80.9776 191.713 80.9887 191.733 80.9975C191.752 81.0056 191.76 81.0128 191.762 81.0153C191.765 81.0178 191.772 81.0257 191.78 81.0447C191.789 81.0653 191.801 81.1025 191.801 81.1533H187.801C187.801 83.2328 189.55 84.9776 191.627 84.9776V80.9776ZM191.801 81.1533V12.5599H187.801V81.1533H191.801ZM191.801 12.5599C191.801 12.6106 191.789 12.6478 191.78 12.6684C191.772 12.6874 191.765 12.6953 191.762 12.6979C191.76 12.7004 191.752 12.7076 191.733 12.7157C191.713 12.7245 191.677 12.7356 191.627 12.7356V8.7356C189.55 8.7356 187.801 10.4804 187.801 12.5599H191.801ZM191.627 12.7356H196.132V8.7356H191.627V12.7356ZM196.132 12.7356C196.082 12.7356 196.045 12.7245 196.025 12.7157C196.007 12.7076 195.999 12.7004 195.997 12.6979C195.994 12.6953 195.987 12.6874 195.978 12.6684C195.969 12.6478 195.958 12.6106 195.958 12.5599H199.958C199.958 10.4804 198.208 8.7356 196.132 8.7356V12.7356ZM195.958 12.5599V81.1533H199.958V12.5599H195.958ZM195.958 81.1533C195.958 81.1025 195.969 81.0653 195.978 81.0447C195.987 81.0257 195.994 81.0178 195.997 81.0153C195.999 81.0128 196.007 81.0056 196.025 80.9975C196.045 80.9887 196.082 80.9776 196.132 80.9776V84.9776C198.208 84.9776 199.958 83.2328 199.958 81.1533H195.958ZM214.394 80.9776H209.89V84.9776H214.394V80.9776ZM209.89 80.9776C209.94 80.9776 209.976 80.9887 209.996 80.9975C210.015 81.0056 210.022 81.0128 210.025 81.0153C210.027 81.0178 210.035 81.0257 210.043 81.0447C210.052 81.0653 210.063 81.1025 210.063 81.1533H206.063C206.063 83.2328 207.813 84.9776 209.89 84.9776V80.9776ZM210.063 81.1533V12.5599H206.063V81.1533H210.063ZM210.063 12.5599C210.063 12.6106 210.052 12.6478 210.043 12.6684C210.035 12.6874 210.027 12.6953 210.025 12.6978C210.022 12.7004 210.015 12.7076 209.996 12.7157C209.976 12.7245 209.94 12.7356 209.89 12.7356V8.7356C207.813 8.7356 206.063 10.4804 206.063 12.5599H210.063ZM209.89 12.7356H214.394V8.7356H209.89V12.7356ZM214.394 12.7356C214.345 12.7356 214.308 12.7245 214.288 12.7157C214.269 12.7076 214.262 12.7004 214.259 12.6978C214.257 12.6953 214.249 12.6874 214.241 12.6684C214.232 12.6478 214.221 12.6106 214.221 12.5599H218.221C218.221 10.4804 216.471 8.7356 214.394 8.7356V12.7356ZM214.221 12.5599V81.1533H218.221V12.5599H214.221ZM214.221 81.1533C214.221 81.1025 214.232 81.0653 214.241 81.0447C214.249 81.0257 214.257 81.0178 214.259 81.0153C214.262 81.0128 214.269 81.0056 214.288 80.9975C214.308 80.9887 214.345 80.9776 214.394 80.9776V84.9776C216.471 84.9776 218.221 83.2328 218.221 81.1533H214.221ZM233.387 80.9776H228.882V84.9776H233.387V80.9776ZM228.882 80.9776C228.932 80.9776 228.968 80.9887 228.988 80.9975C229.007 81.0056 229.014 81.0128 229.017 81.0153C229.02 81.0179 229.027 81.0257 229.035 81.0448C229.044 81.0654 229.056 81.1025 229.056 81.1533H225.056C225.056 83.2328 226.805 84.9776 228.882 84.9776V80.9776ZM229.056 81.1533V12.5599H225.056V81.1533H229.056ZM229.056 12.5599C229.056 12.6106 229.044 12.6478 229.035 12.6684C229.027 12.6874 229.02 12.6953 229.017 12.6978C229.014 12.7004 229.007 12.7076 228.988 12.7157C228.968 12.7245 228.932 12.7356 228.882 12.7356V8.7356C226.805 8.7356 225.056 10.4804 225.056 12.5599H229.056ZM228.882 12.7356H233.387V8.7356H228.882V12.7356ZM233.387 12.7356C233.337 12.7356 233.3 12.7245 233.28 12.7157C233.262 12.7076 233.254 12.7004 233.251 12.6978C233.249 12.6953 233.241 12.6874 233.233 12.6684C233.224 12.6478 233.213 12.6106 233.213 12.5599H237.213C237.213 10.4804 235.463 8.7356 233.387 8.7356V12.7356ZM233.213 12.5599V81.1533H237.213V12.5599H233.213ZM233.213 81.1533C233.213 81.1025 233.224 81.0654 233.233 81.0448C233.241 81.0257 233.249 81.0179 233.251 81.0153C233.254 81.0128 233.262 81.0056 233.28 80.9975C233.3 80.9887 233.337 80.9776 233.387 80.9776V84.9776C235.463 84.9776 237.213 83.2328 237.213 81.1533H233.213ZM250.797 81.2206H246.292V85.2206H250.797V81.2206ZM246.292 81.2206C246.342 81.2206 246.378 81.2317 246.398 81.2405C246.417 81.2486 246.425 81.2558 246.427 81.2584C246.43 81.2609 246.437 81.2688 246.445 81.2878C246.455 81.3084 246.466 81.3456 246.466 81.3963H242.466C242.466 83.4759 244.216 85.2206 246.292 85.2206V81.2206ZM246.466 81.3963V12.803H242.466V81.3963H246.466ZM246.466 12.803C246.466 12.8538 246.455 12.891 246.445 12.9116C246.437 12.9306 246.43 12.9385 246.427 12.941C246.425 12.9435 246.417 12.9508 246.398 12.9589C246.378 12.9677 246.342 12.9788 246.292 12.9788V8.97876C244.216 8.97876 242.466 10.7235 242.466 12.803H246.466ZM246.292 12.9788H250.797V8.97876H246.292V12.9788ZM250.797 12.9788C250.747 12.9788 250.71 12.9677 250.69 12.9589C250.672 12.9508 250.664 12.9435 250.662 12.941C250.659 12.9385 250.652 12.9306 250.643 12.9116C250.634 12.891 250.623 12.8538 250.623 12.803H254.623C254.623 10.7235 252.873 8.97876 250.797 8.97876V12.9788ZM250.623 12.803V81.3963H254.623V12.803H250.623ZM250.623 81.3963C250.623 81.4069 250.622 81.3895 250.636 81.3565C250.649 81.3247 250.67 81.295 250.695 81.2715C250.743 81.2258 250.785 81.2206 250.797 81.2206V85.2206C252.785 85.2206 254.623 83.6841 254.623 81.3963H250.623ZM268.085 80.9776H263.58V84.9776H268.085V80.9776ZM263.58 80.9776C263.63 80.9776 263.666 80.9887 263.686 80.9975C263.705 81.0056 263.713 81.0128 263.715 81.0153C263.718 81.0178 263.725 81.0257 263.734 81.0447C263.743 81.0653 263.754 81.1025 263.754 81.1533H259.754C259.754 83.2328 261.504 84.9776 263.58 84.9776V80.9776ZM263.754 81.1533V12.5599H259.754V81.1533H263.754ZM263.754 12.5599C263.754 12.6106 263.743 12.6478 263.734 12.6684C263.725 12.6874 263.718 12.6953 263.715 12.6978C263.713 12.7004 263.705 12.7076 263.686 12.7157C263.666 12.7245 263.63 12.7356 263.58 12.7356V8.7356C261.504 8.7356 259.754 10.4804 259.754 12.5599H263.754ZM263.58 12.7356H268.085V8.7356H263.58V12.7356ZM268.085 12.7356C268.035 12.7356 267.999 12.7245 267.978 12.7157C267.96 12.7076 267.952 12.7004 267.95 12.6978C267.947 12.6953 267.94 12.6874 267.931 12.6684C267.922 12.6478 267.911 12.6106 267.911 12.5599H271.911C271.911 10.4804 270.161 8.7356 268.085 8.7356V12.7356ZM267.911 12.5599V81.1533H271.911V12.5599H267.911ZM267.911 81.1533C267.911 81.1025 267.922 81.0653 267.931 81.0447C267.94 81.0257 267.947 81.0178 267.95 81.0153C267.952 81.0128 267.96 81.0056 267.978 80.9975C267.999 80.9887 268.035 80.9776 268.085 80.9776V84.9776C270.161 84.9776 271.911 83.2328 271.911 81.1533H267.911ZM285.374 81.2206H280.869V85.2206H285.374V81.2206ZM280.869 81.2206C280.919 81.2206 280.955 81.2317 280.976 81.2405C280.994 81.2486 281.002 81.2558 281.004 81.2584C281.007 81.2609 281.014 81.2688 281.023 81.2878C281.032 81.3084 281.043 81.3456 281.043 81.3963H277.043C277.043 83.4759 278.793 85.2206 280.869 85.2206V81.2206ZM281.043 81.3963V12.803H277.043V81.3963H281.043ZM281.043 12.803C281.043 12.8538 281.032 12.891 281.023 12.9116C281.014 12.9306 281.007 12.9385 281.004 12.941C281.002 12.9435 280.994 12.9508 280.976 12.9589C280.955 12.9677 280.919 12.9788 280.869 12.9788V8.97876C278.793 8.97876 277.043 10.7235 277.043 12.803H281.043ZM280.869 12.9788H285.374V8.97876H280.869V12.9788ZM285.374 12.9788C285.324 12.9788 285.288 12.9677 285.267 12.9589C285.249 12.9508 285.241 12.9435 285.239 12.941C285.236 12.9385 285.229 12.9306 285.22 12.9116C285.211 12.891 285.2 12.8538 285.2 12.803H289.2C289.2 10.7235 287.45 8.97876 285.374 8.97876V12.9788ZM285.2 12.803V81.3963H289.2V12.803H285.2ZM285.2 81.3963C285.2 81.4471 285.192 81.4519 285.202 81.4245C285.214 81.3953 285.239 81.3494 285.284 81.304C285.33 81.2585 285.376 81.2335 285.404 81.2225C285.431 81.2122 285.425 81.2206 285.374 81.2206V85.2206C286.376 85.2206 287.366 84.8784 288.111 84.1339C288.857 83.3892 289.2 82.3988 289.2 81.3963H285.2ZM303.515 80.9776H299.01V84.9776H303.515V80.9776ZM299.01 80.9776C299.06 80.9776 299.096 80.9887 299.116 80.9975C299.135 81.0056 299.142 81.0128 299.145 81.0153C299.147 81.0178 299.155 81.0257 299.163 81.0448C299.172 81.0653 299.184 81.1025 299.184 81.1533H295.184C295.184 83.2328 296.933 84.9776 299.01 84.9776V80.9776ZM299.184 81.1533V12.5599H295.184V81.1533H299.184ZM299.184 12.5599C299.184 12.6106 299.172 12.6478 299.163 12.6684C299.155 12.6874 299.147 12.6953 299.145 12.6978C299.142 12.7004 299.135 12.7076 299.116 12.7157C299.096 12.7245 299.06 12.7356 299.01 12.7356V8.7356C296.933 8.7356 295.184 10.4804 295.184 12.5599H299.184ZM299.01 12.7356H303.515V8.7356H299.01V12.7356ZM303.515 12.7356C303.465 12.7356 303.428 12.7245 303.408 12.7157C303.39 12.7076 303.382 12.7004 303.379 12.6978C303.377 12.6953 303.369 12.6874 303.361 12.6684C303.352 12.6478 303.341 12.6106 303.341 12.5599H307.341C307.341 10.4804 305.591 8.7356 303.515 8.7356V12.7356ZM303.341 12.5599V81.1533H307.341V12.5599H303.341ZM303.341 81.1533C303.341 81.1025 303.352 81.0653 303.361 81.0448C303.369 81.0257 303.377 81.0178 303.379 81.0153C303.382 81.0128 303.39 81.0056 303.408 80.9975C303.428 80.9887 303.465 80.9776 303.515 80.9776V84.9776C305.591 84.9776 307.341 83.2328 307.341 81.1533H303.341ZM321.532 81.2206H317.027V85.2206H321.532V81.2206ZM317.027 81.2206C317.077 81.2206 317.114 81.2317 317.134 81.2405C317.152 81.2486 317.16 81.2558 317.162 81.2583C317.165 81.2609 317.172 81.2688 317.181 81.2878C317.19 81.3084 317.201 81.3456 317.201 81.3963H313.201C313.201 83.4759 314.951 85.2206 317.027 85.2206V81.2206ZM317.201 81.3963V12.803H313.201V81.3963H317.201ZM317.201 12.803C317.201 12.8538 317.19 12.891 317.181 12.9116C317.172 12.9306 317.165 12.9385 317.162 12.941C317.16 12.9436 317.152 12.9508 317.134 12.9589C317.114 12.9677 317.077 12.9788 317.027 12.9788V8.97876C314.951 8.97876 313.201 10.7235 313.201 12.803H317.201ZM317.027 12.9788H321.532V8.97876H317.027V12.9788ZM321.532 12.9788C321.482 12.9788 321.446 12.9677 321.426 12.9589C321.407 12.9508 321.4 12.9436 321.397 12.941C321.395 12.9385 321.387 12.9306 321.379 12.9116C321.37 12.891 321.358 12.8538 321.358 12.803H325.358C325.358 10.7235 323.609 8.97876 321.532 8.97876V12.9788ZM321.358 12.803V81.3963H325.358V12.803H321.358ZM321.358 81.3963C321.358 81.4471 321.35 81.4519 321.361 81.4245C321.372 81.3953 321.397 81.3494 321.443 81.304C321.488 81.2585 321.534 81.2335 321.563 81.2225C321.589 81.2122 321.584 81.2206 321.532 81.2206V85.2206C322.534 85.2206 323.524 84.8784 324.27 84.1339C325.015 83.3892 325.358 82.3988 325.358 81.3963H321.358ZM339.43 81.099H334.925V85.099H339.43V81.099ZM334.925 81.099C334.975 81.099 335.011 81.1101 335.031 81.1189C335.05 81.127 335.057 81.1343 335.06 81.1368C335.062 81.1393 335.07 81.1472 335.078 81.1662C335.087 81.1868 335.099 81.224 335.099 81.2747H331.099C331.099 83.3542 332.848 85.099 334.925 85.099V81.099ZM335.099 81.2747V12.6815H331.099V81.2747H335.099ZM335.099 12.6815C335.099 12.7322 335.087 12.7694 335.078 12.79C335.07 12.809 335.062 12.8169 335.06 12.8194C335.057 12.822 335.05 12.8292 335.031 12.8373C335.011 12.8461 334.975 12.8572 334.925 12.8572V8.85718C332.848 8.85718 331.099 10.602 331.099 12.6815H335.099ZM334.925 12.8572H339.43V8.85718H334.925V12.8572ZM339.43 12.8572C339.38 12.8572 339.343 12.8461 339.323 12.8373C339.305 12.8292 339.297 12.822 339.294 12.8194C339.292 12.8169 339.284 12.809 339.276 12.79C339.267 12.7694 339.256 12.7322 339.256 12.6815H343.256C343.256 10.602 341.506 8.85718 339.43 8.85718V12.8572ZM339.256 12.6815V81.2747H343.256V12.6815H339.256ZM339.256 81.2747C339.256 81.2853 339.254 81.2679 339.269 81.2349C339.282 81.2032 339.303 81.1734 339.328 81.1499C339.376 81.1042 339.418 81.099 339.43 81.099V85.099C341.417 85.099 343.256 83.5625 343.256 81.2747H339.256ZM357.57 80.8559H353.065V84.8559H357.57V80.8559ZM353.065 80.8559C353.115 80.8559 353.152 80.867 353.172 80.8758C353.19 80.8839 353.198 80.8912 353.201 80.8937C353.203 80.8962 353.211 80.9041 353.219 80.9231C353.228 80.9437 353.239 80.9809 353.239 81.0316H349.239C349.239 83.1111 350.989 84.8559 353.065 84.8559V80.8559ZM353.239 81.0316V12.4383H349.239V81.0316H353.239ZM353.239 12.4383C353.239 12.489 353.228 12.5262 353.219 12.5468C353.211 12.5658 353.203 12.5737 353.201 12.5763C353.198 12.5788 353.19 12.586 353.172 12.5941C353.152 12.6029 353.115 12.614 353.065 12.614V8.61401C350.989 8.61401 349.239 10.3588 349.239 12.4383H353.239ZM353.065 12.614H357.57V8.61401H353.065V12.614ZM357.57 12.614C357.52 12.614 357.484 12.6029 357.464 12.5941C357.445 12.586 357.438 12.5788 357.435 12.5763C357.432 12.5737 357.425 12.5658 357.417 12.5468C357.408 12.5262 357.396 12.489 357.396 12.4383H361.396C361.396 10.3588 359.647 8.61401 357.57 8.61401V12.614ZM357.396 12.4383V81.0316H361.396V12.4383H357.396ZM357.396 81.0316C357.396 80.9809 357.408 80.9437 357.417 80.9231C357.425 80.9041 357.432 80.8962 357.435 80.8937C357.438 80.8912 357.445 80.8839 357.464 80.8758C357.484 80.867 357.52 80.8559 357.57 80.8559V84.8559C359.647 84.8559 361.396 83.1111 361.396 81.0316H357.396ZM375.589 81.099H371.084V85.099H375.589V81.099ZM371.084 81.099C371.134 81.099 371.17 81.1101 371.19 81.1189C371.209 81.127 371.217 81.1343 371.219 81.1368C371.222 81.1393 371.229 81.1472 371.237 81.1662C371.247 81.1868 371.258 81.224 371.258 81.2747H367.258C367.258 83.3542 369.007 85.099 371.084 85.099V81.099ZM371.258 81.2747V12.6815H367.258V81.2747H371.258ZM371.258 12.6815C371.258 12.7322 371.247 12.7694 371.237 12.79C371.229 12.809 371.222 12.8169 371.219 12.8194C371.217 12.822 371.209 12.8292 371.19 12.8373C371.17 12.8461 371.134 12.8572 371.084 12.8572V8.85718C369.007 8.85718 367.258 10.602 367.258 12.6815H371.258ZM371.084 12.8572H375.589V8.85718H371.084V12.8572ZM375.589 12.8572C375.539 12.8572 375.502 12.8461 375.482 12.8373C375.464 12.8292 375.456 12.822 375.454 12.8194C375.451 12.8169 375.444 12.809 375.435 12.79C375.426 12.7694 375.415 12.7322 375.415 12.6815H379.415C379.415 10.602 377.665 8.85718 375.589 8.85718V12.8572ZM375.415 12.6815V81.2747H379.415V12.6815H375.415ZM375.415 81.2747C375.415 81.2853 375.414 81.2679 375.428 81.2349C375.441 81.2032 375.462 81.1734 375.487 81.1499C375.535 81.1042 375.577 81.099 375.589 81.099V85.099C377.577 85.099 379.415 83.5625 379.415 81.2747H375.415ZM202.532 130.044C202.532 136.393 197.379 141.544 191.018 141.544V145.544C199.584 145.544 206.532 138.606 206.532 130.044H202.532ZM191.018 141.544C184.657 141.544 179.504 136.393 179.504 130.044H175.504C175.504 138.606 182.452 145.544 191.018 145.544V141.544ZM179.504 130.044C179.504 123.695 184.657 118.544 191.018 118.544V114.544C182.452 114.544 175.504 121.482 175.504 130.044H179.504ZM191.018 118.544C197.379 118.544 202.532 123.695 202.532 130.044H206.532C206.532 121.482 199.584 114.544 191.018 114.544V118.544ZM195.106 129.923C195.106 132.241 193.223 134.125 190.897 134.125V138.125C195.428 138.125 199.106 134.455 199.106 129.923H195.106ZM190.897 134.125C188.57 134.125 186.688 132.241 186.688 129.923H182.688C182.688 134.455 186.365 138.125 190.897 138.125V134.125ZM186.688 129.923C186.688 127.604 188.57 125.72 190.897 125.72V121.72C186.365 121.72 182.688 125.39 182.688 129.923H186.688ZM190.897 125.72C193.223 125.72 195.106 127.604 195.106 129.923H199.106C199.106 125.39 195.428 121.72 190.897 121.72V125.72ZM156.634 130.044C156.634 136.393 151.481 141.544 145.12 141.544V145.544C153.686 145.544 160.634 138.606 160.634 130.044H156.634ZM145.12 141.544C138.758 141.544 133.605 136.393 133.605 130.044H129.605C129.605 138.606 136.553 145.544 145.12 145.544V141.544ZM133.605 130.044C133.605 123.695 138.758 118.544 145.12 118.544V114.544C136.553 114.544 129.605 121.482 129.605 130.044H133.605ZM145.12 118.544C151.481 118.544 156.634 123.695 156.634 130.044H160.634C160.634 121.482 153.686 114.544 145.12 114.544V118.544ZM149.206 129.923C149.206 132.242 147.324 134.125 144.997 134.125V138.125C149.529 138.125 153.206 134.455 153.206 129.923H149.206ZM144.997 134.125C142.671 134.125 140.788 132.242 140.788 129.923H136.788C136.788 134.455 140.465 138.125 144.997 138.125V134.125ZM140.788 129.923C140.788 127.604 142.671 125.72 144.997 125.72V121.72C140.465 121.72 136.788 125.39 136.788 129.923H140.788ZM144.997 125.72C147.324 125.72 149.206 127.604 149.206 129.923H153.206C153.206 125.39 149.529 121.72 144.997 121.72V125.72ZM309.479 105.774H394.46V101.774H309.479V105.774ZM394.582 102.018H309.602V106.018H394.582V102.018ZM76.8185 101.031H383.503V97.0312H76.8185V101.031ZM722 145H123V149H722V145ZM110.786 145.071H44.4336V149.071H110.786V145.071ZM32.7457 145.071H2.30859V149.071H32.7457V145.071Z" fill="#2C373D"/>
</svg>
