<svg width="443" height="132" viewBox="0 0 443 132" fill="none" xmlns="http://www.w3.org/2000/svg">
<path d="M197.959 91.8637L205.598 103.261C205.962 103.867 206.689 104.231 207.417 104.231H257.734L262.827 111.142C263.312 111.748 263.918 111.991 264.524 111.991H268.889C270.344 111.991 271.678 111.506 272.89 110.778C274.103 110.051 274.951 108.838 275.558 107.505C275.921 106.777 276.285 106.05 276.77 105.443C277.255 104.716 277.74 104.11 278.225 103.504C279.68 101.927 281.377 100.715 283.317 99.8661C285.257 99.0174 287.319 98.5323 289.501 98.5323C291.683 98.5323 293.745 99.0174 295.685 99.8661C297.625 100.715 299.443 102.049 300.777 103.504C301.383 104.11 301.868 104.716 302.232 105.443C302.717 106.171 303.081 106.898 303.444 107.626C304.051 108.96 304.899 110.051 306.112 110.778C307.203 111.506 308.537 111.991 309.992 111.991H310.113C311.568 111.991 312.902 111.506 314.114 110.778C315.205 110.051 316.175 108.838 316.782 107.505C317.145 106.777 317.509 106.05 317.873 105.443C318.237 104.837 318.722 104.11 319.328 103.504C320.783 101.806 322.48 100.472 324.541 99.5024C326.481 98.6536 328.664 98.1686 330.968 98.1686C333.271 98.1686 335.454 98.6536 337.394 99.5024C339.455 100.472 341.152 101.806 342.607 103.504C343.092 104.11 343.699 104.837 344.062 105.565C344.547 106.292 344.911 107.02 345.153 107.747C345.638 108.96 346.487 110.051 347.578 110.778C348.67 111.506 349.882 111.991 351.337 111.991H354.975C355.823 111.991 356.551 111.506 356.914 110.778L360.916 104.231H393.895C395.107 104.231 396.077 103.261 396.077 102.049V90.6513C396.077 89.4388 395.107 88.4688 393.895 88.4688H335.575V83.2552C335.575 82.0427 334.605 81.0728 333.393 81.0728H319.207C317.994 81.0728 317.024 82.0427 317.024 83.2552V88.4688H224.876V83.2552C224.876 82.0427 223.906 81.0728 222.694 81.0728H209.114C207.902 81.0728 206.932 82.0427 206.932 83.2552V88.4688H199.657C198.444 88.4688 197.474 89.4388 197.474 90.6513C197.596 91.1363 197.717 91.5 197.959 91.8637ZM429.178 127.632C427.965 127.632 426.995 128.602 426.995 129.814C426.995 131.027 427.965 131.997 429.178 131.997H440.818C442.03 131.997 443 131.027 443 129.814C443 128.602 442.03 127.632 440.818 127.632H429.178ZM378.133 127.632C376.92 127.632 375.95 128.602 375.95 129.814C375.95 131.027 376.92 131.997 378.133 131.997H419.963C421.176 131.997 422.145 131.027 422.145 129.814C422.145 128.602 421.176 127.632 419.963 127.632H378.133ZM2.3876 127.632C1.17514 127.632 0.205139 128.602 0.205139 129.814C0.205139 131.027 1.17514 131.997 2.3876 131.997H368.554C369.767 131.997 370.737 131.027 370.737 129.814C370.737 128.602 369.767 127.632 368.554 127.632H171.406C175.286 127.632 178.924 126.056 181.47 123.509C184.016 120.963 185.592 117.326 185.592 113.446C185.592 109.566 184.016 105.928 181.47 103.382C178.924 100.836 175.286 99.2599 171.406 99.2599C167.526 99.2599 163.889 100.836 161.343 103.382C158.797 105.928 157.22 109.566 157.22 113.446C157.22 117.326 158.797 120.963 161.343 123.509C163.889 126.056 167.526 127.632 171.406 127.632H74.6509C78.5308 127.632 82.1683 126.056 84.7145 123.509C87.2607 120.963 88.8369 117.326 88.8369 113.446C88.8369 109.566 87.2607 105.928 84.7145 103.382C82.1683 100.836 78.5308 99.2599 74.6509 99.2599C70.771 99.2599 67.1336 100.836 64.5874 103.382C62.0412 105.928 60.465 109.566 60.465 113.446C60.465 117.326 62.0412 120.963 64.5874 123.509C67.1336 126.056 70.771 127.632 74.6509 127.632H2.3876ZM322.965 113.325C322.965 115.386 323.814 117.326 325.269 118.781C326.724 120.236 328.543 121.084 330.725 121.084C332.908 121.084 334.726 120.236 336.181 118.781L336.302 118.659C337.636 117.326 338.485 115.386 338.485 113.325C338.485 111.142 337.636 109.323 336.181 107.868L336.06 107.747C334.726 106.413 332.786 105.565 330.725 105.565C328.543 105.565 326.724 106.413 325.269 107.868C323.814 109.202 322.965 111.142 322.965 113.325ZM328.3 115.628C327.694 115.022 327.33 114.173 327.33 113.203C327.33 112.233 327.694 111.385 328.3 110.778C328.906 110.172 329.755 109.808 330.725 109.808C331.574 109.808 332.423 110.172 333.029 110.657L333.15 110.778C333.756 111.385 334.12 112.233 334.12 113.203C334.12 114.052 333.756 114.901 333.271 115.507L333.15 115.628C332.544 116.234 331.695 116.598 330.725 116.598C329.755 116.598 328.906 116.234 328.3 115.628ZM316.418 113.446C316.418 117.326 317.994 120.963 320.54 123.509C323.087 126.056 326.724 127.632 330.604 127.632C334.484 127.632 338.121 126.056 340.667 123.509C343.214 120.963 344.79 117.326 344.79 113.446C344.79 109.566 343.214 105.928 340.667 103.382C338.121 100.836 334.484 99.2599 330.604 99.2599C326.724 99.2599 323.087 100.836 320.54 103.382C317.994 105.928 316.418 109.445 316.418 113.446ZM323.571 120.357C321.753 118.538 320.662 116.113 320.662 113.325C320.662 110.657 321.753 108.111 323.571 106.292C325.39 104.473 327.815 103.382 330.604 103.382C333.271 103.382 335.817 104.473 337.636 106.292C339.455 108.111 340.546 110.536 340.546 113.325C340.546 115.992 339.455 118.538 337.636 120.357C335.817 122.176 333.393 123.267 330.604 123.267C327.815 123.267 325.39 122.176 323.571 120.357ZM281.984 113.325C281.984 115.386 282.832 117.326 284.287 118.781C285.621 120.114 287.561 121.084 289.744 121.084C291.805 121.084 293.745 120.236 295.2 118.781C296.533 117.447 297.503 115.507 297.503 113.325C297.503 111.142 296.655 109.323 295.2 107.868C293.866 106.535 291.926 105.565 289.744 105.565C287.682 105.565 285.742 106.413 284.287 107.868C282.832 109.202 281.984 111.142 281.984 113.325ZM287.319 115.628C286.712 115.022 286.349 114.173 286.349 113.203C286.349 112.233 286.712 111.385 287.319 110.778C287.925 110.172 288.774 109.808 289.744 109.808C290.713 109.808 291.562 110.172 292.168 110.778C292.775 111.385 293.138 112.233 293.138 113.203C293.138 114.173 292.775 115.022 292.168 115.628C291.562 116.234 290.713 116.598 289.744 116.598C288.774 116.598 287.925 116.234 287.319 115.628ZM275.436 113.446C275.436 117.326 277.013 120.963 279.559 123.509C282.105 126.056 285.742 127.632 289.622 127.632C293.502 127.632 297.14 126.056 299.686 123.509C302.232 120.963 303.808 117.326 303.808 113.446C303.808 109.566 302.232 105.928 299.686 103.382C297.14 100.836 293.502 99.2599 289.622 99.2599C285.742 99.2599 282.105 100.836 279.559 103.382C277.013 105.928 275.436 109.445 275.436 113.446ZM282.59 120.357C280.771 118.538 279.68 116.113 279.68 113.325C279.68 110.657 280.771 108.111 282.59 106.292C284.409 104.473 286.834 103.382 289.622 103.382C292.29 103.382 294.836 104.473 296.655 106.292C298.473 108.111 299.565 110.536 299.565 113.325C299.565 115.992 298.473 118.538 296.655 120.357C294.836 122.176 292.411 123.267 289.622 123.267C286.955 123.267 284.409 122.176 282.59 120.357ZM67.0124 113.325C67.0124 115.386 67.8611 117.326 69.316 118.781C70.6498 120.114 72.5897 121.084 74.7722 121.084C76.9546 121.084 78.7733 120.236 80.2283 118.781C81.562 117.447 82.532 115.507 82.532 113.325C82.532 111.142 81.6833 109.323 80.2283 107.868L80.1071 107.747C78.7733 106.413 76.8334 105.565 74.7722 105.565C72.711 105.565 70.771 106.413 69.316 107.868C67.8611 109.323 67.0124 111.263 67.0124 113.325ZM72.3472 115.749C71.741 115.143 71.3773 114.294 71.3773 113.325C71.3773 112.355 71.741 111.506 72.3472 110.9C72.9535 110.293 73.8022 109.93 74.7722 109.93C75.6209 109.93 76.4696 110.293 77.0759 110.778L77.1971 110.9C77.8033 111.506 78.1671 112.355 78.1671 113.325C78.1671 114.294 77.8033 115.143 77.1971 115.749C76.5909 116.356 75.7422 116.719 74.7722 116.719C73.8022 116.719 72.9535 116.356 72.3472 115.749ZM67.6186 120.478C65.7999 118.659 64.7087 116.234 64.7087 113.446C64.7087 110.657 65.7999 108.232 67.6186 106.413C69.4373 104.595 71.8622 103.504 74.6509 103.504C77.3184 103.504 79.8646 104.595 81.6833 106.413C83.502 108.232 84.5932 110.657 84.5932 113.446C84.5932 116.234 83.502 118.659 81.6833 120.478C79.8646 122.297 77.4396 123.388 74.6509 123.388C71.8622 123.388 69.4373 122.176 67.6186 120.478ZM163.768 113.325C163.768 115.386 164.616 117.326 166.071 118.781C167.405 120.114 169.345 121.084 171.527 121.084C173.71 121.084 175.529 120.236 176.984 118.781C178.317 117.447 179.287 115.507 179.287 113.325C179.287 111.142 178.439 109.323 176.984 107.868L176.862 107.747C175.529 106.413 173.589 105.565 171.527 105.565C169.466 105.565 167.526 106.413 166.071 107.868C164.616 109.323 163.768 111.263 163.768 113.325ZM169.103 115.749C168.496 115.143 168.133 114.294 168.133 113.325C168.133 112.355 168.496 111.506 169.103 110.9C169.709 110.293 170.557 109.93 171.527 109.93C172.376 109.93 173.225 110.293 173.831 110.778L173.952 110.9C174.559 111.506 174.922 112.355 174.922 113.325C174.922 114.294 174.559 115.143 173.952 115.749C173.346 116.356 172.497 116.719 171.527 116.719C170.436 116.719 169.709 116.356 169.103 115.749ZM164.374 120.478C162.555 118.659 161.464 116.234 161.464 113.446C161.464 110.657 162.555 108.232 164.374 106.413C166.193 104.595 168.618 103.504 171.406 103.504C174.074 103.504 176.62 104.595 178.439 106.413C180.257 108.232 181.348 110.657 181.348 113.446C181.348 116.234 180.257 118.659 178.439 120.478C176.62 122.297 174.195 123.388 171.406 123.388C168.618 123.388 166.193 122.176 164.374 120.478ZM174.195 87.7414V82.5278H159.524V87.7414H112.238L111.268 25.1778C111.268 23.7228 110.661 22.5103 109.691 21.5404C108.721 20.5704 107.509 20.0854 106.054 20.0854H105.933L73.681 22.6316C64.2237 23.3591 56.1001 27.6027 50.0378 33.9076C43.8542 40.3337 39.853 48.9422 39.0042 58.5208C39.0042 58.642 39.0042 58.642 39.0042 58.7633L36.7006 110.778V111.263C36.7006 113.931 37.7918 116.234 39.4892 118.053C41.1867 119.872 43.4904 120.963 46.1578 121.084H46.6429H56.7064C57.9188 121.084 58.8888 120.114 58.8888 118.902V112.233C58.8888 111.748 58.8888 112.112 58.8888 111.87C59.01 107.383 60.8287 103.261 63.8599 100.23C66.7699 97.1987 70.8923 95.3799 75.2572 95.3799C75.6209 95.3799 75.3784 95.3799 75.4997 95.3799C79.9858 95.5012 83.987 97.3199 86.7756 100.23C89.6856 103.14 91.3831 107.141 91.3831 111.627V118.781C91.3831 119.993 92.353 120.963 93.5655 120.963H152.492C153.704 120.963 154.674 119.993 154.674 118.781V115.022C154.674 114.537 154.674 114.901 154.674 114.658C154.795 110.172 156.614 106.05 159.645 103.019C162.555 99.9873 166.678 98.1686 171.042 98.1686C171.406 98.1686 171.164 98.1686 171.285 98.1686C175.771 98.2899 179.772 100.109 182.561 103.019C185.471 105.928 187.168 109.93 187.168 114.416V115.628C187.168 117.083 187.775 118.417 188.745 119.387C189.715 120.357 191.048 120.963 192.503 120.963H194.928C196.141 120.963 197.111 119.993 197.111 118.781V98.6536C197.111 95.6225 195.898 92.8338 193.837 90.7726C191.776 88.7114 189.108 87.4989 185.956 87.4989L174.195 87.7414ZM70.6498 65.0681V43.7287C70.6498 42.5162 69.6798 41.5461 68.4673 41.5461H59.495C56.5851 41.5461 53.7964 42.6374 51.614 44.3349C49.4315 46.1536 47.8553 48.5785 47.2491 51.4884L45.0666 62.037C44.9454 62.4007 44.9453 62.6432 44.9453 62.8857C44.9453 63.8557 45.3091 64.8257 45.9153 65.5532C46.5216 66.2806 47.3703 66.8868 48.3403 67.0081C48.704 67.1293 48.9465 67.1294 49.189 67.1294H68.2248C69.6798 67.2506 70.6498 66.2806 70.6498 65.0681ZM66.2849 45.9111V62.8857H49.4315C50.159 59.3695 50.7652 55.8533 51.614 52.3372C51.9777 50.5185 53.0689 48.821 54.4026 47.7298C55.8576 46.6386 57.5551 45.9111 59.495 45.9111H66.2849ZM49.4315 62.8857C49.4315 63.007 49.4315 63.007 49.4315 62.8857V62.8857ZM46.4003 116.719H46.1578C44.7029 116.598 43.3692 115.992 42.3992 115.022C41.4292 114.052 40.823 112.718 40.823 111.263V111.021L43.1266 59.0058C43.8541 50.3972 47.4915 42.7586 52.9477 36.9388C58.2826 31.3614 65.5574 27.724 73.8022 26.9965L105.811 24.3291C106.054 24.3291 106.296 24.4503 106.418 24.5715C106.539 24.6928 106.66 24.9353 106.66 25.1778L107.751 89.9238C107.751 91.1363 108.721 92.1063 109.934 92.1063H185.835C187.653 92.1063 189.351 92.8338 190.563 94.0463C191.776 95.2587 192.503 96.9561 192.503 98.7748V116.719H192.382C192.139 116.719 191.897 116.598 191.776 116.477C191.654 116.356 191.533 116.113 191.533 115.871V114.658C191.533 109.081 189.23 103.988 185.592 100.23C181.955 96.4712 176.862 94.1675 171.285 94.0463C170.921 94.0463 171.042 94.0463 170.921 94.0463C165.223 94.0463 160.13 96.4712 156.372 100.23C152.613 103.988 150.309 109.202 150.188 114.779C150.188 115.143 150.188 115.022 150.188 115.143V116.719H95.6267V111.748C95.6267 106.171 93.323 101.079 89.6856 97.3199C86.0482 93.5612 80.9558 91.2575 75.3784 91.1363C75.0147 91.1363 75.1359 91.1363 75.0147 91.1363C69.3161 91.1363 64.2237 93.5612 60.465 97.3199C56.7064 101.079 54.4026 106.292 54.2814 111.87C54.2814 112.233 54.2814 112.112 54.2814 112.233V116.719H46.4003ZM208.508 99.8661L203.779 92.8338H209.114C210.327 92.8338 211.297 91.8637 211.297 90.6513V85.4377H220.633V90.6513C220.633 91.8637 221.603 92.8338 222.815 92.8338H319.328C320.54 92.8338 321.51 91.8637 321.51 90.6513V85.4377H331.331V90.6513C331.331 91.8637 332.301 92.8338 333.514 92.8338H391.712V99.8661H359.461C358.733 99.8661 358.006 100.23 357.642 100.957L353.52 107.626H351.095C350.61 107.626 350.246 107.505 349.882 107.262C349.518 107.02 349.155 106.656 349.033 106.171C348.67 105.08 348.185 104.231 347.578 103.261C346.972 102.291 346.366 101.442 345.638 100.594C343.82 98.4111 341.516 96.7136 338.97 95.5012C336.424 94.2887 333.635 93.6824 330.725 93.6824C327.815 93.6824 325.026 94.2887 322.48 95.5012C319.934 96.7136 317.63 98.4111 315.812 100.594C315.205 101.321 314.599 102.17 313.993 103.019C313.508 103.867 313.023 104.837 312.538 105.686C312.296 106.292 311.932 106.656 311.447 107.02C310.962 107.262 310.477 107.505 309.992 107.505H309.871C309.264 107.505 308.779 107.383 308.416 107.02C307.931 106.656 307.567 106.292 307.324 105.686C306.961 104.716 306.354 103.746 305.869 102.897C305.263 102.049 304.657 101.2 303.929 100.351C302.111 98.2898 299.807 96.7137 297.382 95.6225C294.957 94.5312 292.29 93.925 289.501 93.925C286.712 93.925 284.045 94.5312 281.62 95.6225C279.074 96.7137 276.891 98.4111 275.073 100.351C274.345 101.2 273.739 101.927 273.133 102.776C272.526 103.625 272.041 104.473 271.678 105.443C271.435 106.05 271.071 106.535 270.465 106.777C269.98 107.141 269.495 107.262 268.889 107.262H265.737L260.644 100.594C260.28 99.9873 259.553 99.6236 258.825 99.6236L208.508 99.8661Z" fill="#374148"/>
<path d="M326.482 0.20087C343.335 3.83829 366.008 4.56579 385.165 1.65585C390.621 0.807121 395.471 5.05073 395.471 10.6281V76.5866C395.471 81.5578 391.47 85.5589 386.499 85.5589H335.09H210.812H174.195H159.524H122.907C117.936 85.5589 113.935 81.5578 113.935 76.5866C113.935 61.552 114.056 31.2402 113.935 10.7494C113.935 5.29327 118.785 1.04959 124.12 1.77707C141.337 4.20201 167.163 3.71704 182.925 0.20087C184.137 -0.041624 185.471 -0.041624 186.683 0.20087C202.809 3.59579 233.97 3.71704 252.399 0.20087C253.733 -0.041624 255.067 0.0795936 256.401 0.322088C276.649 5.41447 301.868 4.32328 322.602 0.20087C323.208 0.0796232 323.814 0.0796528 324.42 0.0796528C325.148 -0.0415944 325.875 -0.041624 326.482 0.20087ZM324.42 64.8256C325.512 64.8256 326.36 63.9769 326.36 62.8857V11.1131C326.36 10.0219 325.512 9.17319 324.42 9.17319C323.329 9.17319 322.48 10.0219 322.48 11.1131V62.8857C322.48 63.9769 323.45 64.8256 324.42 64.8256ZM123.271 75.4954C123.271 77.0716 124.484 78.2841 126.06 78.2841C127.636 78.2841 128.849 77.0716 128.849 75.4954C128.849 73.9192 127.636 72.7067 126.06 72.7067C124.484 72.7067 123.271 74.0404 123.271 75.4954ZM137.7 75.4954C137.7 77.0716 138.912 78.2841 140.488 78.2841C142.064 78.2841 143.277 77.0716 143.277 75.4954C143.277 73.9192 142.064 72.7067 140.488 72.7067C138.912 72.7067 137.7 73.9192 137.7 75.4954ZM152.492 75.4954C152.492 77.0716 153.704 78.2841 155.28 78.2841C156.857 78.2841 158.069 77.0716 158.069 75.4954C158.069 73.9192 156.857 72.7067 155.28 72.7067C153.825 72.7067 152.492 73.9192 152.492 75.4954ZM166.556 75.4954C166.556 77.0716 167.769 78.2841 169.345 78.2841C170.921 78.2841 172.134 77.0716 172.134 75.4954C172.134 73.9192 170.921 72.7067 169.345 72.7067C167.769 72.7067 166.556 73.9192 166.556 75.4954ZM181.47 75.4954C181.47 77.0716 182.682 78.2841 184.258 78.2841C185.835 78.2841 187.047 77.0716 187.047 75.4954C187.047 73.9192 185.835 72.7067 184.258 72.7067C182.682 72.7067 181.47 73.9192 181.47 75.4954ZM196.383 75.4954C196.383 77.0716 197.596 78.2841 199.172 78.2841C200.748 78.2841 201.961 77.0716 201.961 75.4954C201.961 73.9192 200.748 72.7067 199.172 72.7067C197.596 72.8279 196.383 74.0404 196.383 75.4954ZM211.175 75.4954C211.175 77.0716 212.388 78.2841 213.964 78.2841C215.54 78.2841 216.753 77.0716 216.753 75.4954C216.753 73.9192 215.54 72.7067 213.964 72.7067C212.509 72.7067 211.175 73.9192 211.175 75.4954ZM225.483 75.4954C225.483 77.0716 226.695 78.2841 228.271 78.2841C229.847 78.2841 231.06 77.0716 231.06 75.4954C231.06 73.9192 229.847 72.7067 228.271 72.7067C226.695 72.7067 225.483 74.0404 225.483 75.4954ZM241.366 75.4954C241.366 77.0716 242.578 78.2841 244.155 78.2841C245.731 78.2841 246.943 77.0716 246.943 75.4954C246.943 73.9192 245.731 72.7067 244.155 72.7067C242.578 72.8279 241.366 74.0404 241.366 75.4954ZM256.643 75.4954C256.643 77.0716 257.856 78.2841 259.432 78.2841C261.008 78.2841 262.22 77.0716 262.22 75.4954C262.22 73.9192 261.008 72.7067 259.432 72.7067C257.856 72.8279 256.643 74.0404 256.643 75.4954ZM272.769 75.6167C272.769 77.1929 273.981 78.4053 275.558 78.4053C277.134 78.4053 278.346 77.1929 278.346 75.6167C278.346 74.0404 277.134 72.828 275.558 72.828C273.981 72.9492 272.769 74.1617 272.769 75.6167ZM288.895 75.6167C288.895 77.1929 290.107 78.4053 291.684 78.4053C293.26 78.4053 294.472 77.1929 294.472 75.6167C294.472 74.0404 293.26 72.828 291.684 72.828C290.229 72.9492 288.895 74.1617 288.895 75.6167ZM305.263 75.7379C305.263 77.3141 306.476 78.5266 308.052 78.5266C309.628 78.5266 310.841 77.3141 310.841 75.7379C310.841 74.1617 309.628 72.9492 308.052 72.9492C306.476 73.0704 305.263 74.2829 305.263 75.7379ZM321.389 75.7379C321.389 77.3141 322.602 78.5266 324.178 78.5266C325.754 78.5266 326.967 77.3141 326.967 75.7379C326.967 74.1617 325.754 72.9492 324.178 72.9492C322.602 73.0704 321.389 74.2829 321.389 75.7379ZM336.909 75.4954C336.909 77.0716 338.121 78.2841 339.697 78.2841C341.274 78.2841 342.486 77.0716 342.486 75.4954C342.486 73.9192 341.274 72.7067 339.697 72.7067C338.121 72.7067 336.909 74.0404 336.909 75.4954ZM351.822 75.6167C351.822 77.1929 353.035 78.4053 354.611 78.4053C356.187 78.4053 357.4 77.1929 357.4 75.6167C357.4 74.0404 356.187 72.828 354.611 72.828C353.035 72.9492 351.822 74.1617 351.822 75.6167ZM366.493 75.4954C366.493 77.0716 367.706 78.2841 369.282 78.2841C370.858 78.2841 372.07 77.0716 372.07 75.4954C372.07 73.9192 370.858 72.7067 369.282 72.7067C367.706 72.8279 366.493 74.0404 366.493 75.4954ZM380.437 75.4954C380.437 77.0716 381.649 78.2841 383.225 78.2841C384.801 78.2841 386.014 77.0716 386.014 75.4954C386.014 73.9192 384.801 72.7067 383.225 72.7067C381.649 72.8279 380.437 74.0404 380.437 75.4954ZM185.35 64.8256C186.441 64.8256 187.29 63.9769 187.29 62.8857V11.1131C187.29 10.0219 186.441 9.17319 185.35 9.17319C184.259 9.17319 183.41 10.0219 183.41 11.1131V62.8857C183.41 63.9769 184.259 64.8256 185.35 64.8256ZM254.461 64.8256C255.552 64.8256 256.401 63.9769 256.401 62.8857V11.1131C256.401 10.0219 255.552 9.17319 254.461 9.17319C253.369 9.17319 252.521 10.0219 252.521 11.1131V62.8857C252.521 63.9769 253.369 64.8256 254.461 64.8256ZM320.904 85.5589H224.391H320.904Z" fill="url(#paint0_linear)"/>
<defs>
<linearGradient id="paint0_linear" x1="395.478" y1="42.8566" x2="113.889" y2="42.8566" gradientUnits="userSpaceOnUse">
<stop stop-color="#008DD2"/>
<stop offset="1" stop-color="#003C5F"/>
</linearGradient>
</defs>
</svg>
