<svg width="676" height="193" viewBox="0 0 676 193" fill="none" xmlns="http://www.w3.org/2000/svg">
<path d="M581.865 187.862C583.442 187.862 584.897 186.528 585.018 184.952V184.467C585.139 182.649 583.805 181.194 582.108 180.951L426.305 168.463C429.7 167.735 432.974 167.008 436.247 166.159C453.95 161.794 469.712 155.125 481.109 150.397C487.293 147.851 492.264 145.789 495.174 145.062C496.022 144.819 496.629 144.334 496.992 143.728C497.356 143.243 497.477 142.637 497.477 142.031C497.477 141.424 497.356 140.939 497.114 140.333C496.75 139.727 496.144 139.121 495.295 138.878L490.081 137.302C515.301 127.966 535.791 121.297 550.584 116.811H551.554C553.857 116.69 556.04 116.69 557.98 116.569C562.951 116.569 569.013 116.448 575.197 116.205C585.018 115.72 595.445 114.871 604.054 113.416C605.266 113.174 605.994 112.083 605.872 110.87C605.751 110.143 605.266 109.415 604.539 109.173C598.961 106.869 587.2 104.929 575.318 103.959C574.227 103.838 573.014 103.838 571.923 103.717C564.648 101.413 553.13 95.4718 558.828 82.1346C560.768 77.5272 566.71 63.8263 573.257 49.1553L588.413 15.2061C588.534 14.9636 588.655 14.7211 588.655 14.3574C591.686 7.56753 593.626 3.0814 593.626 3.0814C594.111 1.99018 593.626 0.656464 592.535 0.171475C592.171 0.0502281 591.808 -0.0710265 591.444 0.0502207L563.436 2.1114C557.98 2.47514 552.766 3.93013 547.916 6.11258C542.46 8.53753 537.489 11.9325 533.003 15.9336C515.301 31.332 501.721 43.578 490.809 53.399C447.887 92.0769 445.584 94.138 408.724 94.2593C381.444 94.2593 337.916 94.3805 292.448 94.5018C238.129 94.623 180.901 94.7443 144.648 94.7443C142.223 94.7443 139.677 94.7443 137.009 94.7443C106.94 94.5018 59.7748 94.2593 42.5577 118.751L28.8568 123.844C24.7343 125.42 21.0969 129.3 19.157 134.271C17.9445 137.545 17.4596 141.424 18.3083 145.304C19.157 149.184 21.3394 153.064 25.2193 156.58C32.6154 163.37 46.4376 168.705 70.0809 169.675H70.2021H205.272C205.635 171.858 206.726 173.919 208.303 175.374C210.243 177.435 213.031 178.647 216.062 178.647H226.005C226.368 180.951 227.339 182.891 228.915 184.467C230.733 186.286 233.28 187.498 236.068 187.498C238.857 187.498 241.403 186.407 243.222 184.467C244.798 182.891 245.768 180.951 246.132 178.647H248.799C249.163 180.951 250.133 182.891 251.709 184.467C253.528 186.286 256.074 187.498 258.863 187.498C261.651 187.498 264.198 186.407 266.016 184.467C267.593 182.891 268.563 180.951 268.926 178.647H271.594C271.957 180.951 272.927 182.891 274.504 184.467C276.322 186.286 278.869 187.498 281.657 187.498C284.446 187.498 286.992 186.407 288.811 184.467C290.387 182.891 291.357 180.951 291.721 178.647H294.388C294.752 180.951 295.722 182.891 297.298 184.467C299.117 186.286 301.663 187.498 304.452 187.498C307.24 187.498 309.787 186.407 311.605 184.467C313.181 182.891 314.151 180.951 314.515 178.647H322.033C325.064 178.647 327.731 177.435 329.792 175.495C331.369 173.919 332.46 171.979 332.824 169.675C336.34 169.796 343.978 169.918 353.799 169.675C353.557 170.888 353.436 172.1 353.436 173.312V175.495H355.618C355.739 175.495 374.411 175.374 397.691 172.585L582.108 187.377C581.744 187.862 581.865 187.862 581.865 187.862ZM661.282 188.105C660.07 188.105 659.1 189.075 659.1 190.287C659.1 191.5 660.07 192.47 661.282 192.47H672.922C674.135 192.47 675.104 191.5 675.104 190.287C675.104 189.075 674.135 188.105 672.922 188.105H661.282ZM614.481 188.105C613.268 188.105 612.298 189.075 612.298 190.287C612.298 191.5 613.268 192.47 614.481 192.47H651.946C653.159 192.47 654.129 191.5 654.129 190.287C654.129 189.075 653.159 188.105 651.946 188.105H614.481ZM2.18237 188.105C0.96991 188.105 -0.000183105 189.075 -0.000183105 190.287C-0.000183105 191.5 0.96991 192.47 2.18237 192.47H604.902C606.115 192.47 607.085 191.5 607.085 190.287C607.085 189.075 606.115 188.105 604.902 188.105H121.975C124.036 187.983 125.854 187.013 127.309 185.68C128.886 184.104 129.734 182.042 129.734 179.739C129.734 177.435 128.764 175.252 127.309 173.798C125.733 172.221 123.672 171.373 121.368 171.373C119.065 171.373 116.882 172.343 115.427 173.798L115.306 173.919C113.851 175.495 113.002 177.435 113.002 179.739C113.002 182.042 113.972 184.104 115.427 185.68C116.761 187.013 118.701 187.983 120.762 188.105H2.18237ZM549.129 38.0006H553.372C554.585 38.0006 555.555 37.0306 555.555 35.8181C555.555 34.6057 554.585 33.6357 553.372 33.6357H551.675L559.071 21.3897C559.798 20.2985 560.647 19.3285 561.738 18.7223C562.83 18.116 564.042 17.7523 565.376 17.6311L582.714 16.7823C578.955 25.1484 574.227 35.9394 569.619 46.3666L552.766 84.1958H523.182C522.939 84.1958 522.818 84.1958 522.575 84.0746C522.454 83.9533 522.212 83.832 522.212 83.7108C522.09 83.5895 522.091 83.347 522.091 83.1045C522.091 82.9833 522.09 82.7408 522.212 82.4983L530.578 68.6762H535.428C536.64 68.6762 537.61 67.7062 537.61 66.4937C537.61 65.2812 536.64 64.3112 535.428 64.3112H533.245L549.129 38.0006ZM584.775 12.4174L565.254 13.2662C563.193 13.3874 561.253 13.9936 559.677 14.9636C557.98 15.9336 556.525 17.3886 555.555 19.086L518.696 80.1946C518.211 81.0434 517.968 82.0133 517.968 82.9833C517.968 83.9533 518.211 84.9233 518.696 85.6508C519.181 86.4995 519.787 87.227 520.636 87.712C521.484 88.197 522.333 88.4394 523.424 88.4394H552.887C552.524 95.3505 556.282 100.079 560.89 103.232H560.405L556.282 102.747C556.161 102.747 556.04 102.747 556.04 102.747L475.774 100.322C467.044 99.9579 461.103 101.534 458.193 103.595C456.738 104.687 455.89 106.02 455.768 107.475C455.647 108.93 456.253 110.385 457.708 111.598C460.133 113.78 465.589 115.478 474.319 115.72C475.41 115.72 476.865 115.841 478.805 115.841C489.717 116.205 512.512 117.054 535.549 116.933C521.484 121.419 504.025 127.36 483.776 134.998L469.954 130.633H469.59C468.62 130.633 467.772 130.755 466.802 130.997C465.832 131.24 464.983 131.603 464.134 131.967C459.648 134.271 447.887 140.091 430.791 145.426C413.695 150.761 391.265 155.732 365.439 156.338C362.044 156.459 359.013 158.763 356.709 161.915C355.982 163.006 355.254 164.219 354.769 165.553C341.796 165.795 332.096 165.553 330.641 165.553C330.52 165.553 330.52 165.553 330.399 165.553C329.186 165.553 328.216 166.523 328.216 167.735V167.978C328.216 169.796 327.489 171.494 326.276 172.585C325.064 173.798 323.488 174.525 321.669 174.525H216.062C214.244 174.525 212.668 173.798 211.455 172.585C210.243 171.373 209.515 169.675 209.515 167.735V167.856C209.515 166.644 208.545 165.674 207.333 165.674H70.3233C47.8925 164.825 34.9191 159.854 28.2505 153.67C25.0981 150.76 23.4006 147.729 22.6732 144.577C21.9457 141.546 22.3094 138.636 23.2794 135.968C24.7344 132.21 27.4019 129.179 30.433 128.087L40.0114 124.45H70.0809C71.5358 124.45 72.8695 123.722 73.7183 122.631C74.567 121.661 75.0519 120.327 75.0519 118.872V114.386C75.0519 113.416 74.6882 112.568 74.2032 111.961C73.597 111.234 72.7483 110.749 71.657 110.749H57.9561C78.6894 98.6242 113.366 98.8667 137.009 98.988C139.677 98.988 142.223 98.988 144.648 98.988H145.375L145.254 99.1092C144.527 100.322 144.042 101.534 143.799 102.868C143.557 104.202 143.678 105.657 144.042 106.99C145.012 110.385 148.043 113.295 153.256 114.023C176.415 117.296 198.724 120.934 220.427 125.056C218.972 126.875 218.002 129.178 218.002 131.603V147.244C218.002 150.154 219.215 152.7 221.034 154.519C222.852 156.338 225.52 157.55 228.308 157.55H230.733C230.855 157.55 230.976 157.55 231.097 157.55H313.545C315.243 157.55 316.819 157.793 318.274 158.278C319.729 158.763 321.184 159.49 322.518 160.46L325.67 162.764C326.64 163.491 327.974 163.249 328.701 162.279C329.429 161.309 329.186 159.975 328.216 159.248L325.064 156.944C323.366 155.732 321.548 154.762 319.608 154.155C317.668 153.549 315.728 153.185 313.545 153.185H273.897C274.867 152.215 275.595 151.245 276.322 150.033L288.932 147.851C290.023 147.729 290.751 146.759 290.751 145.668V140.576C297.783 142.394 304.694 144.213 311.727 146.153C313.667 147.487 316.698 148.457 320.941 148.699C328.58 149.306 346.161 148.821 365.439 147.244C380.595 146.032 396.721 144.092 409.937 141.546C411.149 141.303 411.877 140.212 411.634 139C411.513 138.03 410.664 137.423 409.816 137.302C402.056 135.847 388.234 134.271 373.32 133.301L283.355 98.5029H292.327C337.795 98.3817 381.201 98.2604 408.603 98.2604C447.038 98.2604 449.463 95.9568 493.476 56.3089C504.51 46.3666 518.211 33.9994 535.549 18.8435C539.793 15.0849 544.521 11.9324 549.492 9.62874C553.857 7.56754 558.586 6.35507 563.557 5.99133L588.049 4.17262L584.775 12.4174ZM406.663 103.595H399.873C398.54 103.595 397.327 104.202 396.357 105.05C395.508 105.899 394.902 107.111 394.902 108.566V122.267C394.902 123.601 395.508 124.814 396.357 125.784L396.478 125.905C397.327 126.754 398.54 127.239 399.752 127.239H406.542C407.876 127.239 409.088 126.632 410.058 125.784C410.907 124.935 411.513 123.722 411.513 122.389V108.688C411.513 107.354 410.907 106.142 410.058 105.172C409.209 104.202 407.997 103.595 406.663 103.595ZM399.873 107.96H406.663C406.784 107.96 406.906 107.96 407.027 108.082C407.148 108.203 407.148 108.324 407.148 108.445V122.146C407.148 122.267 407.148 122.389 407.027 122.51C406.906 122.631 406.784 122.631 406.663 122.631H399.873C399.752 122.631 399.631 122.631 399.51 122.51C399.388 122.389 399.388 122.267 399.388 122.146V108.445C399.388 108.324 399.51 108.203 399.51 108.082C399.51 108.082 399.631 107.96 399.873 107.96ZM122.823 128.572H114.821C113.366 128.572 112.032 129.179 111.062 130.149C110.092 131.118 109.486 132.452 109.486 133.907V149.79C109.486 151.245 110.092 152.579 111.062 153.549C112.032 154.519 113.366 155.125 114.821 155.125H122.823C124.278 155.125 125.612 154.519 126.582 153.549L126.703 153.428C127.552 152.458 128.158 151.245 128.158 149.79V133.907C128.158 132.452 127.552 131.118 126.582 130.149C125.612 129.179 124.278 128.572 122.823 128.572ZM114.821 132.937H122.823C123.066 132.937 123.308 133.058 123.551 133.18C123.793 133.301 123.793 133.665 123.793 133.907V149.79C123.793 150.033 123.672 150.275 123.551 150.397L123.43 150.518C123.187 150.761 122.945 150.761 122.702 150.761H114.7C114.457 150.761 114.215 150.639 113.972 150.518C113.73 150.397 113.73 150.033 113.73 149.79V133.907C113.73 133.665 113.851 133.422 113.972 133.18C114.336 133.058 114.579 132.937 114.821 132.937ZM539.55 106.748C539.429 106.99 539.186 107.111 539.065 107.354C538.459 108.203 538.216 109.294 538.338 110.264C538.459 111.113 538.701 112.083 539.308 112.81C515.058 113.053 490.324 112.204 478.805 111.719C476.987 111.598 475.532 111.598 474.319 111.598C466.68 111.355 462.194 110.021 460.376 108.445C460.133 108.203 459.891 107.96 459.891 107.96C459.891 107.839 460.133 107.596 460.497 107.233C462.679 105.657 467.65 104.444 475.289 104.808L539.55 106.748ZM574.954 108.445C581.138 108.93 587.321 109.658 592.535 110.628C586.837 111.234 580.895 111.598 575.197 111.84C562.951 112.446 551.917 112.204 547.189 111.719C544.764 111.476 543.43 110.87 542.824 110.143C542.703 110.021 542.703 109.9 542.703 109.9C542.703 109.779 542.703 109.779 542.824 109.658C543.188 109.173 543.794 108.809 544.885 108.566C550.099 107.354 562.587 107.354 574.954 108.445ZM308.574 141.424C284.203 134.756 259.954 128.936 235.098 123.965C208.788 118.63 181.992 114.144 153.741 110.143C150.468 109.658 148.649 108.081 148.043 106.142C147.8 105.414 147.8 104.687 147.922 103.959C148.043 103.232 148.285 102.504 148.649 101.898C149.619 100.322 151.438 99.3517 153.984 99.7154C184.902 104.444 213.395 110.385 239.948 116.933C264.925 123.237 288.205 130.148 310.15 137.666C309.908 138.03 309.544 138.393 309.423 138.636C308.938 139.606 308.695 140.455 308.574 141.424ZM315.121 134.756C291.963 126.754 267.471 119.357 241.161 112.689C221.64 107.839 201.028 103.353 179.203 99.3517C206.605 99.3517 238.978 99.2304 271.472 99.1092L278.262 101.777H266.138C265.289 101.777 264.44 102.262 264.076 103.11C263.591 104.202 264.198 105.535 265.289 105.899L322.033 127.845C322.639 128.087 323.245 128.33 323.973 128.33C324.579 128.451 325.306 128.451 325.913 128.451H347.373L359.013 132.937C357.922 132.937 356.709 132.816 355.618 132.816C339.007 132.21 323.488 132.452 315.97 134.271C315.728 134.513 315.485 134.635 315.121 134.756ZM355.497 137.302C369.319 137.787 383.99 139 395.266 140.333C385.566 141.788 375.018 142.879 364.954 143.607C345.918 145.183 328.58 145.547 321.063 145.062C316.94 144.819 314.515 143.849 313.424 142.758C313.06 142.394 312.939 142.152 312.939 141.909C312.939 141.667 312.939 141.303 313.182 141.061C313.788 140.091 315.121 139.242 317.061 138.757C324.215 136.938 339.25 136.696 355.497 137.302ZM226.126 126.632C228.915 127.117 231.582 127.724 234.371 128.33L235.341 128.572V153.913H228.551C226.853 153.913 225.398 153.185 224.307 152.215C223.216 151.124 222.61 149.669 222.61 147.972V132.331C222.61 130.633 223.337 129.179 224.307 128.087C224.792 127.36 225.398 126.875 226.126 126.632ZM239.706 129.3C244.434 130.27 249.163 131.24 253.892 132.331V153.792H239.706V129.3ZM258.135 133.301C263.349 134.513 268.684 135.726 273.897 136.938V143.122C273.897 146.032 272.685 148.699 270.866 150.518C268.926 152.458 266.38 153.549 263.47 153.549H258.257L258.135 133.301ZM278.262 138.03C280.93 138.636 283.597 139.363 286.386 140.091V144.577L278.02 146.032C278.141 145.183 278.262 144.213 278.262 143.364V138.03ZM289.538 106.142L336.34 124.207H326.034C325.67 124.207 325.185 124.207 324.821 124.086C324.458 123.965 324.094 123.965 323.73 123.722L277.777 106.02L289.538 106.142ZM298.389 179.132H309.665C309.423 180.224 308.817 181.072 308.089 181.8C306.998 182.891 305.543 183.497 303.967 183.497C302.391 183.497 300.936 182.891 299.844 181.8C299.238 181.072 298.632 180.224 298.389 179.132ZM230.248 179.132H241.524C241.282 180.224 240.676 181.072 239.948 181.8C238.857 182.891 237.402 183.497 235.826 183.497C234.25 183.497 232.795 182.891 231.703 181.8C231.097 181.072 230.491 180.224 230.248 179.132ZM253.043 179.132H264.198C263.955 180.224 263.349 181.072 262.621 181.8C261.53 182.891 260.075 183.497 258.499 183.497C256.923 183.497 255.468 182.891 254.377 181.8C253.77 181.072 253.285 180.224 253.043 179.132ZM275.716 179.132H286.992C286.75 180.224 286.143 181.072 285.416 181.8C284.325 182.891 282.87 183.497 281.293 183.497C279.717 183.497 278.262 182.891 277.171 181.8C276.444 181.072 275.959 180.224 275.716 179.132ZM469.105 135.241L490.566 142.031C487.535 143.122 483.898 144.698 479.533 146.517C468.257 151.246 452.616 157.672 435.277 162.037C403.632 169.918 366.894 171.373 357.315 171.615C357.679 169.311 358.77 166.886 360.104 164.825C361.559 162.643 363.378 161.188 365.318 161.067C391.507 160.46 414.423 155.489 431.883 150.033C449.342 144.577 461.346 138.636 465.953 136.211C466.559 135.968 467.044 135.726 467.65 135.605C468.135 135.362 468.62 135.241 469.105 135.241ZM276.686 150.154C276.686 150.033 276.807 150.033 276.807 149.912C276.686 149.912 276.686 150.033 276.686 150.154ZM51.6513 115.478H70.5658V119.236C70.5658 119.6 70.4446 119.964 70.2021 120.206C70.0808 120.327 69.9596 120.449 69.8383 120.449H46.8014C48.2563 118.63 49.8326 116.933 51.6513 115.478ZM118.458 182.527C117.731 181.8 117.246 180.83 117.246 179.617C117.246 178.526 117.61 177.556 118.337 176.829L118.458 176.707C119.186 175.98 120.156 175.495 121.368 175.495C122.46 175.495 123.551 175.98 124.278 176.707C125.006 177.435 125.491 178.405 125.491 179.617C125.491 180.709 125.006 181.8 124.278 182.527C123.551 183.255 122.581 183.74 121.368 183.74C120.156 183.74 119.186 183.255 118.458 182.527Z" fill="#374148"/>
<path d="M484.261 137.787L513.482 139.849C514.573 139.97 515.422 140.94 515.301 142.031L512.997 174.404C512.876 175.495 511.906 176.344 510.815 176.223L478.442 173.919C477.35 173.798 476.502 172.828 476.623 171.737L478.199 149.306C480.018 148.578 481.715 147.851 483.291 147.123L481.715 169.554H481.836L504.752 171.252L506.207 171.373H506.328C507.42 171.373 508.268 170.524 508.39 169.433L509.966 147.487L510.087 146.032C510.208 144.941 509.36 143.971 508.268 143.85L506.813 143.728L494.567 142.88H494.689C495.659 142.637 495.659 141.303 494.689 140.94L484.261 137.787ZM490.566 146.153L505.722 147.245C506.207 147.245 506.45 147.608 506.45 148.093L505.237 164.462C505.237 165.189 504.267 165.553 503.782 164.947L489.718 147.487C489.475 147.002 489.839 146.153 490.566 146.153ZM488.263 151.731L499.902 166.159C500.509 166.887 499.902 167.857 499.054 167.857L486.444 167.008C485.838 167.008 485.474 166.523 485.474 165.917L486.444 152.337C486.444 151.731 486.929 151.367 487.535 151.367C487.656 151.367 488.02 151.488 488.263 151.731ZM529.244 154.034L542.945 155.126C545.491 155.368 547.431 157.551 547.189 160.097L546.097 173.798C545.855 176.344 543.673 178.284 541.126 178.041L527.425 176.95C524.879 176.708 522.939 174.525 523.182 171.979L524.273 158.278C524.515 155.853 526.455 154.034 528.88 154.034C529.002 153.913 529.123 153.913 529.244 154.034ZM505.116 168.342H504.995H505.116Z" fill="url(#paint0_linear)"/>
<defs>
<linearGradient id="paint0_linear" x1="547.211" y1="157.961" x2="476.6" y2="157.961" gradientUnits="userSpaceOnUse">
<stop stop-color="#008DD2"/>
<stop offset="1" stop-color="#003C5F"/>
</linearGradient>
</defs>
</svg>
