<svg width="929" height="62" viewBox="0 0 929 62" fill="none" xmlns="http://www.w3.org/2000/svg">
<path d="M780.646 24.2755C784.054 24.1539 787.463 23.1809 790.507 21.4783L791.846 20.7486C798.786 16.8568 807.187 16.9784 814.005 21.235C820.579 25.2484 828.736 25.6133 835.554 21.9647L838.719 20.2621" stroke="#008DD2" stroke-width="4" stroke-miterlimit="10" stroke-linecap="round" stroke-linejoin="round"/>
<path d="M821.797 59.5452L815.345 55.6534C808.648 51.64 800.37 51.5183 793.552 55.4102L792.212 56.1399C785.273 60.0317 776.872 59.9101 770.054 55.6534C763.48 51.64 755.323 51.2751 748.505 54.9237L745.339 56.6264C738.521 60.275 730.364 59.9101 723.79 55.8966L723.546 55.775C716.972 51.64 708.693 51.3967 701.875 55.1669" stroke="#008DD2" stroke-width="4" stroke-miterlimit="10" stroke-linecap="round" stroke-linejoin="round"/>
<path d="M680.204 54.8021C673.507 50.7886 665.229 50.667 658.411 54.5589L657.071 55.2886C650.132 59.1804 641.731 59.0588 634.913 54.8021C628.339 50.7886 620.182 50.4238 613.364 54.0724L610.198 55.7751" stroke="#008DD2" stroke-width="4" stroke-miterlimit="10" stroke-linecap="round" stroke-linejoin="round"/>
<path d="M167.764 5.6678C161.068 1.65436 152.789 1.53273 145.971 5.42454L144.632 6.15427C137.693 10.0461 129.292 9.92447 122.474 5.6678C115.9 1.65436 107.742 1.2895 100.924 4.93807L97.759 6.64074C90.9411 10.2893 82.784 9.92448 76.2095 5.91105L75.9661 5.78942C70.4874 2.38409 63.7912 1.65435 57.8255 3.60026C54.4166 4.69483 50.8859 5.0597 47.3552 5.0597H2.91699" stroke="#008DD2" stroke-width="4" stroke-miterlimit="10" stroke-linecap="round" stroke-linejoin="round"/>
<path d="M135.744 32.0593L134.405 32.789C127.465 36.6808 119.065 36.5592 112.247 32.3026C105.672 28.2891 97.5153 27.9243 90.6974 31.5728C88.6277 32.6674 86.3144 33.2755 84.0012 33.2755H43.0938" stroke="#008DD2" stroke-width="4" stroke-miterlimit="10" stroke-linecap="round" stroke-linejoin="round"/>
<path d="M926.744 21.4782L867.453 21.235C863.435 21.235 859.417 20.3836 855.521 19.0458C849.921 17.0999 843.712 17.5864 838.355 20.3837L835.189 22.0863" stroke="#008DD2" stroke-width="4" stroke-miterlimit="10" stroke-linecap="round" stroke-linejoin="round"/>
</svg>
