<svg width="724" height="367" viewBox="0 0 724 367" fill="none" xmlns="http://www.w3.org/2000/svg">
<path d="M722 366C723.105 366 724 365.105 724 364C724 362.895 723.105 362 722 362V366ZM123 362C121.895 362 121 362.895 121 364C121 365.105 121.895 366 123 366V362ZM110.786 366.071C111.891 366.071 112.786 365.175 112.786 364.071C112.786 362.966 111.891 362.071 110.786 362.071V366.071ZM44.4336 362.071C43.329 362.071 42.4336 362.966 42.4336 364.071C42.4336 365.175 43.329 366.071 44.4336 366.071V362.071ZM565.76 79.8466V81.8466C565.788 81.8466 565.816 81.846 565.843 81.8449L565.76 79.8466ZM502.086 79.8466V77.8466C500.981 77.8466 500.086 78.742 500.086 79.8466H502.086ZM444.986 79.8466H446.986C446.986 79.3041 446.766 78.785 446.376 78.4081C445.985 78.0312 445.459 77.829 444.917 77.8478L444.986 79.8466ZM404.931 76.8061L404.421 78.74C404.428 78.7419 404.435 78.7438 404.443 78.7456L404.931 76.8061ZM384.112 69.8738L383.373 71.7324L383.383 71.7362L384.112 69.8738ZM330.177 51.7525L329.877 49.7751C328.93 49.9187 328.218 50.7137 328.179 51.6708C328.14 52.628 328.785 53.4784 329.717 53.6988L330.177 51.7525ZM339.552 39.7122L337.701 40.4701C337.705 40.4795 337.709 40.4888 337.713 40.498L339.552 39.7122ZM323.359 2.98315L323.508 0.988709C322.806 0.936272 322.128 1.25686 321.723 1.8328C321.318 2.40873 321.246 3.15517 321.533 3.79812L323.359 2.98315ZM336.386 3.95609L336.238 5.95055L336.244 5.95102L336.386 3.95609ZM350.022 10.1587L348.706 11.6645L348.71 11.6682L350.022 10.1587ZM578.057 57.9551L576.404 59.0805C576.634 59.4186 576.962 59.678 577.344 59.8238L578.057 57.9551ZM584.753 60.5091L584.04 62.3778C584.048 62.3808 584.056 62.3838 584.064 62.3867L584.753 60.5091ZM464.222 69.7521H462.222C462.222 70.7199 462.915 71.5488 463.867 71.7204L464.222 69.7521ZM464.222 63.3063L463.898 61.3326C462.932 61.4909 462.222 62.3265 462.222 63.3063H464.222ZM495.876 69.5089H493.876C493.876 69.5407 493.877 69.5725 493.879 69.6042L495.876 69.5089ZM479.318 59.2927V57.2927C478.214 57.2927 477.318 58.1882 477.318 59.2927H479.318ZM487.963 59.2927H489.963C489.963 58.1882 489.067 57.2927 487.963 57.2927V59.2927ZM487.963 74.1303V76.1303C489.067 76.1303 489.963 75.2349 489.963 74.1303H487.963ZM479.318 74.1303H477.318C477.318 75.2349 478.214 76.1303 479.318 76.1303V74.1303ZM379.363 62.4548L379.821 64.4018L379.835 64.3986L379.848 64.3953L379.363 62.4548ZM382.164 62.5765L382.899 60.7166L382.807 60.6803L382.713 60.6533L382.164 62.5765ZM431.594 74.6168L431.594 72.6167L431.583 72.6168L431.594 74.6168ZM436.098 79.8464L436.124 81.8462L438.006 81.8218L438.096 79.9416L436.098 79.8464ZM399.939 75.3465L400.465 73.4168L400.451 73.4132L399.939 75.3465ZM373.033 65.617L372.139 67.4062L372.196 67.4348L372.255 67.4598L373.033 65.617ZM373.154 63.9143L372.697 61.9673L372.651 61.9781L372.605 61.9911L373.154 63.9143ZM445.126 75.2053C444.242 75.8676 444.062 77.1211 444.725 78.0051C445.387 78.8891 446.64 79.0688 447.524 78.4066L445.126 75.2053ZM447.786 75.7114L446.587 74.1108L446.587 74.1108L447.786 75.7114ZM490.885 76.1304C491.99 76.1304 492.885 75.2349 492.885 74.1304C492.885 73.0258 491.99 72.1304 490.885 72.1304V76.1304ZM448.272 60.2659L448.757 62.2063C448.837 62.1862 448.917 62.1611 448.994 62.1313L448.272 60.2659ZM474.692 50.0498L475.413 51.9152C476.311 51.5679 476.835 50.6297 476.658 49.6829C476.481 48.7362 475.655 48.0498 474.692 48.0498V50.0498ZM526.922 53.9416L526.658 51.9591L526.646 51.9608L526.922 53.9416ZM526.435 47.0093L526.174 45.0264C525.13 45.1637 524.371 46.0883 524.439 47.1399C524.508 48.1915 525.381 49.0093 526.435 49.0093V47.0093ZM526.557 47.0093L526.865 48.9854C527.897 48.8245 528.632 47.8963 528.551 46.8548C528.47 45.8133 527.602 45.0093 526.557 45.0093V47.0093ZM329.568 51.7525L329.338 49.7658C328.633 49.8477 328.024 50.2972 327.738 50.9469C327.452 51.5966 327.532 52.3491 327.948 52.9243L329.568 51.7525ZM340.039 50.5363L339.98 48.5372C339.923 48.5388 339.865 48.543 339.808 48.5497L340.039 50.5363ZM377.415 49.4417L377.474 51.4409L377.487 51.4405L377.415 49.4417ZM378.024 54.5497L378.08 56.549L378.092 56.5486L378.024 54.5497ZM341.987 55.0362L341.927 57.0353L341.937 57.0356L341.987 55.0362ZM331.151 53.9416L329.53 55.1134C329.781 55.4606 330.137 55.7179 330.545 55.8477L331.151 53.9416ZM408.096 66.8332L407.719 64.869C406.781 65.0487 406.101 65.8667 406.096 66.8219C406.09 67.7771 406.761 68.6028 407.697 68.7931L408.096 66.8332ZM451.316 65.1306L450.86 67.0779L450.862 67.0783L451.316 65.1306ZM449.247 70.117L449.4 72.1111L449.403 72.1108L449.247 70.117ZM317.637 53.4551L316.85 51.6165C316.036 51.9648 315.548 52.8063 315.65 53.6854C315.752 54.5645 316.419 55.2721 317.291 55.425L317.637 53.4551ZM345.274 51.1444L344.845 53.0979C344.851 53.0992 344.856 53.1004 344.862 53.1015L345.274 51.1444ZM344.056 54.6713L343.816 52.6858L343.808 52.6867L344.056 54.6713ZM539.828 64.0361H537.828H539.828ZM325.794 8.45605L325.894 6.45854C325.199 6.42384 324.536 6.75273 324.143 7.327C323.75 7.90127 323.684 8.63838 323.969 9.27336L325.794 8.45605ZM340.769 41.9014L338.944 42.7187C339.266 43.4382 339.981 43.9014 340.769 43.9014V41.9014ZM356.475 39.5906L354.762 40.6236C354.768 40.6329 354.773 40.6422 354.779 40.6514L356.475 39.5906ZM339.308 11.1317L341.021 10.0987C341.012 10.0847 341.004 10.0709 340.995 10.0571L339.308 11.1317ZM335.534 8.94252L335.434 10.94C335.467 10.9417 335.501 10.9425 335.534 10.9425V8.94252ZM351.726 34.6582C352.831 34.6582 353.726 33.7628 353.726 32.6582C353.726 31.5536 352.831 30.6582 351.726 30.6582V34.6582ZM349.413 30.6582C348.309 30.6582 347.413 31.5536 347.413 32.6582C347.413 33.7628 348.309 34.6582 349.413 34.6582V30.6582ZM32.7457 366.071C33.8503 366.071 34.7457 365.175 34.7457 364.071C34.7457 362.966 33.8503 362.071 32.7457 362.071V366.071ZM2.30859 362.071C1.20402 362.071 0.308594 362.966 0.308594 364.071C0.308594 365.175 1.20402 366.071 2.30859 366.071V362.071ZM386.547 235.344C385.442 235.344 384.547 236.239 384.547 237.344C384.547 238.448 385.442 239.344 386.547 239.344V235.344ZM632.235 239.344C633.34 239.344 634.235 238.448 634.235 237.344C634.235 236.239 633.34 235.344 632.235 235.344V239.344ZM719.771 180.669L721.293 181.967C721.334 181.919 721.373 181.869 721.409 181.817L719.771 180.669ZM669.733 239.29L671.246 240.598L671.254 240.588L669.733 239.29ZM665.593 248.654L663.612 248.381C663.611 248.39 663.61 248.399 663.609 248.408L665.593 248.654ZM663.889 262.397V264.397C664.898 264.397 665.749 263.645 665.874 262.643L663.889 262.397ZM122.595 242.208L120.727 242.921C121.022 243.696 121.766 244.208 122.595 244.208V242.208ZM99.9501 182.858L98.0759 183.556C98.0777 183.561 98.0796 183.566 98.0815 183.571L99.9501 182.858ZM245.318 173.858H243.318C243.318 173.92 243.321 173.982 243.326 174.044L245.318 173.858ZM621.764 173.858L619.779 173.61C619.777 173.631 619.774 173.651 619.773 173.672L621.764 173.858ZM715.632 172.156V174.156C715.651 174.156 715.671 174.155 715.691 174.155L715.632 172.156ZM409.191 164.372L407.199 164.191L407.191 164.281V164.372H409.191ZM409.191 136.521L407.198 136.355L407.191 136.438V136.521H409.191ZM511.216 136.521L509.223 136.355L509.216 136.438V136.521H511.216ZM209.037 130.683V128.683C207.933 128.683 207.037 129.579 207.037 130.683H209.037ZM218.899 130.683H220.899C220.899 129.579 220.003 128.683 218.899 128.683V130.683ZM218.899 140.535V142.535C220.003 142.535 220.899 141.639 220.899 140.535H218.899ZM209.037 140.535H207.037C207.037 141.639 207.933 142.535 209.037 142.535V140.535ZM193.697 130.683V128.683C192.593 128.683 191.697 129.579 191.697 130.683H193.697ZM203.559 130.683H205.559C205.559 129.579 204.663 128.683 203.559 128.683V130.683ZM203.559 140.535V142.535C204.663 142.535 205.559 141.639 205.559 140.535H203.559ZM193.697 140.535H191.697C191.697 141.639 192.593 142.535 193.697 142.535V140.535ZM178.479 130.927V128.927C177.374 128.927 176.479 129.822 176.479 130.927H178.479ZM188.34 130.927H190.34C190.34 129.822 189.445 128.927 188.34 128.927V130.927ZM188.34 140.778V142.778C189.445 142.778 190.34 141.882 190.34 140.778H188.34ZM178.479 140.778H176.479C176.479 141.882 177.374 142.778 178.479 142.778V140.778ZM163.26 130.927V128.927C162.155 128.927 161.26 129.822 161.26 130.927H163.26ZM173.121 130.927H175.121C175.121 129.822 174.226 128.927 173.121 128.927V130.927ZM173.121 140.778V142.778C174.226 142.778 175.121 141.882 175.121 140.778H173.121ZM163.26 140.778H161.26C161.26 141.882 162.155 142.778 163.26 142.778V140.778ZM291.704 321.626L293.368 322.736C293.778 322.122 293.816 321.333 293.468 320.683C293.12 320.032 292.442 319.626 291.704 319.626V321.626ZM283.182 334.396V336.396C283.85 336.396 284.475 336.062 284.846 335.506L283.182 334.396ZM225.595 334.396V332.396C224.971 332.396 224.382 332.688 224.004 333.184L225.595 334.396ZM219.021 343.031V345.031C219.645 345.031 220.234 344.739 220.612 344.242L219.021 343.031ZM209.037 339.504L210.886 338.742C210.875 338.713 210.862 338.685 210.849 338.657L209.037 339.504ZM205.628 334.396L204.147 335.74C204.169 335.764 204.192 335.788 204.215 335.811L205.628 334.396ZM176.652 334.396L178.121 335.753C178.124 335.75 178.128 335.746 178.131 335.742L176.652 334.396ZM173.243 339.626L171.411 338.823C171.405 338.836 171.4 338.85 171.394 338.863L173.243 339.626ZM162.895 339.504L161.038 340.247C161.04 340.254 161.043 340.26 161.046 340.266L162.895 339.504ZM159.729 334.396L158.19 335.673C158.211 335.698 158.233 335.724 158.256 335.748L159.729 334.396ZM130.022 334.396L128.501 333.097L128.496 333.103L130.022 334.396ZM118.091 343.031L116.392 344.085C116.756 344.673 117.399 345.031 118.091 345.031V343.031ZM112.734 334.396L114.434 333.342C114.069 332.754 113.426 332.396 112.734 332.396V334.396ZM74.2617 334.396H72.2617C72.2617 335.5 73.1571 336.396 74.2617 336.396V334.396ZM74.2617 321.626V319.626C73.1571 319.626 72.2617 320.521 72.2617 321.626H74.2617ZM141.954 321.626V323.626C143.058 323.626 143.954 322.73 143.954 321.626H141.954ZM141.954 313.356V311.356C140.849 311.356 139.954 312.251 139.954 313.356H141.954ZM157.781 313.356H159.781C159.781 312.251 158.886 311.356 157.781 311.356V313.356ZM157.781 321.626H155.781C155.781 322.73 156.677 323.626 157.781 323.626V321.626ZM265.772 321.626V323.626C266.877 323.626 267.772 322.73 267.772 321.626H265.772ZM265.772 313.356V311.356C264.667 311.356 263.772 312.251 263.772 313.356H265.772ZM280.991 313.356H282.991C282.991 312.251 282.095 311.356 280.991 311.356V313.356ZM280.991 321.626H278.991C278.991 322.73 279.886 323.626 280.991 323.626V321.626ZM474.449 344.368L472.451 344.46L472.451 344.468L474.449 344.368ZM454.36 353.368H452.36V355.368H454.36V353.368ZM433.298 324.666L433.256 322.667L433.254 322.667L433.298 324.666ZM412.966 353.368V355.368H414.966V353.368H412.966ZM346.856 353.368H344.856V355.368H346.856V353.368ZM325.794 327.828L325.773 325.828L325.762 325.828L325.75 325.829L325.794 327.828ZM299.496 353.247H297.496V355.247H299.496V353.247ZM394.46 320.774V322.774H396.427L396.46 320.808L394.46 320.774ZM395.677 248.289L397.677 248.323L397.677 248.306V248.289H395.677ZM399.086 244.884L399.248 242.89L399.167 242.884H399.086V244.884ZM435.124 247.803L435.292 245.81L435.285 245.809L435.124 247.803ZM471.77 285.87L473.768 285.778L473.766 285.74L473.763 285.701L471.77 285.87ZM462.517 278.451L460.558 278.852L460.558 278.855L462.517 278.451ZM441.211 269.208V267.208H439.211V269.208H441.211ZM441.211 293.167H439.211V295.167H441.211V293.167ZM465.927 353.369V351.369C464.822 351.369 463.927 352.265 463.927 353.369H465.927ZM474.571 344.369L472.573 344.461L472.573 344.469L474.571 344.369ZM471.892 286.114L473.89 286.022C473.889 285.992 473.887 285.962 473.884 285.932L471.892 286.114ZM435.246 248.047L435.415 246.054L435.407 246.053L435.246 248.047ZM399.208 245.128L399.37 243.134C399.316 243.13 399.262 243.128 399.208 243.128V245.128ZM395.799 248.533L397.799 248.567C397.799 248.556 397.799 248.544 397.799 248.533H395.799ZM394.582 321.018V323.018C395.673 323.018 396.563 322.143 396.582 321.052L394.582 321.018ZM299.618 353.491H297.618C297.618 354.595 298.514 355.491 299.618 355.491V353.491ZM325.916 328.072L325.874 326.073L325.873 326.073L325.916 328.072ZM346.978 353.612H344.978C344.978 354.717 345.874 355.612 346.978 355.612V353.612ZM413.088 353.612V355.612C414.192 355.612 415.088 354.717 415.088 353.612H413.088ZM433.42 324.91L433.378 322.911L433.377 322.911L433.42 324.91ZM454.482 353.491H452.482C452.482 354.595 453.378 355.491 454.482 355.491V353.491ZM465.927 353.491V355.491C467.031 355.491 467.927 354.595 467.927 353.491H465.927ZM119.674 170.034C118.569 170.034 117.674 170.929 117.674 172.034C117.674 173.139 118.569 174.034 119.674 174.034V170.034ZM206.115 174.034C207.22 174.034 208.115 173.139 208.115 172.034C208.115 170.929 207.22 170.034 206.115 170.034V174.034ZM180.479 75.2249C180.479 74.1203 179.583 73.2249 178.479 73.2249C177.374 73.2249 176.479 74.1203 176.479 75.2249H180.479ZM176.479 121.44C176.479 122.545 177.374 123.44 178.479 123.44C179.583 123.44 180.479 122.545 180.479 121.44H176.479ZM722 362H123V366H722V362ZM110.786 362.071H44.4336V366.071H110.786V362.071ZM421.844 68.3337L472.492 48.7529L471.049 45.022L420.402 64.6028L421.844 68.3337ZM565.76 77.8466H502.086V81.8466H565.76V77.8466ZM500.086 79.8466C500.086 81.0068 499.081 81.9816 498.068 81.9816V85.9816C501.439 85.9816 504.086 83.0646 504.086 79.8466H500.086ZM498.068 81.9816H449.004V85.9816H498.068V81.9816ZM449.004 81.9816C447.915 81.9816 446.986 81.0508 446.986 79.9682H442.986C442.986 83.2639 445.71 85.9816 449.004 85.9816V81.9816ZM446.986 79.9682V79.8466H442.986V79.9682H446.986ZM444.986 79.8466C444.917 77.8478 444.917 77.8478 444.917 77.8478C444.917 77.8478 444.917 77.8478 444.916 77.8478C444.916 77.8478 444.915 77.8478 444.914 77.8479C444.911 77.848 444.907 77.8481 444.902 77.8483C444.891 77.8486 444.874 77.8492 444.852 77.8499C444.807 77.8513 444.739 77.8534 444.649 77.856C444.469 77.8612 444.201 77.8683 443.855 77.8761C443.161 77.8915 442.15 77.9094 440.887 77.9188C438.36 77.9377 434.831 77.9226 430.824 77.7869C422.772 77.5142 412.934 76.7582 405.419 74.8666L404.443 78.7456C412.39 80.7458 422.58 81.51 430.689 81.7846C434.763 81.9226 438.349 81.9379 440.917 81.9187C442.201 81.9091 443.232 81.8909 443.944 81.8751C444.3 81.8671 444.576 81.8598 444.764 81.8544C444.858 81.8517 444.93 81.8494 444.978 81.8479C445.003 81.8471 445.022 81.8465 445.035 81.8461C445.041 81.8459 445.046 81.8457 445.049 81.8456C445.051 81.8455 445.052 81.8455 445.053 81.8454C445.054 81.8454 445.054 81.8454 445.055 81.8454C445.055 81.8454 445.055 81.8454 444.986 79.8466ZM405.441 74.8722C396.771 72.5867 393.803 71.5198 384.841 68.0114L383.383 71.7362C392.44 75.2817 395.559 76.404 404.421 78.74L405.441 74.8722ZM384.85 68.0152C368.118 61.3659 354.584 56.8183 345.225 53.9308C340.545 52.4871 336.908 51.4583 334.436 50.7892C333.2 50.4547 332.256 50.2101 331.617 50.0486C331.298 49.9678 331.056 49.9078 330.892 49.8677C330.81 49.8476 330.748 49.8325 330.705 49.8223C330.684 49.8172 330.668 49.8133 330.656 49.8106C330.651 49.8093 330.646 49.8082 330.643 49.8075C330.642 49.8071 330.64 49.8068 330.639 49.8066C330.639 49.8065 330.638 49.8064 330.638 49.8063C330.638 49.8062 330.637 49.8062 330.177 51.7525C329.717 53.6988 329.717 53.6988 329.717 53.6988C329.717 53.6988 329.717 53.6988 329.717 53.6988C329.717 53.6989 329.718 53.6991 329.719 53.6993C329.721 53.6997 329.724 53.7005 329.728 53.7015C329.737 53.7036 329.751 53.7069 329.77 53.7114C329.807 53.7204 329.864 53.7342 329.941 53.7531C330.095 53.7907 330.327 53.8481 330.636 53.9263C331.253 54.0826 332.177 54.3216 333.391 54.6503C335.82 55.3077 339.412 56.3236 344.045 57.7531C353.313 60.6121 366.747 65.1252 383.373 71.7324L384.85 68.0152ZM330.177 51.7525C330.477 53.7299 330.478 53.7298 330.479 53.7297C330.479 53.7296 330.48 53.7295 330.481 53.7294C330.482 53.7291 330.484 53.7289 330.486 53.7286C330.489 53.728 330.494 53.7273 330.499 53.7265C330.51 53.7248 330.523 53.7226 330.54 53.7198C330.574 53.7142 330.621 53.7063 330.68 53.6959C330.796 53.6752 330.96 53.6444 331.163 53.6021C331.568 53.5176 332.134 53.3862 332.796 53.1952C334.104 52.8178 335.861 52.1869 337.508 51.1772C339.145 50.1734 340.824 48.7015 341.725 46.5837C342.654 44.3997 342.63 41.8269 341.391 38.9264L337.713 40.498C338.604 42.5839 338.474 44.0093 338.044 45.0178C337.587 46.0925 336.656 47.0074 335.417 47.7671C334.188 48.5209 332.802 49.0301 331.687 49.352C331.137 49.5107 330.671 49.6188 330.347 49.6863C330.185 49.72 330.06 49.7434 329.979 49.7577C329.939 49.7649 329.909 49.7699 329.892 49.7727C329.883 49.7741 329.878 49.775 329.875 49.7754C329.874 49.7756 329.874 49.7757 329.874 49.7756C329.874 49.7756 329.875 49.7755 329.875 49.7755C329.875 49.7754 329.876 49.7753 329.876 49.7753C329.877 49.7752 329.877 49.7751 330.177 51.7525ZM341.403 38.9542C340.293 36.2446 336.229 27.0263 332.462 18.5304C330.575 14.2725 328.756 10.182 327.408 7.15612C326.735 5.64315 326.179 4.39626 325.792 3.52757C325.598 3.09323 325.447 2.75343 325.344 2.52219C325.292 2.40658 325.253 2.3181 325.226 2.25851C325.213 2.22872 325.203 2.20615 325.196 2.19102C325.193 2.18346 325.19 2.17776 325.188 2.17394C325.188 2.17203 325.187 2.1706 325.186 2.16964C325.186 2.16916 325.186 2.16879 325.186 2.16855C325.186 2.16831 325.186 2.16818 323.359 2.98315C321.533 3.79812 321.533 3.79824 321.533 3.79847C321.533 3.79871 321.533 3.79906 321.534 3.79954C321.534 3.80049 321.535 3.80191 321.535 3.8038C321.537 3.80759 321.54 3.81327 321.543 3.82081C321.55 3.83589 321.56 3.85841 321.573 3.88815C321.6 3.94763 321.639 4.036 321.691 4.1515C321.794 4.38251 321.945 4.72207 322.139 5.15617C322.526 6.02436 323.081 7.27066 323.754 8.78297C325.101 11.8077 326.919 15.8961 328.805 20.1515C332.587 28.6823 336.619 37.8285 337.701 40.4701L341.403 38.9542ZM323.21 4.9776L336.238 5.95054L336.535 1.96165L323.508 0.988709L323.21 4.9776ZM336.244 5.95102C340.801 6.27618 345.032 8.45272 348.706 11.6645L351.339 8.65284C347.221 5.05397 342.199 2.36573 336.529 1.96117L336.244 5.95102ZM348.71 11.6682C358.769 20.4113 366.072 27.0614 371.737 32.1441C377.374 37.2012 381.456 40.768 384.991 43.2368C388.583 45.7465 391.673 47.1692 395.346 47.9302C398.934 48.6734 403.007 48.7661 408.462 48.7661V44.7661C402.959 44.7661 399.285 44.6612 396.158 44.0134C393.116 43.3833 390.522 42.2216 387.281 39.9577C383.982 37.6531 380.082 34.2571 374.408 29.1666C368.763 24.1017 361.425 17.4193 351.334 8.64918L348.71 11.6682ZM408.462 48.7661C422.398 48.7661 445.345 48.8269 468.676 48.8877C492.005 48.9485 515.719 49.0094 531.184 49.0094V45.0094C515.725 45.0094 492.018 44.9486 468.687 44.8877C445.358 44.8269 422.405 44.7661 408.462 44.7661V48.7661ZM531.184 49.0094C537.973 49.0094 547.433 48.7105 556.27 49.9035C565.222 51.1119 572.788 53.7685 576.404 59.0805L579.71 56.8297C575.047 49.9797 565.873 47.1635 556.806 45.9395C547.625 44.7001 537.788 45.0094 531.184 45.0094V49.0094ZM577.344 59.8238L584.04 62.3778L585.466 58.6404L578.77 56.0864L577.344 59.8238ZM584.064 62.3867C584.938 62.7073 585.972 63.6496 586.594 65.0804C587.195 66.4627 587.331 68.1309 586.649 69.7773C585.3 73.0354 580.181 77.2471 565.678 77.8483L565.843 81.8449C580.681 81.2298 588.042 76.8674 590.345 71.3081C591.489 68.5458 591.244 65.7444 590.263 63.4858C589.302 61.2756 587.551 59.4054 585.442 58.6315L584.064 62.3867ZM580.005 56.6846H565.882V60.6846H580.005V56.6846ZM565.882 56.6846C566.212 56.6846 566.405 56.8501 566.468 56.9243C566.53 56.9985 566.543 57.0606 566.543 57.1036H562.543C562.543 58.7258 563.741 60.6846 565.882 60.6846V56.6846ZM566.543 57.1036V55.0361H562.543V57.1036H566.543ZM566.543 55.0361C566.543 55.274 566.47 55.5297 566.288 55.7632C566.09 56.0184 565.697 56.3064 565.152 56.3064V52.3064C564.242 52.3064 563.544 52.7768 563.132 53.3057C562.737 53.8128 562.543 54.4334 562.543 55.0361H566.543ZM565.152 56.3064H574.405V52.3064H565.152V56.3064ZM472.003 69.1216L464.576 67.7838L463.867 71.7204L471.294 73.0582L472.003 69.1216ZM466.222 69.7521V63.3063H462.222V69.7521H466.222ZM464.545 65.28L471.971 64.0638L471.325 60.1164L463.898 61.3326L464.545 65.28ZM491.128 72.2521H477.37V76.2521H491.128V72.2521ZM477.37 72.2521C474.334 72.2521 471.944 69.8618 471.944 66.8333H467.944C467.944 72.0749 472.128 76.2521 477.37 76.2521V72.2521ZM471.944 66.8333C471.944 63.8048 474.334 61.4146 477.37 61.4146V57.4146C472.128 57.4146 467.944 61.5917 467.944 66.8333H471.944ZM477.37 61.4146H491.128V57.4146H477.37V61.4146ZM491.128 61.4146C492.671 61.4146 493.876 62.6768 493.876 64.1577H497.876C497.876 60.5306 494.942 57.4146 491.128 57.4146V61.4146ZM493.876 64.1577V69.5089H497.876V64.1577H493.876ZM493.879 69.6042C493.941 70.9246 492.76 72.2521 491.128 72.2521V76.2521C494.853 76.2521 498.055 73.2013 497.874 69.4137L493.879 69.6042ZM479.318 61.2927H487.963V57.2927H479.318V61.2927ZM485.963 59.2927V74.1303H489.963V59.2927H485.963ZM487.963 72.1303H479.318V76.1303H487.963V72.1303ZM481.318 74.1303V59.2927H477.318V74.1303H481.318ZM379.848 64.3953C380.366 64.266 380.962 64.3133 381.615 64.4997L382.713 60.6533C381.661 60.3532 380.309 60.1572 378.879 60.5144L379.848 64.3953ZM381.428 64.4364C387.129 66.6907 408.484 76.7409 431.604 76.6167L431.583 72.6168C409.413 72.7359 388.886 63.0838 382.899 60.7166L381.428 64.4364ZM431.594 76.6168C432.225 76.6168 432.847 76.9261 433.347 77.5385C433.858 78.1648 434.137 78.9932 434.1 79.7512L438.096 79.9416C438.182 78.1456 437.547 76.3592 436.445 75.0092C435.332 73.6452 433.64 72.6168 431.594 72.6168V76.6168ZM436.098 79.8464C436.072 77.8466 436.072 77.8466 436.073 77.8466C436.072 77.8466 436.073 77.8466 436.072 77.8466C436.072 77.8466 436.072 77.8466 436.071 77.8466C436.069 77.8466 436.067 77.8466 436.063 77.8467C436.055 77.8468 436.043 77.8469 436.026 77.847C435.993 77.8473 435.942 77.8477 435.875 77.848C435.739 77.8486 435.535 77.8489 435.268 77.8476C434.734 77.8451 433.947 77.8362 432.947 77.8109C430.946 77.7604 428.094 77.644 424.702 77.3811C417.906 76.8543 409.003 75.7429 400.465 73.4168L399.413 77.2762C408.285 79.6932 417.462 80.8318 424.393 81.3691C427.865 81.6383 430.788 81.7576 432.846 81.8097C433.876 81.8357 434.69 81.8449 435.249 81.8476C435.529 81.8489 435.745 81.8486 435.892 81.848C435.966 81.8476 436.023 81.8472 436.061 81.8469C436.081 81.8467 436.096 81.8466 436.106 81.8464C436.112 81.8464 436.116 81.8463 436.119 81.8463C436.12 81.8463 436.121 81.8463 436.122 81.8463C436.123 81.8463 436.123 81.8462 436.123 81.8462C436.124 81.8462 436.124 81.8462 436.098 79.8464ZM400.451 73.4132C388.681 70.2939 379.32 66.0983 373.81 63.7742L372.255 67.4598C377.702 69.7571 387.334 74.0748 399.427 77.2798L400.451 73.4132ZM373.926 63.8277C374.313 64.0209 374.515 64.4207 374.498 64.807C374.489 65.008 374.422 65.2364 374.265 65.4426C374.1 65.6592 373.887 65.7851 373.703 65.8375L372.605 61.9911C371.296 62.3648 370.552 63.4822 370.502 64.633C370.455 65.7187 371.022 66.8482 372.139 67.4062L373.926 63.8277ZM373.612 65.8612L379.821 64.4018L378.906 60.5079L372.697 61.9673L373.612 65.8612ZM447.524 78.4066L448.985 77.312L446.587 74.1108L445.126 75.2053L447.524 78.4066ZM448.985 77.312C450.1 76.4768 451.14 76.1304 452.534 76.1304V72.1304C450.276 72.1304 448.394 72.7568 446.587 74.1108L448.985 77.312ZM452.534 76.1304H490.885V72.1304H452.534V76.1304ZM436.828 62.5091H446.812V58.5091H436.828V62.5091ZM446.812 62.5091C447.587 62.5091 448.317 62.3162 448.757 62.2063L447.788 58.3255C447.254 58.4588 447.01 58.5091 446.812 58.5091V62.5091ZM448.994 62.1313L475.413 51.9152L473.971 48.1844L447.551 58.4005L448.994 62.1313ZM474.692 48.0498H463.734V52.0498H474.692V48.0498ZM453.556 70.9496C477.567 64.2869 501.099 59.5604 527.198 55.9225L526.646 51.9608C500.394 55.62 476.687 60.3798 452.486 67.0952L453.556 70.9496ZM527.186 55.9241C528.984 55.6846 530.436 54.9071 531.383 53.6977C532.317 52.5041 532.629 51.0522 532.451 49.7103C532.093 47.017 529.696 44.5634 526.174 45.0264L526.696 48.9923C527.328 48.9092 527.722 49.0807 527.968 49.2819C528.242 49.5061 528.434 49.8525 528.485 50.2373C528.535 50.6133 528.444 50.9628 528.233 51.2324C528.034 51.4863 527.599 51.8338 526.658 51.9591L527.186 55.9241ZM526.435 49.0093H526.557V45.0093H526.435V49.0093ZM526.249 45.0332C497.276 49.5516 472.932 55.9047 451.028 63.4837L452.336 67.2639C474.017 59.7622 498.129 53.4669 526.865 48.9854L526.249 45.0332ZM329.799 53.7391L340.269 52.5229L339.808 48.5497L329.338 49.7658L329.799 53.7391ZM340.097 52.5354L377.474 51.4409L377.357 47.4426L339.98 48.5372L340.097 52.5354ZM377.487 51.4405C379.899 51.3544 381.65 51.5984 382.751 51.9432C383.305 52.1167 383.613 52.2909 383.752 52.3959C383.905 52.5116 383.713 52.4292 383.649 52.074C383.617 51.89 383.635 51.7083 383.686 51.558C383.734 51.4178 383.795 51.3487 383.799 51.3434C383.803 51.3394 383.767 51.3802 383.657 51.4512C383.549 51.5211 383.389 51.6079 383.165 51.7022C382.229 52.0947 380.545 52.4637 377.957 52.5509L378.092 56.5486C380.921 56.4533 383.148 56.047 384.712 55.3906C385.488 55.0649 386.232 54.624 386.78 54.0105C387.361 53.3619 387.778 52.4379 387.587 51.3701C387.409 50.3765 386.774 49.667 386.167 49.2069C385.545 48.7361 384.776 48.3858 383.947 48.1261C382.281 47.6043 380.046 47.3466 377.344 47.443L377.487 51.4405ZM377.969 52.5505C373.54 52.6734 356.699 53.4 342.036 53.0368L341.937 57.0356C356.738 57.4021 373.742 56.6693 378.08 56.549L377.969 52.5505ZM342.046 53.0371C338.029 52.9173 335.397 52.6488 333.795 52.4181C332.995 52.3029 332.454 52.1974 332.128 52.1255C331.966 52.0896 331.857 52.0621 331.797 52.0461C331.767 52.0381 331.749 52.0329 331.743 52.0311C331.739 52.0301 331.739 52.03 331.741 52.0307C331.743 52.0311 331.745 52.0317 331.747 52.0325C331.748 52.0329 331.75 52.0334 331.752 52.0339C331.752 52.0341 331.753 52.0344 331.754 52.0347C331.755 52.0348 331.755 52.0351 331.755 52.0351C331.756 52.0354 331.757 52.0356 331.151 53.9416C330.545 55.8477 330.546 55.8479 330.547 55.8481C330.547 55.8482 330.548 55.8485 330.548 55.8486C330.549 55.849 330.551 55.8493 330.552 55.8497C330.554 55.8504 330.556 55.8512 330.559 55.852C330.564 55.8536 330.57 55.8554 330.577 55.8574C330.59 55.8614 330.605 55.8661 330.624 55.8714C330.661 55.8822 330.708 55.8955 330.767 55.9113C330.886 55.9428 331.05 55.9837 331.266 56.0314C331.697 56.1267 332.336 56.2493 333.225 56.3773C335.002 56.6331 337.787 56.9119 341.927 57.0353L342.046 53.0371ZM332.772 52.7698L331.189 50.5807L327.948 52.9243L329.53 55.1134L332.772 52.7698ZM408.472 68.7975C412.778 67.9727 421.525 67.0962 430.218 66.6567C434.55 66.4377 438.829 66.3293 442.494 66.3873C446.207 66.446 449.139 66.6749 450.86 67.0779L451.772 63.1832C449.598 62.6741 446.29 62.4469 442.557 62.3878C438.777 62.328 434.404 62.44 430.016 62.6618C421.269 63.1041 412.301 63.9912 407.719 64.869L408.472 68.7975ZM450.862 67.0783C451.498 67.2265 451.844 67.4638 451.982 67.6038C452.112 67.736 451.965 67.6592 452.012 67.4C452.056 67.16 452.178 67.2586 451.739 67.4999C451.301 67.741 450.472 68.0148 449.09 68.1231L449.403 72.1108C451.126 71.9759 452.565 71.6111 453.667 71.0047C454.769 70.3985 455.705 69.4406 455.947 68.1211C456.192 66.7826 455.626 65.6036 454.832 64.7971C454.045 63.9983 452.961 63.4603 451.77 63.1828L450.862 67.0783ZM449.093 68.1228C442.964 68.5938 422.087 67.6372 408.494 64.8733L407.697 68.7931C421.619 71.6238 442.868 72.613 449.4 72.1111L449.093 68.1228ZM318.424 55.2937C319.467 54.8471 321.32 54.3906 323.737 53.9896C326.108 53.5965 328.876 53.2794 331.657 53.0623C334.436 52.8452 337.201 52.7302 339.564 52.7358C341.973 52.7415 343.821 52.8734 344.845 53.0979L345.702 49.1908C344.23 48.868 342.015 48.7415 339.573 48.7358C337.085 48.73 334.212 48.8506 331.345 49.0744C328.479 49.2982 325.593 49.6272 323.083 50.0435C320.62 50.4521 318.363 50.9686 316.85 51.6165L318.424 55.2937ZM344.862 53.1015C345.123 53.1565 345.209 53.2452 345.194 53.2299C345.174 53.2101 345.012 53.0145 345.053 52.6693C345.096 52.3155 345.3 52.2259 345.173 52.3087C345.03 52.4022 344.633 52.5869 343.816 52.6858L344.297 56.6568C345.488 56.5125 346.537 56.1955 347.36 55.6581C348.2 55.11 348.891 54.2603 349.025 53.1464C349.299 50.8593 347.277 49.5219 345.685 49.1872L344.862 53.1015ZM343.808 52.6867C342.027 52.9091 337.809 53.0064 332.831 52.8397C327.883 52.6739 322.356 52.2528 317.982 51.4852L317.291 55.425C321.927 56.2385 327.662 56.6687 332.697 56.8374C337.703 57.0051 342.189 56.92 344.304 56.6559L343.808 52.6867ZM541.289 64.5767H544.942V60.5767H541.289V64.5767ZM544.942 64.5767C544.879 64.5767 544.723 64.5466 544.578 64.4021C544.433 64.2574 544.403 64.1003 544.403 64.0361H548.403C548.403 62.0781 546.896 60.5767 544.942 60.5767V64.5767ZM544.403 64.0361V71.4548H548.403V64.0361H544.403ZM544.403 71.4548C544.403 71.3906 544.433 71.2335 544.578 71.0889C544.723 70.9443 544.879 70.9143 544.942 70.9143V74.9143C546.896 74.9143 548.403 73.4128 548.403 71.4548H544.403ZM544.942 70.9143H541.289V74.9143H544.942V70.9143ZM541.289 70.9143C541.352 70.9143 541.508 70.9443 541.652 71.0889C541.797 71.2335 541.828 71.3906 541.828 71.4548H537.828C537.828 73.4128 539.334 74.9143 541.289 74.9143V70.9143ZM541.828 71.4548V64.0361H537.828V71.4548H541.828ZM541.828 64.0361C541.828 64.1003 541.797 64.2574 541.652 64.4021C541.508 64.5466 541.352 64.5767 541.289 64.5767V60.5767C539.334 60.5767 537.828 62.0781 537.828 64.0361L541.828 64.0361ZM323.969 9.27336L338.944 42.7187L342.594 41.0841L327.619 7.63875L323.969 9.27336ZM340.769 43.9014H355.135V39.9014H340.769V43.9014ZM355.135 43.9014C357.868 43.9014 359.642 40.882 358.17 38.5298L354.779 40.6514C354.648 40.4413 354.692 40.2272 354.75 40.124C354.814 40.0113 354.96 39.9014 355.135 39.9014V43.9014ZM358.187 38.5576L341.021 10.0987L337.595 12.1647L354.762 40.6236L358.187 38.5576ZM340.995 10.0571C339.834 8.23456 337.902 6.94252 335.534 6.94252V10.9425C336.331 10.9425 337.078 11.3532 337.621 12.2062L340.995 10.0571ZM335.634 6.94501L325.894 6.45854L325.694 10.4536L335.434 10.94L335.634 6.94501ZM351.726 30.6582H349.413V34.6582H351.726V30.6582ZM32.7457 362.071H2.30859V366.071H32.7457V362.071ZM386.547 239.344H632.235V235.344H386.547V239.344ZM718.25 179.371L668.212 237.991L671.254 240.588L721.293 181.967L718.25 179.371ZM668.22 237.981C665.631 240.976 664.147 244.507 663.612 248.381L667.575 248.928C668.014 245.748 669.208 242.955 671.246 240.598L668.22 237.981ZM663.609 248.408L661.904 262.151L665.874 262.643L667.578 248.9L663.609 248.408ZM663.889 260.397H124.665V264.397H663.889V260.397ZM124.665 260.397C124.652 260.397 124.654 260.395 124.664 260.399C124.673 260.403 124.684 260.41 124.694 260.42C124.704 260.43 124.711 260.441 124.715 260.45C124.719 260.461 124.717 260.463 124.717 260.451H120.717C120.717 262.652 122.467 264.397 124.665 264.397V260.397ZM124.717 260.451V242.573H120.717V260.451H124.717ZM124.717 242.573C124.717 242.553 124.724 242.258 124.663 241.953C124.634 241.809 124.555 241.463 124.31 241.109C124.012 240.679 123.429 240.208 122.595 240.208V244.208C122.259 244.208 121.92 244.119 121.618 243.941C121.329 243.77 121.139 243.556 121.022 243.387C120.811 243.083 120.754 242.805 120.741 242.738C120.71 242.585 120.717 242.472 120.717 242.573H124.717ZM124.464 241.495L101.819 182.145L98.0815 183.571L120.727 242.921L124.464 241.495ZM101.824 182.16C100.361 178.231 103.178 174.156 107.377 174.156V170.156C100.375 170.156 95.6435 177.026 98.0759 183.556L101.824 182.16ZM107.377 174.156H126.37V170.156H107.377V174.156ZM126.37 174.156C128.568 174.156 130.317 172.411 130.317 170.21H126.317C126.317 170.222 126.316 170.219 126.32 170.209C126.324 170.199 126.331 170.188 126.341 170.178C126.351 170.168 126.362 170.162 126.371 170.158C126.381 170.154 126.382 170.156 126.37 170.156V174.156ZM130.317 170.21V123.994H126.317V170.21H130.317ZM130.317 123.994C130.317 123.982 130.319 123.985 130.315 123.995C130.311 124.005 130.304 124.016 130.294 124.026C130.284 124.036 130.273 124.043 130.264 124.046C130.254 124.051 130.253 124.048 130.265 124.048V120.048C128.067 120.048 126.317 121.793 126.317 123.994H130.317ZM130.265 124.048H146.945V120.048H130.265V124.048ZM146.945 124.048C149.143 124.048 150.893 122.304 150.893 120.103H146.893C146.893 120.114 146.891 120.112 146.895 120.102C146.9 120.092 146.906 120.081 146.916 120.071C146.926 120.061 146.937 120.054 146.946 120.051C146.956 120.046 146.958 120.048 146.945 120.048V124.048ZM150.893 120.103V110.981H146.893V120.103H150.893ZM150.893 110.981C150.893 110.969 150.895 110.971 150.89 110.982C150.886 110.992 150.879 111.003 150.87 111.013C150.86 111.023 150.849 111.029 150.84 111.033C150.83 111.037 150.828 111.035 150.841 111.035V107.035C148.643 107.035 146.893 108.78 146.893 110.981H150.893ZM150.841 111.035H159.972V107.035H150.841V111.035ZM159.972 111.035C159.985 111.035 159.983 111.037 159.973 111.033C159.964 111.029 159.953 111.023 159.944 111.013C159.934 111.003 159.927 110.992 159.923 110.982C159.918 110.971 159.92 110.969 159.92 110.981H163.92C163.92 108.78 162.17 107.035 159.972 107.035V111.035ZM159.92 110.981V120.103H163.92V110.981H159.92ZM159.92 120.103C159.92 122.304 161.67 124.048 163.868 124.048V120.048C163.855 120.048 163.857 120.046 163.867 120.051C163.876 120.054 163.887 120.061 163.897 120.071C163.907 120.081 163.914 120.092 163.918 120.102C163.922 120.112 163.92 120.115 163.92 120.103H159.92ZM163.868 124.048H225.96V120.048H163.868V124.048ZM225.96 124.048C225.973 124.048 225.971 124.051 225.961 124.046C225.952 124.043 225.941 124.036 225.931 124.026C225.921 124.016 225.914 124.005 225.91 123.995C225.906 123.985 225.908 123.982 225.908 123.994H229.908C229.908 121.793 228.158 120.048 225.96 120.048V124.048ZM225.908 123.994V170.21H229.908V123.994H225.908ZM225.908 170.21C225.908 172.411 227.657 174.156 229.856 174.156V170.156C229.843 170.156 229.844 170.154 229.854 170.158C229.864 170.162 229.874 170.168 229.884 170.178C229.894 170.188 229.901 170.199 229.905 170.209C229.91 170.219 229.908 170.222 229.908 170.21H225.908ZM229.856 174.156H243.492V170.156H229.856V174.156ZM243.492 174.156C243.483 174.156 243.46 174.154 243.425 174.123C243.405 174.105 243.378 174.073 243.355 174.023C243.33 173.97 243.318 173.912 243.318 173.858H247.318C247.318 171.604 245.384 170.156 243.492 170.156V174.156ZM243.326 174.044C244.275 184.197 252.932 192.155 263.336 192.155V188.155C254.991 188.155 248.065 181.763 247.309 173.672L243.326 174.044ZM263.336 192.155H603.745V188.155H263.336V192.155ZM603.745 192.155C614.149 192.155 622.807 184.197 623.755 174.044L619.773 173.672C619.017 181.763 612.09 188.155 603.745 188.155V192.155ZM623.748 174.107C623.756 174.048 623.773 174.056 623.736 174.091C623.718 174.108 623.692 174.127 623.659 174.14C623.625 174.153 623.599 174.156 623.59 174.156V170.156C621.478 170.156 620.009 171.771 619.779 173.61L623.748 174.107ZM623.59 174.156H715.632V170.156H623.59V174.156ZM715.691 174.155C717.985 174.087 719.863 177.053 718.133 179.521L721.409 181.817C724.793 176.988 721.558 169.981 715.573 170.156L715.691 174.155ZM691.891 195.561C696.759 195.561 700.709 191.618 700.709 186.75H696.709C696.709 189.405 694.554 191.561 691.891 191.561V195.561ZM700.709 186.75C700.709 181.882 696.759 177.939 691.891 177.939V181.939C694.554 181.939 696.709 184.095 696.709 186.75H700.709ZM691.891 177.939C687.023 177.939 683.073 181.882 683.073 186.75H687.073C687.073 184.095 689.228 181.939 691.891 181.939V177.939ZM683.073 186.75C683.073 191.618 687.023 195.561 691.891 195.561V191.561C689.228 191.561 687.073 189.405 687.073 186.75H683.073ZM406.634 159.818H352.7V163.818H406.634V159.818ZM352.7 159.818C350.075 159.818 348.143 161.99 348.143 164.372H352.143C352.143 164.248 352.197 164.102 352.31 163.985C352.415 163.877 352.545 163.818 352.7 163.818V159.818ZM348.143 164.372V183.101H352.143V164.372H348.143ZM348.143 183.101C348.143 185.729 350.32 187.655 352.7 187.655V183.655C352.574 183.655 352.427 183.601 352.309 183.488C352.201 183.383 352.143 183.254 352.143 183.101H348.143ZM352.7 187.655H406.634V183.655H352.7V187.655ZM406.634 187.655C409.259 187.655 411.191 185.483 411.191 183.101H407.191C407.191 183.225 407.138 183.371 407.024 183.488C406.92 183.596 406.789 183.655 406.634 183.655V187.655ZM411.191 183.101V164.372H407.191V183.101H411.191ZM411.183 164.553C411.427 161.867 409.086 159.818 406.634 159.818V163.818C406.809 163.818 406.977 163.893 407.093 164.008C407.148 164.063 407.177 164.113 407.189 164.146C407.201 164.175 407.2 164.188 407.199 164.191L411.183 164.553ZM342.595 131.967H288.66V135.967H342.595V131.967ZM288.66 131.967C286.035 131.967 284.104 134.139 284.104 136.521H288.104C288.104 136.397 288.157 136.251 288.27 136.134C288.375 136.026 288.506 135.967 288.66 135.967V131.967ZM284.104 136.521V155.25H288.104V136.521H284.104ZM284.104 155.25C284.104 157.878 286.281 159.804 288.66 159.804V155.804C288.534 155.804 288.387 155.75 288.27 155.637C288.162 155.532 288.104 155.403 288.104 155.25H284.104ZM288.66 159.804H342.595V155.804H288.66V159.804ZM342.595 159.804C345.22 159.804 347.152 157.633 347.152 155.25H343.152C343.152 155.374 343.098 155.52 342.985 155.638C342.88 155.745 342.749 155.804 342.595 155.804V159.804ZM347.152 155.25V136.521H343.152V155.25H347.152ZM347.152 136.521C347.152 133.955 345.158 131.967 342.595 131.967V135.967C342.812 135.967 342.938 136.042 343.008 136.112C343.077 136.181 343.152 136.306 343.152 136.521H347.152ZM406.634 131.967H352.7V135.967H406.634V131.967ZM352.7 131.967C350.075 131.967 348.143 134.139 348.143 136.521H352.143C352.143 136.397 352.197 136.251 352.31 136.134C352.415 136.026 352.545 135.967 352.7 135.967V131.967ZM348.143 136.521V155.25H352.143V136.521H348.143ZM348.143 155.25C348.143 157.878 350.32 159.804 352.7 159.804V155.804C352.574 155.804 352.427 155.75 352.309 155.637C352.201 155.532 352.143 155.403 352.143 155.25H348.143ZM352.7 159.804H406.634V155.804H352.7V159.804ZM406.634 159.804C409.259 159.804 411.191 157.633 411.191 155.25H407.191C407.191 155.374 407.138 155.52 407.024 155.638C406.92 155.745 406.789 155.804 406.634 155.804V159.804ZM411.191 155.25V136.521H407.191V155.25H411.191ZM411.184 136.687C411.422 133.838 409.029 131.967 406.634 131.967V135.967C406.87 135.967 407.034 136.055 407.116 136.135C407.155 136.172 407.175 136.206 407.185 136.232C407.194 136.255 407.203 136.292 407.198 136.355L411.184 136.687ZM342.595 159.818H288.66V163.818H342.595V159.818ZM288.66 159.818C286.035 159.818 284.104 161.99 284.104 164.372H288.104C288.104 164.248 288.157 164.102 288.27 163.985C288.375 163.877 288.506 163.818 288.66 163.818V159.818ZM284.104 164.372V183.101H288.104V164.372H284.104ZM284.104 183.101C284.104 185.729 286.281 187.655 288.66 187.655V183.655C288.534 183.655 288.387 183.601 288.27 183.488C288.162 183.383 288.104 183.254 288.104 183.101H284.104ZM288.66 187.655H342.595V183.655H288.66V187.655ZM342.595 187.655C345.22 187.655 347.152 185.483 347.152 183.101H343.152C343.152 183.225 343.098 183.371 342.985 183.488C342.88 183.596 342.749 183.655 342.595 183.655V187.655ZM347.152 183.101V164.372H343.152V183.101H347.152ZM347.152 164.372C347.152 161.99 345.22 159.818 342.595 159.818V163.818C342.75 163.818 342.88 163.877 342.985 163.985C343.098 164.102 343.152 164.248 343.152 164.372H347.152ZM583.535 131.967H557.359V135.967H583.535V131.967ZM557.359 131.967C554.734 131.967 552.802 134.139 552.802 136.521H556.802C556.802 136.397 556.856 136.251 556.969 136.134C557.074 136.026 557.204 135.967 557.359 135.967V131.967ZM552.802 136.521V183.101H556.802V136.521H552.802ZM552.802 183.101C552.802 185.729 554.98 187.655 557.359 187.655V183.655C557.233 183.655 557.086 183.601 556.969 183.488C556.861 183.383 556.802 183.254 556.802 183.101H552.802ZM557.359 187.655H583.535V183.655H557.359V187.655ZM583.535 187.655C586.16 187.655 588.092 185.483 588.092 183.101H584.092C584.092 183.225 584.038 183.371 583.925 183.488C583.82 183.596 583.69 183.655 583.535 183.655V187.655ZM588.092 183.101V136.521H584.092V183.101H588.092ZM588.092 136.521C588.092 133.955 586.098 131.967 583.535 131.967V135.967C583.753 135.967 583.878 136.042 583.948 136.112C584.017 136.181 584.092 136.306 584.092 136.521H588.092ZM546.28 131.967H520.104V135.967H546.28V131.967ZM520.104 131.967C517.479 131.967 515.547 134.139 515.547 136.521H519.547C519.547 136.397 519.601 136.251 519.714 136.134C519.819 136.026 519.949 135.967 520.104 135.967V131.967ZM515.547 136.521V183.101H519.547V136.521H515.547ZM515.547 183.101C515.547 185.729 517.725 187.655 520.104 187.655V183.655C519.978 183.655 519.831 183.601 519.714 183.488C519.606 183.383 519.547 183.254 519.547 183.101H515.547ZM520.104 187.655H546.28V183.655H520.104V187.655ZM546.28 187.655C548.905 187.655 550.837 185.483 550.837 183.101H546.837C546.837 183.225 546.783 183.371 546.67 183.488C546.565 183.596 546.435 183.655 546.28 183.655V187.655ZM550.837 183.101V136.521H546.837V183.101H550.837ZM550.837 136.521C550.837 133.955 548.844 131.967 546.28 131.967V135.967C546.498 135.967 546.623 136.042 546.693 136.112C546.762 136.181 546.837 136.306 546.837 136.521H550.837ZM508.66 131.967H482.484V135.967H508.66V131.967ZM482.484 131.967C479.859 131.967 477.927 134.139 477.927 136.521H481.927C481.927 136.397 481.981 136.251 482.094 136.134C482.198 136.026 482.329 135.967 482.484 135.967V131.967ZM477.927 136.521V183.101H481.927V136.521H477.927ZM477.927 183.101C477.927 185.729 480.104 187.655 482.484 187.655V183.655C482.358 183.655 482.211 183.601 482.093 183.488C481.985 183.383 481.927 183.254 481.927 183.101H477.927ZM482.484 187.655H508.66V183.655H482.484V187.655ZM508.66 187.655C511.285 187.655 513.216 185.483 513.216 183.101H509.216C509.216 183.225 509.163 183.371 509.049 183.488C508.945 183.596 508.814 183.655 508.66 183.655V187.655ZM513.216 183.101V136.521H509.216V183.101H513.216ZM513.209 136.687C513.447 133.838 511.054 131.967 508.66 131.967V135.967C508.895 135.967 509.059 136.055 509.141 136.135C509.181 136.172 509.2 136.206 509.21 136.232C509.219 136.255 509.229 136.292 509.223 136.355L513.209 136.687ZM471.039 131.967H417.105V135.967H471.039V131.967ZM417.105 131.967C414.48 131.967 412.548 134.139 412.548 136.521H416.548C416.548 136.397 416.602 136.251 416.715 136.134C416.819 136.026 416.95 135.967 417.105 135.967V131.967ZM412.548 136.521V155.25H416.548V136.521H412.548ZM412.548 155.25C412.548 157.878 414.725 159.804 417.105 159.804V155.804C416.979 155.804 416.832 155.75 416.714 155.637C416.606 155.532 416.548 155.403 416.548 155.25H412.548ZM417.105 159.804H471.039V155.804H417.105V159.804ZM471.039 159.804C473.664 159.804 475.596 157.633 475.596 155.25H471.596C471.596 155.374 471.543 155.52 471.429 155.638C471.325 155.745 471.194 155.804 471.039 155.804V159.804ZM475.596 155.25V136.521H471.596V155.25H475.596ZM475.596 136.521C475.596 133.894 473.419 131.967 471.039 131.967V135.967C471.165 135.967 471.313 136.021 471.43 136.135C471.538 136.239 471.596 136.369 471.596 136.521H475.596ZM471.039 159.818H417.105V163.818H471.039V159.818ZM417.105 159.818C414.48 159.818 412.548 161.99 412.548 164.372H416.548C416.548 164.248 416.602 164.102 416.715 163.985C416.819 163.877 416.95 163.818 417.105 163.818V159.818ZM412.548 164.372V183.101H416.548V164.372H412.548ZM412.548 183.101C412.548 185.729 414.725 187.655 417.105 187.655V183.655C416.979 183.655 416.832 183.601 416.714 183.488C416.606 183.383 416.548 183.254 416.548 183.101H412.548ZM417.105 187.655H471.039V183.655H417.105V187.655ZM471.039 187.655C473.664 187.655 475.596 185.483 475.596 183.101H471.596C471.596 183.225 471.543 183.371 471.429 183.488C471.325 183.596 471.194 183.655 471.039 183.655V187.655ZM475.596 183.101V164.372H471.596V183.101H475.596ZM475.596 164.372C475.596 161.927 473.481 159.818 471.039 159.818V163.818C471.103 163.818 471.253 163.854 471.407 164.008C471.561 164.162 471.596 164.31 471.596 164.372H475.596ZM209.037 132.683H218.899V128.683H209.037V132.683ZM216.899 130.683V140.535H220.899V130.683H216.899ZM218.899 138.535H209.037V142.535H218.899V138.535ZM211.037 140.535V130.683H207.037V140.535H211.037ZM193.697 132.683H203.559V128.683H193.697V132.683ZM201.559 130.683V140.535H205.559V130.683H201.559ZM203.559 138.535H193.697V142.535H203.559V138.535ZM195.697 140.535V130.683H191.697V140.535H195.697ZM178.479 132.927H188.34V128.927H178.479V132.927ZM186.34 130.927V140.778H190.34V130.927H186.34ZM188.34 138.778H178.479V142.778H188.34V138.778ZM180.479 140.778V130.927H176.479V140.778H180.479ZM163.26 132.927H173.121V128.927H163.26V132.927ZM171.121 130.927V140.778H175.121V130.927H171.121ZM173.121 138.778H163.26V142.778H173.121V138.778ZM165.26 140.778V130.927H161.26V140.778H165.26ZM290.041 320.516L281.518 333.286L284.846 335.506L293.368 322.736L290.041 320.516ZM283.182 332.396H225.595V336.396H283.182V332.396ZM224.004 333.184L217.429 341.819L220.612 344.242L227.186 335.607L224.004 333.184ZM219.021 341.031H214.272V345.031H219.021V341.031ZM214.272 341.031C212.798 341.031 211.441 340.087 210.886 338.742L207.188 340.266C208.338 343.056 211.12 345.031 214.272 345.031V341.031ZM210.849 338.657C209.943 336.717 208.728 334.666 207.042 332.981L204.215 335.811C205.45 337.045 206.427 338.642 207.225 340.35L210.849 338.657ZM207.11 333.052C203.222 328.767 197.459 325.95 191.14 325.95V329.95C196.266 329.95 200.973 332.242 204.147 335.74L207.11 333.052ZM191.14 325.95C184.829 325.95 179.186 328.64 175.173 333.05L178.131 335.742C181.423 332.125 186.007 329.95 191.14 329.95V325.95ZM175.183 333.039C173.565 334.789 172.349 336.681 171.411 338.823L175.075 340.428C175.842 338.678 176.817 337.165 178.121 335.753L175.183 333.039ZM171.394 338.863C170.849 340.186 169.628 341.031 168.13 341.031V345.031C171.258 345.031 173.933 343.2 175.092 340.388L171.394 338.863ZM168.13 341.031H168.008V345.031H168.13V341.031ZM168.008 341.031C166.583 341.031 165.318 340.136 164.744 338.742L161.046 340.266C162.175 343.007 164.806 345.031 168.008 345.031V341.031ZM164.751 338.76C163.942 336.739 162.724 334.702 161.203 333.044L158.256 335.748C159.413 337.009 160.386 338.62 161.038 340.247L164.751 338.76ZM161.268 333.119C157.348 328.392 151.421 325.585 144.876 325.585V329.585C150.262 329.585 155.049 331.886 158.19 335.673L161.268 333.119ZM144.876 325.585C138.305 325.585 132.399 328.532 128.502 333.097L131.543 335.695C134.707 331.989 139.515 329.585 144.876 329.585V325.585ZM128.496 333.103C127.036 334.828 125.688 336.969 124.863 339.166L128.608 340.572C129.244 338.877 130.331 337.126 131.549 335.689L128.496 333.103ZM124.863 339.166C124.436 340.302 123.377 341.031 122.109 341.031V345.031C124.98 345.031 127.573 343.327 128.608 340.572L124.863 339.166ZM122.109 341.031H118.091V345.031H122.109V341.031ZM119.791 341.977L114.434 333.342L111.035 335.45L116.392 344.085L119.791 341.977ZM112.734 332.396H74.2617V336.396H112.734V332.396ZM76.2617 334.396V321.626H72.2617V334.396H76.2617ZM74.2617 323.626H141.954V319.626H74.2617V323.626ZM143.954 321.626V313.356H139.954V321.626H143.954ZM141.954 315.356H157.781V311.356H141.954V315.356ZM155.781 313.356V321.626H159.781V313.356H155.781ZM157.781 323.626H265.772V319.626H157.781V323.626ZM267.772 321.626V313.356H263.772V321.626H267.772ZM265.772 315.356H280.991V311.356H265.772V315.356ZM278.991 313.356V321.626H282.991V313.356H278.991ZM280.991 323.626H291.704V319.626H280.991V323.626ZM472.451 344.468C472.637 348.184 469.659 351.368 465.804 351.368V355.368C471.933 355.368 476.747 350.283 476.446 344.268L472.451 344.468ZM465.804 351.368H454.36V355.368H465.804V351.368ZM456.36 353.368V345.828H452.36V353.368H456.36ZM456.36 345.828C456.36 333.222 446.01 322.398 433.256 322.667L433.34 326.666C443.717 326.447 452.36 335.326 452.36 345.828H456.36ZM433.254 322.667C420.985 322.933 410.966 332.924 410.966 345.341H414.966C414.966 335.138 423.208 326.886 433.341 326.666L433.254 322.667ZM410.966 345.341V353.368H414.966V345.341H410.966ZM412.966 351.368H346.856V355.368H412.966V351.368ZM348.856 353.368V349.112H344.856V353.368H348.856ZM348.856 349.112C348.856 336.501 338.506 325.694 325.773 325.828L325.815 329.828C336.213 329.719 344.856 338.615 344.856 349.112H348.856ZM325.75 325.829C313.482 326.095 303.462 336.086 303.462 348.504H307.462C307.462 338.3 315.704 330.048 325.837 329.828L325.75 325.829ZM303.462 348.504V349.841H307.462V348.504H303.462ZM303.462 349.841C303.462 350.634 302.823 351.247 302.053 351.247V355.247C304.935 355.247 307.462 352.94 307.462 349.841H303.462ZM302.053 351.247H299.496V355.247H302.053V351.247ZM301.496 353.247V330.747H297.496V353.247H301.496ZM301.496 330.747C301.496 326.381 305.103 322.774 309.479 322.774V318.774C302.898 318.774 297.496 324.168 297.496 330.747H301.496ZM396.46 320.808L397.677 248.323L393.678 248.256L392.46 320.741L396.46 320.808ZM397.677 248.289C397.677 247.571 398.363 246.884 399.086 246.884V242.884C396.158 242.884 393.677 245.358 393.677 248.289H397.677ZM398.925 246.877L434.962 249.796L435.285 245.809L399.248 242.89L398.925 246.877ZM434.956 249.796C454.101 251.409 468.147 266.725 469.777 286.038L473.763 285.701C471.985 264.637 456.567 247.602 435.292 245.81L434.956 249.796ZM469.772 285.961L472.451 344.46L476.447 344.277L473.768 285.778L469.772 285.961ZM462.517 295.167C465.434 295.167 467.355 292.498 466.925 289.919L462.979 290.577C463.003 290.717 462.963 290.875 462.863 290.999C462.773 291.11 462.661 291.167 462.517 291.167V295.167ZM466.911 289.844L464.476 278.046L460.558 278.855L462.993 290.652L466.911 289.844ZM464.477 278.05C463.193 271.783 457.639 267.208 451.316 267.208V271.208C455.708 271.208 459.65 274.416 460.558 278.852L464.477 278.05ZM451.316 267.208H441.211V271.208H451.316V267.208ZM439.211 269.208V293.167H443.211V269.208H439.211ZM441.211 295.167H462.517V291.167H441.211V295.167ZM463.012 290.733C463.022 290.771 463.027 290.857 462.929 290.973C462.831 291.092 462.682 291.167 462.517 291.167V295.167C465.259 295.167 467.607 292.619 466.892 289.762L463.012 290.733ZM451.316 271.208C455.817 271.208 459.647 274.403 460.558 278.852L464.477 278.05C463.196 271.796 457.773 267.208 451.316 267.208V271.208ZM465.927 355.369C471.914 355.369 476.87 350.302 476.568 344.269L472.573 344.469C472.758 348.166 469.678 351.369 465.927 351.369V355.369ZM476.569 344.277L473.89 286.022L469.894 286.205L472.573 344.461L476.569 344.277ZM473.884 285.932C471.98 265.01 456.576 247.848 435.415 246.054L435.077 250.04C454.092 251.651 468.152 267.083 469.9 286.295L473.884 285.932ZM435.407 246.053L399.37 243.134L399.047 247.121L435.084 250.04L435.407 246.053ZM399.208 243.128C396.326 243.128 393.799 245.435 393.799 248.533H397.799C397.799 247.74 398.438 247.128 399.208 247.128V243.128ZM393.8 248.5L392.582 320.985L396.582 321.052L397.799 248.567L393.8 248.5ZM309.602 319.018C303.02 319.018 297.618 324.412 297.618 330.991H301.618C301.618 326.625 305.225 323.018 309.602 323.018V319.018ZM297.618 330.991V353.491H301.618V330.991H297.618ZM299.618 355.491H302.175V351.491H299.618V355.491ZM302.175 355.491C305.272 355.491 307.584 352.969 307.584 350.085H303.584C303.584 350.85 302.974 351.491 302.175 351.491V355.491ZM307.584 350.085V348.748H303.584V350.085H307.584ZM307.584 348.748C307.584 338.536 315.712 330.292 325.959 330.072L325.873 326.073C313.474 326.339 303.584 336.338 303.584 348.748H307.584ZM325.958 330.072C336.328 329.854 344.978 338.725 344.978 349.356H348.978C348.978 336.636 338.636 325.804 325.874 326.073L325.958 330.072ZM344.978 349.356V353.612H348.978V349.356H344.978ZM346.978 355.612H413.088V351.612H346.978V355.612ZM415.088 353.612V345.585H411.088V353.612H415.088ZM415.088 345.585C415.088 335.374 423.216 327.13 433.463 326.91L433.377 322.911C420.978 323.177 411.088 333.176 411.088 345.585H415.088ZM433.462 326.91C443.839 326.691 452.482 335.57 452.482 346.072H456.482C456.482 333.466 446.132 322.642 433.378 322.911L433.462 326.91ZM452.482 346.072V353.491H456.482V346.072H452.482ZM454.482 355.491H465.927V351.491H454.482V355.491ZM467.927 353.491V353.369H463.927V353.491H467.927ZM337.43 347.287C337.43 353.637 332.276 358.787 325.915 358.787V362.787C334.482 362.787 341.43 355.85 341.43 347.287H337.43ZM325.915 358.787C319.554 358.787 314.401 353.637 314.401 347.287H310.401C310.401 355.85 317.349 362.787 325.915 362.787V358.787ZM314.401 347.287C314.401 340.938 319.554 335.788 325.915 335.788V331.788C317.349 331.788 310.401 338.725 310.401 347.287H314.401ZM325.915 335.788C332.276 335.788 337.43 340.938 337.43 347.287H341.43C341.43 338.725 334.482 331.788 325.915 331.788V335.788ZM330.003 347.166C330.003 349.485 328.121 351.369 325.794 351.369V355.369C330.326 355.369 334.003 351.698 334.003 347.166H330.003ZM325.794 351.369C323.467 351.369 321.585 349.485 321.585 347.166H317.585C317.585 351.698 321.262 355.369 325.794 355.369V351.369ZM321.585 347.166C321.585 344.847 323.467 342.963 325.794 342.963V338.963C321.262 338.963 317.585 342.634 317.585 347.166H321.585ZM325.794 342.963C328.121 342.963 330.003 344.847 330.003 347.166H334.003C334.003 342.634 330.326 338.963 325.794 338.963V342.963ZM445.786 347.287C445.786 353.637 440.633 358.787 434.272 358.787V362.787C442.838 362.787 449.786 355.85 449.786 347.287H445.786ZM434.272 358.787C427.911 358.787 422.758 353.637 422.758 347.287H418.758C418.758 355.85 425.706 362.787 434.272 362.787V358.787ZM422.758 347.287C422.758 340.938 427.911 335.788 434.272 335.788V331.788C425.706 331.788 418.758 338.725 418.758 347.287H422.758ZM434.272 335.788C440.633 335.788 445.786 340.938 445.786 347.287H449.786C449.786 338.725 442.838 331.788 434.272 331.788V335.788ZM438.36 347.166C438.36 349.485 436.477 351.369 434.151 351.369V355.369C438.682 355.369 442.36 351.698 442.36 347.166H438.36ZM434.151 351.369C431.824 351.369 429.941 349.485 429.941 347.166H425.941C425.941 351.698 429.619 355.369 434.151 355.369V351.369ZM429.941 347.166C429.941 344.847 431.824 342.963 434.151 342.963V338.963C429.619 338.963 425.941 342.634 425.941 347.166H429.941ZM434.151 342.963C436.477 342.963 438.36 344.847 438.36 347.166H442.36C442.36 342.634 438.682 338.963 434.151 338.963V342.963ZM383.381 217.952H76.8185V221.952H383.381V217.952ZM76.8185 217.952C73.281 217.952 70.4355 220.791 70.4355 224.33H74.4355C74.4355 223.004 75.4861 221.952 76.8185 221.952V217.952ZM70.4355 224.33V311.653H74.4355V224.33H70.4355ZM70.4355 311.653C70.4355 315.192 73.281 318.031 76.8185 318.031V314.031C75.4861 314.031 74.4355 312.979 74.4355 311.653H70.4355ZM383.503 318.031C387.04 318.031 389.886 315.192 389.886 311.653H385.886C385.886 312.979 384.835 314.031 383.503 314.031V318.031ZM389.886 311.653V224.33H385.886V311.653H389.886ZM389.886 224.33C389.886 220.721 386.847 217.952 383.381 217.952V221.952C384.785 221.952 385.886 223.075 385.886 224.33H389.886ZM155.955 318.031H264.068V314.031H155.955V318.031ZM202.532 347.044C202.532 353.393 197.379 358.544 191.018 358.544V362.544C199.584 362.544 206.532 355.606 206.532 347.044H202.532ZM191.018 358.544C184.657 358.544 179.504 353.393 179.504 347.044H175.504C175.504 355.606 182.452 362.544 191.018 362.544V358.544ZM179.504 347.044C179.504 340.695 184.657 335.544 191.018 335.544V331.544C182.452 331.544 175.504 338.482 175.504 347.044H179.504ZM191.018 335.544C197.379 335.544 202.532 340.695 202.532 347.044H206.532C206.532 338.482 199.584 331.544 191.018 331.544V335.544ZM195.106 346.923C195.106 349.241 193.223 351.125 190.897 351.125V355.125C195.428 355.125 199.106 351.455 199.106 346.923H195.106ZM190.897 351.125C188.57 351.125 186.688 349.241 186.688 346.923H182.688C182.688 351.455 186.365 355.125 190.897 355.125V351.125ZM186.688 346.923C186.688 344.604 188.57 342.72 190.897 342.72V338.72C186.365 338.72 182.688 342.39 182.688 346.923H186.688ZM190.897 342.72C193.223 342.72 195.106 344.604 195.106 346.923H199.106C199.106 342.39 195.428 338.72 190.897 338.72V342.72ZM156.634 347.044C156.634 353.393 151.481 358.544 145.12 358.544V362.544C153.686 362.544 160.634 355.606 160.634 347.044H156.634ZM145.12 358.544C138.758 358.544 133.605 353.393 133.605 347.044H129.605C129.605 355.606 136.553 362.544 145.12 362.544V358.544ZM133.605 347.044C133.605 340.695 138.758 335.544 145.12 335.544V331.544C136.553 331.544 129.605 338.482 129.605 347.044H133.605ZM145.12 335.544C151.481 335.544 156.634 340.695 156.634 347.044H160.634C160.634 338.482 153.686 331.544 145.12 331.544V335.544ZM149.206 346.923C149.206 349.242 147.324 351.125 144.997 351.125V355.125C149.529 355.125 153.206 351.455 153.206 346.923H149.206ZM144.997 351.125C142.671 351.125 140.788 349.242 140.788 346.923H136.788C136.788 351.455 140.465 355.125 144.997 355.125V351.125ZM140.788 346.923C140.788 344.604 142.671 342.72 144.997 342.72V338.72C140.465 338.72 136.788 342.39 136.788 346.923H140.788ZM144.997 342.72C147.324 342.72 149.206 344.604 149.206 346.923H153.206C153.206 342.39 149.529 338.72 144.997 338.72V342.72ZM309.479 322.774H394.46V318.774H309.479V322.774ZM394.582 319.018H309.602V323.018H394.582V319.018ZM76.8185 318.031H383.503V314.031H76.8185V318.031ZM119.674 174.034H206.115V170.034H119.674V174.034ZM176.479 75.2249V121.44H180.479V75.2249H176.479Z" fill="#2C373D"/>
</svg>
