<svg width="929" height="227" viewBox="0 0 929 227" fill="none" xmlns="http://www.w3.org/2000/svg">
<path d="M503.547 164.344H749.235" stroke="#2C373D" stroke-width="4" stroke-miterlimit="10" stroke-linecap="round" stroke-linejoin="round"/>
<path d="M836.771 107.669L786.733 166.29C784.419 168.965 783.08 172.127 782.593 175.654L780.889 189.397H241.665C240.569 189.397 239.717 188.546 239.717 187.451V169.573C239.717 169.452 239.717 169.208 239.595 169.208L216.95 109.858C215.002 104.628 218.776 99.1556 224.377 99.1556H243.37C244.465 99.1556 245.317 98.3043 245.317 97.2097V50.9943C245.317 49.8998 246.17 49.0484 247.265 49.0484H263.945C265.041 49.0484 265.893 48.1971 265.893 47.1025V37.9811C265.893 36.8865 266.745 36.0352 267.841 36.0352H276.972C278.068 36.0352 278.92 36.8865 278.92 37.9811V47.1025C278.92 48.1971 279.772 49.0484 280.868 49.0484H342.96C344.055 49.0484 344.908 49.8998 344.908 50.9943V97.2097C344.908 98.3043 345.76 99.1556 346.856 99.1556H360.492C361.465 99.1556 362.318 99.8853 362.318 100.858C363.17 109.98 370.962 117.155 380.336 117.155H720.745C730.12 117.155 737.912 109.98 738.764 100.858C738.886 99.8853 739.616 99.1556 740.59 99.1556H832.632C836.771 99.034 839.328 104.02 836.771 107.669Z" stroke="#2C373D" stroke-width="4" stroke-miterlimit="10" stroke-linejoin="round"/>
<path d="M813.959 113.75C813.959 116.543 811.692 118.811 808.891 118.811C806.09 118.811 803.823 116.543 803.823 113.75C803.823 110.957 806.09 108.689 808.891 108.689C811.692 108.689 813.959 110.957 813.959 113.75Z" stroke="#2C373D" stroke-width="3.5"/>
<path d="M523.634 88.8179H469.7C468.239 88.8179 467.143 90.0341 467.143 91.3719V110.101C467.143 111.561 468.361 112.655 469.7 112.655H523.634C525.095 112.655 526.191 111.439 526.191 110.101V91.3719C526.313 90.0341 525.095 88.8179 523.634 88.8179ZM459.595 60.967H405.66C404.199 60.967 403.104 62.1832 403.104 63.5211V82.2504C403.104 83.7099 404.321 84.8045 405.66 84.8045H459.595C461.056 84.8045 462.152 83.5883 462.152 82.2504V63.5211C462.152 62.0616 461.056 60.967 459.595 60.967ZM523.634 60.967H469.7C468.239 60.967 467.143 62.1832 467.143 63.5211V82.2504C467.143 83.7099 468.361 84.8045 469.7 84.8045H523.634C525.095 84.8045 526.191 83.5883 526.191 82.2504V63.5211C526.313 62.0616 525.095 60.967 523.634 60.967ZM459.595 88.8179H405.66C404.199 88.8179 403.104 90.0341 403.104 91.3719V110.101C403.104 111.561 404.321 112.655 405.66 112.655H459.595C461.056 112.655 462.152 111.439 462.152 110.101V91.3719C462.152 90.0341 461.056 88.8179 459.595 88.8179ZM700.535 60.967H674.359C672.898 60.967 671.802 62.1832 671.802 63.5211V110.101C671.802 111.561 673.02 112.655 674.359 112.655H700.535C701.996 112.655 703.092 111.439 703.092 110.101V63.5211C703.092 62.0616 701.996 60.967 700.535 60.967ZM663.28 60.967H637.104C635.643 60.967 634.547 62.1832 634.547 63.5211V110.101C634.547 111.561 635.765 112.655 637.104 112.655H663.28C664.741 112.655 665.837 111.439 665.837 110.101V63.5211C665.837 62.0616 664.741 60.967 663.28 60.967ZM625.66 60.967H599.484C598.023 60.967 596.927 62.1832 596.927 63.5211V110.101C596.927 111.561 598.145 112.655 599.484 112.655H625.66C627.121 112.655 628.216 111.439 628.216 110.101V63.5211C628.338 62.0616 627.121 60.967 625.66 60.967ZM588.039 60.967H534.105C532.644 60.967 531.548 62.1832 531.548 63.5211V82.2504C531.548 83.7099 532.766 84.8045 534.105 84.8045H588.039C589.5 84.8045 590.596 83.5883 590.596 82.2504V63.5211C590.596 62.0616 589.379 60.967 588.039 60.967ZM588.039 88.8179H534.105C532.644 88.8179 531.548 90.0341 531.548 91.3719V110.101C531.548 111.561 532.766 112.655 534.105 112.655H588.039C589.5 112.655 590.596 111.439 590.596 110.101V91.3719C590.596 90.0341 589.379 88.8179 588.039 88.8179Z" fill="url(#paint0_linear)"/>
<path d="M335.899 57.6833H326.037V67.5345H335.899V57.6833Z" stroke="#2C373D" stroke-width="4" stroke-miterlimit="10" stroke-linejoin="round"/>
<path d="M320.559 57.6833H310.697V67.5345H320.559V57.6833Z" stroke="#2C373D" stroke-width="4" stroke-miterlimit="10" stroke-linejoin="round"/>
<path d="M305.34 57.9265H295.479V67.7776H305.34V57.9265Z" stroke="#2C373D" stroke-width="4" stroke-miterlimit="10" stroke-linejoin="round"/>
<path d="M290.121 57.9265H280.26V67.7776H290.121V57.9265Z" stroke="#2C373D" stroke-width="4" stroke-miterlimit="10" stroke-linejoin="round"/>
<path d="M236.674 99.0339H323.115" stroke="#2C373D" stroke-width="4" stroke-miterlimit="10" stroke-linecap="round" stroke-linejoin="round"/>
<path d="M295.479 2.22485V48.4402" stroke="#2C373D" stroke-width="4" stroke-miterlimit="10" stroke-linecap="round" stroke-linejoin="round"/>
<path d="M780.646 189.275C784.054 189.154 787.463 188.181 790.507 186.478L791.846 185.749C798.786 181.857 807.187 181.978 814.005 186.235C820.579 190.248 828.736 190.613 835.554 186.965L838.719 185.262" stroke="#008DD2" stroke-width="4" stroke-miterlimit="10" stroke-linecap="round" stroke-linejoin="round"/>
<path d="M821.797 224.545L815.345 220.653C808.648 216.64 800.37 216.518 793.552 220.41L792.212 221.14C785.273 225.032 776.872 224.91 770.054 220.653C763.48 216.64 755.323 216.275 748.505 219.924L745.339 221.626C738.521 225.275 730.364 224.91 723.79 220.897L723.546 220.775C716.972 216.64 708.693 216.397 701.875 220.167" stroke="#008DD2" stroke-width="4" stroke-miterlimit="10" stroke-linecap="round" stroke-linejoin="round"/>
<path d="M680.204 219.802C673.507 215.789 665.229 215.667 658.411 219.559L657.071 220.289C650.132 224.18 641.731 224.059 634.913 219.802C628.339 215.789 620.182 215.424 613.364 219.072L610.198 220.775" stroke="#008DD2" stroke-width="4" stroke-miterlimit="10" stroke-linecap="round" stroke-linejoin="round"/>
<path d="M167.764 170.668C161.068 166.654 152.789 166.533 145.971 170.425L144.632 171.154C137.693 175.046 129.292 174.924 122.474 170.668C115.9 166.654 107.742 166.289 100.924 169.938L97.759 171.641C90.9411 175.289 82.784 174.924 76.2095 170.911L75.9661 170.789C70.4874 167.384 63.7912 166.654 57.8255 168.6C54.4166 169.695 50.8859 170.06 47.3552 170.06H2.91699" stroke="#008DD2" stroke-width="4" stroke-miterlimit="10" stroke-linecap="round" stroke-linejoin="round"/>
<path d="M135.744 197.059L134.405 197.789C127.465 201.681 119.065 201.559 112.247 197.303C105.672 193.289 97.5153 192.924 90.6974 196.573C88.6277 197.667 86.3144 198.276 84.0012 198.276H43.0938" stroke="#008DD2" stroke-width="4" stroke-miterlimit="10" stroke-linecap="round" stroke-linejoin="round"/>
<path d="M926.744 186.478L867.453 186.235C863.435 186.235 859.417 185.384 855.521 184.046C849.921 182.1 843.712 182.586 838.355 185.384L835.189 187.086" stroke="#008DD2" stroke-width="4" stroke-miterlimit="10" stroke-linecap="round" stroke-linejoin="round"/>
<defs>
<linearGradient id="paint0_linear" x1="403.097" y1="86.8578" x2="703.141" y2="86.8578" gradientUnits="userSpaceOnUse">
<stop stop-color="#008DD2"/>
<stop offset="1" stop-color="#003C5F"/>
</linearGradient>
</defs>
</svg>
