<svg width="443" height="133" viewBox="0 0 443 133" fill="none" xmlns="http://www.w3.org/2000/svg">
<path d="M244.397 91.2992L236.758 102.696C236.395 103.303 235.667 103.666 234.94 103.666H184.622L179.408 110.577C178.923 111.184 178.317 111.426 177.711 111.426H173.467C172.012 111.426 170.679 110.941 169.466 110.214C168.254 109.486 167.405 108.274 166.799 106.94C166.435 106.213 166.071 105.485 165.708 104.879C165.223 104.151 164.738 103.545 164.253 102.939C162.798 101.363 161.1 100.15 159.16 99.3015C157.22 98.4527 155.159 97.9678 152.977 97.9678C150.794 97.9678 148.733 98.4527 146.793 99.3015C144.853 100.15 143.034 101.484 141.701 102.939L141.579 103.06C141.094 103.666 140.609 104.273 140.124 104.879C139.639 105.606 139.276 106.334 138.912 107.061C138.306 108.395 137.457 109.486 136.244 110.214C135.153 110.941 133.82 111.426 132.365 111.426H132.243C130.788 111.426 129.455 110.941 128.242 110.214L128.121 110.092C127.03 109.365 126.181 108.153 125.575 106.94C125.211 106.213 124.847 105.485 124.483 104.879C124.12 104.273 123.635 103.545 123.029 102.939C121.574 101.241 119.876 99.9077 117.815 98.9377C115.875 98.089 113.692 97.604 111.389 97.604C109.085 97.604 106.903 98.089 104.963 98.9377C102.901 99.9077 101.204 101.241 99.749 102.939C99.2641 103.545 98.6578 104.273 98.2941 105C97.8091 105.728 97.4454 106.455 97.2029 107.304C96.7179 108.516 95.8691 109.607 94.7779 110.335C93.6867 111.062 92.4742 111.547 91.0192 111.547H87.3818C86.5331 111.547 85.8056 111.062 85.4419 110.335L81.4407 103.788H48.4615C47.249 103.788 46.279 102.818 46.279 101.605V90.2079C46.279 88.9955 47.249 88.0255 48.4615 88.0255H106.781V83.9031C106.781 82.6906 107.751 81.7206 108.964 81.7206H123.15C124.362 81.7206 125.332 82.6906 125.332 83.9031V88.0255H217.48V83.9031C217.48 82.6906 218.45 81.7206 219.663 81.7206H233.242C234.455 81.7206 235.425 82.6906 235.425 83.9031V88.0255H242.7C243.912 88.0255 244.882 88.9955 244.882 90.2079C244.761 90.5717 244.639 90.9354 244.397 91.2992ZM14.0273 127.795C15.2397 127.795 16.2097 128.765 16.2097 129.977C16.2097 131.189 15.2397 132.159 14.0273 132.159H2.38753C1.17506 132.159 0.205078 131.189 0.205078 129.977C0.205078 128.765 1.17506 127.795 2.38753 127.795H14.0273ZM65.0723 127.795C66.2848 127.795 67.2548 128.765 67.2548 129.977C67.2548 131.189 66.2848 132.159 65.0723 132.159H23.2421C22.0296 132.159 21.0596 131.189 21.0596 129.977C21.0596 128.765 22.0296 127.795 23.2421 127.795H65.0723ZM440.817 127.795C442.03 127.795 443 128.765 443 129.977C443 131.189 442.03 132.159 440.817 132.159H74.6509C73.4384 132.159 72.4684 131.189 72.4684 129.977C72.4684 128.765 73.4384 127.795 74.6509 127.795H273.981C270.101 127.795 266.464 126.218 263.918 123.672C261.372 121.126 259.795 117.489 259.795 113.609C259.795 109.729 261.372 106.091 263.918 103.545C266.464 100.999 270.101 99.4227 273.981 99.4227C277.861 99.4227 281.499 100.999 284.045 103.545C286.591 106.091 288.167 109.729 288.167 113.609C288.167 117.489 286.591 121.126 284.045 123.672C281.499 126.218 277.861 127.795 273.981 127.795H370.737C366.857 127.795 363.219 126.218 360.673 123.672C358.127 121.126 356.551 117.489 356.551 113.609C356.551 109.729 358.127 106.091 360.673 103.545C363.219 100.999 366.857 99.4227 370.737 99.4227C374.617 99.4227 378.254 100.999 380.8 103.545C383.346 106.091 384.923 109.729 384.923 113.609C384.923 117.489 383.346 121.126 380.8 123.672C378.254 126.218 374.617 127.795 370.737 127.795H440.817ZM119.391 112.76C119.391 114.821 118.542 116.761 117.087 118.216C115.754 119.55 113.814 120.52 111.631 120.52C109.449 120.52 107.63 119.671 106.175 118.216C104.841 116.882 103.871 114.942 103.871 112.76C103.871 110.577 104.72 108.759 106.175 107.304C107.509 105.97 109.449 105 111.631 105C113.692 105 115.632 105.849 117.087 107.304C118.542 108.638 119.391 110.577 119.391 112.76ZM114.056 115.064C114.662 114.457 115.026 113.609 115.026 112.639C115.026 111.669 114.662 110.82 114.056 110.214C113.45 109.607 112.601 109.244 111.631 109.244C110.661 109.244 109.813 109.607 109.206 110.214C108.6 110.82 108.236 111.669 108.236 112.639C108.236 113.609 108.6 114.457 109.206 115.064C109.813 115.67 110.661 116.034 111.631 116.034C112.601 116.034 113.45 115.67 114.056 115.064ZM126.06 112.76C126.06 116.64 124.483 120.277 121.937 122.823C119.391 125.37 115.754 126.946 111.874 126.946C107.994 126.946 104.356 125.37 101.81 122.823C99.2641 120.277 97.6878 116.64 97.6878 112.76C97.6878 108.88 99.2641 105.243 101.81 102.696C104.356 100.15 107.994 98.574 111.874 98.574C115.754 98.574 119.391 100.15 121.937 102.696C124.362 105.364 126.06 108.88 126.06 112.76ZM118.785 119.792C120.604 117.974 121.695 115.549 121.695 112.76C121.695 110.092 120.604 107.546 118.785 105.728C116.966 103.909 114.541 102.818 111.753 102.818C109.085 102.818 106.539 103.909 104.72 105.728C102.901 107.546 101.81 109.971 101.81 112.76C101.81 115.427 102.901 117.974 104.72 119.792C106.539 121.611 108.964 122.702 111.753 122.702C114.541 122.702 116.966 121.611 118.785 119.792ZM160.373 112.76C160.373 114.821 159.524 116.761 158.069 118.216C156.735 119.55 154.795 120.52 152.613 120.52C150.552 120.52 148.612 119.671 147.157 118.216C145.702 116.761 144.853 114.942 144.853 112.76C144.853 110.577 145.702 108.759 147.157 107.304C148.49 105.97 150.43 105 152.613 105C154.795 105 156.614 105.849 158.069 107.304L158.19 107.425C159.524 108.759 160.373 110.699 160.373 112.76ZM155.038 115.064C155.644 114.457 156.008 113.609 156.008 112.639C156.008 111.79 155.644 110.941 155.159 110.335L155.038 110.214C154.432 109.607 153.583 109.244 152.613 109.244C151.643 109.244 150.794 109.607 150.188 110.214C149.582 110.82 149.218 111.669 149.218 112.639C149.218 113.609 149.582 114.457 150.188 115.064C150.794 115.67 151.643 116.034 152.613 116.034C153.583 116.034 154.432 115.67 155.038 115.064ZM166.92 112.76C166.92 116.64 165.344 120.277 162.798 122.823C160.251 125.37 156.614 126.946 152.734 126.946C148.854 126.946 145.217 125.37 142.671 122.823C140.124 120.277 138.548 116.64 138.548 112.76C138.548 108.88 140.124 105.243 142.671 102.696C145.217 100.15 148.854 98.574 152.734 98.574C156.614 98.574 160.251 100.15 162.798 102.696C165.344 105.364 166.92 108.88 166.92 112.76ZM159.766 119.792C161.585 117.974 162.676 115.549 162.676 112.76C162.676 110.092 161.585 107.546 159.766 105.728C157.948 103.909 155.523 102.818 152.734 102.818C150.067 102.818 147.52 103.909 145.702 105.728C143.883 107.546 142.792 109.971 142.792 112.76C142.792 115.427 143.883 117.974 145.702 119.792C147.52 121.611 149.945 122.702 152.734 122.702C155.523 122.702 157.948 121.611 159.766 119.792ZM268.889 87.9042V85.7218H283.56V87.9042H333.15L334.12 25.3407C334.12 23.8857 334.726 22.6732 335.696 21.7033C336.666 20.7333 337.879 20.2483 339.334 20.2483H339.455L371.585 22.9157C381.043 23.6432 389.166 27.8869 395.229 34.1917C401.412 40.6178 405.413 49.2264 406.262 58.8049C406.262 58.9262 406.262 58.9262 406.262 59.0474L408.566 111.062V111.547C408.566 114.215 407.474 116.64 405.777 118.337C404.08 120.156 401.776 121.247 399.108 121.368H398.623H388.439C387.226 121.368 386.256 120.398 386.256 119.186V112.517C386.256 112.032 386.256 112.396 386.256 112.154C386.135 107.668 384.316 103.545 381.285 100.514C378.375 97.4828 374.374 95.6641 369.888 95.6641C369.524 95.6641 369.767 95.6641 369.524 95.6641C365.038 95.7853 361.037 97.604 358.248 100.514C355.338 103.424 353.641 107.425 353.641 111.911V119.065C353.641 120.277 352.671 121.247 351.458 121.247H292.532C291.32 121.247 290.35 120.277 290.35 119.065V115.306C290.35 114.821 290.35 115.185 290.35 114.942C290.228 110.456 288.41 106.334 285.379 103.303C282.469 100.271 278.467 98.4528 273.981 98.4528C273.618 98.4528 273.86 98.4528 273.618 98.4528C269.131 98.574 265.13 100.393 262.342 103.303C259.432 106.213 257.734 110.214 257.734 114.7V115.912C257.734 117.367 257.128 118.701 256.158 119.671C255.188 120.641 253.854 121.247 252.399 121.247H250.096C248.883 121.247 247.913 120.277 247.913 119.065V98.9377C247.913 95.9065 249.126 93.1179 251.187 91.0567C253.248 88.9955 255.915 87.783 259.068 87.783L268.889 87.9042ZM378.375 113.487C378.375 115.67 377.526 117.489 376.071 118.944L375.95 119.065C374.616 120.398 372.677 121.247 370.615 121.247C368.554 121.247 366.614 120.398 365.159 118.944C363.826 117.61 362.856 115.67 362.856 113.487C362.856 111.305 363.704 109.486 365.159 108.031C366.493 106.698 368.433 105.728 370.615 105.728C372.677 105.728 374.616 106.576 376.071 108.031C377.405 109.486 378.375 111.426 378.375 113.487ZM373.04 115.912C373.647 115.306 374.01 114.457 374.01 113.487C374.01 112.517 373.647 111.669 373.04 111.062C372.434 110.456 371.585 110.092 370.615 110.092C369.645 110.092 368.797 110.456 368.19 111.062C367.584 111.669 367.22 112.517 367.22 113.487C367.22 114.457 367.584 115.306 368.19 115.912C368.797 116.519 369.645 116.882 370.615 116.882C371.464 116.882 372.313 116.519 373.04 115.912ZM377.648 120.641C379.466 118.822 380.558 116.397 380.558 113.609C380.558 110.941 379.466 108.395 377.648 106.576C375.829 104.758 373.404 103.666 370.615 103.666C367.948 103.666 365.402 104.758 363.583 106.576C361.764 108.395 360.673 110.82 360.673 113.609C360.673 116.276 361.764 118.822 363.583 120.641C365.402 122.46 367.827 123.551 370.615 123.551C373.404 123.43 375.95 122.338 377.648 120.641ZM281.62 113.487C281.62 115.549 280.771 117.489 279.316 118.944C277.982 120.277 276.043 121.247 273.86 121.247C271.799 121.247 269.859 120.398 268.404 118.944C267.07 117.61 266.1 115.67 266.1 113.487C266.1 111.305 266.949 109.486 268.404 108.031L268.525 107.91C269.859 106.576 271.799 105.728 273.86 105.728C276.043 105.728 277.861 106.576 279.316 108.031L279.437 108.153C280.771 109.607 281.62 111.426 281.62 113.487ZM276.285 115.912C276.891 115.306 277.255 114.457 277.255 113.487C277.255 112.639 276.891 111.79 276.406 111.184L276.285 111.062C275.679 110.456 274.83 110.092 273.86 110.092C273.011 110.092 272.163 110.456 271.556 110.941L271.435 111.062C270.829 111.669 270.465 112.517 270.465 113.487C270.465 114.457 270.829 115.306 271.435 115.912C272.041 116.519 272.89 116.882 273.86 116.882C274.83 116.882 275.679 116.519 276.285 115.912ZM281.014 120.641C282.832 118.822 283.924 116.397 283.924 113.609C283.924 110.941 282.832 108.395 281.014 106.576C279.195 104.758 276.77 103.666 273.981 103.666C271.314 103.666 268.768 104.758 266.949 106.576C265.13 108.395 264.039 110.82 264.039 113.609C264.039 116.276 265.13 118.822 266.949 120.641C268.768 122.46 271.193 123.551 273.981 123.551C276.77 123.43 279.195 122.338 281.014 120.641ZM374.738 65.231V43.8915C374.738 42.679 375.708 41.709 376.92 41.709H385.892C388.802 41.709 391.591 42.8003 393.774 44.4977C395.956 46.3164 397.532 48.7414 398.138 51.6513L400.321 62.1998C400.442 62.5636 400.442 62.8061 400.442 63.0486C400.442 64.0185 400.078 64.9885 399.472 65.716C398.866 66.4435 398.017 67.0497 397.047 67.171C396.684 67.2922 396.441 67.2922 396.199 67.2922H377.163C375.708 67.4135 374.738 66.4435 374.738 65.231ZM379.103 46.0739V63.0486H395.956C395.229 59.5324 394.622 56.0162 393.774 52.5001C393.41 50.5601 392.319 48.9839 390.985 47.8927C389.53 46.8014 387.832 46.0739 385.892 46.0739H379.103ZM398.866 116.882H399.108C400.563 116.761 401.897 116.155 402.867 115.185C403.837 114.215 404.443 112.881 404.443 111.426V111.184L402.14 59.1687C401.412 50.5601 397.775 42.9215 392.319 37.1017C386.984 31.5243 379.709 27.8869 371.464 27.1594L339.212 24.4919C338.97 24.4919 338.849 24.6132 338.606 24.7344C338.485 24.8557 338.364 25.0982 338.364 25.3407L337.272 90.0867C337.272 91.2992 336.302 92.2691 335.09 92.2691H259.189C257.37 92.2691 255.673 92.9966 254.461 94.2091C253.248 95.4216 252.521 97.119 252.521 98.9377V116.882H252.642C252.884 116.882 253.127 116.761 253.248 116.64C253.369 116.519 253.491 116.276 253.491 116.034V114.821C253.491 109.244 255.794 104.151 259.432 100.393C263.069 96.634 268.161 94.3303 273.739 94.2091C274.224 94.2091 273.981 94.2091 274.103 94.2091C279.801 94.2091 284.894 96.634 288.652 100.393C292.411 104.151 294.715 109.365 294.836 114.942C294.836 115.306 294.836 115.185 294.836 115.306V116.882H349.397V111.911C349.397 106.334 351.701 101.241 355.338 97.4828C358.976 93.7241 364.068 91.4204 369.645 91.2992C370.13 91.2992 369.888 91.2992 370.009 91.2992C375.708 91.2992 380.8 93.7241 384.559 97.4828C388.317 101.241 390.621 106.455 390.742 112.032C390.742 112.396 390.742 112.275 390.742 112.396V116.882H398.866ZM233.848 99.3015L238.577 92.2691H233.242C232.03 92.2691 231.06 91.2992 231.06 90.0867V85.9643H221.724V90.0867C221.724 91.2992 220.754 92.2691 219.541 92.2691H123.029C121.816 92.2691 120.846 91.2992 120.846 90.0867V85.9643H111.025V90.0867C111.025 91.2992 110.055 92.2691 108.843 92.2691H50.6439V99.3015H82.8957C83.6232 99.3015 84.3506 99.6652 84.7144 100.393L88.8368 107.061H91.2617C91.7467 107.061 92.1105 106.94 92.4742 106.698C92.838 106.455 93.2017 106.091 93.3229 105.606C93.6867 104.636 94.1717 103.666 94.7779 102.696C95.3841 101.726 95.9904 100.878 96.7179 100.029C98.5366 97.8465 100.84 96.1491 103.386 94.9366C105.933 93.7241 108.721 93.1179 111.631 93.1179C114.541 93.1179 117.33 93.7241 119.876 94.9366C122.422 96.1491 124.726 97.8465 126.545 100.029C127.151 100.756 127.757 101.605 128.363 102.454C128.848 103.303 129.333 104.273 129.818 105.121C130.061 105.606 130.425 106.091 130.788 106.455C131.273 106.698 131.758 106.94 132.243 106.94H132.365C132.971 106.94 133.456 106.819 133.82 106.455C134.305 106.091 134.668 105.728 134.911 105.121C135.274 104.151 135.881 103.181 136.366 102.333C136.851 101.484 137.457 100.756 138.184 99.9077L138.306 99.7865C140.124 97.7253 142.428 96.149 144.853 95.0578C147.278 93.9666 149.945 93.3604 152.734 93.3604C155.523 93.3604 158.19 93.9666 160.615 95.0578C163.161 96.149 165.344 97.8465 167.163 99.7865C167.89 100.635 168.496 101.363 169.102 102.211C169.709 103.06 170.194 104.03 170.557 104.879C170.8 105.485 171.164 105.97 171.77 106.213C172.255 106.576 172.74 106.698 173.346 106.698H176.499L181.591 99.9077C181.955 99.3015 182.682 98.9377 183.41 98.9377L233.848 99.3015Z" fill="#3C464E"/>
<path d="M346.487 14.9134V10.4273C346.487 6.06236 342.971 2.42494 338.485 2.42494H330.482C329.755 2.42494 329.27 1.81871 329.27 1.21247C329.27 0.484989 328.664 0 328.057 0H48.9464C48.2189 0 47.7339 0.606236 47.7339 1.21247V84.5093C47.7339 85.2368 48.3401 85.7218 48.9464 85.7218H327.936C328.664 85.7218 329.149 85.1156 329.149 84.5093V17.4596C329.149 16.7321 329.755 16.2471 330.361 16.2471H345.032C345.881 16.1259 346.487 15.6409 346.487 14.9134ZM188.866 10.6698C188.866 9.45728 189.836 8.48731 191.048 8.48731C192.261 8.48731 193.231 9.45728 193.231 10.6698V36.2529L203.052 26.4319V14.0647C203.052 12.8522 204.022 11.8822 205.234 11.8822C206.446 11.8822 207.416 12.8522 207.416 14.0647V24.6132L207.538 24.7344H218.086C219.299 24.7344 220.269 25.7044 220.269 26.9169C220.269 28.1294 219.299 29.0993 218.086 29.0993H206.446L196.262 39.2841H221.845C223.057 39.2841 224.027 40.2541 224.027 41.4665C224.027 42.679 223.057 43.649 221.845 43.649H196.504L206.204 53.3488H217.844C219.056 53.3488 220.026 54.3188 220.026 55.5312C220.026 56.7437 219.056 57.7137 217.844 57.7137H207.538C207.416 57.8349 207.295 57.9562 207.174 57.9562V68.2622C207.174 69.4747 206.204 70.4446 204.992 70.4446C203.779 70.4446 202.809 69.4747 202.809 68.2622V56.1375L193.109 46.4377V72.2633C193.109 73.4758 192.139 74.4458 190.927 74.4458C189.714 74.4458 188.744 73.4758 188.744 72.2633V46.8014L178.923 56.6225V68.7472C178.923 69.9596 177.953 70.9296 176.741 70.9296C175.528 70.9296 174.558 69.9596 174.558 68.7472V58.0774H163.889C162.676 58.0774 161.706 57.1074 161.706 55.895C161.706 54.6825 162.676 53.7125 163.889 53.7125H175.65L185.592 43.7702H160.13C158.918 43.7702 157.948 42.8003 157.948 41.5878C157.948 40.3753 158.918 39.4053 160.13 39.4053H185.834L175.771 29.3418H163.767C162.555 29.3418 161.585 28.3718 161.585 27.1594C161.585 25.9469 162.555 24.9769 163.767 24.9769H174.437V14.3072C174.437 13.0947 175.407 12.1247 176.62 12.1247C177.832 12.1247 178.802 13.0947 178.802 14.3072V26.3106L188.623 36.1317L188.866 10.6698Z" fill="url(#paint0_linear)"/>
<defs>
<linearGradient id="paint0_linear" x1="47.727" y1="42.9381" x2="346.536" y2="42.9381" gradientUnits="userSpaceOnUse">
<stop stop-color="#008DD2"/>
<stop offset="1" stop-color="#003C5F"/>
</linearGradient>
</defs>
</svg>
