<svg width="233" height="47" viewBox="0 0 233 47" fill="none" xmlns="http://www.w3.org/2000/svg">
<path d="M213.797 44.5452L207.345 40.6534C200.648 36.64 192.37 36.5183 185.552 40.4102L184.212 41.1399C177.273 45.0317 168.872 44.9101 162.054 40.6534C155.48 36.64 147.323 36.2751 140.505 39.9237L137.339 41.6264C130.521 45.275 122.364 44.9101 115.79 40.8966L115.546 40.775C108.972 36.64 100.693 36.3967 93.875 40.1669M72.2036 39.8021C65.5074 35.7886 57.2285 35.667 50.4106 39.5589L49.0714 40.2886C42.1317 44.1804 33.7311 44.0588 26.9131 39.8021C20.3387 35.7886 12.1817 35.4238 5.36374 39.0724L2.19824 40.7751M172.646 9.27549C176.054 9.15387 179.463 8.18094 182.507 6.47828L183.846 5.74856C190.786 1.85678 199.187 1.97839 206.005 6.23503C212.579 10.2484 220.736 10.6133 227.554 6.96475L230.719 5.2621" stroke="#008DD2" stroke-width="4" stroke-miterlimit="10" stroke-linecap="round" stroke-linejoin="round"/>
</svg>
