<svg width="415" height="133" viewBox="0 0 415 133" fill="none" xmlns="http://www.w3.org/2000/svg">
<path d="M153.348 92.2691H168.019H179.78C181.599 92.2691 183.297 92.9966 184.509 94.2091C185.721 95.4216 186.449 97.119 186.449 98.9377V116.882H186.328C186.085 116.882 185.843 116.761 185.721 116.64C185.6 116.519 185.479 116.276 185.479 116.034V114.821C185.479 109.244 183.175 104.151 179.538 100.393C175.9 96.634 170.808 94.3303 165.231 94.2091C164.867 94.2091 164.988 94.2091 164.867 94.2091C159.168 94.2091 154.076 96.634 150.317 100.393C146.559 104.151 144.255 109.365 144.134 114.942C144.134 115.306 144.134 115.185 144.134 115.306V116.882H89.5725V111.911C89.5725 106.334 87.2687 101.241 83.6313 97.4828C79.9939 93.7241 74.9016 91.4204 69.3242 91.2992C68.9604 91.2992 69.0817 91.2992 68.9604 91.2992C63.2618 91.2992 58.1694 93.7241 54.4108 97.4828C50.6521 101.241 48.3484 106.455 48.2271 112.032C48.2271 112.396 48.2271 112.275 48.2271 112.396V116.882H40.2248H39.9823C38.5274 116.761 37.1937 116.155 36.2237 115.185C35.2537 114.215 34.6475 112.881 34.6475 111.426V111.184L36.9511 59.1687C37.6786 50.5601 41.3161 42.9215 46.7722 37.1016C52.1071 31.5243 59.3819 27.8869 67.6267 27.1594L99.636 24.4919C99.8785 24.4919 99.9997 24.6132 100.242 24.7344C100.363 24.8557 100.485 25.0982 100.485 25.3407L101.576 90.0867C101.576 91.2992 102.546 92.2691 103.758 92.2691H153.348ZM401.178 127.795C399.965 127.795 398.995 128.765 398.995 129.977C398.995 131.189 399.965 132.159 401.178 132.159H412.818C414.03 132.159 415 131.189 415 129.977C415 128.765 414.03 127.795 412.818 127.795H401.178ZM354.498 127.795C353.285 127.795 352.315 128.765 352.315 129.977C352.315 131.189 353.285 132.159 354.498 132.159H391.963C393.175 132.159 394.146 131.189 394.146 129.977C394.146 128.765 393.175 127.795 391.963 127.795H354.498ZM2.63818 127.795C1.42572 127.795 0.45575 128.765 0.45575 129.977C0.45575 131.189 1.42572 132.159 2.63818 132.159H344.798C346.01 132.159 346.98 131.189 346.98 129.977C346.98 128.765 346.01 127.795 344.798 127.795H326.368C330.127 127.673 333.522 126.097 335.947 123.672C338.493 121.126 340.069 117.489 340.069 113.609C340.069 109.729 338.493 106.091 335.947 103.545C333.401 100.999 329.763 99.4227 325.883 99.4227C322.003 99.4227 318.366 100.999 315.82 103.545C313.274 106.091 311.697 109.729 311.697 113.609C311.697 117.489 313.274 121.126 315.82 123.672C318.245 126.097 321.64 127.673 325.398 127.795H285.387C289.145 127.673 292.54 126.097 294.965 123.672C297.511 121.126 299.088 117.489 299.088 113.609C299.088 109.729 297.511 106.091 294.965 103.545C292.419 100.999 288.782 99.4227 284.902 99.4227C281.022 99.4227 277.384 100.999 274.838 103.545C272.292 106.091 270.716 109.729 270.716 113.609C270.716 117.489 272.292 121.126 274.838 123.672C277.263 126.097 280.658 127.673 284.417 127.795H165.109C168.989 127.795 172.627 126.218 175.173 123.672C177.719 121.126 179.295 117.489 179.295 113.609C179.295 109.729 177.719 106.091 175.173 103.545C172.627 100.999 168.989 99.4227 165.109 99.4227C161.23 99.4227 157.592 100.999 155.046 103.545C152.5 106.091 150.924 109.729 150.924 113.609C150.924 117.489 152.5 121.126 155.046 123.672C157.592 126.218 161.23 127.795 165.109 127.795H68.3542C72.2341 127.795 75.8715 126.218 78.4177 123.672C80.9639 121.126 82.5401 117.489 82.5401 113.609C82.5401 109.729 80.9639 106.091 78.4177 103.545C75.8715 100.999 72.2341 99.4227 68.3542 99.4227C64.4743 99.4227 60.8369 100.999 58.2907 103.545C55.7445 106.091 54.1683 109.729 54.1683 113.609C54.1683 117.489 55.7445 121.126 58.2907 123.672C60.8369 126.218 64.4743 127.795 68.3542 127.795H2.63818ZM312.425 85.7218V88.753H220.277V85.7218H215.912V90.9354C215.912 92.1479 216.882 93.1179 218.095 93.1179H314.607C315.82 93.1179 316.79 92.1479 316.79 90.9354V85.7218H312.425ZM202.332 85.7218V88.753H195.058C193.845 88.753 192.875 89.7229 192.875 90.9354C192.875 91.4204 192.996 91.7841 193.239 92.1479L200.877 103.545C201.241 104.151 201.969 104.515 202.696 104.515H253.014L258.227 111.426C258.712 112.032 259.319 112.275 259.925 112.275H264.168C265.623 112.275 266.957 111.79 268.17 111.062C269.382 110.335 270.231 109.123 270.837 107.789C271.201 107.061 271.565 106.334 272.05 105.728C272.535 105 273.02 104.394 273.505 103.788C274.959 102.211 276.657 100.999 278.597 100.15C280.537 99.3015 282.598 98.8165 284.78 98.8165C286.963 98.8165 289.024 99.3015 290.964 100.15C292.904 100.999 294.723 102.333 296.056 103.788L296.178 103.909C296.663 104.515 297.148 105.121 297.633 105.728C298.118 106.455 298.481 107.183 298.845 107.91C299.451 109.244 300.3 110.335 301.513 111.062C302.604 111.79 303.938 112.275 305.393 112.275H305.514C306.969 112.275 308.302 111.79 309.515 111.062C310.606 110.335 311.576 109.123 312.182 107.789C312.546 107.061 312.91 106.334 313.274 105.728C313.637 105.121 314.122 104.394 314.729 103.788C316.184 102.09 317.881 100.756 319.942 99.7865C321.882 98.9377 324.065 98.4528 326.368 98.4528C328.672 98.4528 330.854 98.9377 332.794 99.7865C334.856 100.756 336.553 102.09 338.008 103.788C338.493 104.394 339.099 105.121 339.463 105.849C339.948 106.576 340.312 107.304 340.554 108.031C341.039 109.244 341.888 110.335 342.979 111.062C344.07 111.79 345.283 112.275 346.738 112.275H350.375C351.224 112.275 351.951 111.79 352.315 111.062L356.316 104.515H373.17C374.382 104.515 375.352 103.545 375.352 102.333V90.9354C375.352 89.7229 374.382 88.753 373.17 88.753H331.218V85.7218H326.853V90.9354C326.853 92.1479 327.823 93.1179 329.036 93.1179H370.987V100.15H355.104C354.376 100.15 353.649 100.514 353.285 101.241L349.163 107.91H346.738C346.253 107.91 345.889 107.789 345.525 107.546C345.162 107.304 344.798 106.94 344.677 106.455C344.313 105.364 343.828 104.515 343.222 103.545C342.615 102.575 342.009 101.726 341.282 100.878C339.463 98.6952 337.159 96.9978 334.613 95.7853C332.067 94.5728 329.278 93.9666 326.368 93.9666C323.458 93.9666 320.67 94.5728 318.123 95.7853C315.577 96.9978 313.274 98.6952 311.455 100.878C310.849 101.605 310.242 102.454 309.636 103.303C309.151 104.151 308.666 105.121 308.181 105.97C307.939 106.576 307.575 106.94 307.09 107.304C306.605 107.546 306.12 107.789 305.635 107.789H305.514C304.908 107.789 304.423 107.668 304.059 107.304C303.574 106.94 303.21 106.576 302.968 105.97C302.604 105 301.998 104.03 301.513 103.181C301.028 102.333 300.421 101.605 299.694 100.756L299.573 100.635C297.754 98.574 295.45 96.9978 293.025 95.9065C290.6 94.8153 287.933 94.2091 285.144 94.2091C282.356 94.2091 279.688 94.8153 277.263 95.9065C274.717 96.9978 272.534 98.6952 270.716 100.635C269.988 101.484 269.382 102.211 268.776 103.06C268.17 103.909 267.685 104.758 267.321 105.728C267.078 106.334 266.715 106.819 266.108 107.061C265.623 107.425 265.138 107.546 264.532 107.546H261.38L256.287 100.878C255.924 100.271 255.196 99.9077 254.469 99.9077H204.272L199.544 92.8754H204.879C206.091 92.8754 207.061 91.9054 207.061 90.6929V85.4793L202.332 85.7218ZM318.245 113.609C318.245 115.67 319.093 117.61 320.548 119.065C322.003 120.52 323.822 121.368 326.005 121.368C328.066 121.368 330.006 120.52 331.461 119.065C332.794 117.731 333.764 115.791 333.764 113.609C333.764 111.426 332.916 109.607 331.461 108.153L331.339 108.031C330.006 106.698 328.066 105.849 326.005 105.849C323.822 105.849 322.003 106.698 320.548 108.153C319.093 109.486 318.245 111.426 318.245 113.609ZM323.58 115.912C322.973 115.306 322.61 114.457 322.61 113.487C322.61 112.517 322.973 111.669 323.58 111.062C324.186 110.456 325.035 110.092 326.005 110.092C326.853 110.092 327.702 110.456 328.308 110.941L328.429 111.062C329.036 111.669 329.399 112.517 329.399 113.487C329.399 114.457 329.036 115.306 328.429 115.912C327.823 116.519 326.975 116.882 326.005 116.882C325.035 116.882 324.186 116.519 323.58 115.912ZM318.851 120.641C317.032 118.822 315.941 116.397 315.941 113.609C315.941 110.82 317.032 108.395 318.851 106.576C320.67 104.758 323.095 103.666 325.883 103.666C328.672 103.666 331.097 104.758 332.916 106.576C334.734 108.395 335.826 110.82 335.826 113.609C335.826 116.276 334.734 118.822 332.916 120.641C331.097 122.46 328.672 123.551 325.883 123.551C323.095 123.551 320.67 122.46 318.851 120.641ZM277.263 113.609C277.263 115.67 278.112 117.61 279.567 119.065C280.901 120.398 282.841 121.368 285.023 121.368C287.084 121.368 289.024 120.52 290.479 119.065C291.813 117.731 292.783 115.791 292.783 113.609C292.783 111.426 291.934 109.607 290.479 108.153C289.145 106.819 287.205 105.849 285.023 105.849C282.841 105.849 281.022 106.698 279.567 108.153L279.446 108.274C278.112 109.607 277.263 111.547 277.263 113.609ZM282.598 115.912C281.992 115.306 281.628 114.457 281.628 113.487C281.628 112.639 281.992 111.79 282.477 111.184L282.598 111.062C283.204 110.456 284.053 110.092 285.023 110.092C285.993 110.092 286.842 110.456 287.448 111.062C288.054 111.669 288.418 112.517 288.418 113.487C288.418 114.457 288.054 115.306 287.448 115.912C286.842 116.519 285.993 116.882 285.023 116.882C284.053 116.882 283.204 116.519 282.598 115.912ZM277.869 120.641C276.051 118.822 274.959 116.397 274.959 113.609C274.959 110.82 276.051 108.395 277.869 106.576C279.688 104.758 282.113 103.666 284.902 103.666C287.569 103.666 290.115 104.758 291.934 106.576C293.753 108.395 294.844 110.82 294.844 113.609C294.844 116.276 293.753 118.822 291.934 120.641C290.115 122.46 287.69 123.551 284.902 123.551C282.113 123.551 279.688 122.46 277.869 120.641ZM168.019 87.9042V85.7218H153.348V87.9042H106.062L105.092 25.3407C105.092 23.8857 104.486 22.6732 103.516 21.7033C102.546 20.7333 101.333 20.2483 99.8785 20.2483H99.7572L67.6267 22.9157C58.1694 23.6432 50.0458 27.8869 43.9835 34.1917C37.7999 40.6178 33.7987 49.2264 32.95 58.8049C32.95 58.9261 32.95 58.9262 32.95 59.0474L30.6463 111.062V111.547C30.6463 114.215 31.7375 116.519 33.435 118.337C35.1325 120.156 37.4362 121.247 40.1036 121.368H40.5886H50.7733C51.9858 121.368 52.9558 120.398 52.9558 119.186V112.517C52.9558 112.032 52.9558 112.396 52.9558 112.154C53.077 107.668 54.8957 103.545 57.9269 100.514C60.8368 97.4828 64.9593 95.6641 69.3242 95.6641C69.6879 95.6641 69.4454 95.6641 69.5667 95.6641C74.0528 95.7853 78.054 97.604 80.8427 100.514C83.7526 103.424 85.45 107.425 85.45 111.911V119.065C85.45 120.277 86.42 121.247 87.6325 121.247H146.559C147.771 121.247 148.741 120.277 148.741 119.065V115.306C148.741 114.821 148.741 115.185 148.741 114.942C148.862 110.456 150.681 106.334 153.712 103.303C156.622 100.271 160.745 98.4528 165.109 98.4528C165.473 98.4528 165.231 98.4528 165.352 98.4528C169.838 98.574 173.839 100.393 176.628 103.303C179.538 106.213 181.235 110.214 181.235 114.7V115.912C181.235 117.367 181.842 118.701 182.812 119.671C183.782 120.641 185.115 121.247 186.57 121.247H188.874C190.086 121.247 191.056 120.277 191.056 119.065V98.9377C191.056 95.9065 189.844 93.1179 187.783 91.0567C185.722 88.9955 183.054 87.783 179.902 87.783H168.019V87.9042ZM60.8369 113.487C60.8369 115.549 61.6856 117.489 63.1406 118.944C64.4743 120.277 66.4143 121.247 68.5967 121.247C70.6579 121.247 72.5979 120.398 74.0528 118.944C75.5078 117.489 76.3565 115.67 76.3565 113.487C76.3565 111.426 75.5078 109.486 74.0528 108.031C72.5979 106.698 70.7792 105.728 68.5967 105.728C66.5355 105.728 64.5956 106.576 63.1406 108.031C61.6856 109.486 60.8369 111.426 60.8369 113.487ZM66.1718 115.912C65.5655 115.306 65.2017 114.457 65.2017 113.487C65.2017 112.517 65.5655 111.669 66.1718 111.062C66.778 110.456 67.6267 110.092 68.5967 110.092C69.5667 110.092 70.4154 110.456 71.0217 111.062C71.6279 111.669 71.9916 112.517 71.9916 113.487C71.9916 114.457 71.6279 115.306 71.0217 115.912C70.4154 116.519 69.5667 116.882 68.5967 116.882C67.6267 116.882 66.778 116.519 66.1718 115.912ZM61.4431 120.641C59.6244 118.822 58.5331 116.397 58.5331 113.609C58.5331 110.941 59.6244 108.395 61.4431 106.576C63.2618 104.758 65.6867 103.666 68.4754 103.666C71.1429 103.666 73.689 104.758 75.5078 106.576C77.3264 108.395 78.4177 110.82 78.4177 113.609C78.4177 116.276 77.3264 118.822 75.5078 120.641C73.689 122.46 71.2641 123.551 68.4754 123.551C65.6867 123.551 63.2618 122.338 61.4431 120.641ZM157.471 113.487C157.471 115.549 158.32 117.489 159.775 118.944C161.108 120.277 163.048 121.247 165.231 121.247C167.413 121.247 169.232 120.398 170.687 118.944L170.808 118.822C172.142 117.489 172.991 115.549 172.991 113.487C172.991 111.426 172.142 109.486 170.687 108.031C169.353 106.698 167.413 105.728 165.231 105.728C163.169 105.728 161.23 106.576 159.775 108.031C158.441 109.486 157.471 111.426 157.471 113.487ZM162.806 115.912C162.2 115.306 161.836 114.457 161.836 113.487C161.836 112.517 162.2 111.669 162.806 111.062C163.412 110.456 164.261 110.092 165.231 110.092C166.201 110.092 167.049 110.456 167.656 111.062C168.262 111.669 168.626 112.517 168.626 113.487C168.626 114.336 168.262 115.185 167.777 115.791L167.656 115.912C167.049 116.519 166.201 116.882 165.231 116.882C164.261 116.882 163.412 116.519 162.806 115.912ZM158.198 120.641C156.38 118.822 155.288 116.397 155.288 113.609C155.288 110.941 156.38 108.395 158.198 106.576C160.017 104.758 162.442 103.666 165.231 103.666C167.898 103.666 170.444 104.758 172.263 106.576C174.082 108.395 175.173 110.82 175.173 113.609C175.173 116.276 174.082 118.822 172.263 120.641C170.444 122.46 168.019 123.551 165.231 123.551C162.442 123.551 159.896 122.338 158.198 120.641ZM64.4743 65.231V43.8915C64.4743 42.679 63.5043 41.709 62.2918 41.709H53.3195C50.4096 41.709 47.6209 42.8003 45.4384 44.4977C43.256 46.3164 41.6798 48.7414 41.0736 51.6513L38.8911 62.1998C38.7699 62.5636 38.7699 62.806 38.7699 63.0485C38.7699 64.0185 39.1336 64.9885 39.7398 65.716C40.346 66.4435 41.1948 67.0497 42.1648 67.171C42.5285 67.2922 42.771 67.2922 43.0135 67.2922H62.0493C63.5043 67.4134 64.4743 66.4435 64.4743 65.231ZM60.1094 46.074V63.0485H43.256C43.9835 59.5324 44.5897 56.0162 45.4384 52.5001C45.8022 50.5601 46.8934 48.9839 48.2271 47.8927C49.6821 46.8014 51.3796 46.074 53.3195 46.074H60.1094Z" fill="#374148"/>
<path d="M107.76 82.3269V3.39493C107.76 1.45497 109.336 0 111.276 0C113.216 0 114.792 1.57622 114.792 3.39493V65.5947C114.792 67.5347 116.368 68.9897 118.187 68.9897H371.715C373.655 68.9897 375.11 70.5659 375.11 72.3846V82.2056C375.11 84.1456 373.534 85.7218 371.715 85.7218H328.793H314.607H218.095H204.515H167.898H153.227H111.033C109.215 85.7218 107.76 84.1456 107.76 82.3269ZM370.017 73.3546C370.017 72.5058 369.411 71.8996 368.562 71.8996H115.398C114.55 71.8996 113.943 72.5058 113.943 73.3546C113.943 74.2033 114.55 74.8095 115.398 74.8095H368.562C369.411 74.8095 370.017 74.2033 370.017 73.3546ZM155.289 1.81871C158.32 1.81871 160.745 4.24365 160.745 7.27483V61.5936C160.745 64.6248 158.32 67.0497 155.289 67.0497H123.886C120.854 67.0497 118.429 64.6248 118.429 61.5936V7.27483C118.429 4.24365 120.854 1.81871 123.886 1.81871H155.289ZM157.471 22.4307V18.1871H121.824V22.4307H157.471ZM157.471 48.9839V44.7402H121.824V48.9839H157.471ZM328.551 2.18245C330.733 2.18245 332.552 4.00115 332.552 6.1836V62.9273C332.552 65.1098 330.733 66.9285 328.551 66.9285H271.807C269.625 66.9285 267.806 65.1098 267.806 62.9273V6.1836C267.806 4.00115 269.625 2.18245 271.807 2.18245H328.551ZM327.581 59.1686V13.3372V10.306C327.581 8.12356 325.762 6.30485 323.58 6.30485H320.67H277.385C275.202 6.30485 273.505 8.00231 273.505 10.1848V13.3372V59.1686C273.505 60.8661 274.96 62.3211 276.657 62.3211H280.295H320.549H324.429C326.126 62.3211 327.581 60.9874 327.581 59.1686ZM318.972 13.3372C319.821 13.3372 320.549 14.0647 320.549 14.9134V44.9827C320.549 46.3164 318.972 47.0439 318.002 46.1952L284.659 16.1259C283.568 15.1559 284.296 13.4584 285.751 13.4584L318.972 13.3372ZM182.205 17.5808C184.994 17.5808 187.54 19.642 187.783 22.4307C188.025 25.5832 185.6 28.2506 182.448 28.2506H173.476C170.687 28.2506 168.141 26.1894 167.898 23.4007C167.656 20.2483 170.081 17.5808 173.233 17.5808H182.205ZM232.523 17.5808C235.312 17.5808 237.858 19.642 238.101 22.4307C238.343 25.5832 235.918 28.2506 232.766 28.2506H196.634C193.845 28.2506 191.299 26.1894 191.057 23.4007C190.814 20.2483 193.239 17.5808 196.391 17.5808H232.523ZM255.318 17.5808C258.106 17.5808 260.652 19.642 260.895 22.4307C261.137 25.5832 258.712 28.2506 255.56 28.2506H246.588C243.799 28.2506 241.253 26.1894 241.01 23.4007C240.768 20.2483 243.193 17.5808 246.345 17.5808H255.318ZM282.719 24.3707L315.456 53.8338C316.426 54.6825 315.82 56.3799 314.486 56.3799H281.75C280.901 56.3799 280.295 55.7737 280.295 54.925V25.4619C280.295 24.6132 281.022 24.007 281.75 24.007C282.113 23.8857 282.477 24.0069 282.719 24.3707ZM207.91 31.403C210.699 31.403 213.245 33.4642 213.487 36.2529C213.73 39.4053 211.305 42.0728 208.152 42.0728H173.354C170.566 42.0728 168.02 40.0116 167.777 37.2229C167.535 34.0705 169.96 31.403 173.112 31.403H207.91ZM255.196 31.403C257.985 31.403 260.531 33.4642 260.774 36.2529C261.016 39.4053 258.591 42.0728 255.439 42.0728H220.641C217.852 42.0728 215.306 40.0116 215.064 37.2229C214.821 34.0705 217.246 31.403 220.398 31.403H255.196ZM255.196 45.4677C257.985 45.4677 260.531 47.5289 260.774 50.3176C261.016 53.47 258.591 56.1375 255.439 56.1375H172.991C170.202 56.1375 167.656 54.0763 167.413 51.2876C167.171 48.1352 169.596 45.4677 172.748 45.4677H255.196ZM262.229 59.2899V66.4435H166.565V59.4111H262.229V59.2899Z" fill="url(#paint0_linear)"/>
<defs>
<linearGradient id="paint0_linear" x1="375.116" y1="42.9381" x2="107.716" y2="42.9381" gradientUnits="userSpaceOnUse">
<stop stop-color="#008DD2"/>
<stop offset="1" stop-color="#003C5F"/>
</linearGradient>
</defs>
</svg>
