<svg width="415" height="139" viewBox="0 0 415 139" fill="none" xmlns="http://www.w3.org/2000/svg">
<path d="M71.8995 85.843H345.676C347.858 85.843 349.556 84.0243 349.556 81.9631V3.87991C349.556 1.69746 347.737 0 345.676 0H71.8995C69.717 0 68.0195 1.69746 68.0195 3.87991V81.8419C68.0195 84.1456 69.8383 85.843 71.8995 85.843ZM82.0842 71.5359H78.083C77.2343 71.5359 76.5068 70.8084 76.5068 69.9596V8.60855C76.5068 7.75982 77.2343 7.03234 78.083 7.03234H82.0842C82.9329 7.03234 83.6605 7.75982 83.6605 8.60855V69.8384C83.6605 70.8084 82.9329 71.5359 82.0842 71.5359ZM338.643 71.6571H334.642C333.793 71.6571 333.066 70.9296 333.066 70.0809V8.7298C333.066 7.88107 333.793 7.15359 334.642 7.15359H338.643C339.492 7.15359 340.22 7.88107 340.22 8.7298V69.9596C340.22 70.9296 339.492 71.6571 338.643 71.6571ZM322.517 71.4146H318.516C317.668 71.4146 316.94 70.6871 316.94 69.8384V8.48731C316.94 7.63858 317.668 6.91109 318.516 6.91109H322.517C323.366 6.91109 324.094 7.63858 324.094 8.48731V69.7171C324.215 70.6871 323.487 71.4146 322.517 71.4146ZM306.392 71.6571H302.39C301.542 71.6571 300.814 70.9296 300.814 70.0809V8.7298C300.814 7.88107 301.542 7.15359 302.39 7.15359H306.392C307.24 7.15359 307.968 7.88107 307.968 8.7298V69.9596C307.968 70.9296 307.24 71.6571 306.392 71.6571ZM290.508 71.7784H286.507C285.658 71.7784 284.931 71.0509 284.931 70.2021V8.85105C284.931 8.00232 285.658 7.27483 286.507 7.27483H290.508C291.357 7.27483 292.084 8.00232 292.084 8.85105V70.0809C292.084 71.0509 291.357 71.7784 290.508 71.7784ZM274.382 71.5359H270.381C269.532 71.5359 268.805 70.8084 268.805 69.9596V8.60855C268.805 7.75982 269.532 7.03234 270.381 7.03234H274.382C275.231 7.03234 275.959 7.75982 275.959 8.60855V69.8384C275.959 70.8084 275.231 71.5359 274.382 71.5359ZM258.135 71.7784H254.134C253.285 71.7784 252.558 71.0509 252.558 70.2021V8.85105C252.558 8.00232 253.285 7.27483 254.134 7.27483H258.135C258.984 7.27483 259.711 8.00232 259.711 8.85105V70.0809C259.833 71.0509 259.105 71.7784 258.135 71.7784ZM242.737 71.5359H238.736C237.887 71.5359 237.159 70.8084 237.159 69.9596V8.60855C237.159 7.75982 237.887 7.03234 238.736 7.03234H242.737C243.585 7.03234 244.313 7.75982 244.313 8.60855V69.8384C244.313 70.8084 243.585 71.5359 242.737 71.5359ZM227.217 71.7784H223.216C222.367 71.7784 221.64 71.0509 221.64 70.2021V8.85105C221.64 8.00232 222.367 7.27483 223.216 7.27483H227.217C228.066 7.27483 228.793 8.00232 228.793 8.85105V70.0809C228.915 71.0509 228.187 71.7784 227.217 71.7784ZM211.697 71.5359H207.696C206.848 71.5359 206.12 70.8084 206.12 69.9596V8.60855C206.12 7.75982 206.848 7.03234 207.696 7.03234H211.697C212.546 7.03234 213.274 7.75982 213.274 8.60855V69.8384C213.274 70.8084 212.546 71.5359 211.697 71.5359ZM194.723 71.5359H190.722C189.873 71.5359 189.146 70.8084 189.146 69.9596V8.60855C189.146 7.75982 189.873 7.03234 190.722 7.03234H194.723C195.572 7.03234 196.299 7.75982 196.299 8.60855V69.8384C196.42 70.8084 195.693 71.5359 194.723 71.5359ZM178.476 71.5359H174.475C173.626 71.5359 172.898 70.8084 172.898 69.9596V8.60855C172.898 7.75982 173.626 7.03234 174.475 7.03234H178.476C179.324 7.03234 180.052 7.75982 180.052 8.60855V69.8384C180.052 70.8084 179.324 71.5359 178.476 71.5359ZM161.501 71.5359H157.5C156.651 71.5359 155.924 70.8084 155.924 69.9596V8.60855C155.924 7.75982 156.651 7.03234 157.5 7.03234H161.501C162.35 7.03234 163.077 7.75982 163.077 8.60855V69.8384C163.199 70.8084 162.35 71.5359 161.501 71.5359ZM145.254 71.7784H141.253C140.404 71.7784 139.677 71.0509 139.677 70.2021V8.85105C139.677 8.00232 140.404 7.27483 141.253 7.27483H145.254C146.103 7.27483 146.83 8.00232 146.83 8.85105V70.0809C146.83 71.0509 146.103 71.7784 145.254 71.7784ZM129.007 71.5359H125.006C124.157 71.5359 123.43 70.8084 123.43 69.9596V8.60855C123.43 7.75982 124.157 7.03234 125.006 7.03234H129.007C129.856 7.03234 130.583 7.75982 130.583 8.60855V69.8384C130.583 70.8084 129.856 71.5359 129.007 71.5359ZM113.124 71.5359H109.122C108.274 71.5359 107.546 70.8084 107.546 69.9596V8.60855C107.546 7.75982 108.274 7.03234 109.122 7.03234H113.124C113.972 7.03234 114.7 7.75982 114.7 8.60855V69.8384C114.821 70.8084 114.093 71.5359 113.124 71.5359ZM97.8463 71.5359H93.8452C92.9964 71.5359 92.269 70.8084 92.269 69.9596V8.60855C92.269 7.75982 92.9964 7.03234 93.8452 7.03234H97.8463C98.695 7.03234 99.4226 7.75982 99.4226 8.60855V69.8384C99.4226 70.8084 98.695 71.5359 97.8463 71.5359Z" fill="url(#paint0_linear)"/>
<path d="M168.291 119.428C168.291 123.551 166.594 127.188 163.926 129.856C161.259 132.523 157.5 134.22 153.499 134.22H309.423C306.513 134.22 303.724 133.372 301.421 131.917C299.481 130.583 297.783 128.886 296.571 126.824H279.354C278.141 128.886 276.565 130.583 274.504 131.917C272.2 133.372 269.411 134.22 266.501 134.22C262.379 134.22 258.742 132.523 256.074 129.856C253.407 127.188 251.709 123.429 251.709 119.428C251.709 115.306 253.407 111.668 256.074 109.001L256.195 108.88C258.863 106.334 262.5 104.636 266.501 104.636C268.078 104.636 269.775 104.879 271.23 105.364C272.564 105.849 273.776 106.455 274.867 107.182H280.566C280.202 106.94 279.839 106.697 279.717 106.334C279.596 106.091 279.354 105.849 279.232 105.606C278.99 105.364 278.747 105.121 278.626 104.879C277.171 103.302 275.474 102.09 273.534 101.241C271.594 100.393 269.533 99.9075 267.35 99.9075C265.168 99.9075 263.106 100.393 261.167 101.241C259.227 102.09 257.408 103.424 256.074 104.879C254.862 106.212 239.706 122.338 239.585 122.459C239.1 122.944 238.615 123.187 238.008 123.187H181.628C180.901 123.187 180.295 122.823 179.931 122.338C178.597 120.883 164.775 106.091 163.562 104.879C162.108 103.302 160.41 102.09 158.47 101.241C156.53 100.393 154.469 99.9075 152.287 99.9075C150.104 99.9075 148.043 100.393 146.103 101.241C144.163 102.09 142.344 103.424 141.011 104.879C140.768 105.121 140.647 105.364 140.404 105.606C140.162 105.849 140.041 106.212 139.798 106.455C139.677 106.697 139.434 106.819 139.313 106.94H145.618C146.709 106.212 147.8 105.727 149.134 105.242C150.589 104.757 152.044 104.515 153.62 104.515C157.743 104.515 161.38 106.212 164.048 108.88C166.594 111.668 168.291 115.427 168.291 119.428ZM13.8222 134.22C15.0346 134.22 16.0046 135.19 16.0046 136.403C16.0046 137.615 15.0346 138.585 13.8222 138.585H2.18247C0.97 138.585 0 137.615 0 136.403C0 135.19 0.97 134.22 2.18247 134.22H13.8222ZM60.5024 134.22C61.7148 134.22 62.6848 135.19 62.6848 136.403C62.6848 137.615 61.7148 138.585 60.5024 138.585H23.037C21.8245 138.585 20.8545 137.615 20.8545 136.403C20.8545 135.19 21.8245 134.22 23.037 134.22H60.5024ZM153.499 134.22C150.468 134.22 147.8 133.372 145.375 131.796C143.435 130.462 141.738 128.764 140.526 126.582H123.43C122.217 128.643 120.641 130.462 118.58 131.796C116.276 133.372 113.487 134.22 110.456 134.22C106.334 134.22 102.696 132.523 100.029 129.856C97.3616 127.188 95.664 123.551 95.664 119.428C95.664 115.306 97.3616 111.668 100.029 109.001C102.696 106.334 106.334 104.636 110.456 104.636C112.032 104.636 113.487 104.879 114.942 105.364C116.155 105.727 117.367 106.334 118.459 107.061H124.157C123.915 106.94 123.672 106.697 123.551 106.455C123.308 106.212 123.187 105.849 123.066 105.727C122.823 105.485 122.702 105.242 122.46 105C121.005 103.302 119.307 101.969 117.246 100.999C115.306 100.15 113.124 99.665 110.82 99.665C108.516 99.665 106.334 100.15 104.394 100.999C102.333 101.969 100.635 103.302 99.1802 105C98.6953 105.606 98.089 106.334 97.7253 107.061C97.2403 107.789 96.8765 108.516 96.634 109.244V109.365C96.149 110.577 95.3003 111.547 94.2091 112.275C93.1178 113.002 91.9054 113.487 90.4504 113.487H86.813C85.9643 113.487 85.2368 113.002 84.8731 112.275L80.8719 105.727H36.0104C34.7979 105.727 33.828 104.757 33.828 103.545V103.302V92.0264C33.828 90.814 34.7979 89.844 36.0104 89.844H380.959C382.171 89.844 383.141 90.814 383.141 92.0264V92.1477L383.384 103.424C383.384 104.636 382.414 105.606 381.323 105.606H338.401L334.279 112.275C333.915 113.002 333.187 113.366 332.46 113.366H328.822C327.489 113.366 326.155 112.881 325.064 112.153C323.973 111.426 323.124 110.335 322.639 109.122C322.396 108.395 321.911 107.667 321.548 106.94C321.063 106.212 320.578 105.485 320.093 104.879C318.638 103.181 316.94 101.847 314.879 100.877C312.939 100.029 310.757 99.5438 308.453 99.5438C306.149 99.5438 303.967 100.029 302.027 100.877C299.966 101.847 298.268 103.181 296.813 104.879C296.571 105.121 296.449 105.364 296.207 105.606C296.086 105.849 295.843 106.091 295.601 106.455C295.358 106.819 295.116 107.061 294.752 107.182H301.057C302.148 106.455 303.361 105.849 304.694 105.364C306.149 104.879 307.725 104.636 309.423 104.636C313.545 104.636 317.183 106.334 319.85 109.001C322.518 111.668 324.215 115.427 324.215 119.428C324.215 123.551 322.518 127.188 319.85 129.856C317.183 132.523 313.424 134.22 309.423 134.22H412.362C413.574 134.22 414.544 135.19 414.544 136.403C414.544 137.615 413.574 138.585 412.362 138.585H70.2021C68.9897 138.585 68.0197 137.615 68.0197 136.403C68.0197 135.19 68.9897 134.22 70.2021 134.22H153.499ZM313.06 118.701L309.665 123.066C310.635 123.066 311.484 122.581 312.09 121.975C312.697 121.368 313.182 120.398 313.182 119.428C313.182 119.186 313.182 118.943 313.06 118.701ZM263.591 112.153C263.713 111.79 263.834 111.426 264.076 111.062V110.941L264.198 110.82C264.319 110.699 264.319 110.577 264.44 110.577L264.561 110.456L264.683 110.335C262.379 110.577 260.318 111.668 258.742 113.245L258.62 113.366C256.68 115.306 255.589 117.852 255.589 120.762C255.589 123.672 256.802 126.218 258.62 128.158C260.56 130.098 263.106 131.189 266.016 131.189C268.078 131.189 270.018 130.583 271.594 129.492C272.2 129.128 272.806 128.643 273.413 128.037C273.049 128.279 272.685 128.522 272.321 128.764C271.23 129.249 270.018 129.613 268.805 129.613C266.623 129.613 264.683 128.764 263.228 127.309C261.773 125.854 260.924 123.914 260.924 121.732C260.924 119.913 261.53 118.095 262.621 116.761C261.288 113.487 262.379 112.638 263.591 112.153ZM310.514 114.821V114.7H303.967H276.444H272.079C271.958 114.7 271.836 114.821 271.836 114.821C271.715 114.942 271.473 115.063 271.351 115.185C270.988 115.548 270.624 116.155 270.624 116.64V116.761V116.882L273.534 120.641L275.352 123.066L275.474 123.187C275.474 123.187 275.474 123.187 275.595 123.308H278.869H298.753H304.209C304.452 123.308 304.694 123.308 304.937 123.187H305.058C305.058 123.187 305.179 123.187 305.179 123.066L309.544 117.367L310.029 116.64L310.15 116.518V116.397L310.514 114.821ZM141.98 122.338H146.709C146.83 122.217 146.952 122.217 147.073 122.096C147.194 122.096 147.194 121.975 147.194 121.975L141.98 122.338ZM148.407 121.611L153.378 115.185L153.499 115.063C153.499 114.942 153.62 114.942 153.62 114.821C153.62 114.7 153.62 114.578 153.742 114.457C153.742 114.336 153.742 114.336 153.742 114.215C153.742 114.093 153.742 114.093 153.742 113.972V113.851V113.73V113.608H153.62C153.499 113.608 153.499 113.608 153.378 113.608C153.257 113.608 153.257 113.608 153.135 113.608H114.7V113.73C114.7 113.851 114.7 113.851 114.7 113.972L114.821 114.093L114.942 114.215L119.792 120.398L119.913 120.641L120.035 120.762H124.157H141.98L148.407 121.611ZM146.709 126.703H145.86C146.467 127.309 147.073 127.794 147.679 128.279C149.255 129.371 151.317 129.977 153.378 129.977C156.288 129.977 158.834 128.764 160.774 126.946C162.714 125.006 163.805 122.459 163.805 119.55C163.805 116.64 162.593 114.093 160.774 112.153C159.683 111.062 158.228 110.214 156.773 109.607V109.729V109.85V109.971V110.092C156.773 110.214 156.773 110.214 156.894 110.335C157.015 110.577 157.015 110.82 157.015 111.062C157.015 111.184 157.015 111.305 157.015 111.305C157.743 111.911 158.47 112.638 158.955 113.487C159.683 114.7 160.168 116.155 160.168 117.61C160.168 119.792 159.319 121.732 157.864 123.187C156.409 124.642 154.469 125.491 152.287 125.491C151.317 125.491 150.225 125.248 149.377 124.884C149.013 124.763 148.528 124.521 148.164 124.278L146.709 126.703ZM118.216 126.703H118.095C117.731 126.946 117.367 127.188 116.882 127.431C115.912 127.916 114.7 128.158 113.609 128.158C111.426 128.158 109.486 127.309 108.031 125.854C106.576 124.399 105.728 122.459 105.728 120.277C105.728 118.58 106.334 117.003 107.183 115.67C107.91 114.7 108.759 113.972 109.729 113.366C107.789 113.851 106.091 114.821 104.758 116.155C102.818 118.095 101.726 120.641 101.726 123.551C101.726 126.461 102.939 129.007 104.758 130.947C106.698 132.887 109.244 133.978 112.154 133.978C114.215 133.978 116.276 133.372 117.852 132.281C117.004 127.794 117.61 127.309 118.216 126.703ZM107.91 117.852L107.789 117.731C107.425 118.337 107.183 119.065 107.183 119.792C107.183 120.762 107.546 121.732 108.274 122.338C108.88 122.944 109.85 123.429 110.82 123.429C111.305 123.429 111.669 123.308 112.032 123.187L107.91 117.852ZM317.546 119.428C317.546 121.611 316.698 123.551 315.243 125.006C313.788 126.461 311.848 127.309 309.665 127.309C308.817 127.309 307.847 127.188 306.998 126.824C306.634 126.703 306.271 126.582 305.907 126.339H305.785C305.543 126.461 305.179 126.461 304.815 126.582H304.694H303.361C303.846 127.067 304.452 127.552 305.058 127.916C306.634 129.007 308.574 129.613 310.635 129.613C313.545 129.613 316.092 128.401 318.031 126.582C319.971 124.642 321.063 122.096 321.063 119.186C321.063 116.276 319.85 113.73 318.031 111.79C317.183 110.941 316.091 110.092 314.879 109.607V109.729V109.85V109.971C315.485 110.577 316.092 111.305 316.455 112.032C317.183 116.761 317.546 118.095 317.546 119.428ZM266.744 122.944C267.35 122.944 267.835 122.823 268.32 122.581L264.683 117.973L264.561 117.852C264.44 117.731 264.44 117.731 264.319 117.61V117.488V117.367L264.198 117.488C263.713 118.095 263.47 118.822 263.47 119.792C263.47 120.762 263.834 121.732 264.561 122.338C264.804 122.581 265.774 122.944 266.744 122.944ZM337.31 101.362H379.261L379.14 94.3301H38.4353V101.362H82.3269C83.0543 101.362 83.7818 101.726 84.1456 102.454L88.268 109.122H90.6929C91.1779 109.122 91.5417 109.001 91.9054 108.759C92.2692 108.516 92.5117 108.152 92.7542 107.667C93.1179 106.697 93.6028 105.727 94.2091 104.757C94.8153 103.787 95.4216 102.939 96.1491 102.09C97.9678 99.9075 100.271 98.2101 102.818 96.9976C105.364 95.7851 108.153 95.1789 111.062 95.1789C113.972 95.1789 116.761 95.7851 119.307 96.9976C121.853 98.2101 124.157 99.9075 125.976 102.09C126.218 102.454 126.461 102.696 126.825 103.06L126.946 103.181H137.009L137.131 103.06C137.373 102.696 137.616 102.454 137.979 102.09C139.798 100.029 142.102 98.4525 144.527 97.3613C146.952 96.2701 149.619 95.6639 152.408 95.6639C155.196 95.6639 157.864 96.2701 160.289 97.3613C162.835 98.4525 165.017 100.15 166.836 102.09C167.927 103.302 179.688 115.791 182.598 118.943H237.038C239.948 115.912 251.709 103.302 252.8 102.09C254.619 100.029 256.923 98.4525 259.348 97.3613C261.773 96.2701 264.44 95.6639 267.229 95.6639C270.018 95.6639 272.685 96.2701 275.11 97.3613C277.656 98.4525 279.839 100.15 281.657 102.09C281.9 102.454 282.264 102.696 282.506 103.06L282.627 103.181H292.691V103.06C292.933 102.696 293.176 102.454 293.418 102.09C295.237 99.9075 297.541 98.2101 300.087 96.9976C302.633 95.7851 305.422 95.1789 308.332 95.1789C311.242 95.1789 314.03 95.7851 316.577 96.9976C319.123 98.2101 321.426 99.9075 323.245 102.09C323.973 102.939 324.579 103.787 325.185 104.757C325.791 105.606 326.155 106.576 326.64 107.667C326.883 108.152 327.125 108.516 327.489 108.759C327.852 109.001 328.216 109.122 328.701 109.122H331.126L335.127 102.575C335.734 101.847 336.461 101.362 337.31 101.362ZM155.924 121.975C156.53 121.368 157.015 120.398 157.015 119.428C157.015 118.943 156.894 118.458 156.773 117.973L152.893 122.944C153.014 122.944 153.257 122.944 153.378 122.944C154.348 122.944 155.318 122.581 155.924 121.975Z" fill="#374148"/>
<defs>
<linearGradient id="paint0_linear" x1="68.013" y1="42.9989" x2="349.602" y2="42.9989" gradientUnits="userSpaceOnUse">
<stop stop-color="#008DD2"/>
<stop offset="1" stop-color="#003C5F"/>
</linearGradient>
</defs>
</svg>
