<svg width="458" height="181" viewBox="0 0 458 181" fill="none" xmlns="http://www.w3.org/2000/svg">
<path d="M387.385 113.994V92.6547C387.385 91.4422 388.355 90.4722 389.567 90.4722H398.54C401.45 90.4722 404.238 91.5635 406.421 93.2609C408.603 95.0796 410.179 97.5046 410.786 100.414L412.968 110.963C413.089 111.327 413.089 111.569 413.089 111.812C413.089 112.782 412.726 113.752 412.119 114.479C411.513 115.207 410.664 115.813 409.694 115.934C409.331 116.055 409.088 116.055 408.846 116.055H389.81C388.355 116.177 387.385 115.207 387.385 113.994ZM13.8222 176.558C15.0347 176.558 16.0046 177.528 16.0046 178.74C16.0046 179.953 15.0347 180.923 13.8222 180.923H2.18245C0.969978 180.923 0 179.953 0 178.74C0 177.528 0.969978 176.558 2.18245 176.558H13.8222ZM64.8673 176.558C66.0797 176.558 67.0497 177.528 67.0497 178.74C67.0497 179.953 66.0797 180.923 64.8673 180.923H23.1582C21.9457 180.923 20.9758 179.953 20.9758 178.74C20.9758 177.528 21.9457 176.558 23.1582 176.558H64.8673ZM455.647 176.558C456.859 176.558 457.829 177.528 457.829 178.74C457.829 179.953 456.859 180.923 455.647 180.923H74.567C73.3546 180.923 72.3846 179.953 72.3846 178.74C72.3846 177.528 73.3546 176.558 74.567 176.558H93.2391C89.3592 176.558 85.7218 174.982 83.1756 172.435C80.6294 169.889 79.0532 166.252 79.0532 162.372C79.0532 158.492 80.6294 154.855 83.1756 152.308C85.7218 149.762 89.3592 148.186 93.2391 148.186C97.119 148.186 100.756 149.762 103.303 152.308C105.849 154.855 107.425 158.492 107.425 162.372C107.425 166.252 105.849 169.889 103.303 172.435C100.756 174.982 97.119 176.558 93.2391 176.558H134.221C130.341 176.558 126.703 174.982 124.157 172.435C121.611 169.889 120.035 166.252 120.035 162.372C120.035 158.492 121.611 154.855 124.157 152.308C126.703 149.762 130.341 148.186 134.221 148.186C138.101 148.186 141.738 149.762 144.284 152.308C146.83 154.855 148.407 158.492 148.407 162.372C148.407 166.252 146.83 169.889 144.284 172.435C141.738 174.982 138.101 176.558 134.221 176.558H286.75C282.87 176.558 279.232 174.982 276.686 172.435C274.14 169.889 272.564 166.252 272.564 162.372C272.564 158.492 274.14 154.855 276.686 152.308C279.232 149.762 282.87 148.186 286.75 148.186C290.63 148.186 294.267 149.762 296.813 152.308C299.359 154.855 300.936 158.492 300.936 162.372C300.936 166.252 299.359 169.889 296.813 172.435C294.267 174.982 290.63 176.558 286.75 176.558H383.505C379.625 176.558 375.988 174.982 373.441 172.435C370.895 169.889 369.319 166.252 369.319 162.372C369.319 158.492 370.895 154.855 373.441 152.308C375.988 149.762 379.625 148.186 383.505 148.186C387.385 148.186 391.022 149.762 393.568 152.308C396.115 154.855 397.691 158.492 397.691 162.372C397.691 166.252 396.115 169.889 393.568 172.435C391.022 174.982 387.385 176.558 383.505 176.558H455.647ZM391.022 162.251C391.022 164.312 390.174 166.252 388.719 167.707C387.385 169.04 385.445 170.01 383.262 170.01C381.08 170.01 379.261 169.162 377.806 167.707C376.473 166.373 375.503 164.433 375.503 162.251C375.503 160.189 376.351 158.249 377.806 156.794C379.14 155.461 381.08 154.491 383.262 154.491C385.445 154.491 387.264 155.339 388.719 156.794L388.84 156.916C390.174 158.371 391.022 160.189 391.022 162.251ZM385.687 164.554C386.294 163.948 386.657 163.099 386.657 162.129C386.657 161.281 386.294 160.432 385.809 159.826L385.687 159.704C385.081 159.098 384.232 158.734 383.262 158.734C382.292 158.734 381.444 159.098 380.838 159.704C380.231 160.311 379.868 161.159 379.868 162.129C379.868 163.099 380.231 163.948 380.838 164.554C381.444 165.161 382.292 165.524 383.262 165.524C384.232 165.646 385.081 165.161 385.687 164.554ZM390.416 169.283C392.235 167.464 393.326 165.039 393.326 162.251C393.326 159.583 392.235 157.037 390.416 155.218C388.597 153.4 386.172 152.308 383.384 152.308C380.716 152.308 378.17 153.4 376.351 155.218C374.533 157.037 373.441 159.462 373.441 162.251C373.441 164.918 374.533 167.464 376.351 169.283C378.17 171.102 380.595 172.193 383.384 172.193C386.051 172.193 388.597 171.102 390.416 169.283ZM100.756 162.251C100.756 164.433 99.9077 166.252 98.4527 167.707C96.9978 169.162 95.1791 170.01 92.9966 170.01C90.9354 170.01 88.9955 169.162 87.5405 167.707C86.0855 166.252 85.2368 164.433 85.2368 162.251C85.2368 160.068 86.0855 158.249 87.5405 156.794L87.6617 156.673C88.9955 155.339 90.9354 154.491 92.9966 154.491C95.1791 154.491 96.9978 155.339 98.4527 156.794L98.574 156.916C100.029 158.371 100.756 160.189 100.756 162.251ZM95.5428 164.554C96.149 163.948 96.5128 163.099 96.5128 162.129C96.5128 161.281 96.149 160.432 95.6641 159.826L95.5428 159.704C94.9366 159.098 94.0878 158.734 93.1179 158.734C92.2691 158.734 91.4204 159.098 90.8142 159.583L90.6929 159.704C90.0867 160.311 89.7229 161.159 89.7229 162.129C89.7229 163.099 90.0867 163.948 90.6929 164.554C91.2992 165.161 92.1479 165.524 93.1179 165.524C94.0878 165.646 94.9366 165.161 95.5428 164.554ZM100.15 169.283C101.969 167.464 103.06 165.039 103.06 162.251C103.06 159.583 101.969 157.037 100.15 155.218C98.3315 153.4 95.9066 152.308 93.1179 152.308C90.4504 152.308 87.9042 153.4 86.0855 155.218C84.2668 157.037 83.1756 159.462 83.1756 162.251C83.1756 164.918 84.2668 167.464 86.0855 169.283C87.9042 171.102 90.3292 172.193 93.1179 172.193C95.9066 172.193 98.4527 171.102 100.15 169.283ZM141.738 162.251C141.738 164.433 140.889 166.252 139.434 167.707V167.828C138.101 169.162 136.161 170.01 134.099 170.01C131.917 170.01 130.098 169.162 128.643 167.707L128.522 167.585C127.188 166.252 126.34 164.312 126.34 162.251C126.34 160.189 127.188 158.249 128.643 156.794C129.977 155.461 131.917 154.491 134.099 154.491C136.161 154.491 138.101 155.339 139.556 156.794C140.889 158.249 141.738 160.068 141.738 162.251ZM136.403 164.554C137.009 163.948 137.373 163.099 137.373 162.129C137.373 161.159 137.009 160.311 136.403 159.704C135.797 159.098 134.948 158.734 133.978 158.734C133.008 158.734 132.159 159.098 131.553 159.704C130.947 160.311 130.583 161.159 130.583 162.129C130.583 162.978 130.947 163.827 131.432 164.433L131.553 164.554C132.159 165.161 133.008 165.524 133.978 165.524C134.948 165.646 135.797 165.282 136.403 164.554ZM141.132 169.283C142.95 167.464 144.042 165.039 144.042 162.251C144.042 159.583 142.95 157.037 141.132 155.218C139.313 153.4 136.888 152.308 134.099 152.308C131.432 152.308 128.886 153.4 127.067 155.218C125.248 157.037 124.157 159.462 124.157 162.251C124.157 164.918 125.248 167.464 127.067 169.283C128.886 171.102 131.311 172.193 134.099 172.193C136.888 172.193 139.313 171.102 141.132 169.283ZM294.267 162.251C294.267 164.312 293.418 166.252 291.963 167.707C290.63 169.04 288.69 170.01 286.507 170.01C284.325 170.01 282.506 169.162 281.051 167.707C279.717 166.373 278.747 164.433 278.747 162.251C278.747 160.189 279.596 158.249 281.051 156.794C282.385 155.461 284.325 154.491 286.507 154.491C288.69 154.491 290.508 155.339 291.963 156.794L292.085 156.916C293.418 158.371 294.267 160.189 294.267 162.251ZM288.932 164.554C289.538 163.948 289.902 163.099 289.902 162.129C289.902 161.281 289.538 160.432 289.053 159.826L288.932 159.704C288.326 159.098 287.477 158.734 286.507 158.734C285.537 158.734 284.688 159.098 284.082 159.704C283.476 160.311 283.112 161.159 283.112 162.129C283.112 163.099 283.476 163.948 284.082 164.554C284.688 165.161 285.537 165.524 286.507 165.524C287.477 165.646 288.326 165.161 288.932 164.554ZM293.661 169.283C295.479 167.464 296.571 165.039 296.571 162.251C296.571 159.583 295.479 157.037 293.661 155.218C291.842 153.4 289.417 152.308 286.628 152.308C283.961 152.308 281.415 153.4 279.596 155.218C277.777 157.037 276.686 159.462 276.686 162.251C276.686 164.918 277.777 167.464 279.596 169.283C281.415 171.102 283.84 172.193 286.628 172.193C289.417 172.193 291.842 171.102 293.661 169.283ZM391.75 94.7159V111.69H408.603C407.876 108.174 407.269 104.658 406.421 101.142C406.057 99.202 404.966 97.6258 403.632 96.5346C402.177 95.4434 400.48 94.7159 398.54 94.7159H391.75ZM411.513 165.646H411.756C413.211 165.524 414.544 164.918 415.514 163.948C416.484 162.978 417.09 161.644 417.09 160.189V159.947L414.787 107.932C414.059 99.3233 410.422 91.6847 404.966 85.8648C399.631 80.2875 392.356 76.65 384.111 75.9226L352.102 73.2551C351.859 73.2551 351.617 73.3764 351.496 73.4976C351.374 73.6189 351.253 73.8614 351.253 74.1039L350.162 138.85C350.162 140.062 349.192 141.032 347.98 141.032H298.511C297.298 141.032 296.328 140.062 296.328 138.85V132.303C296.328 131.09 297.298 130.12 298.511 130.12H324.458V99.687H320.699V123.451C320.699 124.664 319.729 125.634 318.516 125.634H253.285L242.979 140.911C242.494 141.639 241.767 141.881 241.039 141.881L104.515 141.76H50.6813L46.6802 148.792H64.261C65.1098 148.792 65.8372 149.277 66.201 150.005L70.2021 156.552H72.6271C73.1121 156.552 73.4758 156.431 73.8396 156.188C74.2033 155.946 74.567 155.582 74.6883 155.097C75.052 154.127 75.537 153.157 76.1432 152.187C76.7495 151.217 77.3557 150.368 78.0832 149.52C79.9019 147.337 82.2056 145.64 84.7518 144.427C87.298 143.215 90.0867 142.609 92.9966 142.609C95.9065 142.609 98.6952 143.215 101.241 144.427C103.788 145.64 106.091 147.337 107.91 149.52C108.516 150.247 109.122 151.096 109.729 151.945C110.214 152.793 110.699 153.642 111.062 154.612V154.733C111.305 155.218 111.669 155.703 112.154 155.946C112.639 156.188 113.124 156.431 113.609 156.431H113.73C114.336 156.431 114.821 156.309 115.185 155.946C115.67 155.582 116.034 155.218 116.276 154.612C116.64 153.642 117.246 152.793 117.731 151.823C118.337 150.975 118.944 150.126 119.671 149.277C121.49 147.216 123.793 145.64 126.218 144.549C128.643 143.457 131.311 142.851 134.099 142.851C136.888 142.851 139.556 143.457 141.98 144.549C144.527 145.64 146.709 147.337 148.528 149.277C149.255 150.005 149.862 150.853 150.468 151.702C151.074 152.551 151.559 153.521 151.923 154.37C152.165 154.976 152.65 155.461 153.135 155.824C153.62 156.188 154.105 156.309 154.711 156.309H157.864L163.078 149.398C163.562 148.792 164.169 148.55 164.775 148.55H246.132L258.499 130.726C258.863 130.12 259.59 129.756 260.318 129.756H283.719C284.931 129.756 285.901 130.726 285.901 131.939V138.486C285.901 139.699 284.931 140.669 283.719 140.669H271.958C270.139 140.669 268.441 141.396 267.229 142.609C266.016 143.821 265.289 145.518 265.289 147.337V165.282H265.41C265.653 165.282 265.895 165.161 266.016 165.039H266.138C266.259 164.918 266.38 164.676 266.38 164.433V163.221C266.38 157.643 268.684 152.551 272.321 148.792C275.959 145.033 281.051 142.73 286.628 142.609C286.992 142.609 286.871 142.609 286.992 142.609C292.691 142.609 297.783 145.033 301.542 148.792C305.301 152.551 307.604 157.764 307.725 163.342C307.725 163.706 307.725 163.584 307.725 163.706V165.282H362.287V160.553C362.287 154.976 364.59 149.883 368.228 146.125C371.865 142.366 376.958 140.062 382.535 139.941C383.02 139.941 382.777 139.941 382.899 139.941C388.597 139.941 393.69 142.366 397.448 146.125C401.207 149.883 403.511 155.097 403.632 160.674C403.632 161.038 403.632 160.917 403.632 161.038V165.524L411.513 165.646ZM411.998 169.889H411.513H401.328C400.116 169.889 399.146 168.919 399.146 167.707V161.038C399.146 160.553 399.146 160.917 399.146 160.674C399.025 156.188 397.206 152.066 394.175 149.035C391.265 146.003 387.142 144.185 382.777 144.185C382.414 144.185 382.656 144.185 382.414 144.185C377.928 144.306 373.926 146.125 371.138 149.035C368.228 151.945 366.53 155.946 366.53 160.432V167.585C366.53 168.798 365.56 169.768 364.348 169.768H305.422C304.209 169.768 303.239 168.798 303.239 167.585V163.827C303.239 163.342 303.239 163.706 303.239 163.463C303.118 158.977 301.299 154.854 298.268 151.823C295.358 148.792 291.236 146.973 286.871 146.973C286.507 146.973 286.75 146.973 286.628 146.973C282.142 147.095 278.141 148.913 275.352 151.823C272.443 154.733 270.745 158.734 270.745 163.221V164.433C270.745 165.767 270.26 167.1 269.29 167.949L269.169 168.07C268.199 169.04 266.865 169.647 265.41 169.647H263.106C261.894 169.647 260.924 168.677 260.924 167.464V147.337C260.924 144.306 262.136 141.517 264.198 139.456C266.259 137.395 268.926 136.182 272.079 136.182H281.657V134H261.53L249.163 152.066C248.799 152.672 248.072 153.157 247.223 153.157H165.987L160.895 159.947C160.531 160.553 159.804 160.917 159.076 160.917H154.833C153.378 160.917 152.044 160.432 150.832 159.704C149.619 158.977 148.77 157.764 148.164 156.431C147.8 155.703 147.437 154.976 146.952 154.37C146.467 153.642 145.982 153.036 145.497 152.43C144.042 150.853 142.344 149.641 140.404 148.792C138.464 147.943 136.403 147.458 134.221 147.458C132.038 147.458 129.977 147.943 128.037 148.792C126.097 149.641 124.278 150.975 122.945 152.43C122.338 153.036 121.853 153.642 121.49 154.37C121.005 155.097 120.641 155.703 120.277 156.552C119.671 157.886 118.822 158.977 117.61 159.704C116.519 160.432 115.185 160.917 113.73 160.917H113.609C112.154 160.917 110.82 160.432 109.607 159.704C108.516 158.977 107.668 157.886 107.061 156.673L106.94 156.552C106.698 155.825 106.334 155.097 105.849 154.491C105.364 153.763 105 153.157 104.394 152.551C102.939 150.853 101.241 149.52 99.1802 148.55C97.2403 147.701 95.0578 147.216 92.7541 147.216C90.4504 147.216 88.268 147.701 86.328 148.55C84.2668 149.52 82.5694 150.853 81.1144 152.551C80.6294 153.157 80.0232 153.885 79.6594 154.612C79.1744 155.34 78.8107 156.067 78.5682 156.916C78.0832 158.128 77.2345 159.219 76.1432 159.947C75.052 160.674 73.8396 161.159 72.3846 161.159H68.7472C68.0197 161.159 67.2922 160.796 66.9285 160.068L62.8061 153.4H42.9215C42.5578 153.4 42.194 153.278 41.8303 153.157C40.7391 152.551 40.3753 151.217 40.9816 150.247L47.4077 138.971C47.7714 138.244 48.4989 137.759 49.3476 137.759H104.394L239.827 137.88L250.133 122.724C250.497 122.118 251.224 121.633 251.952 121.633H316.092V97.5046C316.092 96.2921 317.061 95.3221 318.274 95.3221H326.398C327.61 95.3221 328.58 96.2921 328.58 97.5046V132.303C328.58 133.515 327.61 134.485 326.398 134.485H300.451V136.667H345.555L346.525 74.1039C346.525 72.6489 347.131 71.4364 348.101 70.4664C349.071 69.4965 350.283 69.0115 351.738 69.0115H351.859L383.99 71.6789C393.447 72.4064 401.571 76.65 407.633 82.9549C413.817 89.381 417.818 97.9896 418.667 107.568C418.667 107.689 418.667 107.689 418.667 107.811L420.97 159.826V160.311C420.97 162.978 419.879 165.282 418.182 167.1C416.969 168.677 414.665 169.768 411.998 169.889Z" fill="#374148"/>
<path d="M275 101.344V53.1362C275 52.058 274.08 51.2879 273.161 51.2879H267.644C266.724 51.2879 266.111 50.6719 265.805 49.9018C264.732 46.0513 261.207 43.279 257.069 43.279H243.583C242.51 43.279 241.744 42.3549 241.744 41.4308V22.6406C241.744 19.8683 239.445 17.558 236.687 17.558H192.856C191.63 17.558 190.711 18.4821 190.711 19.7143V41.2768C190.711 42.5089 189.791 43.433 188.565 43.433H182.282C181.056 43.433 180.136 44.3571 180.136 45.5893V51.4419V62.8393C180.136 64.0714 179.217 64.9955 177.99 64.9955H170.788C169.255 64.9955 168.182 63.4553 168.949 61.9152L193.929 8.00892C194.235 7.23883 195.155 6.62277 196.074 6.62277H248.487C249.713 6.62277 250.786 5.54465 250.786 4.3125V2.31027C250.786 1.07812 249.713 0 248.487 0H189.331C187.186 0 185.193 0.924116 183.814 2.46429L170.788 17.558C170.021 18.4821 168.795 19.0982 167.416 19.0982L41.135 18.7902C39.7557 18.7902 38.3764 19.4063 37.6102 20.4844L23.9706 38.1964C21.9783 40.6607 23.2043 44.5111 26.2694 45.2812L77.4561 59.1428L97.2258 64.5335L113.011 68.846C113.317 69 113.624 69 113.777 69.308C114.697 70.2321 115.463 71.1562 116.383 72.0804C117.302 73.1585 116.536 75.0067 115.003 75.0067H109.18C108.72 75.0067 108.413 74.8527 108.107 74.5446C101.364 68.6919 92.3217 65.3036 82.5135 65.9196C64.7361 66.9978 50.177 81.6295 49.1042 99.4955C47.8782 120.442 64.2763 137.692 84.8123 137.692C103.662 137.692 119.294 122.752 120.52 103.962C120.674 102.576 121.746 101.498 123.126 101.498H124.198C125.118 101.498 125.884 102.268 125.884 103.192V108.583C125.884 110.277 127.264 111.509 128.796 111.509H172.014C174.619 111.509 176.764 109.353 176.764 106.734V97.8013C176.764 92.1027 177.99 88.0982 180.136 83.1696C181.822 79.3192 184.121 75.9308 186.879 72.8504C194.235 64.6875 204.963 59.6049 217.07 59.6049C239.292 59.6049 257.376 77.471 257.376 99.3415V101.036C257.376 102.268 258.295 103.192 259.521 103.192H272.701C274.08 103.5 275 102.576 275 101.344ZM218.603 35.2701V24.1808C218.603 22.7946 219.675 21.7165 221.055 21.7165H235.001C236.38 21.7165 237.453 22.7946 237.453 24.1808V35.2701C237.453 36.6562 236.38 37.7344 235.001 37.7344H221.055C219.675 37.7344 218.603 36.6562 218.603 35.2701ZM33.1658 43.125L49.7172 22.0246L53.5486 22.1786L36.8439 44.3571L33.1658 43.125ZM41.748 45.2812L59.6787 22.3326H64.123L45.8859 46.3594L41.748 45.2812ZM61.5177 50.2098L82.6667 22.9486H87.7241L66.1153 51.4419L61.5177 50.2098ZM50.79 47.8996L70.2532 22.9486H75.1573L55.0811 48.9777L50.79 47.8996ZM68.8739 99.0335C69.9467 92.4107 75.1573 87.1741 81.7472 86.096C92.475 84.2477 101.67 93.4888 99.9844 104.424C98.9116 111.047 93.701 116.283 87.1111 117.362C86.1916 117.516 85.272 117.516 84.5058 117.516C74.8508 117.516 67.3414 109.045 68.8739 99.0335ZM181.209 102.114C181.209 121.982 197.3 138 216.917 138C236.687 138 252.625 121.828 252.625 102.114C252.625 82.2455 236.533 66.2277 216.917 66.2277C197.3 66.2277 181.209 82.2455 181.209 102.114ZM200.825 101.806C200.825 93.0268 207.875 85.942 216.61 85.942C225.346 85.942 232.396 93.0268 232.396 101.806C232.396 110.585 225.346 117.67 216.61 117.67C207.875 117.67 200.825 110.585 200.825 101.806Z" fill="url(#paint0_linear)"/>
<defs>
<linearGradient id="paint0_linear" x1="22.9942" y1="69.1244" x2="275.041" y2="69.1244" gradientUnits="userSpaceOnUse">
<stop stop-color="#008DD2"/>
<stop offset="1" stop-color="#003C5F"/>
</linearGradient>
</defs>
</svg>
