<svg width="447" height="1116" viewBox="0 0 447 1116" fill="none" xmlns="http://www.w3.org/2000/svg">
<path d="M6 2H408.802C428.794 2 445 25.5101 445 54.5112V105.972C445 134.973 428.794 158.483 408.802 158.483H38.1978C18.2063 158.483 2 181.994 2 210.995V261.931C2 290.932 18.2063 314.442 38.1978 314.442H408.802C428.794 314.442 445 337.952 445 366.953V418.414C445 447.415 428.794 470.925 408.802 470.925H38.1978C18.2063 470.925 2 494.435 2 523.437V592.489C2 621.49 18.2063 645 38.1978 645H206.079H408.802C428.794 645 445 668.51 445 697.511V748.972C445 777.973 428.794 801.483 408.802 801.483H38.1978C18.2063 801.483 2 824.994 2 853.995V904.931C2 933.932 18.2063 957.442 38.1978 957.442H408.802C428.794 957.442 445 980.952 445 1009.95V1061.41C445 1090.42 428.794 1113.93 408.802 1113.93" stroke="url(#paint0_linear)" stroke-opacity="0.5" stroke-width="3" stroke-miterlimit="2.61313" stroke-linecap="round" stroke-dasharray="4 16"/>
<defs>
<linearGradient id="paint0_linear" x1="-63.2966" y1="1624.6" x2="769.804" y2="1102.98" gradientUnits="userSpaceOnUse">
<stop stop-color="#008DD2"/>
<stop offset="0.505208" stop-color="#003C5F"/>
<stop offset="1" stop-color="#374148"/>
</linearGradient>
</defs>
</svg>
