<svg width="626" height="192" viewBox="0 0 626 192" fill="none" xmlns="http://www.w3.org/2000/svg">
<path d="M289.547 162.344C288.442 162.344 287.547 163.239 287.547 164.344C287.547 165.448 288.442 166.344 289.547 166.344V162.344ZM535.235 166.344C536.34 166.344 537.235 165.448 537.235 164.344C537.235 163.239 536.34 162.344 535.235 162.344V166.344ZM622.771 107.669L624.293 108.967C624.334 108.919 624.373 108.869 624.409 108.817L622.771 107.669ZM572.733 166.29L574.246 167.598L574.254 167.588L572.733 166.29ZM568.593 175.654L566.612 175.381C566.611 175.39 566.61 175.399 566.609 175.408L568.593 175.654ZM566.889 189.397V191.397C567.898 191.397 568.749 190.645 568.874 189.643L566.889 189.397ZM25.5953 169.208L23.7267 169.921C24.0224 170.696 24.7658 171.208 25.5953 171.208V169.208ZM2.9501 109.858L1.0759 110.556C1.07775 110.561 1.07962 110.566 1.0815 110.571L2.9501 109.858ZM148.318 100.858H146.318C146.318 100.92 146.321 100.982 146.326 101.044L148.318 100.858ZM524.764 100.858L522.779 100.61C522.777 100.631 522.774 100.651 522.773 100.672L524.764 100.858ZM618.632 99.1556V101.156C618.651 101.156 618.671 101.155 618.691 101.155L618.632 99.1556ZM312.191 91.3719L310.199 91.1906L310.191 91.2811V91.3719H312.191ZM312.191 63.5211L310.198 63.3548L310.191 63.4378V63.5211H312.191ZM414.216 63.5211L412.223 63.3548L412.216 63.4378V63.5211H414.216ZM112.037 57.6833V55.6833C110.933 55.6833 110.037 56.5788 110.037 57.6833H112.037ZM121.899 57.6833H123.899C123.899 56.5788 123.003 55.6833 121.899 55.6833V57.6833ZM121.899 67.5345V69.5345C123.003 69.5345 123.899 68.6391 123.899 67.5345H121.899ZM112.037 67.5345H110.037C110.037 68.6391 110.933 69.5345 112.037 69.5345V67.5345ZM96.6973 57.6833V55.6833C95.5927 55.6833 94.6973 56.5788 94.6973 57.6833H96.6973ZM106.559 57.6833H108.559C108.559 56.5788 107.663 55.6833 106.559 55.6833V57.6833ZM106.559 67.5345V69.5345C107.663 69.5345 108.559 68.6391 108.559 67.5345H106.559ZM96.6973 67.5345H94.6973C94.6973 68.6391 95.5927 69.5345 96.6973 69.5345V67.5345ZM81.4785 57.9265V55.9265C80.3739 55.9265 79.4785 56.8219 79.4785 57.9265H81.4785ZM91.3401 57.9265H93.3401C93.3401 56.8219 92.4447 55.9265 91.3401 55.9265V57.9265ZM91.3401 67.7776V69.7776C92.4447 69.7776 93.3401 68.8822 93.3401 67.7776H91.3401ZM81.4785 67.7776H79.4785C79.4785 68.8822 80.3739 69.7776 81.4785 69.7776V67.7776ZM66.2598 57.9265V55.9265C65.1552 55.9265 64.2598 56.8219 64.2598 57.9265H66.2598ZM76.1214 57.9265H78.1214C78.1214 56.8219 77.226 55.9265 76.1214 55.9265V57.9265ZM76.1214 67.7776V69.7776C77.226 69.7776 78.1214 68.8822 78.1214 67.7776H76.1214ZM66.2598 67.7776H64.2598C64.2598 68.8822 65.1552 69.7776 66.2598 69.7776V67.7776ZM22.6738 97.0339C21.5693 97.0339 20.6738 97.9294 20.6738 99.0339C20.6738 100.139 21.5693 101.034 22.6738 101.034V97.0339ZM109.115 101.034C110.22 101.034 111.115 100.139 111.115 99.0339C111.115 97.9294 110.22 97.0339 109.115 97.0339V101.034ZM83.4785 2.22485C83.4785 1.12028 82.5831 0.224854 81.4785 0.224854C80.3739 0.224854 79.4785 1.12028 79.4785 2.22485H83.4785ZM79.4785 48.4402C79.4785 49.5448 80.3739 50.4402 81.4785 50.4402C82.5831 50.4402 83.4785 49.5448 83.4785 48.4402H79.4785ZM289.547 166.344H535.235V162.344H289.547V166.344ZM621.25 106.371L571.212 164.991L574.254 167.588L624.293 108.967L621.25 106.371ZM571.22 164.981C568.631 167.976 567.147 171.507 566.612 175.381L570.575 175.928C571.014 172.748 572.208 169.955 574.246 167.598L571.22 164.981ZM566.609 175.408L564.904 189.151L568.874 189.643L570.578 175.9L566.609 175.408ZM566.889 187.397H27.665V191.397H566.889V187.397ZM27.665 187.397C27.6522 187.397 27.6536 187.395 27.6637 187.399C27.6729 187.403 27.6837 187.41 27.6936 187.42C27.7035 187.43 27.7105 187.441 27.7145 187.45C27.719 187.461 27.7171 187.463 27.7171 187.451H23.7171C23.7171 189.652 25.4667 191.397 27.665 191.397V187.397ZM27.7171 187.451V169.573H23.7171V187.451H27.7171ZM27.7171 169.573C27.7171 169.553 27.724 169.258 27.6629 168.953C27.6342 168.809 27.5549 168.463 27.3095 168.109C27.0115 167.679 26.4292 167.208 25.5953 167.208V171.208C25.2593 171.208 24.9201 171.119 24.6176 170.941C24.3287 170.77 24.1389 170.556 24.0218 170.387C23.8107 170.083 23.7543 169.805 23.7408 169.738C23.7101 169.585 23.7171 169.472 23.7171 169.573H27.7171ZM27.4639 168.495L4.81871 109.145L1.0815 110.571L23.7267 169.921L27.4639 168.495ZM4.82431 109.16C3.36072 105.231 6.17771 101.156 10.3767 101.156V97.1556C3.37493 97.1556 -1.35646 104.026 1.0759 110.556L4.82431 109.16ZM10.3767 101.156H29.3695V97.1556H10.3767V101.156ZM29.3695 101.156C31.5678 101.156 33.3175 99.4109 33.3175 97.2097H29.3175C29.3175 97.2217 29.3156 97.2195 29.32 97.2088C29.324 97.1991 29.331 97.1881 29.3409 97.1782C29.3509 97.1683 29.3616 97.1615 29.3708 97.1577C29.3809 97.1535 29.3824 97.1556 29.3695 97.1556V101.156ZM33.3175 97.2097V50.9943H29.3175V97.2097H33.3175ZM33.3175 50.9943C33.3175 50.9823 33.3194 50.9846 33.315 50.9952C33.3109 51.005 33.304 51.016 33.294 51.0259C33.2841 51.0358 33.2733 51.0425 33.2642 51.0463C33.2541 51.0505 33.2526 51.0484 33.2655 51.0484V47.0484C31.0671 47.0484 29.3175 48.7932 29.3175 50.9943H33.3175ZM33.2655 51.0484H49.945V47.0484H33.2655V51.0484ZM49.945 51.0484C52.1433 51.0484 53.893 49.3036 53.893 47.1025H49.893C49.893 47.1145 49.8911 47.1123 49.8955 47.1016C49.8995 47.0919 49.9065 47.0809 49.9164 47.071C49.9263 47.0611 49.9371 47.0543 49.9463 47.0505C49.9564 47.0463 49.9579 47.0484 49.945 47.0484V51.0484ZM53.893 47.1025V37.9811H49.893V47.1025H53.893ZM53.893 37.9811C53.893 37.9691 53.8949 37.9713 53.8904 37.982C53.8864 37.9917 53.8794 38.0027 53.8695 38.0126C53.8596 38.0225 53.8488 38.0293 53.8396 38.0331C53.8295 38.0372 53.8281 38.0352 53.841 38.0352V34.0352C51.6427 34.0352 49.893 35.7799 49.893 37.9811H53.893ZM53.841 38.0352H62.9721V34.0352H53.841V38.0352ZM62.9721 38.0352C62.985 38.0352 62.9835 38.0372 62.9734 38.0331C62.9642 38.0293 62.9535 38.0225 62.9435 38.0126C62.9336 38.0027 62.9266 37.9917 62.9226 37.982C62.9182 37.9713 62.9201 37.9691 62.9201 37.9811H66.9201C66.9201 35.7799 65.1704 34.0352 62.9721 34.0352V38.0352ZM62.9201 37.9811V47.1025H66.9201V37.9811H62.9201ZM62.9201 47.1025C62.9201 49.3036 64.6697 51.0484 66.868 51.0484V47.0484C66.8551 47.0484 66.8566 47.0463 66.8667 47.0505C66.8759 47.0543 66.8867 47.0611 66.8966 47.071C66.9066 47.0809 66.9135 47.0919 66.9176 47.1016C66.922 47.1123 66.9201 47.1145 66.9201 47.1025H62.9201ZM66.868 51.0484H128.96V47.0484H66.868V51.0484ZM128.96 51.0484C128.973 51.0484 128.971 51.0505 128.961 51.0463C128.952 51.0425 128.941 51.0358 128.931 51.0259C128.921 51.016 128.914 51.005 128.91 50.9952C128.906 50.9846 128.908 50.9824 128.908 50.9943H132.908C132.908 48.7932 131.158 47.0484 128.96 47.0484V51.0484ZM128.908 50.9943V97.2097H132.908V50.9943H128.908ZM128.908 97.2097C128.908 99.4109 130.657 101.156 132.856 101.156V97.1556C132.843 97.1556 132.844 97.1535 132.854 97.1577C132.864 97.1615 132.874 97.1683 132.884 97.1782C132.894 97.1881 132.901 97.1991 132.905 97.2088C132.91 97.2195 132.908 97.2217 132.908 97.2097H128.908ZM132.856 101.156H146.492V97.1556H132.856V101.156ZM146.492 101.156C146.483 101.156 146.46 101.154 146.425 101.123C146.405 101.105 146.378 101.073 146.355 101.023C146.33 100.97 146.318 100.912 146.318 100.858H150.318C150.318 98.6038 148.384 97.1556 146.492 97.1556V101.156ZM146.326 101.044C147.275 111.197 155.932 119.155 166.336 119.155V115.155C157.991 115.155 151.065 108.763 150.309 100.672L146.326 101.044ZM166.336 119.155H506.745V115.155H166.336V119.155ZM506.745 119.155C517.149 119.155 525.807 111.197 526.755 101.044L522.773 100.672C522.017 108.763 515.09 115.155 506.745 115.155V119.155ZM526.748 101.107C526.756 101.048 526.773 101.056 526.736 101.091C526.718 101.108 526.692 101.127 526.659 101.14C526.625 101.153 526.599 101.156 526.59 101.156V97.1556C524.478 97.1556 523.009 98.7707 522.779 100.61L526.748 101.107ZM526.59 101.156H618.632V97.1556H526.59V101.156ZM618.691 101.155C620.985 101.087 622.863 104.053 621.133 106.521L624.409 108.817C627.793 103.988 624.558 96.9807 618.573 97.1565L618.691 101.155ZM594.891 122.561C599.759 122.561 603.709 118.618 603.709 113.75H599.709C599.709 116.405 597.554 118.561 594.891 118.561V122.561ZM603.709 113.75C603.709 108.882 599.759 104.939 594.891 104.939V108.939C597.554 108.939 599.709 111.095 599.709 113.75H603.709ZM594.891 104.939C590.023 104.939 586.073 108.882 586.073 113.75H590.073C590.073 111.095 592.228 108.939 594.891 108.939V104.939ZM586.073 113.75C586.073 118.618 590.023 122.561 594.891 122.561V118.561C592.228 118.561 590.073 116.405 590.073 113.75H586.073ZM309.634 86.8179H255.7V90.8179H309.634V86.8179ZM255.7 86.8179C253.075 86.8179 251.143 88.9898 251.143 91.3719H255.143C255.143 91.2482 255.197 91.102 255.31 90.9849C255.415 90.8771 255.545 90.8179 255.7 90.8179V86.8179ZM251.143 91.3719V110.101H255.143V91.3719H251.143ZM251.143 110.101C251.143 112.729 253.321 114.655 255.7 114.655V110.655C255.574 110.655 255.427 110.601 255.309 110.488C255.201 110.383 255.143 110.254 255.143 110.101H251.143ZM255.7 114.655H309.634V110.655H255.7V114.655ZM309.634 114.655C312.259 114.655 314.191 112.483 314.191 110.101H310.191C310.191 110.225 310.138 110.371 310.024 110.488C309.92 110.596 309.789 110.655 309.634 110.655V114.655ZM314.191 110.101V91.3719H310.191V110.101H314.191ZM314.183 91.5532C314.427 88.8671 312.086 86.8179 309.634 86.8179V90.8179C309.809 90.8179 309.977 90.8926 310.093 91.0082C310.148 91.0631 310.177 91.1134 310.189 91.1458C310.201 91.1752 310.2 91.1881 310.199 91.1906L314.183 91.5532ZM245.595 58.967H191.66V62.967H245.595V58.967ZM191.66 58.967C189.035 58.967 187.104 61.139 187.104 63.5211H191.104C191.104 63.3973 191.157 63.2511 191.27 63.134C191.375 63.0262 191.506 62.967 191.66 62.967V58.967ZM187.104 63.5211V82.2504H191.104V63.5211H187.104ZM187.104 82.2504C187.104 84.8777 189.281 86.8045 191.66 86.8045V82.8045C191.534 82.8045 191.387 82.7502 191.27 82.6368C191.162 82.5325 191.104 82.4029 191.104 82.2504H187.104ZM191.66 86.8045H245.595V82.8045H191.66V86.8045ZM245.595 86.8045C248.22 86.8045 250.152 84.6325 250.152 82.2504H246.152C246.152 82.3741 246.098 82.5204 245.985 82.6375C245.88 82.7453 245.749 82.8045 245.595 82.8045V86.8045ZM250.152 82.2504V63.5211H246.152V82.2504H250.152ZM250.152 63.5211C250.152 60.955 248.158 58.967 245.595 58.967V62.967C245.812 62.967 245.938 63.0423 246.008 63.1117C246.077 63.1811 246.152 63.3055 246.152 63.5211H250.152ZM309.634 58.967H255.7V62.967H309.634V58.967ZM255.7 58.967C253.075 58.967 251.143 61.139 251.143 63.5211H255.143C255.143 63.3974 255.197 63.2511 255.31 63.134C255.415 63.0262 255.545 62.967 255.7 62.967V58.967ZM251.143 63.5211V82.2504H255.143V63.5211H251.143ZM251.143 82.2504C251.143 84.8777 253.32 86.8045 255.7 86.8045V82.8045C255.574 82.8045 255.427 82.7502 255.309 82.6368C255.201 82.5325 255.143 82.4029 255.143 82.2504H251.143ZM255.7 86.8045H309.634V82.8045H255.7V86.8045ZM309.634 86.8045C312.259 86.8045 314.191 84.6325 314.191 82.2504H310.191C310.191 82.3742 310.138 82.5204 310.024 82.6375C309.92 82.7453 309.789 82.8045 309.634 82.8045V86.8045ZM314.191 82.2504V63.5211H310.191V82.2504H314.191ZM314.184 63.6873C314.422 60.8384 312.029 58.967 309.634 58.967V62.967C309.87 62.967 310.034 63.0554 310.116 63.1347C310.155 63.1725 310.175 63.2062 310.185 63.2318C310.194 63.2546 310.203 63.2916 310.198 63.3548L314.184 63.6873ZM245.595 86.8179H191.66V90.8179H245.595V86.8179ZM191.66 86.8179C189.035 86.8179 187.104 88.9898 187.104 91.3719H191.104C191.104 91.2482 191.157 91.1019 191.27 90.9848C191.375 90.8771 191.505 90.8179 191.66 90.8179V86.8179ZM187.104 91.3719V110.101H191.104V91.3719H187.104ZM187.104 110.101C187.104 112.729 189.281 114.655 191.66 114.655V110.655C191.534 110.655 191.387 110.601 191.27 110.488C191.162 110.383 191.104 110.254 191.104 110.101H187.104ZM191.66 114.655H245.595V110.655H191.66V114.655ZM245.595 114.655C248.22 114.655 250.152 112.483 250.152 110.101H246.152C246.152 110.225 246.098 110.371 245.985 110.488C245.88 110.596 245.749 110.655 245.595 110.655V114.655ZM250.152 110.101V91.3719H246.152V110.101H250.152ZM250.152 91.3719C250.152 88.9898 248.22 86.8179 245.595 86.8179V90.8179C245.749 90.8179 245.88 90.8771 245.985 90.9849C246.098 91.102 246.152 91.2482 246.152 91.3719H250.152ZM486.535 58.967H460.359V62.967H486.535V58.967ZM460.359 58.967C457.734 58.967 455.802 61.139 455.802 63.5211H459.802C459.802 63.3973 459.856 63.2511 459.969 63.134C460.074 63.0262 460.204 62.967 460.359 62.967V58.967ZM455.802 63.5211V110.101H459.802V63.5211H455.802ZM455.802 110.101C455.802 112.729 457.98 114.655 460.359 114.655V110.655C460.233 110.655 460.086 110.601 459.969 110.488C459.861 110.383 459.802 110.254 459.802 110.101H455.802ZM460.359 114.655H486.535V110.655H460.359V114.655ZM486.535 114.655C489.16 114.655 491.092 112.483 491.092 110.101H487.092C487.092 110.225 487.038 110.371 486.925 110.488C486.82 110.596 486.69 110.655 486.535 110.655V114.655ZM491.092 110.101V63.5211H487.092V110.101H491.092ZM491.092 63.5211C491.092 60.9551 489.099 58.967 486.535 58.967V62.967C486.753 62.967 486.878 63.0423 486.948 63.1117C487.017 63.1811 487.092 63.3055 487.092 63.5211H491.092ZM449.28 58.967H423.104V62.967H449.28V58.967ZM423.104 58.967C420.479 58.967 418.547 61.1389 418.547 63.5211H422.547C422.547 63.3974 422.601 63.2511 422.714 63.134C422.819 63.0262 422.949 62.967 423.104 62.967V58.967ZM418.547 63.5211V110.101H422.547V63.5211H418.547ZM418.547 110.101C418.547 112.729 420.725 114.655 423.104 114.655V110.655C422.978 110.655 422.831 110.601 422.714 110.488C422.606 110.383 422.547 110.254 422.547 110.101H418.547ZM423.104 114.655H449.28V110.655H423.104V114.655ZM449.28 114.655C451.905 114.655 453.837 112.483 453.837 110.101H449.837C449.837 110.225 449.783 110.371 449.67 110.488C449.565 110.596 449.435 110.655 449.28 110.655V114.655ZM453.837 110.101V63.5211H449.837V110.101H453.837ZM453.837 63.5211C453.837 60.9551 451.844 58.967 449.28 58.967V62.967C449.498 62.967 449.623 63.0423 449.693 63.1117C449.762 63.1811 449.837 63.3055 449.837 63.5211H453.837ZM411.66 58.967H385.484V62.967H411.66V58.967ZM385.484 58.967C382.859 58.967 380.927 61.139 380.927 63.5211H384.927C384.927 63.3974 384.981 63.2511 385.094 63.134C385.198 63.0262 385.329 62.967 385.484 62.967V58.967ZM380.927 63.5211V110.101H384.927V63.5211H380.927ZM380.927 110.101C380.927 112.729 383.104 114.655 385.484 114.655V110.655C385.358 110.655 385.211 110.601 385.093 110.488C384.985 110.383 384.927 110.254 384.927 110.101H380.927ZM385.484 114.655H411.66V110.655H385.484V114.655ZM411.66 114.655C414.285 114.655 416.216 112.483 416.216 110.101H412.216C412.216 110.225 412.163 110.371 412.049 110.488C411.945 110.596 411.814 110.655 411.66 110.655V114.655ZM416.216 110.101V63.5211H412.216V110.101H416.216ZM416.209 63.6873C416.447 60.8384 414.054 58.967 411.66 58.967V62.967C411.895 62.967 412.059 63.0554 412.141 63.1347C412.181 63.1725 412.2 63.2063 412.21 63.2318C412.219 63.2546 412.229 63.2916 412.223 63.3548L416.209 63.6873ZM374.039 58.967H320.105V62.967H374.039V58.967ZM320.105 58.967C317.48 58.967 315.548 61.139 315.548 63.5211H319.548C319.548 63.3974 319.602 63.2511 319.715 63.134C319.82 63.0262 319.95 62.967 320.105 62.967V58.967ZM315.548 63.5211V82.2504H319.548V63.5211H315.548ZM315.548 82.2504C315.548 84.8777 317.725 86.8045 320.105 86.8045V82.8045C319.979 82.8045 319.832 82.7502 319.714 82.6368C319.606 82.5325 319.548 82.4029 319.548 82.2504H315.548ZM320.105 86.8045H374.039V82.8045H320.105V86.8045ZM374.039 86.8045C376.664 86.8045 378.596 84.6326 378.596 82.2504H374.596C374.596 82.3741 374.543 82.5204 374.429 82.6375C374.325 82.7453 374.194 82.8045 374.039 82.8045V86.8045ZM378.596 82.2504V63.5211H374.596V82.2504H378.596ZM378.596 63.5211C378.596 60.8937 376.419 58.967 374.039 58.967V62.967C374.165 62.967 374.313 63.0213 374.43 63.1347C374.538 63.2391 374.596 63.3686 374.596 63.5211H378.596ZM374.039 86.8179H320.105V90.8179H374.039V86.8179ZM320.105 86.8179C317.48 86.8179 315.548 88.9898 315.548 91.3719H319.548C319.548 91.2482 319.602 91.1019 319.715 90.9848C319.819 90.8771 319.95 90.8179 320.105 90.8179V86.8179ZM315.548 91.3719V110.101H319.548V91.3719H315.548ZM315.548 110.101C315.548 112.729 317.725 114.655 320.105 114.655V110.655C319.979 110.655 319.832 110.601 319.714 110.488C319.606 110.383 319.548 110.254 319.548 110.101H315.548ZM320.105 114.655H374.039V110.655H320.105V114.655ZM374.039 114.655C376.664 114.655 378.596 112.483 378.596 110.101H374.596C374.596 110.225 374.543 110.371 374.429 110.488C374.325 110.596 374.194 110.655 374.039 110.655V114.655ZM378.596 110.101V91.3719H374.596V110.101H378.596ZM378.596 91.3719C378.596 88.9274 376.481 86.8179 374.039 86.8179V90.8179C374.103 90.8179 374.253 90.8544 374.407 91.0082C374.561 91.1621 374.596 91.3103 374.596 91.3719H378.596ZM112.037 59.6833H121.899V55.6833H112.037V59.6833ZM119.899 57.6833V67.5345H123.899V57.6833H119.899ZM121.899 65.5345H112.037V69.5345H121.899V65.5345ZM114.037 67.5345V57.6833H110.037V67.5345H114.037ZM96.6973 59.6833H106.559V55.6833H96.6973V59.6833ZM104.559 57.6833V67.5345H108.559V57.6833H104.559ZM106.559 65.5345H96.6973V69.5345H106.559V65.5345ZM98.6973 67.5345V57.6833H94.6973V67.5345H98.6973ZM81.4785 59.9265H91.3401V55.9265H81.4785V59.9265ZM89.3401 57.9265V67.7776H93.3401V57.9265H89.3401ZM91.3401 65.7776H81.4785V69.7776H91.3401V65.7776ZM83.4785 67.7776V57.9265H79.4785V67.7776H83.4785ZM66.2598 59.9265H76.1214V55.9265H66.2598V59.9265ZM74.1214 57.9265V67.7776H78.1214V57.9265H74.1214ZM76.1214 65.7776H66.2598V69.7776H76.1214V65.7776ZM68.2598 67.7776V57.9265H64.2598V67.7776H68.2598ZM22.6738 101.034H109.115V97.0339H22.6738V101.034ZM79.4785 2.22485V48.4402H83.4785V2.22485H79.4785Z" fill="#2C373D"/>
</svg>
