<svg width="170" height="38" viewBox="0 0 170 38" fill="none" xmlns="http://www.w3.org/2000/svg">
<path d="M167.764 5.6678C161.068 1.65436 152.789 1.53273 145.971 5.42454L144.632 6.15427C137.692 10.0461 129.292 9.92447 122.474 5.6678C115.9 1.65436 107.742 1.2895 100.924 4.93807L97.759 6.64074C90.9411 10.2893 82.784 9.92448 76.2095 5.91105L75.9661 5.78942C70.4874 2.38409 63.7912 1.65435 57.8255 3.60026C54.4166 4.69483 50.8859 5.0597 47.3552 5.0597H2.91699M135.744 32.0593L134.405 32.789C127.465 36.6808 119.065 36.5592 112.247 32.3026C105.672 28.2891 97.5153 27.9243 90.6974 31.5728C88.6277 32.6674 86.3144 33.2755 84.0012 33.2755H43.0938" stroke="#008DD2" stroke-width="4" stroke-miterlimit="10" stroke-linecap="round" stroke-linejoin="round"/>
</svg>
