<svg width="275" height="85" viewBox="0 0 275 85" fill="none" xmlns="http://www.w3.org/2000/svg">
<path d="M249.76 78.8466V80.3466C249.781 80.3466 249.802 80.3461 249.823 80.3453L249.76 78.8466ZM186.086 78.8466V77.3466C185.258 77.3466 184.586 78.0181 184.586 78.8466H186.086ZM128.986 78.8466H130.486C130.486 78.4397 130.321 78.0504 130.028 77.7677C129.736 77.4851 129.341 77.3334 128.934 77.3475L128.986 78.8466ZM88.9308 75.8061L88.5484 77.2565C88.5538 77.258 88.5592 77.2594 88.5647 77.2607L88.9308 75.8061ZM68.1118 68.8738L67.5579 70.2678L67.565 70.2706L68.1118 68.8738ZM14.1773 50.7525L13.9524 49.2694C13.2421 49.3772 12.7079 49.9734 12.6785 50.6912C12.6492 51.4091 13.133 52.0469 13.8322 52.2123L14.1773 50.7525ZM23.5519 38.7122L22.1638 39.2807C22.1667 39.2877 22.1696 39.2946 22.1726 39.3016L23.5519 38.7122ZM7.35938 1.98315L7.47109 0.48732C6.94452 0.447993 6.43605 0.688434 6.13233 1.12039C5.82862 1.55234 5.77439 2.11217 5.98956 2.59438L7.35938 1.98315ZM20.3865 2.95609L20.2747 4.45194L20.2797 4.45229L20.3865 2.95609ZM34.0223 9.15869L33.0351 10.2881L33.0383 10.2908L34.0223 9.15869ZM262.057 56.9551L260.817 57.7992C260.99 58.0527 261.236 58.2473 261.522 58.3566L262.057 56.9551ZM268.753 59.5091L268.219 60.9106C268.225 60.9129 268.23 60.9151 268.236 60.9173L268.753 59.5091ZM148.222 68.7521H146.722C146.722 69.4779 147.241 70.0997 147.956 70.2283L148.222 68.7521ZM148.222 62.3063L147.979 60.826C147.254 60.9448 146.722 61.5714 146.722 62.3063H148.222ZM179.876 68.5089H178.376C178.376 68.5328 178.377 68.5566 178.378 68.5804L179.876 68.5089ZM163.318 58.2927V56.7927C162.49 56.7927 161.818 57.4643 161.818 58.2927H163.318ZM171.963 58.2927H173.463C173.463 57.4643 172.791 56.7927 171.963 56.7927V58.2927ZM171.963 73.1303V74.6303C172.791 74.6303 173.463 73.9587 173.463 73.1303H171.963ZM163.318 73.1303H161.818C161.818 73.9587 162.49 74.6303 163.318 74.6303V73.1303ZM63.3634 61.4548L63.7067 62.9151L63.7168 62.9127L63.7269 62.9102L63.3634 61.4548ZM66.1637 61.5765L66.7152 60.1816L66.6465 60.1544L66.5754 60.1341L66.1637 61.5765ZM115.594 73.6168L115.594 72.1168L115.585 72.1168L115.594 73.6168ZM120.098 78.8464L120.118 80.3463L121.529 80.328L121.596 78.9178L120.098 78.8464ZM83.9389 74.3465L84.3332 72.8992L84.3232 72.8966L83.9389 74.3465ZM57.0325 64.617L56.3623 65.9589L56.4053 65.9804L56.4496 65.9991L57.0325 64.617ZM57.1543 62.9143L56.8111 61.4541L56.7766 61.4622L56.7426 61.4719L57.1543 62.9143ZM129.426 74.6055C128.763 75.1022 128.628 76.0423 129.125 76.7053C129.621 77.3683 130.562 77.5031 131.225 77.0064L129.426 74.6055ZM131.786 74.7114L130.887 73.5109L130.887 73.5109L131.786 74.7114ZM174.885 74.6304C175.714 74.6304 176.385 73.9588 176.385 73.1304C176.385 72.3019 175.714 71.6304 174.885 71.6304V74.6304ZM132.272 59.2659L132.636 60.7212C132.696 60.7061 132.755 60.6873 132.813 60.6649L132.272 59.2659ZM158.692 49.0498L159.233 50.4488C159.907 50.1883 160.299 49.4847 160.166 48.7746C160.034 48.0646 159.414 47.5498 158.692 47.5498V49.0498ZM210.922 52.9416L210.724 51.4547L210.715 51.456L210.922 52.9416ZM210.435 46.0093L210.24 44.5221C209.456 44.6251 208.887 45.3185 208.938 46.1073C208.99 46.896 209.645 47.5093 210.435 47.5093V46.0093ZM210.557 46.0093L210.788 47.4914C211.562 47.3707 212.113 46.6745 212.052 45.8934C211.992 45.1123 211.34 44.5093 210.557 44.5093V46.0093ZM13.5684 50.7525L13.3953 49.2625C12.8665 49.3239 12.4099 49.661 12.1954 50.1483C11.981 50.6355 12.0409 51.1999 12.3528 51.6313L13.5684 50.7525ZM24.0387 49.5363L23.9948 48.0369C23.9516 48.0382 23.9086 48.0413 23.8657 48.0463L24.0387 49.5363ZM61.4155 48.4417L61.4594 49.9411L61.469 49.9408L61.4155 48.4417ZM62.0242 53.5497L62.0658 55.0492L62.0747 55.0489L62.0242 53.5497ZM25.9867 54.0362L25.942 55.5355L25.9496 55.5357L25.9867 54.0362ZM15.1511 52.9416L13.9355 53.8205C14.1238 54.0808 14.3906 54.2739 14.6967 54.3712L15.1511 52.9416ZM92.0957 65.8332L91.8135 64.36C91.1099 64.4948 90.5998 65.1084 90.5957 65.8248C90.5917 66.5412 91.0948 67.1604 91.7968 67.3032L92.0957 65.8332ZM135.316 64.1306L134.974 65.5911L134.976 65.5914L135.316 64.1306ZM133.247 69.117L133.362 70.6126L133.364 70.6124L133.247 69.117ZM1.63672 52.4551L1.04637 51.0762C0.436223 51.3374 0.0702763 51.9685 0.146694 52.6278C0.223112 53.2871 0.723725 53.8178 1.37745 53.9325L1.63672 52.4551ZM29.2736 50.1444L28.9523 51.6096L28.9649 51.6122L29.2736 50.1444ZM28.0562 53.6713L27.8758 52.1822L27.8703 52.1829L28.0562 53.6713ZM223.828 63.0361H222.328H223.828ZM9.79395 7.45605L9.86877 5.95792C9.34762 5.93189 8.85039 6.17856 8.55582 6.60926C8.26125 7.03996 8.21168 7.5928 8.42491 8.06904L9.79395 7.45605ZM24.769 40.9014L23.4 41.5144C23.6416 42.054 24.1777 42.4014 24.769 42.4014V40.9014ZM40.4746 38.5906L39.1901 39.3654C39.1943 39.3724 39.1986 39.3793 39.2029 39.3862L40.4746 38.5906ZM23.308 10.1317L24.5924 9.35691C24.5861 9.34645 24.5797 9.33606 24.5731 9.32576L23.308 10.1317ZM19.5338 7.94252L19.459 9.44066C19.4839 9.4419 19.5089 9.44252 19.5338 9.44252L19.5338 7.94252ZM35.7263 33.1582C36.5547 33.1582 37.2263 32.4866 37.2263 31.6582C37.2263 30.8298 36.5547 30.1582 35.7263 30.1582V33.1582ZM33.4131 30.1582C32.5847 30.1582 31.9131 30.8298 31.9131 31.6582C31.9131 32.4866 32.5847 33.1582 33.4131 33.1582V30.1582ZM27.448 18.9287C28.2764 18.9287 28.948 18.2571 28.948 17.4287C28.948 16.6003 28.2764 15.9287 27.448 15.9287V18.9287ZM25.1348 15.9287C24.3063 15.9287 23.6348 16.6003 23.6348 17.4287C23.6348 18.2571 24.3063 18.9287 25.1348 18.9287V15.9287ZM249.76 77.3466H186.086V80.3466H249.76V77.3466ZM184.586 78.8466C184.586 80.2641 183.376 81.4816 182.068 81.4816V84.4816C185.144 84.4816 187.586 81.8074 187.586 78.8466H184.586ZM182.068 81.4816H133.004V84.4816H182.068V81.4816ZM133.004 81.4816C131.639 81.4816 130.486 80.3274 130.486 78.9682H127.486C127.486 81.9872 129.985 84.4816 133.004 84.4816V81.4816ZM130.486 78.9682V78.8466H127.486V78.9682H130.486ZM128.986 78.8466C128.934 77.3475 128.934 77.3475 128.934 77.3475C128.934 77.3475 128.934 77.3475 128.934 77.3475C128.933 77.3475 128.932 77.3475 128.931 77.3476C128.928 77.3477 128.924 77.3478 128.918 77.348C128.907 77.3484 128.89 77.3489 128.867 77.3497C128.822 77.3511 128.753 77.3532 128.663 77.3558C128.482 77.361 128.214 77.3682 127.866 77.3759C127.17 77.3915 126.156 77.4094 124.891 77.4188C122.359 77.4377 118.823 77.4226 114.807 77.2866C106.748 77.0137 96.866 76.2566 89.2969 74.3515L88.5647 77.2607C96.4576 79.2474 106.604 80.0105 114.706 80.2849C118.772 80.4226 122.35 80.4379 124.913 80.4187C126.195 80.4092 127.223 80.391 127.933 80.3752C128.287 80.3673 128.562 80.3599 128.749 80.3546C128.843 80.3519 128.914 80.3497 128.963 80.3481C128.987 80.3474 129.005 80.3468 129.018 80.3463C129.024 80.3461 129.029 80.346 129.032 80.3459C129.034 80.3458 129.035 80.3458 129.036 80.3457C129.037 80.3457 129.037 80.3457 129.037 80.3457C129.038 80.3457 129.038 80.3457 128.986 78.8466ZM89.3131 74.3556C80.6192 72.0638 77.6325 70.9901 68.6587 67.477L67.565 70.2706C76.61 73.8115 79.7106 74.9268 88.5484 77.2565L89.3131 74.3556ZM68.6658 67.4798C51.9466 60.8358 38.4254 56.2925 29.0771 53.4086C24.4029 51.9666 20.7717 50.9394 18.3054 50.2719C17.0722 49.9381 16.1302 49.6942 15.4947 49.5333C15.1769 49.4528 14.9357 49.3932 14.773 49.3534C14.6917 49.3335 14.63 49.3185 14.5881 49.3085C14.5672 49.3034 14.5513 49.2996 14.5403 49.297C14.5348 49.2957 14.5306 49.2947 14.5276 49.294C14.5261 49.2936 14.5249 49.2933 14.5241 49.2931C14.5236 49.293 14.5232 49.2929 14.523 49.2929C14.5227 49.2928 14.5224 49.2927 14.1773 50.7525C13.8322 52.2123 13.8321 52.2122 13.832 52.2122C13.8321 52.2122 13.8322 52.2123 13.8324 52.2123C13.8328 52.2124 13.8335 52.2126 13.8345 52.2128C13.8365 52.2133 13.8398 52.2141 13.8444 52.2152C13.8534 52.2173 13.8675 52.2207 13.8865 52.2253C13.9246 52.2344 13.9825 52.2484 14.06 52.2674C14.215 52.3053 14.4485 52.3631 14.7584 52.4416C15.3784 52.5985 16.3045 52.8382 17.5215 53.1677C19.9556 53.8265 23.5532 54.844 28.1927 56.2753C37.4719 59.1379 50.9181 63.6553 67.5579 70.2678L68.6658 67.4798ZM14.1773 50.7525C14.4022 52.2355 14.4028 52.2355 14.4034 52.2354C14.4037 52.2353 14.4044 52.2352 14.405 52.2351C14.4061 52.2349 14.4075 52.2347 14.4091 52.2345C14.4122 52.234 14.4162 52.2334 14.421 52.2326C14.4306 52.2311 14.4434 52.2291 14.4594 52.2264C14.4913 52.2212 14.5359 52.2137 14.592 52.2037C14.7043 52.1837 14.8633 52.1538 15.0611 52.1126C15.4561 52.0302 16.0093 51.9018 16.6572 51.7148C17.9412 51.3443 19.6519 50.7286 21.2466 49.7509C22.8341 48.7776 24.4196 47.3754 25.2651 45.388C26.1318 43.3509 26.1271 40.9215 24.9313 38.1228L22.1726 39.3016C23.1073 41.4893 22.9961 43.0581 22.5046 44.2135C21.9918 45.4186 20.9673 46.4032 19.6785 47.1934C18.3969 47.9791 16.965 48.5036 15.8255 48.8324C15.2615 48.9951 14.7827 49.1061 14.4487 49.1758C14.282 49.2105 14.1521 49.2348 14.0667 49.25C14.0241 49.2576 13.9925 49.2629 13.9732 49.2661C13.9635 49.2677 13.9568 49.2687 13.9533 49.2693C13.9516 49.2696 13.9506 49.2697 13.9505 49.2697C13.9504 49.2698 13.9505 49.2697 13.9508 49.2697C13.951 49.2697 13.9514 49.2696 13.9515 49.2696C13.9519 49.2695 13.9524 49.2694 14.1773 50.7525ZM24.94 38.1437C23.8339 35.4426 19.7736 26.2333 16.0051 17.733C14.1176 13.4754 12.2987 9.3852 10.9516 6.35948C10.2781 4.84659 9.72251 3.59977 9.33531 2.73115C9.1417 2.29683 8.99019 1.95707 8.88707 1.72586C8.83551 1.61025 8.79605 1.52179 8.76948 1.46222C8.75619 1.43243 8.74612 1.40987 8.73937 1.39475C8.736 1.38719 8.73346 1.38149 8.73176 1.37767C8.73091 1.37577 8.73027 1.37433 8.72984 1.37337C8.72962 1.3729 8.72946 1.37253 8.72936 1.37229C8.72925 1.37205 8.72919 1.37193 7.35938 1.98315C5.98956 2.59438 5.98961 2.5945 5.98971 2.59473C5.98982 2.59497 5.98998 2.59533 5.99019 2.5958C5.99061 2.59675 5.99125 2.59817 5.9921 2.60007C5.99379 2.60386 5.99632 2.60955 5.99969 2.61709C6.00642 2.63217 6.01647 2.65469 6.02974 2.68444C6.05628 2.74393 6.0957 2.83232 6.14722 2.94784C6.25027 3.17888 6.4017 3.51847 6.59522 3.95259C6.98226 4.82084 7.53764 6.06722 8.21095 7.57961C9.5576 10.6045 11.3759 14.6931 13.2626 18.9489C17.0426 27.4753 21.0785 36.6305 22.1638 39.2807L24.94 38.1437ZM7.24766 3.47899L20.2747 4.45193L20.4982 1.46026L7.47109 0.48732L7.24766 3.47899ZM20.2797 4.45229C24.9758 4.78737 29.3052 7.02788 33.0351 10.2881L35.0095 8.0293C30.9475 4.47882 26.024 1.85453 20.4932 1.4599L20.2797 4.45229ZM33.0383 10.2908C43.1013 19.0373 50.408 25.6915 56.071 30.7719C61.7127 35.8332 65.7722 39.3786 69.2769 41.827C72.8254 44.3059 75.8533 45.696 79.4479 46.4406C82.9782 47.1719 87.0006 47.2661 92.4615 47.2661V44.2661C86.9651 44.2661 83.2412 44.1627 80.0564 43.503C76.9358 42.8566 74.2796 41.6622 70.9949 39.3676C67.6665 37.0424 63.7439 33.6251 58.0744 28.5388C52.4262 23.4716 45.0926 16.7933 35.0063 8.02656L33.0383 10.2908ZM92.4615 47.2661C106.399 47.2661 129.346 47.3269 152.677 47.3877C176.007 47.4485 199.719 47.5094 215.184 47.5094V44.5094C199.724 44.5094 176.016 44.4486 152.685 44.3877C129.356 44.3269 106.404 44.2661 92.4615 44.2661V47.2661ZM215.184 47.5094C221.949 47.5094 231.457 47.2092 240.337 48.408C249.303 49.6184 257.07 52.2949 260.817 57.7992L263.297 56.111C258.765 49.4533 249.791 46.657 240.739 45.435C231.601 44.2014 221.811 44.5094 215.184 44.5094V47.5094ZM261.522 58.3566L268.219 60.9106L269.288 58.1076L262.592 55.5536L261.522 58.3566ZM268.236 60.9173C269.265 61.2946 270.388 62.3529 271.053 63.8811C271.701 65.3729 271.851 67.1828 271.111 68.9686C269.642 72.5144 264.244 76.745 249.698 77.3479L249.823 80.3453C264.619 79.732 271.699 75.3884 273.883 70.1167C274.969 67.4939 274.738 64.8342 273.804 62.6851C272.886 60.5723 271.224 58.8182 269.27 58.1009L268.236 60.9173ZM264.005 56.1846H249.882V59.1846H264.005V56.1846ZM249.882 56.1846C249.954 56.1846 250.012 56.2034 250.048 56.2218C250.081 56.2389 250.09 56.2524 250.086 56.2466C250.081 56.241 250.069 56.2246 250.059 56.1967C250.049 56.1697 250.043 56.1379 250.043 56.1036H247.043C247.043 57.5331 248.093 59.1846 249.882 59.1846V56.1846ZM250.043 56.1036V54.0361H247.043V56.1036H250.043ZM250.043 54.0361C250.043 54.1689 250.004 54.315 249.894 54.456C249.771 54.6132 249.515 54.8064 249.152 54.8064V51.8064C248.423 51.8064 247.862 52.182 247.527 52.6129C247.204 53.0274 247.043 53.5385 247.043 54.0361H250.043ZM249.152 54.8064H258.405V51.8064H249.152V54.8064ZM155.914 68.6137L148.488 67.2759L147.956 70.2283L155.382 71.5662L155.914 68.6137ZM149.722 68.7521V62.3063H146.722V68.7521H149.722ZM148.464 63.7866L155.891 62.5704L155.406 59.6098L147.979 60.826L148.464 63.7866ZM175.128 71.7521H161.37V74.7521H175.128V71.7521ZM161.37 71.7521C158.058 71.7521 155.444 69.1385 155.444 65.8333H152.444C152.444 70.7983 156.404 74.7521 161.37 74.7521V71.7521ZM155.444 65.8333C155.444 62.5282 158.058 59.9146 161.37 59.9146V56.9146C156.404 56.9146 152.444 60.8684 152.444 65.8333H155.444ZM161.37 59.9146H175.128V56.9146H161.37V59.9146ZM175.128 59.9146C176.955 59.9146 178.376 61.4085 178.376 63.1577H181.376C181.376 59.7989 178.658 56.9146 175.128 56.9146V59.9146ZM178.376 63.1577V68.5089H181.376V63.1577H178.376ZM178.378 68.5804C178.456 70.2092 177.021 71.7521 175.128 71.7521V74.7521C178.592 74.7521 181.54 71.9167 181.375 68.4375L178.378 68.5804ZM163.318 59.7927H171.963V56.7927H163.318V59.7927ZM170.463 58.2927V73.1303H173.463V58.2927H170.463ZM171.963 71.6303H163.318V74.6303H171.963V71.6303ZM164.818 73.1303V58.2927H161.818V73.1303H164.818ZM105.664 66.8673L156.311 47.2865L155.229 44.4884L104.582 64.0691L105.664 66.8673ZM63.7269 62.9102C64.3586 62.7524 65.0491 62.8183 65.752 63.0189L66.5754 60.1341C65.5738 59.8482 64.3163 59.6708 63 59.9995L63.7269 62.9102ZM65.6121 62.9714C71.349 65.2398 92.5999 75.2403 115.602 75.1168L115.585 72.1168C93.2968 72.2365 72.6662 62.5346 66.7152 60.1816L65.6121 62.9714ZM115.594 75.1168C116.402 75.1168 117.157 75.516 117.734 76.2223C118.319 76.9391 118.642 77.8873 118.6 78.775L121.596 78.9178C121.676 77.2516 121.086 75.5849 120.058 74.3253C119.021 73.0554 117.463 72.1168 115.594 72.1168V75.1168ZM120.098 78.8464C120.079 77.3465 120.079 77.3465 120.079 77.3465C120.079 77.3465 120.079 77.3465 120.079 77.3465C120.078 77.3465 120.078 77.3465 120.077 77.3466C120.075 77.3466 120.072 77.3466 120.068 77.3467C120.06 77.3467 120.048 77.3469 120.031 77.347C119.997 77.3473 119.945 77.3477 119.877 77.348C119.74 77.3486 119.534 77.3489 119.266 77.3476C118.729 77.345 117.938 77.3362 116.934 77.3108C114.926 77.26 112.065 77.1433 108.663 76.8796C101.85 76.3515 92.913 75.2367 84.3332 72.8992L83.5446 75.7937C92.3749 78.1994 101.517 79.3346 108.431 79.8706C111.893 80.139 114.807 80.258 116.859 80.3098C117.885 80.3358 118.695 80.3449 119.251 80.3476C119.529 80.3489 119.744 80.3486 119.89 80.348C119.963 80.3476 120.019 80.3472 120.057 80.3469C120.076 80.3467 120.091 80.3466 120.101 80.3465C120.106 80.3464 120.11 80.3464 120.113 80.3463C120.114 80.3463 120.115 80.3463 120.116 80.3463C120.116 80.3463 120.117 80.3463 120.117 80.3463C120.117 80.3463 120.118 80.3463 120.098 78.8464ZM84.3232 72.8966C72.513 69.7666 63.118 65.5557 57.6155 63.2349L56.4496 65.9991C61.9045 68.2998 71.5022 72.6022 83.5547 75.7964L84.3232 72.8966ZM57.7028 63.275C57.9016 63.3743 58.0073 63.5829 57.9985 63.7852C57.9938 63.8923 57.9573 64.0209 57.8668 64.1399C57.7703 64.2667 57.6503 64.3326 57.566 64.3567L56.7426 61.4719C55.654 61.7826 55.0427 62.7042 55.0013 63.6548C54.9621 64.5564 55.433 65.4948 56.3623 65.9589L57.7028 63.275ZM57.4975 64.3745L63.7067 62.9151L63.0202 59.9946L56.8111 61.4541L57.4975 64.3745ZM131.225 77.0064L132.686 75.9118L130.887 73.5109L129.426 74.6055L131.225 77.0064ZM132.686 75.9118C133.887 75.0118 135.032 74.6304 136.534 74.6304V71.6304C134.384 71.6304 132.607 72.2218 130.887 73.5109L132.686 75.9118ZM136.534 74.6304H174.885V71.6304H136.534V74.6304ZM120.828 61.0091H130.812V58.0091H120.828V61.0091ZM130.812 61.0091C131.515 61.0091 132.184 60.834 132.636 60.7212L131.909 57.8106C131.387 57.941 131.082 58.0091 130.812 58.0091V61.0091ZM132.813 60.6649L159.233 50.4488L158.151 47.6508L131.731 57.8668L132.813 60.6649ZM158.692 47.5498H147.734V50.5498H158.692V47.5498ZM137.422 69.4678C161.457 62.7985 185.011 58.0678 211.129 54.4272L210.715 51.456C184.482 55.1125 160.797 59.8682 136.62 66.577L137.422 69.4678ZM211.12 54.4285C212.811 54.2032 214.136 53.4795 214.989 52.3896C215.833 51.3115 216.117 49.9973 215.955 48.7762C215.629 46.3267 213.459 44.0989 210.24 44.5221L210.631 47.4965C212.037 47.3116 212.85 48.1851 212.981 49.1714C213.047 49.6681 212.928 50.1554 212.627 50.5406C212.335 50.9139 211.772 51.3151 210.724 51.4547L211.12 54.4285ZM210.435 47.5093H210.557V44.5093H210.435V47.5093ZM210.326 44.5272C181.383 49.041 157.068 55.3868 135.191 62.9563L136.172 65.7914C157.881 58.28 182.022 51.9775 210.788 47.4914L210.326 44.5272ZM13.7414 52.2425L24.2118 51.0263L23.8657 48.0463L13.3953 49.2625L13.7414 52.2425ZM24.0826 51.0357L61.4594 49.9411L61.3716 46.9424L23.9948 48.0369L24.0826 51.0357ZM61.469 49.9408C63.917 49.8534 65.7293 50.0992 66.9004 50.466C67.4887 50.6503 67.8548 50.8465 68.0539 50.9973C68.2635 51.156 68.175 51.1726 68.1417 50.986C68.0984 50.7439 68.2232 50.6196 68.172 50.6768C68.0972 50.7605 67.8697 50.9485 67.3581 51.1632C66.344 51.5888 64.5919 51.9624 61.9737 52.0506L62.0747 55.0489C64.8744 54.9546 67.0334 54.5529 68.519 53.9295C69.2572 53.6197 69.9267 53.2149 70.4078 52.6771C70.9125 52.113 71.2523 51.3388 71.0949 50.4581C70.9474 49.6331 70.4156 49.0226 69.8648 48.6055C69.3035 48.1805 68.5919 47.8522 67.7972 47.6032C66.2023 47.1036 64.0274 46.8476 61.362 46.9427L61.469 49.9408ZM61.9826 52.0503C57.5654 52.1729 40.7038 52.9002 26.0238 52.5367L25.9496 55.5357C40.7327 55.9019 57.7171 55.1698 62.0658 55.0491L61.9826 52.0503ZM26.0314 52.5369C21.9989 52.4166 19.3474 52.1468 17.7238 51.913C16.9123 51.7962 16.3594 51.6886 16.0206 51.6138C15.8512 51.5763 15.7356 51.5472 15.6682 51.5292C15.6345 51.5203 15.6129 51.5141 15.6027 51.5111C15.5976 51.5096 15.5953 51.5089 15.5958 51.5091C15.596 51.5091 15.597 51.5094 15.5986 51.5099C15.5994 51.5102 15.6004 51.5105 15.6015 51.5109C15.6021 51.511 15.6027 51.5112 15.6034 51.5114C15.6037 51.5115 15.6042 51.5117 15.6044 51.5118C15.6049 51.5119 15.6055 51.5121 15.1511 52.9416C14.6967 54.3712 14.6973 54.3713 14.6979 54.3715C14.6981 54.3716 14.6987 54.3718 14.6991 54.3719C14.6999 54.3722 14.7008 54.3724 14.7017 54.3727C14.7035 54.3733 14.7054 54.3739 14.7076 54.3746C14.7118 54.3759 14.7167 54.3774 14.7223 54.3791C14.7334 54.3825 14.7472 54.3866 14.7637 54.3914C14.7967 54.401 14.8405 54.4134 14.896 54.4281C15.007 54.4577 15.1644 54.4969 15.3736 54.5432C15.7918 54.6355 16.4184 54.756 17.2962 54.8824C19.051 55.1351 21.8174 55.4125 25.942 55.5355L26.0314 52.5369ZM16.3667 52.0628L14.7839 49.8736L12.3528 51.6313L13.9355 53.8205L16.3667 52.0628ZM92.3779 67.3064C96.7181 66.475 105.493 65.5972 114.193 65.1574C118.531 64.938 122.822 64.8291 126.502 64.8874C130.217 64.9461 133.196 65.1748 134.974 65.5911L135.658 62.6701C133.54 62.1742 130.28 61.9468 126.549 61.8877C122.783 61.8281 118.423 61.9397 114.041 62.1612C105.301 62.6031 96.3609 63.4888 91.8135 64.36L92.3779 67.3064ZM134.976 65.5914C135.681 65.7557 136.119 66.0306 136.338 66.253C136.552 66.4695 136.493 66.5496 136.504 66.4902C136.512 66.4451 136.502 66.6511 135.98 66.938C135.459 67.2248 134.554 67.5099 133.129 67.6215L133.364 70.6124C135.044 70.4807 136.407 70.1274 137.426 69.5666C138.445 69.006 139.249 68.1555 139.455 67.031C139.664 65.8921 139.187 64.8701 138.476 64.1479C137.77 63.4315 136.778 62.9311 135.657 62.6697L134.976 65.5914ZM133.132 67.6214C126.952 68.0962 106.029 67.1355 92.3946 64.3633L91.7968 67.3032C105.678 70.1255 126.88 71.1106 133.362 70.6125L133.132 67.6214ZM2.22706 53.8341C3.32913 53.3623 5.23214 52.8983 7.65567 52.4964C10.044 52.1003 12.8266 51.7817 15.6176 51.5638C18.408 51.3459 21.1865 51.2302 23.5651 51.2358C25.9783 51.2415 27.8724 51.3727 28.9524 51.6095L29.5949 48.6792C28.1791 48.3687 26.0098 48.2415 23.5721 48.2358C21.0997 48.23 18.2397 48.3499 15.3841 48.5729C12.529 48.7958 9.65784 49.1234 7.16486 49.5368C4.70704 49.9444 2.50103 50.4534 1.04637 51.0762L2.22706 53.8341ZM28.9649 51.6122C29.3054 51.6838 29.4855 51.8131 29.5513 51.8805C29.6139 51.9445 29.53 51.8928 29.5497 51.7289C29.5702 51.5586 29.6626 51.5864 29.4467 51.7274C29.2185 51.8763 28.7398 52.0776 27.8758 52.1822L28.2365 55.1604C29.3813 55.0218 30.3485 54.7214 31.0867 54.2394C31.8371 53.7495 32.4165 53.0172 32.5283 52.0867C32.7572 50.1814 31.0653 48.9883 29.5823 48.6765L28.9649 51.6122ZM27.8703 52.1829C26.0476 52.4105 21.7954 52.5062 16.8142 52.3394C11.8552 52.1732 6.30259 51.751 1.89599 50.9777L1.37745 53.9325C5.98025 54.7403 11.6893 55.1694 16.7138 55.3377C21.7159 55.5053 26.1688 55.4186 28.242 55.1597L27.8703 52.1829ZM225.289 63.0767H228.942V60.0767H225.289V63.0767ZM228.942 63.0767C228.975 63.0767 228.984 63.0824 228.975 63.0789C228.966 63.0753 228.949 63.066 228.932 63.0484C228.914 63.0307 228.904 63.0134 228.901 63.0039C228.897 62.9947 228.903 63.003 228.903 63.0361H231.903C231.903 61.3548 230.621 60.0767 228.942 60.0767V63.0767ZM228.903 63.0361V70.4548H231.903V63.0361H228.903ZM228.903 70.4548C228.903 70.4879 228.897 70.4962 228.901 70.487C228.904 70.4776 228.914 70.4603 228.932 70.4426C228.949 70.4249 228.966 70.4156 228.975 70.412C228.984 70.4086 228.975 70.4143 228.942 70.4143V73.4143C230.621 73.4143 231.903 72.1361 231.903 70.4548H228.903ZM228.942 70.4143H225.289V73.4143H228.942V70.4143ZM225.289 70.4143C225.255 70.4143 225.247 70.4086 225.255 70.412C225.264 70.4156 225.281 70.4249 225.299 70.4426C225.317 70.4603 225.326 70.4776 225.33 70.487C225.334 70.4962 225.328 70.4879 225.328 70.4548H222.328C222.328 72.1361 223.61 73.4143 225.289 73.4143V70.4143ZM225.328 70.4548V63.0361H222.328V70.4548H225.328ZM225.328 63.0361C225.328 63.003 225.334 62.9947 225.33 63.0039C225.326 63.0134 225.317 63.0307 225.299 63.0484C225.281 63.066 225.264 63.0753 225.255 63.0789C225.247 63.0824 225.255 63.0767 225.289 63.0767V60.0767C223.61 60.0767 222.328 61.3548 222.328 63.0361L225.328 63.0361ZM8.42491 8.06904L23.4 41.5144L26.1381 40.2884L11.163 6.84307L8.42491 8.06904ZM24.769 42.4014H39.1353V39.4014H24.769V42.4014ZM39.1353 42.4014C41.4893 42.4014 43.0021 39.8024 41.7462 37.795L39.2029 39.3862C39.2017 39.3842 39.1985 39.3782 39.1961 39.3695C39.1938 39.3612 39.1933 39.3547 39.1934 39.3512C39.1934 39.3461 39.1941 39.3548 39.1851 39.3707C39.1763 39.3862 39.1663 39.3944 39.1618 39.3971C39.1601 39.3982 39.1588 39.3987 39.157 39.3992C39.1556 39.3996 39.1491 39.4014 39.1353 39.4014V42.4014ZM41.759 37.8158L24.5924 9.35691L22.0236 10.9064L39.1901 39.3654L41.759 37.8158ZM24.5731 9.32576C23.4893 7.62438 21.7057 6.44252 19.5338 6.44252V9.44252C20.5274 9.44252 21.4223 9.96335 22.0429 10.9376L24.5731 9.32576ZM19.6086 6.44439L9.86877 5.95792L9.71912 8.95419L19.459 9.44066L19.6086 6.44439ZM35.7263 30.1582H33.4131V33.1582H35.7263V30.1582ZM27.448 15.9287H25.1348V18.9287H27.448V15.9287Z" fill="#2C373D"/>
</svg>
