<svg width="308" height="68" viewBox="0 0 308 68" fill="none" xmlns="http://www.w3.org/2000/svg">
<path d="M145.697 46.9686L141.841 52.7037H115.789L112.815 56.5817H110.667C109.621 56.5817 108.684 55.9263 108.299 54.9977C107.913 54.1784 107.418 53.3591 106.757 52.7037C105.159 50.9558 102.791 49.8088 100.203 49.8088C97.6139 49.8088 95.3006 50.9012 93.6483 52.7037C92.9874 53.4138 92.4917 54.1784 92.1061 55.0524C91.7206 55.9809 90.8393 56.5817 89.7929 56.5817H89.7378C88.6913 56.5817 87.8101 55.9263 87.4245 54.9977C87.0941 54.1784 86.5984 53.3591 85.9925 52.7037C84.3953 50.792 81.9719 49.645 79.2731 49.645C76.5743 49.645 74.1509 50.8466 72.5536 52.7037C71.9478 53.4138 71.397 54.2877 71.0665 55.1616C70.7361 56.0355 69.9099 56.5817 68.9736 56.5817H67.156L64.7326 52.7037H47.3281V46.9686H77.9512V43.2544H85.1113V46.9686H133.965V43.2544H140.85V46.9686H145.697Z" fill="white" stroke="#2C373D" stroke-width="2" stroke-miterlimit="10" stroke-linejoin="round"/>
<path d="M228.319 57.2164C228.429 59.4145 226.668 61.2829 224.413 61.2829H219.242V57.8758C219.242 52.6553 214.951 48.2041 209.725 48.314C204.664 48.4239 200.538 52.5454 200.538 57.656V61.2829H170.667V59.3596C170.667 54.139 166.376 49.6878 161.15 49.7428C156.089 49.8527 151.963 53.9742 151.963 59.0848V59.6893C151.963 60.5685 151.248 61.228 150.423 61.228H149.268V51.0617C149.268 48.5888 151.303 46.5555 153.778 46.5555H159.72H167.146H192.176L192.726 13.8036C192.726 12.9793 193.442 12.2649 194.267 12.2649L210.55 13.5838C219.682 14.3531 226.338 21.6618 227.108 30.784L228.319 57.2164ZM222.928 34.0812C223.643 34.0812 224.138 33.4218 224.028 32.7623L222.928 27.4319C222.433 25.014 220.287 23.2555 217.867 23.2555H213.301V34.0812H222.928Z" fill="white"/>
<path d="M224.025 32.7623C224.191 33.4218 223.64 34.0812 222.925 34.0812H213.298V23.2555H217.864C220.34 23.2555 222.43 25.014 222.925 27.4319L224.025 32.7623Z" fill="white"/>
<path d="M224.467 61.2828C226.668 61.2828 228.483 59.4144 228.373 57.2163L227.163 30.8939C226.338 21.8266 219.681 14.463 210.605 13.6936L194.321 12.3748C193.496 12.3748 192.781 13.0342 192.781 13.9134L192.231 46.6654H167.201H159.774H153.833C151.357 46.6654 149.322 48.6986 149.322 51.1715V61.3378H150.477C151.357 61.3378 152.018 60.6234 152.018 59.7991V59.1946C152.018 54.084 156.088 49.9625 161.204 49.8526C166.431 49.7427 170.721 54.1939 170.721 59.4694V61.3927H200.593V57.7658C200.593 52.6552 204.663 48.5338 209.779 48.4239C215.005 48.3139 219.296 52.7651 219.296 57.9857V61.3378H224.467V61.2828Z" fill="white" stroke="#2C373D" stroke-width="2" stroke-miterlimit="10" stroke-linejoin="round"/>
<path d="M213.298 34.0812V23.2555H217.864C220.34 23.2555 222.43 25.014 222.925 27.4319L224.025 32.7623C224.19 33.4218 223.64 34.0812 222.925 34.0812H213.298Z" fill="white" stroke="#2C373D" stroke-width="2" stroke-miterlimit="10" stroke-linejoin="round"/>
<path d="M161.246 64.8319C164.576 64.8319 167.275 61.9905 167.275 58.4855C167.275 54.9805 164.576 52.1392 161.246 52.1392C157.916 52.1392 155.217 54.9805 155.217 58.4855C155.217 61.9905 157.916 64.8319 161.246 64.8319Z" stroke="#2C373D" stroke-width="2" stroke-miterlimit="10" stroke-linejoin="round"/>
<path d="M161.245 61.3221C162.822 61.3221 164.1 60.0435 164.1 58.4662C164.1 56.889 162.822 55.6104 161.245 55.6104C159.667 55.6104 158.389 56.889 158.389 58.4662C158.389 60.0435 159.667 61.3221 161.245 61.3221Z" stroke="#2C373D" stroke-width="2" stroke-miterlimit="10" stroke-linejoin="round"/>
<path d="M210.111 64.8319C213.441 64.8319 216.14 61.9905 216.14 58.4855C216.14 54.9805 213.441 52.1392 210.111 52.1392C206.781 52.1392 204.082 54.9805 204.082 58.4855C204.082 61.9905 206.781 64.8319 210.111 64.8319Z" stroke="#2C373D" stroke-width="2" stroke-miterlimit="10" stroke-linejoin="round"/>
<path d="M210.112 61.3221C211.689 61.3221 212.968 60.0435 212.968 58.4662C212.968 56.889 211.689 55.6104 210.112 55.6104C208.534 55.6104 207.256 56.889 207.256 58.4662C207.256 60.0435 208.534 61.3221 210.112 61.3221Z" stroke="#2C373D" stroke-width="2" stroke-miterlimit="10" stroke-linejoin="round"/>
<path d="M187.447 0.733887H48.6774C47.5751 0.733887 46.6934 1.62077 46.6934 2.72937V42.5282C46.6934 43.6368 47.5751 44.5237 48.6774 44.5237H77.3351H140.327H158.9H166.34H187.502C188.604 44.5237 189.486 43.6368 189.486 42.5282V2.72937C189.486 1.62077 188.549 0.733887 187.447 0.733887ZM84.4996 44.5237H133.438Z" fill="url(#paint0_linear)"/>
<path d="M53.5975 36.9081H51.8452C51.4663 36.9081 51.1348 36.5267 51.1348 36.0908V5.35908C51.1348 4.92317 51.4663 4.54175 51.8452 4.54175H53.5975C53.9764 4.54175 54.3079 4.92317 54.3079 5.35908V36.0908C54.3079 36.5267 54.0238 36.9081 53.5975 36.9081Z" fill="white"/>
<path d="M61.7053 36.9081H59.6025C59.1478 36.9081 58.75 36.5267 58.75 36.0908V5.35908C58.75 4.92317 59.1478 4.54175 59.6025 4.54175H61.7053C62.16 4.54175 62.5578 4.92317 62.5578 5.35908V36.0908C62.5578 36.5267 62.16 36.9081 61.7053 36.9081Z" fill="white"/>
<path d="M69.3225 36.9081H67.2197C66.765 36.9081 66.3672 36.5267 66.3672 36.0908V5.35908C66.3672 4.92317 66.765 4.54175 67.2197 4.54175H69.3225C69.7772 4.54175 70.175 4.92317 70.175 5.35908V36.0908C70.175 36.5267 69.7772 36.9081 69.3225 36.9081Z" fill="white"/>
<path d="M77.5705 36.9081H75.4677C75.0131 36.9081 74.6152 36.5267 74.6152 36.0908V5.35908C74.6152 4.92317 75.0131 4.54175 75.4677 4.54175H77.5705C78.0252 4.54175 78.423 4.92317 78.423 5.35908V36.0908C78.423 36.5267 78.082 36.9081 77.5705 36.9081Z" fill="white"/>
<path d="M85.8206 37.5428H83.7177C83.2631 37.5428 82.8652 37.1539 82.8652 36.7094V5.37511C82.8652 4.93065 83.2631 4.54175 83.7177 4.54175H85.8206C86.2752 4.54175 86.673 4.93065 86.673 5.37511V36.7094C86.673 37.2094 86.2752 37.5428 85.8206 37.5428Z" fill="white"/>
<path d="M94.0725 36.9081H91.9697C91.515 36.9081 91.1172 36.5267 91.1172 36.0908V5.35908C91.1172 4.92317 91.515 4.54175 91.9697 4.54175H94.0725C94.5272 4.54175 94.925 4.92317 94.925 5.35908V36.0908C94.925 36.5267 94.5272 36.9081 94.0725 36.9081Z" fill="white"/>
<path d="M102.465 36.9081H100.712C100.333 36.9081 100.002 36.5267 100.002 36.0908V5.35908C100.002 4.92317 100.333 4.54175 100.712 4.54175H102.465C102.844 4.54175 103.175 4.92317 103.175 5.35908V36.0908C103.175 36.5267 102.844 36.9081 102.465 36.9081Z" fill="white"/>
<path d="M110.715 36.9081H108.962C108.583 36.9081 108.252 36.5267 108.252 36.0908V5.35908C108.252 4.92317 108.583 4.54175 108.962 4.54175H110.715C111.094 4.54175 111.425 4.92317 111.425 5.35908V36.0908C111.425 36.5267 111.094 36.9081 110.715 36.9081Z" fill="white"/>
<path d="M119.459 36.9081H117.356C116.902 36.9081 116.504 36.5267 116.504 36.0908V5.35908C116.504 4.92317 116.902 4.54175 117.356 4.54175H119.459C119.914 4.54175 120.312 4.92317 120.312 5.35908V36.0908C120.312 36.5267 119.914 36.9081 119.459 36.9081Z" fill="white"/>
<path d="M127.074 37.5428H124.972C124.517 37.5428 124.119 37.1539 124.119 36.7094V5.37511C124.119 4.93065 124.517 4.54175 124.972 4.54175H127.074C127.529 4.54175 127.927 4.93065 127.927 5.37511V36.7094C127.927 37.2094 127.529 37.5428 127.074 37.5428Z" fill="white"/>
<path d="M135.324 36.9081H133.222C132.767 36.9081 132.369 36.5267 132.369 36.0908V5.35908C132.369 4.92317 132.767 4.54175 133.222 4.54175H135.324C135.779 4.54175 136.177 4.92317 136.177 5.35908V36.0908C136.177 36.5267 135.779 36.9081 135.324 36.9081Z" fill="white"/>
<path d="M142.94 37.5428H140.837C140.382 37.5428 139.984 37.1539 139.984 36.7094V5.37511C139.984 4.93065 140.382 4.54175 140.837 4.54175H142.94C143.394 4.54175 143.792 4.93065 143.792 5.37511V36.7094C143.792 37.2094 143.451 37.5428 142.94 37.5428Z" fill="white"/>
<path d="M151.19 36.9081H149.087C148.632 36.9081 148.234 36.5267 148.234 36.0908V5.35908C148.234 4.92317 148.632 4.54175 149.087 4.54175H151.19C151.644 4.54175 152.042 4.92317 152.042 5.35908V36.0908C152.042 36.5267 151.644 36.9081 151.19 36.9081Z" fill="white"/>
<path d="M159.44 37.5428H157.337C156.882 37.5428 156.484 37.1539 156.484 36.7094V5.37511C156.484 4.93065 156.882 4.54175 157.337 4.54175H159.44C159.894 4.54175 160.292 4.93065 160.292 5.37511V36.7094C160.292 37.2094 159.951 37.5428 159.44 37.5428Z" fill="white"/>
<path d="M167.197 36.9081H165.445C165.066 36.9081 164.734 36.5267 164.734 36.0908V5.35908C164.734 4.92317 165.066 4.54175 165.445 4.54175H167.197C167.576 4.54175 167.908 4.92317 167.908 5.35908V36.0908C167.908 36.5812 167.576 36.9081 167.197 36.9081Z" fill="white"/>
<path d="M175.307 36.9081H173.204C172.749 36.9081 172.352 36.5267 172.352 36.0908V5.35908C172.352 4.92317 172.749 4.54175 173.204 4.54175H175.307C175.762 4.54175 176.159 4.92317 176.159 5.35908V36.0908C176.159 36.5267 175.762 36.9081 175.307 36.9081Z" fill="white"/>
<path d="M183.557 36.9081H181.454C180.999 36.9081 180.602 36.5267 180.602 36.0908V5.35908C180.602 4.92317 180.999 4.54175 181.454 4.54175H183.557C184.012 4.54175 184.409 4.92317 184.409 5.35908V36.0908C184.409 36.5812 184.012 36.9081 183.557 36.9081Z" fill="white"/>
<path d="M100.32 64.8319C103.65 64.8319 106.349 61.9905 106.349 58.4855C106.349 54.9805 103.65 52.1392 100.32 52.1392C96.9903 52.1392 94.291 54.9805 94.291 58.4855C94.291 61.9905 96.9903 64.8319 100.32 64.8319Z" stroke="#2C373D" stroke-width="2" stroke-miterlimit="10" stroke-linejoin="round"/>
<path d="M100.319 61.3221C101.896 61.3221 103.175 60.0435 103.175 58.4662C103.175 56.889 101.896 55.6104 100.319 55.6104C98.7415 55.6104 97.4629 56.889 97.4629 58.4662C97.4629 60.0435 98.7415 61.3221 100.319 61.3221Z" stroke="#2C373D" stroke-width="2" stroke-miterlimit="10" stroke-linejoin="round"/>
<path d="M79.3767 64.8319C82.7064 64.8319 85.4057 61.9905 85.4057 58.4855C85.4057 54.9805 82.7064 52.1392 79.3767 52.1392C76.0469 52.1392 73.3477 54.9805 73.3477 58.4855C73.3477 61.9905 76.0469 64.8319 79.3767 64.8319Z" stroke="#2C373D" stroke-width="2" stroke-miterlimit="10" stroke-linejoin="round"/>
<path d="M79.3773 61.3221C80.9546 61.3221 82.2332 60.0435 82.2332 58.4662C82.2332 56.889 80.9546 55.6104 79.3773 55.6104C77.8001 55.6104 76.5215 56.889 76.5215 58.4662C76.5215 60.0435 77.8001 61.3221 79.3773 61.3221Z" stroke="#2C373D" stroke-width="2" stroke-miterlimit="10" stroke-linejoin="round"/>
<path d="M306.893 66.1013H36.5391" stroke="#2C373D" stroke-width="2" stroke-miterlimit="10" stroke-linecap="round" stroke-linejoin="round"/>
<path d="M30.8278 66.1013H1" stroke="#2C373D" stroke-width="2" stroke-miterlimit="10" stroke-linecap="round" stroke-linejoin="round"/>
<defs>
<linearGradient id="paint0_linear" x1="46.663" y1="22.6251" x2="189.467" y2="22.6251" gradientUnits="userSpaceOnUse">
<stop stop-color="#1B75BC"/>
<stop offset="1" stop-color="#003C5F"/>
</linearGradient>
</defs>
</svg>
