<svg width="473" height="175" viewBox="0 0 473 175" fill="none" xmlns="http://www.w3.org/2000/svg">
<path d="M207.984 79.1804H324.914" stroke="#074F79" stroke-width="3" stroke-miterlimit="10" stroke-linecap="round" stroke-linejoin="round"/>
<path d="M366.576 52.1992L342.761 80.1069C341.66 81.3807 341.023 82.8862 340.791 84.5652L339.98 91.1079H83.3479C82.8264 91.1079 82.4208 90.7026 82.4208 90.1815V81.6703C82.4208 81.6124 82.4208 81.4965 82.3629 81.4965L71.5854 53.2414C70.6583 50.7517 72.4545 48.1462 75.1199 48.1462H84.1591C84.6806 48.1462 85.0862 47.7409 85.0862 47.2198V25.2178C85.0862 24.6967 85.4918 24.2914 86.0133 24.2914H93.9516C94.473 24.2914 94.8787 23.8861 94.8787 23.365V19.0225C94.8787 18.5014 95.2843 18.0961 95.8058 18.0961H100.152C100.673 18.0961 101.079 18.5014 101.079 19.0225V23.365C101.079 23.8861 101.484 24.2914 102.006 24.2914H131.557C132.078 24.2914 132.484 24.6967 132.484 25.2178V47.2198C132.484 47.7409 132.89 48.1462 133.411 48.1462H139.901C140.364 48.1462 140.77 48.4936 140.77 48.9568C141.176 53.2993 144.884 56.7154 149.346 56.7154H311.356C315.817 56.7154 319.526 53.2993 319.931 48.9568C319.989 48.4936 320.337 48.1462 320.8 48.1462H364.606C366.576 48.0883 367.792 50.4622 366.576 52.1992Z" stroke="#074F79" stroke-width="3" stroke-miterlimit="10" stroke-linejoin="round"/>
<path d="M353.306 58.3366C355.099 58.3366 356.551 56.885 356.551 55.0943C356.551 53.3035 355.099 51.8519 353.306 51.8519C351.514 51.8519 350.062 53.3035 350.062 55.0943C350.062 56.885 351.514 58.3366 353.306 58.3366Z" stroke="#074F79" stroke-width="3"/>
<path d="M217.544 43.2249H191.875C191.18 43.2249 190.659 43.8039 190.659 44.4408V53.3574C190.659 54.0522 191.238 54.5732 191.875 54.5732H217.544C218.24 54.5732 218.761 53.9943 218.761 53.3574V44.4408C218.819 43.8039 218.24 43.2249 217.544 43.2249ZM187.066 29.9658H161.397C160.702 29.9658 160.18 30.5448 160.18 31.1817V40.0983C160.18 40.7931 160.76 41.3142 161.397 41.3142H187.066C187.761 41.3142 188.283 40.7352 188.283 40.0983V31.1817C188.283 30.4869 187.761 29.9658 187.066 29.9658ZM217.544 29.9658H191.875C191.18 29.9658 190.659 30.5448 190.659 31.1817V40.0983C190.659 40.7931 191.238 41.3142 191.875 41.3142H217.544C218.24 41.3142 218.761 40.7352 218.761 40.0983V31.1817C218.819 30.4869 218.24 29.9658 217.544 29.9658ZM187.066 43.2249H161.397C160.702 43.2249 160.18 43.8039 160.18 44.4408V53.3574C160.18 54.0522 160.76 54.5732 161.397 54.5732H187.066C187.761 54.5732 188.283 53.9943 188.283 53.3574V44.4408C188.283 43.8039 187.761 43.2249 187.066 43.2249ZM301.736 29.9658H289.278C288.583 29.9658 288.062 30.5448 288.062 31.1817V53.3574C288.062 54.0522 288.641 54.5732 289.278 54.5732H301.736C302.432 54.5732 302.953 53.9943 302.953 53.3574V31.1817C302.953 30.4869 302.432 29.9658 301.736 29.9658ZM284.006 29.9658H271.548C270.852 29.9658 270.331 30.5448 270.331 31.1817V53.3574C270.331 54.0522 270.91 54.5732 271.548 54.5732H284.006C284.701 54.5732 285.222 53.9943 285.222 53.3574V31.1817C285.222 30.4869 284.701 29.9658 284.006 29.9658ZM266.101 29.9658H253.643C252.948 29.9658 252.426 30.5448 252.426 31.1817V53.3574C252.426 54.0522 253.006 54.5732 253.643 54.5732H266.101C266.796 54.5732 267.318 53.9943 267.318 53.3574V31.1817C267.376 30.4869 266.796 29.9658 266.101 29.9658ZM248.196 29.9658H222.527C221.832 29.9658 221.311 30.5448 221.311 31.1817V40.0983C221.311 40.7931 221.89 41.3142 222.527 41.3142H248.196C248.892 41.3142 249.413 40.7352 249.413 40.0983V31.1817C249.413 30.4869 248.834 29.9658 248.196 29.9658ZM248.196 43.2249H222.527C221.832 43.2249 221.311 43.8039 221.311 44.4408V53.3574C221.311 54.0522 221.89 54.5732 222.527 54.5732H248.196C248.892 54.5732 249.413 53.9943 249.413 53.3574V44.4408C249.413 43.8039 248.834 43.2249 248.196 43.2249Z" fill="#074F79"/>
<path d="M128.196 28.4026H123.503V33.0925H128.196V28.4026Z" stroke="#074F79" stroke-width="3" stroke-miterlimit="10" stroke-linejoin="round"/>
<path d="M120.895 28.4026H116.202V33.0925H120.895V28.4026Z" stroke="#074F79" stroke-width="3" stroke-miterlimit="10" stroke-linejoin="round"/>
<path d="M113.652 28.5182H108.959V33.2081H113.652V28.5182Z" stroke="#074F79" stroke-width="3" stroke-miterlimit="10" stroke-linejoin="round"/>
<path d="M106.409 28.5182H101.716V33.2081H106.409V28.5182Z" stroke="#074F79" stroke-width="3" stroke-miterlimit="10" stroke-linejoin="round"/>
<path d="M80.9723 48.0884H122.112" stroke="#074F79" stroke-width="3" stroke-miterlimit="10" stroke-linecap="round" stroke-linejoin="round"/>
<path d="M359.448 107.841L356.377 105.988C353.19 104.077 349.25 104.02 346.005 105.872L345.368 106.22C342.065 108.073 338.067 108.015 334.822 105.988C331.693 104.077 327.811 103.904 324.566 105.641L323.06 106.451C319.815 108.188 315.933 108.015 312.804 106.104L312.688 106.046C309.559 104.077 305.619 103.962 302.374 105.757" stroke="#074F79" stroke-width="3" stroke-miterlimit="10" stroke-linecap="round" stroke-linejoin="round"/>
<path d="M470.948 122.89L467.877 121.037C464.69 119.127 460.75 119.069 457.505 120.922L456.868 121.269C453.565 123.122 449.567 123.064 446.322 121.037C443.193 119.127 439.311 118.953 436.066 120.69L434.56 121.501C431.315 123.238 427.433 123.064 424.304 121.153L424.188 121.095C421.059 119.127 417.119 119.011 413.874 120.806" stroke="#074F79" stroke-width="3" stroke-miterlimit="10" stroke-linecap="round" stroke-linejoin="round"/>
<path d="M144.142 163.694L142.36 162.471C140.511 161.209 138.224 161.171 136.341 162.394L135.971 162.623C134.055 163.847 131.734 163.808 129.851 162.471C128.036 161.209 125.783 161.094 123.9 162.241L123.026 162.776C121.143 163.923 118.89 163.808 117.074 162.547L117.007 162.509C115.191 161.209 112.904 161.133 111.021 162.318" stroke="#074F79" stroke-width="3" stroke-miterlimit="10" stroke-linecap="round" stroke-linejoin="round"/>
<path d="M161.509 111.5L158.438 109.647C155.251 107.736 151.311 107.678 148.066 109.531L147.429 109.878C144.126 111.731 140.128 111.673 136.883 109.647C133.754 107.736 129.872 107.562 126.627 109.299L125.12 110.11C121.876 111.847 117.993 111.673 114.864 109.762L114.749 109.705C111.62 107.736 107.679 107.62 104.435 109.415" stroke="#074F79" stroke-width="3" stroke-miterlimit="10" stroke-linecap="round" stroke-linejoin="round"/>
<path d="M247.397 136.761L244.326 134.908C241.139 132.997 237.199 132.939 233.955 134.792L233.317 135.14C230.014 136.992 226.016 136.935 222.771 134.908C219.642 132.997 215.76 132.824 212.515 134.561L211.009 135.371C207.764 137.108 203.882 136.935 200.753 135.024L200.637 134.966C197.508 132.997 193.568 132.882 190.323 134.676" stroke="#074F79" stroke-width="3" stroke-miterlimit="10" stroke-linecap="round" stroke-linejoin="round"/>
<path d="M292.259 145.317L289.188 143.464C286.001 141.553 282.061 141.495 278.816 143.348L278.179 143.696C274.876 145.548 270.878 145.49 267.633 143.464C264.504 141.553 260.622 141.38 257.377 143.117L255.871 143.927C252.626 145.664 248.743 145.49 245.615 143.58L245.499 143.522C242.37 141.553 238.43 141.437 235.185 143.232" stroke="#074F79" stroke-width="3" stroke-miterlimit="10" stroke-linecap="round" stroke-linejoin="round"/>
<path d="M131.121 172.537L129.338 171.62C127.489 170.674 125.203 170.645 123.32 171.562L122.95 171.734C121.033 172.652 118.713 172.623 116.83 171.62C115.014 170.674 112.761 170.588 110.878 171.448L110.004 171.849C108.121 172.709 105.868 172.623 104.052 171.677L103.985 171.648C102.17 170.674 99.883 170.616 98 171.505" stroke="#074F79" stroke-width="3" stroke-miterlimit="10" stroke-linecap="round" stroke-linejoin="round"/>
<path d="M292.061 105.583C288.874 103.673 284.934 103.615 281.689 105.468L281.051 105.815C277.749 107.668 273.75 107.61 270.506 105.583C267.377 103.673 263.494 103.499 260.25 105.236L258.743 106.047" stroke="#074F79" stroke-width="3" stroke-miterlimit="10" stroke-linecap="round" stroke-linejoin="round"/>
<path d="M339.863 91.0502C341.485 90.9923 343.108 90.5291 344.556 89.7185L345.194 89.3711C348.496 87.5183 352.495 87.5762 355.739 89.6027C358.868 91.5134 362.751 91.6871 365.995 89.9501L367.502 89.1395" stroke="#074F79" stroke-width="3" stroke-miterlimit="10" stroke-linecap="round" stroke-linejoin="round"/>
<path d="M108.959 2V24.002" stroke="#074F79" stroke-width="3" stroke-miterlimit="10" stroke-linecap="round" stroke-linejoin="round"/>
<path d="M409.395 89.7185L381.177 89.6027C379.265 89.6027 377.353 89.1974 375.498 88.5605C372.833 87.6341 369.878 87.8657 367.328 89.1974L365.822 90.008" stroke="#074F79" stroke-width="3" stroke-miterlimit="10" stroke-linecap="round" stroke-linejoin="round"/>
<path d="M76.2309 90.56C73.044 88.6493 69.1039 88.5914 65.8591 90.4442L65.2217 90.7916C61.9189 92.6444 57.9208 92.5865 54.676 90.56C51.547 88.6493 47.6648 88.4756 44.42 90.2126L42.9134 91.0232C39.6686 92.7602 35.7864 92.5865 32.6574 90.6758L32.5415 90.6179C29.9341 88.9967 26.7472 88.6493 23.908 89.5757C22.2855 90.0968 20.6052 90.2705 18.9248 90.2705H-2.22455" stroke="#074F79" stroke-width="3" stroke-miterlimit="10" stroke-linecap="round" stroke-linejoin="round"/>
<path d="M60.9921 103.125L60.3547 103.472C57.0519 105.325 53.0538 105.267 49.809 103.24C46.68 101.33 42.7978 101.156 39.553 102.893C38.568 103.414 37.467 103.704 36.3661 103.704H16.8971" stroke="#074F79" stroke-width="3" stroke-miterlimit="10" stroke-linecap="round" stroke-linejoin="round"/>
</svg>
