<svg width="233" height="47" fill="none" xmlns="http://www.w3.org/2000/svg"><path d="M213.797 44.545l-6.452-3.892c-6.697-4.013-14.975-4.135-21.793-.243l-1.34.73c-6.939 3.892-15.34 3.77-22.158-.487-6.574-4.013-14.731-4.378-21.549-.73l-3.166 1.703c-6.818 3.649-14.975 3.284-21.549-.73l-.244-.121a21.292 21.292 0 00-21.671-.608m-21.671-.365c-6.697-4.013-14.975-4.135-21.793-.243l-1.34.73c-6.94 3.891-15.34 3.77-22.158-.487-6.574-4.013-14.731-4.378-21.55-.73l-3.165 1.703m170.448-31.5c3.408-.121 6.817-1.094 9.861-2.797l1.339-.73c6.94-3.891 15.341-3.77 22.159.487 6.574 4.013 14.731 4.378 21.549.73l3.165-1.703" stroke="#008DD2" stroke-width="4" stroke-miterlimit="10" stroke-linecap="round" stroke-linejoin="round"/></svg>