<svg width="170" height="38" fill="none" xmlns="http://www.w3.org/2000/svg"><path d="M167.764 5.668c-6.696-4.014-14.975-4.135-21.793-.243l-1.339.73c-6.94 3.891-15.34 3.77-22.158-.487-6.574-4.014-14.732-4.378-21.55-.73l-3.165 1.703c-6.818 3.648-14.975 3.283-21.55-.73l-.243-.122C70.487 2.384 63.791 1.654 57.826 3.6c-3.41 1.095-6.94 1.46-10.47 1.46H2.916m132.827 27l-1.339.729c-6.94 3.892-15.34 3.77-22.158-.486-6.575-4.014-14.732-4.379-21.55-.73-2.07 1.094-4.383 1.703-6.696 1.703H43.094" stroke="#008DD2" stroke-width="4" stroke-miterlimit="10" stroke-linecap="round" stroke-linejoin="round"/></svg>