<svg width="723" height="367" fill="none" xmlns="http://www.w3.org/2000/svg"><path d="M565.76 79.847v2l.083-.002-.083-1.998zm-63.674 0v-2a2 2 0 00-2 2h2zm-57.1 0h2a2 2 0 00-2.069-2l.069 2zm-40.055-3.04l-.51 1.933a.5.5 0 00.022.006l.488-1.94zm-20.819-6.933l-.739 1.858.01.004.729-1.862zm-53.935-18.121l-.3-1.978a2 2 0 00-.16 3.924l.46-1.947zm9.375-12.04l-1.851.757.012.028 1.839-.786zm-16.193-36.73l.149-1.994a2 2 0 00-1.975 2.81l1.826-.816zm13.027.973l-.148 1.995h.006l.142-1.995zm13.636 6.203l-1.316 1.505.004.004 1.312-1.51zm228.035 47.796l-1.653 1.126a2 2 0 00.94.743l.713-1.869zm6.696 2.554l-.713 1.869.024.009.689-1.878zm-120.531 9.243h-2a2 2 0 001.645 1.968l.355-1.968zm0-6.446l-.324-1.973a2 2 0 00-1.676 1.973h2zm31.654 6.203h-2c0 .032.001.064.003.095l1.997-.095zm-16.558-10.216v-2a2 2 0 00-2 2h2zm8.645 0h2a2 2 0 00-2-2v2zm0 14.837v2a2 2 0 002-2h-2zm-8.645 0h-2a2 2 0 002 2v-2zm-99.955-11.675l.458 1.947.014-.003.013-.004-.485-1.94zm2.801.122l.735-1.86-.092-.037-.094-.027-.549 1.924zm49.43 12.04v-2h-.011l.011 2zm4.504 5.23l.026 2 1.882-.025.09-1.88-1.998-.096zm-36.159-4.5l.526-1.93-.014-.004-.512 1.934zm-26.906-9.73l-.894 1.79.057.028.059.025.778-1.843zm.121-1.703l-.457-1.947-.046.011-.046.013.549 1.923zm71.972 11.291a2 2 0 102.398 3.202l-2.398-3.202zm2.66.506l-1.199-1.6 1.199 1.6zm43.099.42a2 2 0 100-4v4zm-42.613-15.865l.485 1.94c.08-.02.16-.045.237-.075l-.722-1.865zm26.42-10.216l.721 1.865a2 2 0 00-.721-3.865v2zm52.23 3.892l-.264-1.983-.012.002.276 1.98zm-.487-6.933l-.261-1.983a2.001 2.001 0 00.261 3.983v-2zm.122 0l.308 1.976a2 2 0 00-.308-3.976v2zm-196.989 4.743l-.23-1.986a2 2 0 00-1.39 3.158l1.62-1.172zm10.471-1.216l-.059-1.999a1.95 1.95 0 00-.172.013l.231 1.986zm37.376-1.094l.059 1.999h.013l-.072-2zm.609 5.108l.056 1.999h.012l-.068-2zm-36.037.486l-.06 2h.01l.05-2zm-10.836-1.094l-1.621 1.171c.251.348.607.605 1.015.735l.606-1.906zm76.945 12.891l-.377-1.964a2 2 0 00-.022 3.924l.399-1.96zm43.22-1.702l-.456 1.947h.002l.454-1.947zm-2.069 4.986l.153 1.994h.003l-.156-1.994zm-131.61-16.662l-.787-1.838a2 2 0 00.441 3.808l.346-1.97zm27.637-2.31l-.429 1.953.017.004.412-1.958zm-1.218 3.526l-.24-1.985h-.008l.248 1.985zm195.772 9.365h-2 2zM325.794 8.456l.1-1.997a2 2 0 00-1.925 2.814l1.825-.817zm14.975 33.445l-1.825.818a2 2 0 001.825 1.182v-2zm15.706-2.31l-1.713 1.033.017.027 1.696-1.06zm-17.167-28.46l1.713-1.032-.026-.042-1.687 1.075zm-3.774-2.188l-.1 1.997c.033.002.067.003.1.003v-2zm16.192 25.715a2 2 0 100-4v4zm-2.313-4a2 2 0 000 4v-4zM32.746 366.071a2 2 0 000-4v4zm-30.437-4a2 2 0 100 4v-4zm384.238-126.727a2 2 0 100 4v-4zm245.688 4a2 2 0 000-4v4zm87.536-58.675l1.522 1.298c.041-.048.08-.098.116-.15l-1.638-1.148zm-50.038 58.621l1.513 1.308.008-.01-1.521-1.298zm-4.14 9.364l-1.981-.273-.003.027 1.984.246zm-1.704 13.743v2a2 2 0 001.985-1.754l-1.985-.246zm-541.294-20.189l-1.868.713a1.999 1.999 0 001.868 1.287v-2zm-22.645-59.35l-1.874.698.006.015 1.868-.713zm145.368-9h-2c0 .062.003.124.008.186l1.992-.186zm376.446 0l-1.985-.248c-.002.021-.005.041-.006.062l1.991.186zm93.868-1.702v2l.059-.001-.059-1.999zm-306.441-7.784l-1.992-.181-.008.09v.091h2zm0-27.851l-1.993-.166-.007.083v.083h2zm102.025 0l-1.993-.166-.007.083v.083h2zm-302.179-5.838v-2a2 2 0 00-2 2h2zm9.862 0h2a2 2 0 00-2-2v2zm0 9.852v2a2 2 0 002-2h-2zm-9.862 0h-2a2 2 0 002 2v-2zm-15.34-9.852v-2a2 2 0 00-2 2h2zm9.862 0h2a2 2 0 00-2-2v2zm0 9.852v2a2 2 0 002-2h-2zm-9.862 0h-2a2 2 0 002 2v-2zm-15.218-9.608v-2a2 2 0 00-2 2h2zm9.861 0h2a2 2 0 00-2-2v2zm0 9.851v2a2 2 0 002-2h-2zm-9.861 0h-2a2 2 0 002 2v-2zm-15.219-9.851v-2a2 2 0 00-2 2h2zm9.861 0h2a2 2 0 00-2-2v2zm0 9.851v2a2 2 0 002-2h-2zm-9.861 0h-2a2 2 0 002 2v-2zm128.444 180.848l1.664 1.11a1.998 1.998 0 00-1.664-3.11v2zm-8.522 12.77v2c.668 0 1.293-.334 1.664-.89l-1.664-1.11zm-57.587 0v-2c-.624 0-1.213.292-1.591.788l1.591 1.212zm-6.574 8.635v2a2 2 0 001.591-.789l-1.591-1.211zm-9.984-3.527l1.849-.762a1.283 1.283 0 00-.037-.085l-1.812.847zm-3.409-5.108l-1.481 1.344.068.071 1.413-1.415zm-28.976 0l1.469 1.357a.11.11 0 00.01-.011l-1.479-1.346zm-3.409 5.23l-1.832-.803-.017.04 1.849.763zm-10.348-.122l-1.857.743.008.019 1.849-.762zm-3.166-5.108l-1.539 1.277c.021.025.043.051.066.075l1.473-1.352zm-29.707 0l-1.521-1.299-.005.006 1.526 1.293zm-11.931 8.635l-1.699 1.054a1.998 1.998 0 001.699.946v-2zm-5.357-8.635l1.7-1.054a2.001 2.001 0 00-1.7-.946v2zm-38.472 0h-2a2 2 0 002 2v-2zm0-12.77v-2a2 2 0 00-2 2h2zm67.692 0v2a2 2 0 002-2h-2zm0-8.27v-2a2 2 0 00-2 2h2zm15.827 0h2a2 2 0 00-2-2v2zm0 8.27h-2a2 2 0 002 2v-2zm107.991 0v2a2 2 0 002-2h-2zm0-8.27v-2a2 2 0 00-2 2h2zm15.219 0h2a2 2 0 00-2-2v2zm0 8.27h-2a2 2 0 002 2v-2zm193.458 22.742l-1.998.092v.008l1.998-.1zm-20.089 9h-2v2h2v-2zm-21.062-28.702l-.042-1.999h-.002l.044 1.999zm-20.332 28.702v2h2v-2h-2zm-66.11 0h-2v2h2v-2zm-21.062-25.54l-.021-2h-.011l-.012.001.044 1.999zm-26.298 25.419h-2v2h2v-2zm94.964-32.473v2h1.967l.033-1.966-2-.034zm1.217-72.485l2 .034v-.034h-2zm3.409-3.405l.162-1.994-.081-.006h-.081v2zm36.038 2.919l.168-1.993-.007-.001-.161 1.994zm36.646 38.067l1.998-.092-.002-.038-.003-.039-1.993.169zm-9.253-7.419l-1.959.401v.003l1.959-.404zm-21.306-9.243v-2h-2v2h2zm0 23.959h-2v2h2v-2zm24.716 60.202v-2a2 2 0 00-2 2h2zm8.644-9l-1.998.092v.008l1.998-.1zm-2.679-58.255l1.998-.092a1.36 1.36 0 00-.006-.09l-1.992.182zm-36.646-38.067l.169-1.993-.008-.001-.161 1.994zm-36.038-2.919l.162-1.994a2.192 2.192 0 00-.162-.006v2zm-3.409 3.405l2 .034v-.034h-2zm-1.217 72.485v2a2 2 0 002-1.966l-2-.034zm-94.964 32.473h-2a2 2 0 002 2v-2zm26.298-25.419l-.042-1.999h-.001l.043 1.999zm21.062 25.54h-2a2 2 0 002 2v-2zm66.11 0v2a2 2 0 002-2h-2zm20.332-28.702l-.042-1.999h-.001l.043 1.999zm21.062 28.581h-2a2 2 0 002 2v-2zm11.445 0v2a2 2 0 002-2h-2zM119.674 170.034a2 2 0 100 4v-4zm86.441 4a2 2 0 100-4v4zm-25.636-98.81a2 2 0 00-4 0h4zm-4 46.216a2 2 0 104 0h-4zm245.365-53.106l50.648-19.581-1.443-3.731-50.647 19.58 1.442 3.732zm143.916 9.513h-63.674v4h63.674v-4zm-65.674 2c0 1.16-1.005 2.135-2.018 2.135v4c3.371 0 6.018-2.917 6.018-6.135h-4zm-2.018 2.135h-49.064v4h49.064v-4zm-49.064 0c-1.089 0-2.018-.931-2.018-2.014h-4c0 3.296 2.724 6.014 6.018 6.014v-4zm-2.018-2.014v-.121h-4v.121h4zm-2-.121l-.069-2h-.003l-.012.001-.05.002a87.867 87.867 0 01-.997.026c-.694.015-1.705.033-2.968.043-2.527.019-6.056.004-10.063-.132-8.052-.273-17.89-1.029-25.405-2.92l-.976 3.879c7.947 2 18.137 2.764 26.246 3.039 4.074.138 7.66.153 10.228.134a207.35 207.35 0 003.847-.065l.214-.006.057-.002h.02l-.069-2zm-39.545-4.975c-8.67-2.285-11.638-3.352-20.6-6.86l-1.458 3.724c9.057 3.546 12.176 4.668 21.038 7.004l1.02-3.868zm-20.591-6.857c-16.732-6.65-30.266-11.197-39.625-14.084a324.891 324.891 0 00-10.789-3.142 176.574 176.574 0 00-3.544-.921 28.71 28.71 0 00-.187-.046l-.049-.011-.013-.004h-.005l-.461 1.945-.46 1.947h.002l.009.003.042.01.171.041c.154.038.386.095.695.173.617.157 1.541.396 2.755.724 2.429.658 6.021 1.674 10.654 3.103 9.268 2.86 22.702 7.372 39.328 13.98l1.477-3.718zm-54.673-16.263c.3 1.978.301 1.978.302 1.978h.002l.005-.001.013-.002.041-.007a12.587 12.587 0 00.623-.118c.405-.084.971-.216 1.633-.407 1.308-.377 3.065-1.008 4.712-2.018 1.637-1.004 3.316-2.475 4.217-4.593.929-2.184.905-4.757-.334-7.658l-3.678 1.572c.891 2.086.761 3.511.331 4.52-.457 1.075-1.388 1.99-2.627 2.75-1.229.753-2.615 1.262-3.73 1.584a18.503 18.503 0 01-1.708.406l-.087.015-.017.002h-.001.002l.301 1.977zm11.226-12.798c-1.11-2.71-5.174-11.928-8.941-20.424a6658.617 6658.617 0 00-5.054-11.374l-1.616-3.628-.448-1.006-.118-.263a3.753 3.753 0 00-.03-.068l-.008-.017a.006.006 0 00-.002-.004v-.001l-1.827.814-1.826.815.001.002.001.004.008.017.03.067.118.264.448 1.004 1.615 3.627c1.347 3.025 3.165 7.113 5.051 11.368 3.782 8.531 7.814 17.677 8.896 20.32l3.702-1.517zM323.21 4.978l13.028.973.297-3.99L323.508.99l-.298 3.989zm13.034.973c4.557.325 8.788 2.502 12.462 5.714l2.633-3.012c-4.118-3.599-9.14-6.287-14.81-6.692l-.285 3.99zm12.466 5.717c10.059 8.743 17.362 15.393 23.027 20.476 5.637 5.057 9.719 8.624 13.254 11.093 3.592 2.51 6.682 3.932 10.355 4.693 3.588.743 7.661.836 13.116.836v-4c-5.503 0-9.177-.105-12.304-.753-3.042-.63-5.636-1.791-8.877-4.055-3.299-2.305-7.199-5.7-12.873-10.791-5.645-5.065-12.983-11.748-23.074-20.518l-2.624 3.02zm59.752 37.098c13.936 0 36.883.06 60.214.122 23.329.06 47.043.121 62.508.121v-4c-15.459 0-39.166-.06-62.497-.121-23.329-.061-46.282-.122-60.225-.122v4zm122.722.243c6.789 0 16.249-.298 25.086.895 8.952 1.208 16.518 3.864 20.134 9.176l3.306-2.25c-4.663-6.85-13.837-9.666-22.904-10.89-9.181-1.24-19.018-.93-25.622-.93v4zm46.16 10.815l6.696 2.554 1.426-3.738-6.696-2.554-1.426 3.738zm6.72 2.563c.874.32 1.908 1.263 2.53 2.693.601 1.383.737 3.05.055 4.697-1.349 3.258-6.468 7.47-20.971 8.071l.165 3.997c14.838-.615 22.199-4.978 24.502-10.537 1.144-2.762.899-5.564-.082-7.822-.961-2.21-2.712-4.08-4.821-4.854l-1.378 3.755zm-4.059-5.702h-14.123v4h14.123v-4zm-14.123 0a.77.77 0 01.586.24.276.276 0 01.075.179h-4c0 1.622 1.198 3.58 3.339 3.58v-4zm.661.419v-2.068h-4v2.068h4zm0-2.068c0 .238-.073.494-.255.727a1.444 1.444 0 01-1.136.543v-4c-.91 0-1.608.47-2.02 1a2.827 2.827 0 00-.589 1.73h4zm-1.391 1.27h9.253v-4h-9.253v4zm-93.149 12.816l-7.427-1.338-.709 3.936 7.427 1.338.709-3.936zm-5.781.63v-6.446h-4v6.446h4zm-1.677-4.472l7.426-1.216-.646-3.948-7.427 1.217.647 3.947zm26.583 6.972H477.37v4h13.758v-4zm-13.758 0c-3.036 0-5.426-2.39-5.426-5.419h-4a9.374 9.374 0 009.426 9.42v-4zm-5.426-5.419c0-3.028 2.39-5.418 5.426-5.418v-4a9.374 9.374 0 00-9.426 9.418h4zm5.426-5.418h13.758v-4H477.37v4zm13.758 0a2.751 2.751 0 012.748 2.743h4c0-3.627-2.934-6.743-6.748-6.743v4zm2.748 2.743v5.35h4v-5.35h-4zm.003 5.446c.062 1.32-1.119 2.648-2.751 2.648v4c3.725 0 6.927-3.05 6.746-6.838l-3.995.19zm-14.561-8.311h8.645v-4h-8.645v4zm6.645-2V74.13h4V59.293h-4zm2 12.837h-8.645v4h8.645v-4zm-6.645 2V59.293h-4V74.13h4zm-101.47-9.735c.518-.129 1.114-.082 1.767.105l1.098-3.847c-1.052-.3-2.404-.496-3.834-.139l.969 3.881zm1.58.041c5.701 2.255 27.056 12.305 50.176 12.18l-.021-4c-22.17.12-42.697-9.532-48.684-11.9l-1.471 3.72zm50.166 12.18c.631 0 1.253.31 1.753.922.511.627.79 1.455.753 2.213l3.996.19c.086-1.795-.549-3.582-1.651-4.932-1.113-1.364-2.805-2.392-4.851-2.392v4zm4.504 3.23l-.025-2h-.01a6.046 6.046 0 01-.188.002h-.607c-.534-.003-1.321-.012-2.321-.037-2.001-.05-4.853-.167-8.245-.43-6.796-.527-15.699-1.638-24.237-3.964l-1.052 3.86c8.872 2.416 18.049 3.555 24.98 4.092 3.472.27 6.395.389 8.453.44a118.699 118.699 0 003.046.039l.169-.001h.062l-.025-2zm-35.647-6.433c-11.77-3.12-21.131-7.315-26.641-9.639l-1.555 3.686c5.447 2.297 15.079 6.615 27.172 9.82l1.024-3.867zm-26.525-9.585c.387.193.589.593.572.979-.009.201-.076.43-.233.636a1.102 1.102 0 01-.562.395l-1.098-3.847a2.86 2.86 0 00-2.103 2.642 2.956 2.956 0 001.637 2.773l1.787-3.578zm-.314 2.033l6.209-1.46-.915-3.893-6.209 1.46.915 3.893zm73.912 12.546l1.461-1.095-2.398-3.201-1.461 1.094 2.398 3.202zm1.461-1.095c1.115-.835 2.155-1.182 3.549-1.182v-4c-2.258 0-4.14.627-5.947 1.98l2.398 3.202zm3.549-1.182h38.351v-4h-38.351v4zm-15.706-13.62h9.984v-4h-9.984v4zm9.984 0c.775 0 1.505-.194 1.945-.304l-.969-3.88c-.534.133-.778.183-.976.183v4zm2.182-.379l26.419-10.216-1.442-3.73-26.42 10.215 1.443 3.731zm25.698-14.081h-10.958v4h10.958v-4zm-21.136 22.9c24.011-6.663 47.543-11.39 73.642-15.028l-.552-3.961c-26.252 3.659-49.959 8.419-74.16 15.134l1.07 3.855zm73.63-15.026c1.798-.24 3.25-1.017 4.197-2.226a5.31 5.31 0 001.068-3.988c-.358-2.693-2.755-5.147-6.277-4.684l.522 3.966c.632-.083 1.026.089 1.272.29.274.224.466.57.517.955a1.31 1.31 0 01-.252.995c-.199.254-.634.602-1.575.727l.528 3.965zm-.751-6.915h.122v-4h-.122v4zm-.186-3.976c-28.973 4.519-53.317 10.872-75.221 18.45l1.308 3.78c21.681-7.5 45.793-13.796 74.529-18.278l-.616-3.952zm-196.45 8.706l10.47-1.216-.461-3.973-10.47 1.216.461 3.973zm10.298-1.204l37.377-1.094-.117-3.998-37.377 1.094.117 3.998zm37.39-1.094c2.412-.087 4.163.157 5.264.502.554.174.862.348 1.001.453.153.116-.039.033-.103-.322a1.061 1.061 0 01.037-.516c.048-.14.109-.21.113-.215.004-.004-.032.037-.142.108a3.21 3.21 0 01-.492.251c-.936.393-2.62.762-5.208.849l.135 3.998c2.829-.096 5.056-.502 6.62-1.158.776-.326 1.52-.767 2.068-1.38.581-.65.998-1.573.807-2.64-.178-.995-.813-1.704-1.42-2.164-.622-.47-1.391-.821-2.22-1.08-1.666-.523-3.901-.78-6.603-.684l.143 3.998zm.482 1.11c-4.429.122-21.27.849-35.933.486l-.099 3.999c14.801.366 31.805-.367 36.143-.487l-.111-3.998zm-35.923.486c-4.017-.12-6.649-.388-8.251-.619-.8-.115-1.341-.22-1.667-.292a8.241 8.241 0 01-.385-.095h-.002c.002 0 .004 0 .006.002a.05.05 0 00.005 0l.002.002h.001c.001 0 .002 0-.604 1.907-.606 1.906-.605 1.906-.604 1.906h.001l.004.002.007.002a.61.61 0 00.018.005c.013.004.028.01.047.014l.143.04c.119.032.283.073.499.12.431.096 1.07.218 1.959.346 1.777.256 4.562.535 8.702.658l.119-3.998zm-9.274-.267l-1.583-2.19-3.241 2.344 1.582 2.19 3.242-2.344zm75.7 16.027c4.306-.824 13.053-1.7 21.746-2.14 4.332-.22 8.611-.328 12.276-.27 3.713.059 6.645.288 8.366.69l.912-3.894c-2.174-.509-5.482-.736-9.215-.795-3.78-.06-8.153.052-12.541.274-8.747.442-17.715 1.33-22.297 2.207l.753 3.928zm42.39-1.719c.636.148.982.386 1.12.526.13.132-.017.055.03-.204.044-.24.166-.141-.273.1-.438.241-1.267.515-2.649.623l.313 3.988c1.723-.135 3.162-.5 4.264-1.106 1.102-.606 2.038-1.564 2.28-2.884.245-1.338-.321-2.517-1.115-3.324-.787-.799-1.871-1.337-3.062-1.614l-.908 3.895zm-1.769 1.045c-6.129.47-27.006-.486-40.599-3.25l-.797 3.92c13.922 2.83 35.171 3.82 41.703 3.318l-.307-3.988zm-130.669-12.83c1.043-.446 2.896-.902 5.313-1.303 2.371-.394 5.139-.71 7.92-.928 2.779-.217 5.544-.332 7.907-.326 2.409.006 4.257.137 5.281.362l.857-3.907c-1.472-.323-3.687-.45-6.129-.455-2.488-.006-5.361.115-8.228.338-2.866.224-5.752.553-8.262.97-2.463.408-4.72.925-6.233 1.573l1.574 3.677zm26.438-2.191c.261.055.347.143.332.128-.02-.02-.182-.215-.141-.56.043-.355.247-.444.12-.361-.143.093-.54.278-1.357.377l.481 3.97c1.191-.143 2.24-.46 3.063-.998.84-.548 1.531-1.398 1.665-2.512.274-2.287-1.748-3.624-3.34-3.959l-.823 3.915zm-1.054-.415c-1.781.222-5.999.32-10.977.153-4.948-.166-10.475-.587-14.849-1.355l-.691 3.94c4.636.814 10.371 1.244 15.406 1.412 5.006.168 9.492.083 11.607-.181l-.496-3.97zm197.481 11.89h3.653v-4h-3.653v4zm3.653 0a.556.556 0 01-.364-.175.556.556 0 01-.175-.366h4c0-1.958-1.507-3.46-3.461-3.46v4zm-.539-.54v7.418h4v-7.419h-4zm0 7.418c0-.064.03-.221.175-.366a.556.556 0 01.364-.175v4c1.954 0 3.461-1.501 3.461-3.46h-4zm.539-.54h-3.653v4h3.653v-4zm-3.653 0c.063 0 .219.03.363.174a.558.558 0 01.176.366h-4c0 1.958 1.506 3.46 3.461 3.46v-4zm.539.54v-7.419h-4v7.419h4zm0-7.419a.558.558 0 01-.176.366.553.553 0 01-.363.175v-4c-1.955 0-3.461 1.501-3.461 3.46h4zM323.969 9.273l14.975 33.446 3.65-1.635L327.619 7.64l-3.65 1.634zm16.8 34.628h14.366v-4h-14.366v4zm14.366 0c2.733 0 4.507-3.019 3.035-5.371l-3.391 2.121a.53.53 0 01-.029-.527.458.458 0 01.385-.223v4zm3.052-5.343l-17.166-28.46-3.426 2.067 17.167 28.459 3.425-2.066zm-17.192-28.5c-1.161-1.823-3.093-3.115-5.461-3.115v4c.797 0 1.544.41 2.087 1.263l3.374-2.149zm-5.361-3.113l-9.74-.486-.2 3.995 9.74.486.2-3.995zm16.092 23.713h-2.313v4h2.313v-4zM32.746 362.071H2.309v4h30.437v-4zm353.801-122.727h245.688v-4H386.547v4zm331.703-59.973l-50.038 58.62 3.042 2.597 50.039-58.621-3.043-2.596zm-50.03 58.61c-2.589 2.995-4.073 6.526-4.608 10.4l3.963.547c.439-3.18 1.633-5.973 3.671-8.33l-3.026-2.617zm-4.611 10.427l-1.705 13.743 3.97.492 1.704-13.743-3.969-.492zm.28 11.989H124.665v4h539.224v-4zm-539.224 0c-.013 0-.011-.002-.001.002a.103.103 0 01.051.051c.004.011.002.013.002.001h-4a3.922 3.922 0 003.948 3.946v-4zm.052.054v-17.878h-4v17.878h4zm0-17.878c0-.02.007-.315-.054-.62a2.262 2.262 0 00-.353-.844 2.084 2.084 0 00-1.715-.901v4a1.905 1.905 0 01-1.573-.821 1.737 1.737 0 01-.281-.649c-.031-.153-.024-.266-.024-.165h4zm-.253-1.078l-22.645-59.35-3.737 1.426 22.645 59.35 3.737-1.426zm-22.64-59.335c-1.463-3.929 1.354-8.004 5.553-8.004v-4c-7.002 0-11.733 6.87-9.301 13.4l3.748-1.396zm5.553-8.004h18.993v-4h-18.993v4zm18.993 0a3.921 3.921 0 003.947-3.946h-4c0 .012-.001.009.003-.001a.095.095 0 01.051-.051c.01-.004.011-.002-.001-.002v4zm3.947-3.946v-46.216h-4v46.216h4zm0-46.216c0-.012.002-.009-.002.001a.095.095 0 01-.051.051c-.01.005-.011.002.001.002v-4a3.922 3.922 0 00-3.948 3.946h4zm-.052.054h16.68v-4h-16.68v4zm16.68 0a3.921 3.921 0 003.948-3.945h-4c0 .011-.002.009.002-.001a.113.113 0 01.021-.031.082.082 0 01.03-.02c.01-.005.012-.003-.001-.003v4zm3.948-3.945v-9.122h-4v9.122h4zm0-9.122c0-.012.002-.01-.003.001a.108.108 0 01-.02.031.098.098 0 01-.03.02c-.01.004-.012.002.001.002v-4a3.922 3.922 0 00-3.948 3.946h4zm-.052.054h9.131v-4h-9.131v4zm9.131 0c.013 0 .011.002.001-.002a.084.084 0 01-.029-.02.095.095 0 01-.021-.031c-.005-.011-.003-.013-.003-.001h4a3.922 3.922 0 00-3.948-3.946v4zm-.052-.054v9.122h4v-9.122h-4zm0 9.122a3.921 3.921 0 003.948 3.945v-4c-.013 0-.011-.002-.001.003a.095.095 0 01.051.051c.004.01.002.013.002.001h-4zm3.948 3.945h62.092v-4h-62.092v4zm62.092 0c.013 0 .011.003.001-.002a.095.095 0 01-.051-.051c-.004-.01-.002-.013-.002-.001h4a3.922 3.922 0 00-3.948-3.946v4zm-.052-.054v46.216h4v-46.216h-4zm0 46.216a3.922 3.922 0 003.948 3.946v-4c-.013 0-.012-.002-.002.002s.02.01.03.02c.01.01.017.021.021.031.005.01.003.013.003.001h-4zm3.948 3.946h13.636v-4h-13.636v4zm13.636 0c-.009 0-.032-.002-.067-.033a.392.392 0 01-.107-.265h4c0-2.254-1.934-3.702-3.826-3.702v4zm-.166-.112c.949 10.153 9.606 18.111 20.01 18.111v-4c-8.345 0-15.271-6.392-16.027-14.483l-3.983.372zm20.01 18.111h340.409v-4H263.336v4zm340.409 0c10.404 0 19.062-7.958 20.01-18.111l-3.982-.372c-.756 8.091-7.683 14.483-16.028 14.483v4zm20.003-18.048c.008-.059.025-.051-.012-.016a.243.243 0 01-.146.065v-4c-2.112 0-3.581 1.615-3.811 3.454l3.969.497zm-.158.049h92.042v-4H623.59v4zm92.101-.001c2.294-.068 4.172 2.898 2.442 5.366l3.276 2.296c3.384-4.829.149-11.836-5.836-11.661l.118 3.999zm-23.8 21.406c4.868 0 8.818-3.943 8.818-8.811h-4a4.814 4.814 0 01-4.818 4.811v4zm8.818-8.811c0-4.868-3.95-8.811-8.818-8.811v4a4.814 4.814 0 014.818 4.811h4zm-8.818-8.811c-4.868 0-8.818 3.943-8.818 8.811h4a4.814 4.814 0 014.818-4.811v-4zm-8.818 8.811c0 4.868 3.95 8.811 8.818 8.811v-4a4.814 4.814 0 01-4.818-4.811h-4zm-276.439-26.932H352.7v4h53.934v-4zm-53.934 0c-2.625 0-4.557 2.172-4.557 4.554h4c0-.124.054-.27.167-.387a.527.527 0 01.39-.167v-4zm-4.557 4.554v18.729h4v-18.729h-4zm0 18.729c0 2.628 2.177 4.554 4.557 4.554v-4a.58.58 0 01-.391-.167.522.522 0 01-.166-.387h-4zm4.557 4.554h53.934v-4H352.7v4zm53.934 0c2.625 0 4.557-2.172 4.557-4.554h-4c0 .124-.053.27-.167.387a.525.525 0 01-.39.167v4zm4.557-4.554v-18.729h-4v18.729h4zm-.008-18.548c.244-2.686-2.097-4.735-4.549-4.735v4c.175 0 .343.075.459.19a.404.404 0 01.096.138c.012.029.011.042.01.045l3.984.362zm-68.588-32.586H288.66v4h53.935v-4zm-53.935 0c-2.625 0-4.556 2.172-4.556 4.554h4c0-.124.053-.27.166-.387a.528.528 0 01.39-.167v-4zm-4.556 4.554v18.729h4v-18.729h-4zm0 18.729c0 2.628 2.177 4.554 4.556 4.554v-4a.577.577 0 01-.39-.167.522.522 0 01-.166-.387h-4zm4.556 4.554h53.935v-4H288.66v4zm53.935 0c2.625 0 4.557-2.171 4.557-4.554h-4c0 .124-.054.27-.167.388a.531.531 0 01-.39.166v4zm4.557-4.554v-18.729h-4v18.729h4zm0-18.729c0-2.566-1.994-4.554-4.557-4.554v4c.217 0 .343.075.413.145.069.069.144.194.144.409h4zm59.482-4.554H352.7v4h53.934v-4zm-53.934 0c-2.625 0-4.557 2.172-4.557 4.554h4c0-.124.054-.27.167-.387a.527.527 0 01.39-.167v-4zm-4.557 4.554v18.729h4v-18.729h-4zm0 18.729c0 2.628 2.177 4.554 4.557 4.554v-4a.58.58 0 01-.391-.167.522.522 0 01-.166-.387h-4zm4.557 4.554h53.934v-4H352.7v4zm53.934 0c2.625 0 4.557-2.171 4.557-4.554h-4c0 .124-.053.27-.167.388a.528.528 0 01-.39.166v4zm4.557-4.554v-18.729h-4v18.729h4zm-.007-18.563c.238-2.849-2.155-4.72-4.55-4.72v4c.236 0 .4.088.482.168a.27.27 0 01.069.097.27.27 0 01.013.123l3.986.332zm-68.589 23.131H288.66v4h53.935v-4zm-53.935 0c-2.625 0-4.556 2.172-4.556 4.554h4c0-.124.053-.27.166-.387a.528.528 0 01.39-.167v-4zm-4.556 4.554v18.729h4v-18.729h-4zm0 18.729c0 2.628 2.177 4.554 4.556 4.554v-4a.577.577 0 01-.39-.167.522.522 0 01-.166-.387h-4zm4.556 4.554h53.935v-4H288.66v4zm53.935 0c2.625 0 4.557-2.172 4.557-4.554h-4c0 .124-.054.27-.167.387a.528.528 0 01-.39.167v4zm4.557-4.554v-18.729h-4v18.729h4zm0-18.729c0-2.382-1.932-4.554-4.557-4.554v4c.155 0 .285.059.39.167a.573.573 0 01.167.387h4zm236.383-32.405h-26.176v4h26.176v-4zm-26.176 0c-2.625 0-4.557 2.172-4.557 4.554h4c0-.124.054-.27.167-.387a.527.527 0 01.39-.167v-4zm-4.557 4.554v46.58h4v-46.58h-4zm0 46.58c0 2.628 2.178 4.554 4.557 4.554v-4a.577.577 0 01-.39-.167.523.523 0 01-.167-.387h-4zm4.557 4.554h26.176v-4h-26.176v4zm26.176 0c2.625 0 4.557-2.172 4.557-4.554h-4c0 .124-.054.27-.167.387a.527.527 0 01-.39.167v4zm4.557-4.554v-46.58h-4v46.58h4zm0-46.58c0-2.566-1.994-4.554-4.557-4.554v4c.218 0 .343.075.413.145.069.069.144.194.144.409h4zm-41.812-4.554h-26.176v4h26.176v-4zm-26.176 0c-2.625 0-4.557 2.172-4.557 4.554h4c0-.124.054-.27.167-.387a.527.527 0 01.39-.167v-4zm-4.557 4.554v46.58h4v-46.58h-4zm0 46.58c0 2.628 2.178 4.554 4.557 4.554v-4a.577.577 0 01-.39-.167.523.523 0 01-.167-.387h-4zm4.557 4.554h26.176v-4h-26.176v4zm26.176 0c2.625 0 4.557-2.172 4.557-4.554h-4c0 .124-.054.27-.167.387a.527.527 0 01-.39.167v4zm4.557-4.554v-46.58h-4v46.58h4zm0-46.58c0-2.566-1.993-4.554-4.557-4.554v4c.218 0 .343.075.413.145.069.069.144.194.144.409h4zm-42.177-4.554h-26.176v4h26.176v-4zm-26.176 0c-2.625 0-4.557 2.172-4.557 4.554h4c0-.124.054-.27.167-.387a.525.525 0 01.39-.167v-4zm-4.557 4.554v46.58h4v-46.58h-4zm0 46.58c0 2.628 2.177 4.554 4.557 4.554v-4a.58.58 0 01-.391-.167.522.522 0 01-.166-.387h-4zm4.557 4.554h26.176v-4h-26.176v4zm26.176 0c2.625 0 4.556-2.172 4.556-4.554h-4c0 .124-.053.27-.167.387a.524.524 0 01-.389.167v4zm4.556-4.554v-46.58h-4v46.58h4zm-.007-46.414c.238-2.849-2.155-4.72-4.549-4.72v4c.235 0 .399.088.481.168.04.037.059.071.069.097.009.023.019.06.013.123l3.986.332zm-42.17-4.72h-53.934v4h53.934v-4zm-53.934 0c-2.625 0-4.557 2.172-4.557 4.554h4c0-.124.054-.27.167-.387a.525.525 0 01.39-.167v-4zm-4.557 4.554v18.729h4v-18.729h-4zm0 18.729c0 2.628 2.177 4.554 4.557 4.554v-4a.58.58 0 01-.391-.167.522.522 0 01-.166-.387h-4zm4.557 4.554h53.934v-4h-53.934v4zm53.934 0c2.625 0 4.557-2.171 4.557-4.554h-4c0 .124-.053.27-.167.388a.528.528 0 01-.39.166v4zm4.557-4.554v-18.729h-4v18.729h4zm0-18.729c0-2.627-2.177-4.554-4.557-4.554v4c.126 0 .274.054.391.168a.52.52 0 01.166.386h4zm-4.557 23.297h-53.934v4h53.934v-4zm-53.934 0c-2.625 0-4.557 2.172-4.557 4.554h4c0-.124.054-.27.167-.387a.525.525 0 01.39-.167v-4zm-4.557 4.554v18.729h4v-18.729h-4zm0 18.729c0 2.628 2.177 4.554 4.557 4.554v-4a.58.58 0 01-.391-.167.522.522 0 01-.166-.387h-4zm4.557 4.554h53.934v-4h-53.934v4zm53.934 0c2.625 0 4.557-2.172 4.557-4.554h-4c0 .124-.053.27-.167.387a.525.525 0 01-.39.167v4zm4.557-4.554v-18.729h-4v18.729h4zm0-18.729c0-2.445-2.115-4.554-4.557-4.554v4c.064 0 .214.036.368.19s.189.302.189.364h4zm-266.559-31.689h9.862v-4h-9.862v4zm7.862-2v9.852h4v-9.852h-4zm2 7.852h-9.862v4h9.862v-4zm-7.862 2v-9.852h-4v9.852h4zm-17.34-7.852h9.862v-4h-9.862v4zm7.862-2v9.852h4v-9.852h-4zm2 7.852h-9.862v4h9.862v-4zm-7.862 2v-9.852h-4v9.852h4zm-17.218-7.608h9.861v-4h-9.861v4zm7.861-2v9.851h4v-9.851h-4zm2 7.851h-9.861v4h9.861v-4zm-7.861 2v-9.851h-4v9.851h4zm-17.219-7.851h9.861v-4h-9.861v4zm7.861-2v9.851h4v-9.851h-4zm2 7.851h-9.861v4h9.861v-4zm-7.861 2v-9.851h-4v9.851h4zm124.781 179.738l-8.523 12.77 3.328 2.22 8.522-12.77-3.327-2.22zm-6.859 11.88h-57.587v4h57.587v-4zm-59.178.788l-6.575 8.635 3.183 2.423 6.574-8.635-3.182-2.423zm-4.983 7.847h-4.749v4h4.749v-4zm-4.749 0c-1.474 0-2.831-.944-3.386-2.289l-3.698 1.524c1.15 2.79 3.932 4.765 7.084 4.765v-4zm-3.423-2.374c-.906-1.94-2.121-3.991-3.807-5.676l-2.827 2.83c1.235 1.234 2.212 2.831 3.01 4.539l3.624-1.693zm-3.739-5.605c-3.888-4.285-9.651-7.102-15.97-7.102v4c5.126 0 9.833 2.292 13.007 5.79l2.963-2.688zm-15.97-7.102c-6.311 0-11.954 2.69-15.967 7.1l2.958 2.692c3.292-3.617 7.876-5.792 13.009-5.792v-4zm-15.957 7.089a20.427 20.427 0 00-3.772 5.784l3.664 1.605a16.477 16.477 0 013.046-4.675l-2.938-2.714zm-3.789 5.824c-.545 1.323-1.766 2.168-3.264 2.168v4c3.128 0 5.803-1.831 6.962-4.643l-3.698-1.525zm-3.264 2.168h-.122v4h.122v-4zm-.122 0c-1.425 0-2.69-.895-3.264-2.289l-3.698 1.524c1.129 2.741 3.76 4.765 6.962 4.765v-4zm-3.257-2.271c-.809-2.021-2.027-4.058-3.548-5.716l-2.947 2.704c1.157 1.261 2.13 2.872 2.782 4.499l3.713-1.487zm-3.483-5.641c-3.92-4.727-9.847-7.534-16.392-7.534v4c5.386 0 10.173 2.301 13.314 6.088l3.078-2.554zm-16.392-7.534a21.528 21.528 0 00-16.374 7.512l3.041 2.598c3.164-3.706 7.972-6.11 13.333-6.11v-4zm-16.38 7.518c-1.46 1.725-2.808 3.866-3.633 6.063l3.745 1.406c.636-1.695 1.723-3.446 2.941-4.883l-3.053-2.586zm-3.633 6.063c-.427 1.136-1.486 1.865-2.754 1.865v4c2.871 0 5.464-1.704 6.499-4.459l-3.745-1.406zm-2.754 1.865h-4.018v4h4.018v-4zm-2.318.946l-5.357-8.635-3.399 2.108 5.357 8.635 3.399-2.108zm-7.057-9.581H74.262v4h38.472v-4zm-36.472 2v-12.77h-4v12.77h4zm-2-10.77h67.692v-4H74.262v4zm69.692-2v-8.27h-4v8.27h4zm-2-6.27h15.827v-4h-15.827v4zm13.827-2v8.27h4v-8.27h-4zm2 10.27h107.991v-4H157.781v4zm109.991-2v-8.27h-4v8.27h4zm-2-6.27h15.219v-4h-15.219v4zm13.219-2v8.27h4v-8.27h-4zm2 10.27h10.713v-4h-10.713v4zm191.46 20.842c.186 3.716-2.792 6.9-6.647 6.9v4c6.129 0 10.943-5.085 10.642-11.1l-3.995.2zm-6.647 6.9H454.36v4h11.444v-4zm-9.444 2v-7.54h-4v7.54h4zm0-7.54c0-12.606-10.35-23.43-23.104-23.161l.084 3.999c10.377-.219 19.02 8.66 19.02 19.162h4zm-23.106-23.161c-12.269.266-22.288 10.257-22.288 22.674h4c0-10.203 8.242-18.455 18.375-18.675l-.087-3.999zm-22.288 22.674v8.027h4v-8.027h-4zm2 6.027h-66.11v4h66.11v-4zm-64.11 2v-4.256h-4v4.256h4zm0-4.256c0-12.611-10.35-23.418-23.083-23.284l.042 4c10.398-.109 19.041 8.787 19.041 19.284h4zm-23.106-23.283c-12.268.266-22.288 10.257-22.288 22.675h4c0-10.204 8.242-18.456 18.375-18.676l-.087-3.999zm-22.288 22.675v1.337h4v-1.337h-4zm0 1.337c0 .793-.639 1.406-1.409 1.406v4c2.882 0 5.409-2.307 5.409-5.406h-4zm-1.409 1.406h-2.557v4h2.557v-4zm-.557 2v-22.5h-4v22.5h4zm0-22.5c0-4.366 3.607-7.973 7.983-7.973v-4c-6.581 0-11.983 5.394-11.983 11.973h4zm94.964-9.939l1.217-72.485-3.999-.067-1.218 72.485 4 .067zm1.217-72.519c0-.718.686-1.405 1.409-1.405v-4c-2.928 0-5.409 2.474-5.409 5.405h4zm1.248-1.412l36.037 2.919.323-3.987-36.037-2.919-.323 3.987zm36.031 2.919c19.145 1.613 33.191 16.929 34.821 36.242l3.986-.337c-1.778-21.064-17.196-38.099-38.471-39.891l-.336 3.986zm34.816 36.165l2.679 58.499 3.996-.183-2.679-58.499-3.996.183zm-7.255 9.206c2.917 0 4.838-2.669 4.408-5.248l-3.946.658a.538.538 0 01-.116.422.423.423 0 01-.346.168v4zm4.394-5.323l-2.435-11.798-3.918.809 2.435 11.797 3.918-.808zm-2.434-11.794c-1.284-6.267-6.838-10.842-13.161-10.842v4c4.392 0 8.334 3.208 9.242 7.644l3.919-.802zm-13.161-10.842h-10.105v4h10.105v-4zm-12.105 2v23.959h4v-23.959h-4zm2 25.959h21.306v-4h-21.306v4zm21.801-4.434c.01.038.015.124-.083.24a.533.533 0 01-.412.194v4c2.742 0 5.09-2.548 4.375-5.405l-3.88.971zm-11.696-19.525c4.501 0 8.331 3.195 9.242 7.644l3.919-.802c-1.281-6.254-6.704-10.842-13.161-10.842v4zm14.611 84.161c5.987 0 10.943-5.067 10.641-11.1l-3.995.2c.185 3.697-2.895 6.9-6.646 6.9v4zm10.642-11.092l-2.679-58.255-3.996.183 2.679 58.256 3.996-.184zm-2.685-58.345c-1.904-20.922-17.308-38.084-38.469-39.878l-.338 3.986c19.015 1.611 33.075 17.043 34.823 36.255l3.984-.363zm-38.477-39.879l-36.037-2.919-.323 3.987 36.037 2.919.323-3.987zm-36.199-2.925c-2.882 0-5.409 2.307-5.409 5.405h4c0-.793.639-1.405 1.409-1.405v-4zM393.8 248.5l-1.218 72.485 4 .067 1.217-72.485-3.999-.067zm-84.198 70.518c-6.582 0-11.984 5.394-11.984 11.973h4c0-4.366 3.607-7.973 7.984-7.973v-4zm-11.984 11.973v22.5h4v-22.5h-4zm2 24.5h2.557v-4h-2.557v4zm2.557 0c3.097 0 5.409-2.522 5.409-5.406h-4c0 .765-.61 1.406-1.409 1.406v4zm5.409-5.406v-1.337h-4v1.337h4zm0-1.337c0-10.212 8.128-18.456 18.375-18.676l-.086-3.999c-12.399.266-22.289 10.265-22.289 22.675h4zm18.374-18.676c10.37-.218 19.02 8.653 19.02 19.284h4c0-12.72-10.342-23.552-23.104-23.283l.084 3.999zm19.02 19.284v4.256h4v-4.256h-4zm2 6.256h66.11v-4h-66.11v4zm68.11-2v-8.027h-4v8.027h4zm0-8.027c0-10.211 8.128-18.455 18.375-18.675l-.086-3.999c-12.399.266-22.289 10.265-22.289 22.674h4zm18.374-18.675c10.377-.219 19.02 8.66 19.02 19.162h4c0-12.606-10.35-23.43-23.104-23.161l.084 3.999zm19.02 19.162v7.419h4v-7.419h-4zm2 9.419h11.445v-4h-11.445v4zm13.445-2v-.122h-4v.122h4zm-130.497-6.204c0 6.35-5.154 11.5-11.515 11.5v4c8.567 0 15.515-6.937 15.515-15.5h-4zm-11.515 11.5c-6.361 0-11.514-5.15-11.514-11.5h-4c0 8.563 6.948 15.5 15.514 15.5v-4zm-11.514-11.5c0-6.349 5.153-11.499 11.514-11.499v-4c-8.566 0-15.514 6.937-15.514 15.499h4zm11.514-11.499c6.361 0 11.515 5.15 11.515 11.499h4c0-8.562-6.948-15.499-15.515-15.499v4zm4.088 11.378a4.206 4.206 0 01-4.209 4.203v4c4.532 0 8.209-3.671 8.209-8.203h-4zm-4.209 4.203a4.206 4.206 0 01-4.209-4.203h-4c0 4.532 3.677 8.203 8.209 8.203v-4zm-4.209-4.203a4.206 4.206 0 014.209-4.203v-4c-4.532 0-8.209 3.671-8.209 8.203h4zm4.209-4.203a4.206 4.206 0 014.209 4.203h4c0-4.532-3.677-8.203-8.209-8.203v4zm119.992 4.324c0 6.35-5.153 11.5-11.514 11.5v4c8.566 0 15.514-6.937 15.514-15.5h-4zm-11.514 11.5c-6.361 0-11.514-5.15-11.514-11.5h-4c0 8.563 6.948 15.5 15.514 15.5v-4zm-11.514-11.5c0-6.349 5.153-11.499 11.514-11.499v-4c-8.566 0-15.514 6.937-15.514 15.499h4zm11.514-11.499c6.361 0 11.514 5.15 11.514 11.499h4c0-8.562-6.948-15.499-15.514-15.499v4zm4.088 11.378a4.207 4.207 0 01-4.209 4.203v4c4.531 0 8.209-3.671 8.209-8.203h-4zm-4.209 4.203a4.207 4.207 0 01-4.21-4.203h-4c0 4.532 3.678 8.203 8.21 8.203v-4zm-4.21-4.203a4.207 4.207 0 014.21-4.203v-4c-4.532 0-8.21 3.671-8.21 8.203h4zm4.21-4.203a4.207 4.207 0 014.209 4.203h4c0-4.532-3.678-8.203-8.209-8.203v4zm-50.77-125.011H76.818v4h306.563v-4zm-306.563 0a6.362 6.362 0 00-6.382 6.378h4a2.362 2.362 0 012.382-2.378v-4zm-6.382 6.378v87.323h4V224.33h-4zm0 87.323a6.362 6.362 0 006.382 6.378v-4a2.362 2.362 0 01-2.382-2.378h-4zm313.067 6.378a6.362 6.362 0 006.383-6.378h-4a2.362 2.362 0 01-2.383 2.378v4zm6.383-6.378V224.33h-4v87.323h4zm0-87.323c0-3.609-3.039-6.378-6.505-6.378v4c1.404 0 2.505 1.123 2.505 2.378h4zm-233.931 93.701h108.113v-4H155.955v4zm46.577 29.013c0 6.349-5.153 11.5-11.514 11.5v4c8.566 0 15.514-6.938 15.514-15.5h-4zm-11.514 11.5c-6.361 0-11.514-5.151-11.514-11.5h-4c0 8.562 6.948 15.5 15.514 15.5v-4zm-11.514-11.5c0-6.349 5.153-11.5 11.514-11.5v-4c-8.566 0-15.514 6.938-15.514 15.5h4zm11.514-11.5c6.361 0 11.514 5.151 11.514 11.5h4c0-8.562-6.948-15.5-15.514-15.5v4zm4.088 11.379a4.206 4.206 0 01-4.209 4.202v4c4.531 0 8.209-3.67 8.209-8.202h-4zm-4.209 4.202a4.206 4.206 0 01-4.209-4.202h-4c0 4.532 3.677 8.202 8.209 8.202v-4zm-4.209-4.202a4.206 4.206 0 014.209-4.203v-4c-4.532 0-8.209 3.67-8.209 8.203h4zm4.209-4.203a4.207 4.207 0 014.209 4.203h4c0-4.533-3.678-8.203-8.209-8.203v4zm-34.263 4.324c0 6.349-5.153 11.5-11.514 11.5v4c8.566 0 15.514-6.938 15.514-15.5h-4zm-11.514 11.5c-6.362 0-11.515-5.151-11.515-11.5h-4c0 8.562 6.948 15.5 15.515 15.5v-4zm-11.515-11.5c0-6.349 5.153-11.5 11.515-11.5v-4c-8.567 0-15.515 6.938-15.515 15.5h4zm11.515-11.5c6.361 0 11.514 5.151 11.514 11.5h4c0-8.562-6.948-15.5-15.514-15.5v4zm4.086 11.379a4.205 4.205 0 01-4.209 4.202v4c4.532 0 8.209-3.67 8.209-8.202h-4zm-4.209 4.202a4.206 4.206 0 01-4.209-4.202h-4c0 4.532 3.677 8.202 8.209 8.202v-4zm-4.209-4.202a4.207 4.207 0 014.209-4.203v-4c-4.532 0-8.209 3.67-8.209 8.203h4zm4.209-4.203a4.206 4.206 0 014.209 4.203h4c0-4.533-3.677-8.203-8.209-8.203v4zm164.482-19.946h84.981v-4h-84.981v4zm85.103-3.756h-84.98v4h84.98v-4zm-317.764-.987h306.685v-4H76.819v4zm42.856-143.997h86.441v-4h-86.441v4zm56.805-98.81v46.216h4V75.225h-4z" fill="#2C373D"/></svg>