<svg width="626" height="192" fill="none" xmlns="http://www.w3.org/2000/svg"><path d="M289.547 164.344h245.688" stroke="#2C373D" stroke-width="4" stroke-miterlimit="10" stroke-linecap="round" stroke-linejoin="round"/><path d="M622.771 107.669l-50.038 58.621c-2.314 2.675-3.653 5.837-4.14 9.364l-1.704 13.743H27.665a1.922 1.922 0 01-1.948-1.946v-17.878c0-.121 0-.365-.122-.365L2.95 109.858a7.882 7.882 0 017.427-10.702h18.992a1.922 1.922 0 001.948-1.946V50.994c0-1.094.853-1.946 1.949-1.946h16.679a1.922 1.922 0 001.948-1.946v-9.12c0-1.096.852-1.947 1.948-1.947h9.131c1.096 0 1.948.852 1.948 1.946v9.121c0 1.095.852 1.946 1.948 1.946h62.092c1.095 0 1.948.852 1.948 1.946V97.21c0 1.094.852 1.946 1.948 1.946h13.636c.973 0 1.826.73 1.826 1.702.852 9.122 8.644 16.297 18.018 16.297h340.409c9.375 0 17.167-7.175 18.019-16.297.122-.973.852-1.702 1.826-1.702h92.042c4.139-.122 6.696 4.864 4.139 8.513z" stroke="#2C373D" stroke-width="4" stroke-miterlimit="10" stroke-linejoin="round"/><path d="M599.959 113.75a5.065 5.065 0 01-5.068 5.061 5.065 5.065 0 01-5.068-5.061 5.065 5.065 0 015.068-5.061 5.065 5.065 0 015.068 5.061z" stroke="#2C373D" stroke-width="3.5"/><path d="M309.634 88.818H255.7c-1.461 0-2.557 1.216-2.557 2.554V110.1c0 1.46 1.218 2.554 2.557 2.554h53.934c1.461 0 2.557-1.216 2.557-2.554V91.37c.122-1.337-1.096-2.553-2.557-2.553zm-64.039-27.851H191.66c-1.461 0-2.556 1.216-2.556 2.554v18.73c0 1.459 1.217 2.553 2.556 2.553h53.935c1.461 0 2.557-1.216 2.557-2.554V63.521c0-1.46-1.096-2.554-2.557-2.554zm64.039 0H255.7c-1.461 0-2.557 1.216-2.557 2.554v18.73c0 1.459 1.218 2.553 2.557 2.553h53.934c1.461 0 2.557-1.216 2.557-2.554V63.521c.122-1.46-1.096-2.554-2.557-2.554zm-64.039 27.85H191.66c-1.461 0-2.556 1.217-2.556 2.555V110.1c0 1.46 1.217 2.554 2.556 2.554h53.935c1.461 0 2.557-1.216 2.557-2.554V91.37c0-1.337-1.096-2.553-2.557-2.553zm240.94-27.85h-26.176c-1.461 0-2.557 1.216-2.557 2.554v46.58c0 1.46 1.218 2.554 2.557 2.554h26.176c1.461 0 2.557-1.216 2.557-2.554v-46.58c0-1.46-1.096-2.554-2.557-2.554zm-37.255 0h-26.176c-1.461 0-2.557 1.216-2.557 2.554v46.58c0 1.46 1.218 2.554 2.557 2.554h26.176c1.461 0 2.557-1.216 2.557-2.554v-46.58c0-1.46-1.096-2.554-2.557-2.554zm-37.62 0h-26.176c-1.461 0-2.557 1.216-2.557 2.554v46.58c0 1.46 1.218 2.554 2.557 2.554h26.176c1.461 0 2.556-1.216 2.556-2.554v-46.58c.122-1.46-1.095-2.554-2.556-2.554zm-37.621 0h-53.934c-1.461 0-2.557 1.216-2.557 2.554v18.73c0 1.459 1.218 2.553 2.557 2.553h53.934c1.461 0 2.557-1.216 2.557-2.554V63.521c0-1.46-1.217-2.554-2.557-2.554zm0 27.85h-53.934c-1.461 0-2.557 1.217-2.557 2.555V110.1c0 1.46 1.218 2.554 2.557 2.554h53.934c1.461 0 2.557-1.216 2.557-2.554V91.37c0-1.337-1.217-2.553-2.557-2.553z" fill="url(#paint0_linear)"/><path d="M121.899 57.683h-9.862v9.851h9.862v-9.85zm-15.34 0h-9.862v9.851h9.862v-9.85zm-15.219.243h-9.862v9.852h9.862v-9.852zm-15.219 0H66.26v9.852h9.861v-9.852z" stroke="#2C373D" stroke-width="4" stroke-miterlimit="10" stroke-linejoin="round"/><path d="M22.674 99.034h86.441M81.478 2.225V48.44" stroke="#2C373D" stroke-width="4" stroke-miterlimit="10" stroke-linecap="round" stroke-linejoin="round"/><defs><linearGradient id="paint0_linear" x1="189.097" y1="86.858" x2="489.141" y2="86.858" gradientUnits="userSpaceOnUse"><stop stop-color="#008DD2"/><stop offset="1" stop-color="#003C5F"/></linearGradient></defs></svg>