<svg width="875" height="876" fill="none" xmlns="http://www.w3.org/2000/svg"><path d="M2 1.53h799.83c39.306 0 71.17 31.884 71.17 71.213v69.789c0 39.33-31.864 71.213-71.17 71.213H73.17C33.864 213.745 2 245.628 2 284.957v69.077c0 39.33 31.864 71.213 71.17 71.213h728.66c39.306 0 71.17 31.883 71.17 71.212v69.789c0 39.33-31.864 71.213-71.17 71.213H87.76m82.913 236.07H73.17C33.864 873.531 2 841.648 2 802.318v-93.645c0-39.329 31.864-71.212 71.17-71.212" stroke="url(#paint0_linear)" stroke-opacity=".5" stroke-width="3" stroke-miterlimit="2.613" stroke-linecap="round" stroke-dasharray="4 16"/><defs><linearGradient id="paint0_linear" x1="-126.382" y1="1330" x2="1123.69" y2="195.266" gradientUnits="userSpaceOnUse"><stop stop-color="#008DD2"/><stop offset=".505" stop-color="#003C5F"/><stop offset="1" stop-color="#374148"/></linearGradient></defs></svg>