<svg width="724" height="150" fill="none" xmlns="http://www.w3.org/2000/svg"><path d="M291.704 104.626l1.664 1.11a1.998 1.998 0 00-1.664-3.11v2zm-8.522 12.77v2c.668 0 1.293-.334 1.664-.89l-1.664-1.11zm-57.587 0v-2c-.624 0-1.213.292-1.591.788l1.591 1.212zm-6.574 8.635v2a2 2 0 001.591-.789l-1.591-1.211zm-9.984-3.527l1.849-.762c-.011-.029-.024-.057-.037-.085l-1.812.847zm-3.409-5.108l-1.481 1.344.068.071 1.413-1.415zm-28.976 0l1.469 1.357.01-.011-1.479-1.346zm-3.409 5.23l-1.832-.803-.017.04 1.849.763zm-10.348-.122l-1.857.743.008.019 1.849-.762zm-3.166-5.108l-1.539 1.277c.021.025.043.051.066.075l1.473-1.352zm-29.707 0l-1.521-1.299-.005.006 1.526 1.293zm-11.931 8.635l-1.699 1.054a1.998 1.998 0 001.699.946v-2zm-5.357-8.635l1.7-1.054a2.001 2.001 0 00-1.7-.946v2zm-38.472 0h-2a2 2 0 002 2v-2zm0-12.77v-2a2 2 0 00-2 2h2zm67.692 0v2a2 2 0 002-2h-2zm0-8.27v-2a2 2 0 00-2 2h2zm15.827 0h2a2 2 0 00-2-2v2zm0 8.27h-2a2 2 0 002 2v-2zm107.991 0v2a2 2 0 002-2h-2zm0-8.27v-2a2 2 0 00-2 2h2zm15.219 0h2a2 2 0 00-2-2v2zm0 8.27h-2a2 2 0 002 2v-2zm193.458 22.742l-1.998.092v.008l1.998-.1zm-20.089 9h-2v2h2v-2zm-21.062-28.702l-.042-1.999h-.002l.044 1.999zm-20.332 28.702v2h2v-2h-2zm-66.11 0h-2v2h2v-2zm-21.062-25.54l-.021-2h-.011l-.012.001.044 1.999zm-26.298 25.419h-2v2h2v-2zm94.964-32.473v2h1.967l.033-1.966-2-.034zm1.217-72.485l2 .034v-.034h-2zm3.409-3.405l.162-1.994-.081-.006h-.081v2zm36.038 2.919l.168-1.993h-.007l-.161 1.993zM471.77 68.87l1.998-.092-.002-.038-.003-.039-1.993.169zm-9.253-7.42l-1.959.402v.003l1.959-.404zm-21.306-9.242v-2h-2v2h2zm0 23.959h-2v2h2v-2zm24.716 60.202v-2a2 2 0 00-2 2h2zm8.644-9l-1.998.092v.008l1.998-.1zm-2.679-58.255l1.998-.092a1.333 1.333 0 00-.006-.09l-1.992.182zm-36.646-38.067l.169-1.993h-.008l-.161 1.993zm-36.038-2.92l.162-1.992a1.994 1.994 0 00-.162-.007v2zm-3.409 3.406l2 .034v-.034h-2zm-1.217 72.485v2a2 2 0 002-1.966l-2-.034zm-94.964 32.473h-2a2 2 0 002 2v-2zm26.298-25.419l-.042-1.999h-.001l.043 1.999zm21.062 25.54h-2a2 2 0 002 2v-2zm66.11 0v2a2 2 0 002-2h-2zm20.332-28.702l-.042-1.999h-.001l.043 1.999zm21.062 28.581h-2a2 2 0 002 2v-2zm11.445 0v2a2 2 0 002-2h-2zM722 149a2 2 0 100-4v4zm-599-4a2 2 0 100 4v-4zm-12.214 4.071a2 2 0 000-4v4zm-66.352-4a2 2 0 100 4v-4zm-11.688 4a2 2 0 000-4v4zm-30.437-4a2 2 0 100 4v-4zm287.732-41.555l-8.523 12.77 3.328 2.22 8.522-12.77-3.327-2.22zm-6.859 11.88h-57.587v4h57.587v-4zm-59.178.788l-6.575 8.635 3.183 2.423 6.574-8.635-3.182-2.423zm-4.983 7.847h-4.749v4h4.749v-4zm-4.749 0c-1.474 0-2.831-.944-3.386-2.289l-3.698 1.524c1.15 2.79 3.932 4.765 7.084 4.765v-4zm-3.423-2.374c-.906-1.94-2.121-3.991-3.807-5.676l-2.827 2.83c1.235 1.234 2.212 2.831 3.01 4.539l3.624-1.693zm-3.739-5.605c-3.888-4.285-9.651-7.102-15.97-7.102v4c5.126 0 9.833 2.292 13.007 5.79l2.963-2.688zm-15.97-7.102c-6.311 0-11.954 2.69-15.967 7.1l2.958 2.692c3.292-3.617 7.876-5.792 13.009-5.792v-4zm-15.957 7.089a20.427 20.427 0 00-3.772 5.784l3.664 1.605a16.477 16.477 0 013.046-4.675l-2.938-2.714zm-3.789 5.824c-.545 1.323-1.766 2.168-3.264 2.168v4c3.128 0 5.803-1.831 6.962-4.643l-3.698-1.525zm-3.264 2.168h-.122v4h.122v-4zm-.122 0c-1.424 0-2.69-.895-3.264-2.289l-3.698 1.524c1.129 2.741 3.76 4.765 6.962 4.765v-4zm-3.257-2.271c-.809-2.021-2.027-4.058-3.548-5.716l-2.947 2.704c1.157 1.261 2.13 2.872 2.782 4.499l3.713-1.487zm-3.483-5.641c-3.92-4.727-9.847-7.534-16.392-7.534v4c5.386 0 10.173 2.301 13.314 6.088l3.078-2.554zm-16.392-7.534a21.528 21.528 0 00-16.374 7.512l3.041 2.598c3.164-3.706 7.972-6.11 13.333-6.11v-4zm-16.38 7.518c-1.46 1.725-2.808 3.866-3.633 6.063l3.745 1.406c.636-1.695 1.723-3.446 2.941-4.883l-3.053-2.586zm-3.633 6.063c-.427 1.136-1.486 1.865-2.754 1.865v4c2.871 0 5.464-1.704 6.499-4.459l-3.745-1.406zm-2.754 1.865h-4.018v4h4.018v-4zm-2.318.946l-5.357-8.635-3.399 2.108 5.357 8.635 3.399-2.108zm-7.057-9.581H74.262v4h38.472v-4zm-36.472 2v-12.77h-4v12.77h4zm-2-10.77h67.692v-4H74.262v4zm69.692-2v-8.27h-4v8.27h4zm-2-6.27h15.827v-4h-15.827v4zm13.827-2v8.27h4v-8.27h-4zm2 10.27h107.991v-4H157.781v4zm109.991-2v-8.27h-4v8.27h4zm-2-6.27h15.219v-4h-15.219v4zm13.219-2v8.27h4v-8.27h-4zm2 10.27h10.713v-4h-10.713v4zm191.46 20.842c.186 3.716-2.792 6.9-6.647 6.9v4c6.129 0 10.943-5.085 10.642-11.1l-3.995.2zm-6.647 6.9H454.36v4h11.444v-4zm-9.444 2v-7.54h-4v7.54h4zm0-7.54c0-12.606-10.35-23.43-23.104-23.161l.084 3.999c10.377-.219 19.02 8.66 19.02 19.162h4zm-23.106-23.161c-12.269.266-22.288 10.257-22.288 22.674h4c0-10.203 8.242-18.455 18.375-18.675l-.087-3.999zm-22.288 22.674v8.027h4v-8.027h-4zm2 6.027h-66.11v4h66.11v-4zm-64.11 2v-4.256h-4v4.256h4zm0-4.256c0-12.611-10.35-23.418-23.083-23.284l.042 4c10.398-.109 19.041 8.787 19.041 19.284h4zm-23.106-23.283c-12.268.266-22.288 10.257-22.288 22.675h4c0-10.204 8.242-18.456 18.375-18.676l-.087-3.999zm-22.288 22.675v1.337h4v-1.337h-4zm0 1.337c0 .793-.639 1.406-1.409 1.406v4c2.882 0 5.409-2.307 5.409-5.406h-4zm-1.409 1.406h-2.557v4h2.557v-4zm-.557 2v-22.5h-4v22.5h4zm0-22.5c0-4.366 3.607-7.973 7.983-7.973v-4c-6.581 0-11.983 5.394-11.983 11.973h4zm94.964-9.939l1.217-72.485-3.999-.067-1.218 72.485 4 .067zm1.217-72.519c0-.718.686-1.405 1.409-1.405v-4c-2.928 0-5.409 2.474-5.409 5.405h4zm1.248-1.412l36.037 2.92.323-3.988-36.037-2.919-.323 3.987zm36.031 2.919c19.145 1.612 33.191 16.929 34.821 36.242l3.986-.337c-1.778-21.064-17.196-38.099-38.471-39.891l-.336 3.986zm34.816 36.165l2.679 58.499 3.996-.183-2.679-58.499-3.996.183zm-7.255 9.206c2.917 0 4.838-2.669 4.408-5.248l-3.946.658a.54.54 0 01-.116.422.422.422 0 01-.346.168v4zm4.394-5.323l-2.435-11.797-3.918.808 2.435 11.797 3.918-.808zm-2.434-11.794c-1.284-6.267-6.838-10.842-13.161-10.842v4c4.392 0 8.334 3.208 9.242 7.644l3.919-.802zm-13.161-10.842h-10.105v4h10.105v-4zm-12.105 2v23.959h4v-23.96h-4zm2 25.959h21.306v-4h-21.306v4zm21.801-4.434c.01.038.015.124-.083.24a.535.535 0 01-.412.194v4c2.742 0 5.09-2.548 4.375-5.405l-3.88.971zm-11.696-19.525c4.501 0 8.331 3.195 9.242 7.644l3.919-.802c-1.281-6.254-6.704-10.842-13.161-10.842v4zm14.611 84.161c5.987 0 10.943-5.067 10.641-11.1l-3.995.2c.185 3.697-2.895 6.9-6.646 6.9v4zm10.642-11.092l-2.679-58.255-3.996.183 2.679 58.256 3.996-.184zm-2.685-58.345c-1.904-20.922-17.308-38.084-38.469-39.878l-.338 3.986c19.015 1.611 33.075 17.043 34.823 36.255l3.984-.363zm-38.477-39.879l-36.037-2.919-.323 3.987 36.037 2.92.323-3.988zm-36.199-2.925c-2.882 0-5.409 2.306-5.409 5.405h4c0-.793.639-1.405 1.409-1.405v-4zM393.8 31.5l-1.218 72.485 4 .067 1.217-72.485-3.999-.067zm-84.198 70.518c-6.582 0-11.984 5.394-11.984 11.973h4c0-4.366 3.607-7.973 7.984-7.973v-4zm-11.984 11.973v22.5h4v-22.5h-4zm2 24.5h2.557v-4h-2.557v4zm2.557 0c3.097 0 5.409-2.522 5.409-5.406h-4c0 .765-.61 1.406-1.409 1.406v4zm5.409-5.406v-1.337h-4v1.337h4zm0-1.337c0-10.212 8.128-18.456 18.375-18.676l-.086-3.999c-12.399.266-22.289 10.265-22.289 22.675h4zm18.374-18.676c10.37-.218 19.02 8.653 19.02 19.284h4c0-12.72-10.342-23.552-23.104-23.283l.084 3.999zm19.02 19.284v4.256h4v-4.256h-4zm2 6.256h66.11v-4h-66.11v4zm68.11-2v-8.027h-4v8.027h4zm0-8.027c0-10.211 8.128-18.455 18.375-18.675l-.086-3.999c-12.399.266-22.289 10.265-22.289 22.674h4zm18.374-18.675c10.377-.219 19.02 8.66 19.02 19.162h4c0-12.606-10.35-23.43-23.104-23.161l.084 3.999zm19.02 19.162v7.419h4v-7.419h-4zm2 9.419h11.445v-4h-11.445v4zm13.445-2v-.122h-4v.122h4zm-130.497-6.204c0 6.35-5.154 11.5-11.515 11.5v4c8.567 0 15.515-6.937 15.515-15.5h-4zm-11.515 11.5c-6.361 0-11.514-5.15-11.514-11.5h-4c0 8.563 6.948 15.5 15.514 15.5v-4zm-11.514-11.5c0-6.349 5.153-11.499 11.514-11.499v-4c-8.566 0-15.514 6.937-15.514 15.499h4zm11.514-11.499c6.361 0 11.515 5.15 11.515 11.499h4c0-8.562-6.948-15.499-15.515-15.499v4zm4.088 11.378a4.206 4.206 0 01-4.209 4.203v4c4.532 0 8.209-3.671 8.209-8.203h-4zm-4.209 4.203a4.206 4.206 0 01-4.209-4.203h-4c0 4.532 3.677 8.203 8.209 8.203v-4zm-4.209-4.203a4.206 4.206 0 014.209-4.203v-4c-4.532 0-8.209 3.671-8.209 8.203h4zm4.209-4.203a4.206 4.206 0 014.209 4.203h4c0-4.532-3.677-8.203-8.209-8.203v4zm119.992 4.324c0 6.35-5.153 11.5-11.514 11.5v4c8.566 0 15.514-6.937 15.514-15.5h-4zm-11.514 11.5c-6.361 0-11.514-5.15-11.514-11.5h-4c0 8.563 6.948 15.5 15.514 15.5v-4zm-11.514-11.5c0-6.349 5.153-11.499 11.514-11.499v-4c-8.566 0-15.514 6.937-15.514 15.499h4zm11.514-11.499c6.361 0 11.514 5.15 11.514 11.499h4c0-8.562-6.948-15.499-15.514-15.499v4zm4.088 11.378a4.207 4.207 0 01-4.209 4.203v4c4.531 0 8.209-3.671 8.209-8.203h-4zm-4.209 4.203a4.207 4.207 0 01-4.21-4.203h-4c0 4.532 3.678 8.203 8.21 8.203v-4zm-4.21-4.203a4.207 4.207 0 014.21-4.203v-4c-4.532 0-8.21 3.671-8.21 8.203h4zm4.21-4.203a4.207 4.207 0 014.209 4.203h4c0-4.532-3.678-8.203-8.209-8.203v4zM383.381.952H76.818v4h306.563v-4zm-306.563 0a6.362 6.362 0 00-6.382 6.378h4a2.363 2.363 0 012.382-2.378v-4zM70.436 7.33v87.323h4V7.33h-4zm0 87.323a6.362 6.362 0 006.382 6.378v-4a2.363 2.363 0 01-2.382-2.378h-4zm313.067 6.378a6.363 6.363 0 006.383-6.378h-4a2.363 2.363 0 01-2.383 2.378v4zm6.383-6.378V7.33h-4v87.323h4zm0-87.323c0-3.61-3.039-6.378-6.505-6.378v4c1.404 0 2.505 1.123 2.505 2.378h4zm-233.931 93.701h108.113v-4H155.955v4zM88.019 80.978h-4.504v4h4.504v-4zm-4.504 0a.27.27 0 01.106.02.09.09 0 01.029.017c.002.003.01.01.018.03.01.02.02.058.02.108h-4c0 2.08 1.75 3.825 3.827 3.825v-4zm.174.175V12.56h-4v68.593h4zm0-68.593c0 .05-.012.088-.02.108a.092.092 0 01-.02.03.088.088 0 01-.028.018.27.27 0 01-.106.02v-4c-2.077 0-3.826 1.744-3.826 3.824h4zm-.174.176h4.504v-4h-4.504v4zm4.504 0a.269.269 0 01-.106-.02.089.089 0 01-.029-.018.094.094 0 01-.018-.03.275.275 0 01-.02-.108h4c0-2.08-1.75-3.824-3.827-3.824v4zm-.173-.176v68.593h4V12.56h-4zm0 68.593c0-.013.006-.056.051-.104a.26.26 0 01.085-.06c.032-.013.049-.011.037-.011v4c2.285 0 3.827-1.834 3.827-3.825h-4zm17.949-.175h-4.505v4h4.505v-4zm-4.505 0c.05 0 .086.01.106.02a.08.08 0 01.029.017c.003.003.01.01.019.03.009.02.02.058.02.108h-4c0 2.08 1.75 3.825 3.826 3.825v-4zm.174.175V12.56h-4v68.593h4zm0-68.593c0 .05-.011.088-.02.108a.091.091 0 01-.019.03.079.079 0 01-.029.018.266.266 0 01-.106.02v-4c-2.077 0-3.826 1.744-3.826 3.824h4zm-.174.176h4.505v-4h-4.505v4zm4.505 0a.276.276 0 01-.107-.02.08.08 0 01-.028-.018.091.091 0 01-.019-.03.276.276 0 01-.02-.108h4c0-2.08-1.75-3.824-3.826-3.824v4zm-.174-.176v68.593h4V12.56h-4zm0 68.593c0-.05.011-.088.02-.108a.092.092 0 01.019-.03.083.083 0 01.028-.017.276.276 0 01.107-.02v4c2.076 0 3.826-1.745 3.826-3.825h-4zm17.34-.175h-4.505v4h4.505v-4zm-4.505 0c.05 0 .086.01.106.02a.08.08 0 01.029.017c.003.003.01.01.019.03.009.02.02.058.02.108h-4c0 2.08 1.75 3.825 3.826 3.825v-4zm.174.175V12.56h-4v68.593h4zm0-68.593c0 .05-.011.088-.02.108a.091.091 0 01-.019.03.079.079 0 01-.029.018.266.266 0 01-.106.02v-4c-2.076 0-3.826 1.744-3.826 3.824h4zm-.174.176h4.505v-4h-4.505v4zm4.505 0a.276.276 0 01-.107-.02.08.08 0 01-.028-.018.091.091 0 01-.019-.03.276.276 0 01-.02-.108h4c0-2.08-1.75-3.824-3.826-3.824v4zm-.174-.176v68.593h4V12.56h-4zm0 68.593c0-.05.011-.088.02-.108a.091.091 0 01.019-.03.083.083 0 01.028-.017.276.276 0 01.107-.02v4c2.076 0 3.826-1.745 3.826-3.825h-4zm17.827-.175h-4.505v4h4.505v-4zm-4.505 0c.05 0 .087.01.107.02.018.008.026.015.029.017.002.003.009.01.018.03.009.02.02.058.02.108h-4c0 2.08 1.75 3.825 3.826 3.825v-4zm.174.175V12.56h-4v68.593h4zm0-68.593c0 .05-.011.088-.02.108-.009.02-.016.027-.018.03-.003.002-.011.01-.029.018a.272.272 0 01-.107.02v-4c-2.076 0-3.826 1.744-3.826 3.824h4zm-.174.176h4.505v-4h-4.505v4zm4.505 0a.266.266 0 01-.106-.02c-.019-.008-.026-.016-.029-.018-.002-.003-.01-.01-.018-.03a.273.273 0 01-.021-.108h4c0-2.08-1.749-3.824-3.826-3.824v4zm-.174-.176v68.593h4V12.56h-4zm0 68.593c0-.014.006-.056.052-.104a.26.26 0 01.085-.06c.032-.013.049-.011.037-.011v4c2.285 0 3.826-1.834 3.826-3.825h-4zm18.437.068h-4.505v4h4.505v-4zm-4.505 0c.05 0 .086.01.106.02a.079.079 0 01.029.017c.003.003.01.01.019.03.009.02.02.058.02.108h-4c0 2.08 1.75 3.825 3.826 3.825v-4zm.174.175V12.803h-4v68.593h4zm0-68.593c0 .05-.011.088-.02.109a.091.091 0 01-.019.029.08.08 0 01-.029.018.266.266 0 01-.106.02v-4c-2.076 0-3.826 1.745-3.826 3.824h4zm-.174.176h4.505v-4h-4.505v4zm4.505 0a.276.276 0 01-.107-.02.082.082 0 01-.028-.018.091.091 0 01-.019-.03.276.276 0 01-.02-.108h4c0-2.08-1.75-3.824-3.826-3.824v4zm-.174-.176v68.593h4V12.803h-4zm0 68.593c0 .01-.001-.007.013-.04a.247.247 0 01.059-.084c.048-.046.09-.051.102-.051v4c1.988 0 3.826-1.537 3.826-3.825h-4zm18.437-.418h-4.505v4h4.505v-4zm-4.505 0c.05 0 .086.01.106.02.019.008.026.015.029.017.002.003.01.01.018.03a.27.27 0 01.021.108h-4c0 2.08 1.749 3.825 3.826 3.825v-4zm.174.175V12.56h-4v68.593h4zm0-68.593a.27.27 0 01-.021.108c-.008.02-.016.027-.018.03-.003.002-.01.01-.029.018a.266.266 0 01-.106.02v-4c-2.077 0-3.826 1.744-3.826 3.824h4zm-.174.176h4.505v-4h-4.505v4zm4.505 0a.272.272 0 01-.107-.02c-.018-.008-.026-.016-.029-.018-.002-.003-.01-.01-.018-.03a.276.276 0 01-.02-.108h4c0-2.08-1.75-3.824-3.826-3.824v4zm-.174-.176v68.593h4V12.56h-4zm0 68.593c0-.05.011-.088.02-.108.008-.02.016-.027.018-.03.003-.002.011-.01.029-.017a.272.272 0 01.107-.02v4c2.076 0 3.826-1.745 3.826-3.825h-4zm19.166-.175h-4.505v4h4.505v-4zm-4.505 0c.05 0 .086.01.106.02a.08.08 0 01.029.017.08.08 0 01.018.03.27.27 0 01.021.108h-4c0 2.08 1.749 3.825 3.826 3.825v-4zm.174.175V12.56h-4v68.593h4zm0-68.593a.27.27 0 01-.021.108.082.082 0 01-.018.03.08.08 0 01-.029.018.266.266 0 01-.106.02v-4c-2.077 0-3.826 1.744-3.826 3.824h4zm-.174.176h4.505v-4h-4.505v4zm4.505 0a.272.272 0 01-.107-.02.083.083 0 01-.028-.018.094.094 0 01-.019-.03.276.276 0 01-.02-.108h4c0-2.08-1.75-3.824-3.826-3.824v4zm-.174-.176v68.593h4V12.56h-4zm0 68.593c0-.05.011-.088.02-.108a.091.091 0 01.019-.03.083.083 0 01.028-.017.272.272 0 01.107-.02v4c2.076 0 3.826-1.745 3.826-3.825h-4zm18.436-.175h-4.504v4h4.504v-4zm-4.504 0c.05 0 .086.01.106.02.019.008.026.015.029.017.002.003.01.01.018.03.009.02.02.058.02.108h-4c0 2.08 1.75 3.825 3.827 3.825v-4zm.173.175V12.56h-4v68.593h4zm0-68.593c0 .05-.011.088-.02.108-.008.02-.016.027-.018.03-.003.002-.01.01-.029.018a.266.266 0 01-.106.02v-4c-2.077 0-3.827 1.744-3.827 3.824h4zm-.173.176h4.504v-4h-4.504v4zm4.504 0a.27.27 0 01-.106-.02c-.019-.008-.026-.016-.029-.018-.002-.003-.01-.01-.018-.03a.276.276 0 01-.02-.108h4c0-2.08-1.75-3.824-3.827-3.824v4zm-.173-.176v68.593h4V12.56h-4zm0 68.593c0-.05.011-.088.02-.108.008-.02.016-.027.018-.03.003-.002.01-.01.029-.017a.27.27 0 01.106-.02v4c2.077 0 3.827-1.745 3.827-3.825h-4zm19.166-.175h-4.505v4h4.505v-4zm-4.505 0c.05 0 .086.01.106.02.019.008.026.015.029.017.003.003.01.01.018.03a.27.27 0 01.021.108h-4c0 2.08 1.749 3.825 3.826 3.825v-4zm.174.175V12.56h-4v68.593h4zm0-68.593a.27.27 0 01-.021.108.08.08 0 01-.018.03c-.003.002-.01.01-.029.018a.266.266 0 01-.106.02v-4c-2.077 0-3.826 1.744-3.826 3.824h4zm-.174.176h4.505v-4h-4.505v4zm4.505 0a.272.272 0 01-.107-.02c-.018-.008-.026-.016-.029-.018-.002-.003-.01-.01-.018-.03a.276.276 0 01-.02-.108h4c0-2.08-1.75-3.824-3.826-3.824v4zm-.174-.176v68.593h4V12.56h-4zm0 68.593c0-.05.011-.088.02-.108.008-.02.016-.027.018-.03.003-.002.011-.01.029-.017a.272.272 0 01.107-.02v4c2.076 0 3.826-1.745 3.826-3.825h-4zm17.584.068h-4.505v4h4.505v-4zm-4.505 0c.05 0 .086.01.106.02a.079.079 0 01.029.017.08.08 0 01.018.03c.01.02.021.058.021.108h-4c0 2.08 1.75 3.825 3.826 3.825v-4zm.174.175V12.803h-4v68.593h4zm0-68.593c0 .05-.011.088-.021.109a.08.08 0 01-.018.029.08.08 0 01-.029.018.266.266 0 01-.106.02v-4c-2.076 0-3.826 1.745-3.826 3.824h4zm-.174.176h4.505v-4h-4.505v4zm4.505 0a.272.272 0 01-.107-.02.082.082 0 01-.028-.018.091.091 0 01-.019-.03.276.276 0 01-.02-.108h4c0-2.08-1.75-3.824-3.826-3.824v4zm-.174-.176v68.593h4V12.803h-4zm0 68.593c0 .01-.001-.007.013-.04a.247.247 0 01.059-.084c.048-.046.09-.051.102-.051v4c1.988 0 3.826-1.537 3.826-3.825h-4zm17.462-.418h-4.505v4h4.505v-4zm-4.505 0c.05 0 .086.01.106.02a.08.08 0 01.029.017c.003.003.01.01.019.03.009.02.02.058.02.108h-4c0 2.08 1.75 3.825 3.826 3.825v-4zm.174.175V12.56h-4v68.593h4zm0-68.593c0 .05-.011.088-.02.108a.091.091 0 01-.019.03.079.079 0 01-.029.018.266.266 0 01-.106.02v-4c-2.076 0-3.826 1.744-3.826 3.824h4zm-.174.176h4.505v-4h-4.505v4zm4.505 0a.276.276 0 01-.107-.02.08.08 0 01-.028-.018.091.091 0 01-.019-.03.276.276 0 01-.02-.108h4c0-2.08-1.75-3.824-3.826-3.824v4zm-.174-.176v68.593h4V12.56h-4zm0 68.593c0-.05.011-.088.02-.108a.091.091 0 01.019-.03.083.083 0 01.028-.017.276.276 0 01.107-.02v4c2.076 0 3.826-1.745 3.826-3.825h-4zm17.463.068h-4.505v4h4.505v-4zm-4.505 0c.05 0 .086.01.107.02a.08.08 0 01.028.017c.003.003.01.01.019.03.009.02.02.058.02.108h-4c0 2.08 1.75 3.825 3.826 3.825v-4zm.174.175V12.803h-4v68.593h4zm0-68.593c0 .05-.011.088-.02.109a.091.091 0 01-.019.029.082.082 0 01-.028.018.276.276 0 01-.107.02v-4c-2.076 0-3.826 1.745-3.826 3.824h4zm-.174.176h4.505v-4h-4.505v4zm4.505 0a.276.276 0 01-.107-.02.082.082 0 01-.028-.018.091.091 0 01-.019-.03.276.276 0 01-.02-.108h4c0-2.08-1.75-3.824-3.826-3.824v4zm-.174-.176v68.593h4V12.803h-4zm0 68.593c0 .051-.008.056.002.028a.383.383 0 01.202-.202c.027-.01.021-.001-.03-.001v4c1.002 0 1.992-.343 2.737-1.087.746-.745 1.089-1.735 1.089-2.738h-4zm18.315-.418h-4.505v4h4.505v-4zm-4.505 0c.05 0 .086.01.106.02.019.008.026.015.029.017.002.003.01.01.018.03a.27.27 0 01.021.108h-4c0 2.08 1.749 3.825 3.826 3.825v-4zm.174.175V12.56h-4v68.593h4zm0-68.593a.27.27 0 01-.021.108c-.008.02-.016.027-.018.03-.003.002-.01.01-.029.018a.266.266 0 01-.106.02v-4c-2.077 0-3.826 1.744-3.826 3.824h4zm-.174.176h4.505v-4h-4.505v4zm4.505 0a.272.272 0 01-.107-.02c-.018-.008-.026-.016-.029-.018-.002-.003-.01-.01-.018-.03a.276.276 0 01-.02-.108h4c0-2.08-1.75-3.824-3.826-3.824v4zm-.174-.176v68.593h4V12.56h-4zm0 68.593c0-.05.011-.088.02-.108.008-.02.016-.027.018-.03.003-.002.011-.01.029-.017a.272.272 0 01.107-.02v4c2.076 0 3.826-1.745 3.826-3.825h-4zm18.191.068h-4.505v4h4.505v-4zm-4.505 0c.05 0 .087.01.107.02a.083.083 0 01.028.017c.003.003.01.01.019.03.009.02.02.058.02.108h-4c0 2.08 1.75 3.825 3.826 3.825v-4zm.174.175V12.803h-4v68.593h4zm0-68.593c0 .05-.011.088-.02.109a.091.091 0 01-.019.029.08.08 0 01-.028.018.272.272 0 01-.107.02v-4c-2.076 0-3.826 1.745-3.826 3.824h4zm-.174.176h4.505v-4h-4.505v4zm4.505 0a.266.266 0 01-.106-.02c-.019-.008-.026-.015-.029-.018-.002-.003-.01-.01-.018-.03a.273.273 0 01-.021-.108h4c0-2.08-1.749-3.824-3.826-3.824v4zm-.174-.176v68.593h4V12.803h-4zm0 68.593c0 .051-.008.056.003.028a.35.35 0 01.082-.12.352.352 0 01.12-.082c.026-.01.021-.001-.031-.001v4c1.002 0 1.992-.343 2.738-1.087.745-.745 1.088-1.735 1.088-2.738h-4zm18.072-.297h-4.505v4h4.505v-4zm-4.505 0c.05 0 .086.011.106.02.019.008.026.015.029.018.002.002.01.01.018.03.009.02.021.057.021.108h-4c0 2.08 1.749 3.824 3.826 3.824v-4zm.174.176V12.68h-4v68.594h4zm0-68.594a.276.276 0 01-.021.109c-.008.019-.016.027-.018.03-.003.002-.01.01-.029.017a.266.266 0 01-.106.02v-4c-2.077 0-3.826 1.745-3.826 3.825h4zm-.174.176h4.505v-4h-4.505v4zm4.505 0a.272.272 0 01-.107-.02.095.095 0 01-.029-.018c-.002-.002-.01-.01-.018-.029a.276.276 0 01-.02-.108h4c0-2.08-1.75-3.825-3.826-3.825v4zm-.174-.175v68.593h4V12.68h-4zm0 68.593c0 .01-.002-.007.013-.04a.248.248 0 01.059-.085c.048-.046.09-.051.102-.051v4c1.987 0 3.826-1.537 3.826-3.824h-4zm18.314-.42h-4.505v4h4.505v-4zm-4.505 0c.05 0 .087.012.107.02a.111.111 0 01.029.019c.002.002.01.01.018.03a.27.27 0 01.02.108h-4c0 2.08 1.75 3.824 3.826 3.824v-4zm.174.177V12.438h-4v68.594h4zm0-68.594a.28.28 0 01-.02.109c-.008.019-.016.027-.018.03-.003.002-.011.009-.029.017a.272.272 0 01-.107.02v-4c-2.076 0-3.826 1.745-3.826 3.824h4zm-.174.176h4.505v-4h-4.505v4zm4.505 0a.266.266 0 01-.106-.02c-.019-.008-.026-.015-.029-.018a.082.082 0 01-.018-.03.273.273 0 01-.021-.108h4c0-2.08-1.749-3.824-3.826-3.824v4zm-.174-.176v68.594h4V12.438h-4zm0 68.594c0-.051.012-.088.021-.109a.08.08 0 01.018-.03c.003-.002.01-.01.029-.017a.266.266 0 01.106-.02v4c2.077 0 3.826-1.745 3.826-3.824h-4zm18.193.067h-4.505v4h4.505v-4zm-4.505 0c.05 0 .086.011.106.02a.08.08 0 01.029.018.08.08 0 01.018.03.25.25 0 01.021.108h-4c0 2.08 1.749 3.824 3.826 3.824v-4zm.174.176V12.68h-4v68.594h4zm0-68.594a.259.259 0 01-.021.109.08.08 0 01-.018.03.079.079 0 01-.029.017.266.266 0 01-.106.02v-4c-2.077 0-3.826 1.745-3.826 3.825h4zm-.174.176h4.505v-4h-4.505v4zm4.505 0a.272.272 0 01-.107-.02.08.08 0 01-.028-.018.091.091 0 01-.019-.029.276.276 0 01-.02-.108h4c0-2.08-1.75-3.825-3.826-3.825v4zm-.174-.175v68.593h4V12.68h-4zm0 68.593c0 .01-.001-.007.013-.04a.248.248 0 01.059-.085c.048-.046.09-.051.102-.051v4c1.988 0 3.826-1.537 3.826-3.824h-4zm-172.883 48.769c0 6.349-5.153 11.5-11.514 11.5v4c8.566 0 15.514-6.938 15.514-15.5h-4zm-11.514 11.5c-6.361 0-11.514-5.151-11.514-11.5h-4c0 8.562 6.948 15.5 15.514 15.5v-4zm-11.514-11.5c0-6.349 5.153-11.5 11.514-11.5v-4c-8.566 0-15.514 6.938-15.514 15.5h4zm11.514-11.5c6.361 0 11.514 5.151 11.514 11.5h4c0-8.562-6.948-15.5-15.514-15.5v4zm4.088 11.379a4.206 4.206 0 01-4.209 4.202v4c4.531 0 8.209-3.67 8.209-8.202h-4zm-4.209 4.202a4.206 4.206 0 01-4.209-4.202h-4c0 4.532 3.677 8.202 8.209 8.202v-4zm-4.209-4.202a4.206 4.206 0 014.209-4.203v-4c-4.532 0-8.209 3.67-8.209 8.203h4zm4.209-4.203a4.207 4.207 0 014.209 4.203h4c0-4.533-3.678-8.203-8.209-8.203v4zm-34.263 4.324c0 6.349-5.153 11.5-11.514 11.5v4c8.566 0 15.514-6.938 15.514-15.5h-4zm-11.514 11.5c-6.362 0-11.515-5.151-11.515-11.5h-4c0 8.562 6.948 15.5 15.515 15.5v-4zm-11.515-11.5c0-6.349 5.153-11.5 11.515-11.5v-4c-8.567 0-15.515 6.938-15.515 15.5h4zm11.515-11.5c6.361 0 11.514 5.151 11.514 11.5h4c0-8.562-6.948-15.5-15.514-15.5v4zm4.086 11.379a4.205 4.205 0 01-4.209 4.202v4c4.532 0 8.209-3.67 8.209-8.202h-4zm-4.209 4.202a4.206 4.206 0 01-4.209-4.202h-4c0 4.532 3.677 8.202 8.209 8.202v-4zm-4.209-4.202a4.207 4.207 0 014.209-4.203v-4c-4.532 0-8.209 3.67-8.209 8.203h4zm4.209-4.203a4.206 4.206 0 014.209 4.203h4c0-4.533-3.677-8.203-8.209-8.203v4zm164.482-19.946h84.981v-4h-84.981v4zm85.103-3.756h-84.98v4h84.98v-4zm-317.764-.987h306.685v-4H76.819v4zM722 145H123v4h599v-4zm-611.214.071H44.434v4h66.352v-4zm-78.04 0H2.309v4h30.437v-4z" fill="#2C373D"/></svg>