<svg width="626" height="192" fill="none" xmlns="http://www.w3.org/2000/svg"><path d="M289.547 162.344a2 2 0 100 4v-4zm245.688 4a2 2 0 000-4v4zm87.536-58.675l1.522 1.298c.041-.048.08-.098.116-.15l-1.638-1.148zm-50.038 58.621l1.513 1.308.008-.01-1.521-1.298zm-4.14 9.364l-1.981-.273-.003.027 1.984.246zm-1.704 13.743v2a2 2 0 001.985-1.754l-1.985-.246zM25.595 169.208l-1.868.713a2 2 0 001.868 1.287v-2zM2.95 109.858l-1.874.698.005.015 1.87-.713zm145.368-9h-2c0 .062.003.124.008.186l1.992-.186zm376.446 0l-1.985-.248c-.002.021-.005.041-.006.062l1.991.186zm93.868-1.702v2l.059-.001-.059-2zm-306.441-7.784l-1.992-.181-.008.09v.09h2zm0-27.85l-1.993-.167-.007.083v.083h2zm102.025 0l-1.993-.167-.007.083v.083h2zm-302.179-5.839v-2a2 2 0 00-2 2h2zm9.862 0h2a2 2 0 00-2-2v2zm0 9.851v2a2 2 0 002-2h-2zm-9.862 0h-2a2 2 0 002 2v-2zm-15.34-9.85v-2a2 2 0 00-2 2h2zm9.862 0h2a2 2 0 00-2-2v2zm0 9.85v2a2 2 0 002-2h-2zm-9.862 0h-2a2 2 0 002 2v-2zm-15.219-9.608v-2a2 2 0 00-2 2h2zm9.862 0h2a2 2 0 00-2-2v2zm0 9.852v2a2 2 0 002-2h-2zm-9.862 0h-2a2 2 0 002 2v-2zM66.26 57.926v-2a2 2 0 00-2 2h2zm9.861 0h2a2 2 0 00-2-2v2zm0 9.852v2a2 2 0 002-2h-2zm-9.861 0h-2a2 2 0 002 2v-2zM22.674 97.034a2 2 0 000 4v-4zm86.441 4a2 2 0 100-4v4zM83.479 2.224a2 2 0 10-4 0h4zm-4 46.216a2 2 0 104 0h-4zm210.068 117.904h245.688v-4H289.547v4zm331.703-59.973l-50.038 58.62 3.042 2.597 50.039-58.621-3.043-2.596zm-50.03 58.61c-2.589 2.995-4.073 6.526-4.608 10.4l3.963.547c.439-3.18 1.633-5.973 3.671-8.33l-3.026-2.617zm-4.611 10.427l-1.705 13.743 3.97.492 1.704-13.743-3.969-.492zm.28 11.989H27.665v4h539.224v-4zm-539.224 0c-.013 0-.011-.002-.001.002a.104.104 0 01.05.051c.005.011.003.013.003.001h-4a3.922 3.922 0 003.948 3.946v-4zm.052.054v-17.878h-4v17.878h4zm0-17.878c0-.02.007-.315-.054-.62a2.253 2.253 0 00-.354-.844 2.083 2.083 0 00-1.714-.901v4a1.906 1.906 0 01-1.574-.821 1.744 1.744 0 01-.28-.649c-.03-.153-.024-.266-.024-.165h4zm-.253-1.078l-22.645-59.35-3.737 1.426 22.645 59.35 3.737-1.426zM4.824 109.16c-1.463-3.929 1.354-8.004 5.553-8.004v-4c-7.002 0-11.733 6.87-9.301 13.4l3.748-1.396zm5.553-8.004h18.992v-4H10.377v4zm18.992 0a3.922 3.922 0 003.949-3.946h-4c0 .012-.002.01.002-.001a.097.097 0 01.05-.051c.01-.005.012-.002 0-.002v4zm3.949-3.946V50.994h-4V97.21h4zm0-46.216c0-.012.001-.01-.003.001a.096.096 0 01-.05.051c-.01.005-.012.002 0 .002v-4a3.922 3.922 0 00-3.948 3.946h4zm-.052.054h16.679v-4h-16.68v4zm16.679 0a3.922 3.922 0 003.948-3.946h-4c0 .013-.002.01.002 0a.097.097 0 01.051-.051c.01-.005.012-.003-.001-.003v4zm3.948-3.946v-9.12h-4v9.12h4zm0-9.12c0-.013.002-.01-.003 0a.097.097 0 01-.05.051c-.01.004-.012.002.001.002v-4a3.922 3.922 0 00-3.948 3.946h4zm-.052.053h9.131v-4h-9.131v4zm9.131 0c.013 0 .011.002.001-.002a.097.097 0 01-.05-.051c-.005-.01-.003-.013-.003 0h4a3.922 3.922 0 00-3.948-3.947v4zm-.052-.054v9.121h4v-9.12h-4zm0 9.121a3.922 3.922 0 003.948 3.946v-4c-.013 0-.011-.002-.001.002.009.004.02.011.03.021.01.01.016.02.02.03.005.011.003.014.003.002h-4zm3.948 3.946h62.092v-4H66.868v4zm62.092 0c.013 0 .011.002.001-.002a.098.098 0 01-.051-.05c-.004-.011-.002-.014-.002-.002h4a3.922 3.922 0 00-3.948-3.946v4zm-.052-.054V97.21h4V50.994h-4zm0 46.216a3.922 3.922 0 003.948 3.946v-4c-.013 0-.012-.003-.002.002a.095.095 0 01.051.051c.005.01.003.013.003 0h-4zm3.948 3.946h13.636v-4h-13.636v4zm13.636 0c-.009 0-.032-.002-.067-.033a.392.392 0 01-.107-.265h4c0-2.254-1.934-3.702-3.826-3.702v4zm-.166-.112c.949 10.153 9.606 18.111 20.01 18.111v-4c-8.345 0-15.271-6.392-16.027-14.483l-3.983.372zm20.01 18.111h340.409v-4H166.336v4zm340.409 0c10.404 0 19.062-7.958 20.01-18.111l-3.982-.372c-.756 8.091-7.683 14.483-16.028 14.483v4zm20.003-18.048c.008-.059.025-.051-.012-.016a.243.243 0 01-.146.065v-4c-2.112 0-3.581 1.615-3.811 3.454l3.969.497zm-.158.049h92.042v-4H526.59v4zm92.101-.001c2.294-.068 4.172 2.898 2.442 5.366l3.276 2.296c3.384-4.829.149-11.836-5.836-11.66l.118 3.998zm-23.8 21.406c4.868 0 8.818-3.943 8.818-8.811h-4a4.814 4.814 0 01-4.818 4.811v4zm8.818-8.811c0-4.868-3.95-8.811-8.818-8.811v4a4.814 4.814 0 014.818 4.811h4zm-8.818-8.811c-4.868 0-8.818 3.943-8.818 8.811h4a4.814 4.814 0 014.818-4.811v-4zm-8.818 8.811c0 4.868 3.95 8.811 8.818 8.811v-4a4.814 4.814 0 01-4.818-4.811h-4zM309.634 86.818H255.7v4h53.934v-4zm-53.934 0c-2.625 0-4.557 2.172-4.557 4.554h4c0-.124.054-.27.167-.387a.527.527 0 01.39-.167v-4zm-4.557 4.554V110.1h4V91.37h-4zm0 18.729c0 2.628 2.178 4.554 4.557 4.554v-4a.58.58 0 01-.391-.167.522.522 0 01-.166-.387h-4zm4.557 4.554h53.934v-4H255.7v4zm53.934 0c2.625 0 4.557-2.172 4.557-4.554h-4c0 .124-.053.27-.167.387a.525.525 0 01-.39.167v4zm4.557-4.554v-18.73h-4v18.73h4zm-.008-18.548c.244-2.686-2.097-4.735-4.549-4.735v4a.66.66 0 01.459.19.408.408 0 01.096.138c.012.03.011.042.01.045l3.984.362zm-68.588-32.586H191.66v4h53.935v-4zm-53.935 0c-2.625 0-4.556 2.172-4.556 4.554h4c0-.124.053-.27.166-.387a.529.529 0 01.39-.167v-4zm-4.556 4.554v18.73h4V63.52h-4zm0 18.73c0 2.627 2.177 4.553 4.556 4.553v-4a.576.576 0 01-.39-.167.52.52 0 01-.166-.387h-4zm4.556 4.553h53.935v-4H191.66v4zm53.935 0c2.625 0 4.557-2.172 4.557-4.554h-4c0 .124-.054.27-.167.388a.529.529 0 01-.39.166v4zm4.557-4.554V63.521h-4v18.73h4zm0-18.729c0-2.566-1.994-4.554-4.557-4.554v4c.217 0 .343.075.413.145.069.07.144.194.144.41h4zm59.482-4.554H255.7v4h53.934v-4zm-53.934 0c-2.625 0-4.557 2.172-4.557 4.554h4c0-.124.054-.27.167-.387a.527.527 0 01.39-.167v-4zm-4.557 4.554v18.73h4V63.52h-4zm0 18.73c0 2.627 2.177 4.553 4.557 4.553v-4a.58.58 0 01-.391-.167.52.52 0 01-.166-.387h-4zm4.557 4.553h53.934v-4H255.7v4zm53.934 0c2.625 0 4.557-2.172 4.557-4.554h-4a.57.57 0 01-.167.388.526.526 0 01-.39.166v4zm4.557-4.554V63.521h-4v18.73h4zm-.007-18.563c.238-2.849-2.155-4.72-4.55-4.72v4c.236 0 .4.088.482.168a.28.28 0 01.069.097.27.27 0 01.013.123l3.986.332zm-68.589 23.13H191.66v4h53.935v-4zm-53.935 0c-2.625 0-4.556 2.173-4.556 4.555h4c0-.124.053-.27.166-.387a.528.528 0 01.39-.167v-4zm-4.556 4.555V110.1h4V91.37h-4zm0 18.729c0 2.628 2.177 4.554 4.556 4.554v-4a.577.577 0 01-.39-.167.522.522 0 01-.166-.387h-4zm4.556 4.554h53.935v-4H191.66v4zm53.935 0c2.625 0 4.557-2.172 4.557-4.554h-4c0 .124-.054.27-.167.387a.528.528 0 01-.39.167v4zm4.557-4.554v-18.73h-4v18.73h4zm0-18.73c0-2.381-1.932-4.553-4.557-4.553v4c.154 0 .285.06.39.167a.574.574 0 01.167.387h4zm236.383-32.404h-26.176v4h26.176v-4zm-26.176 0c-2.625 0-4.557 2.172-4.557 4.554h4c0-.124.054-.27.167-.387a.527.527 0 01.39-.167v-4zm-4.557 4.554v46.58h4v-46.58h-4zm0 46.58c0 2.628 2.178 4.554 4.557 4.554v-4a.577.577 0 01-.39-.167.523.523 0 01-.167-.387h-4zm4.557 4.554h26.176v-4h-26.176v4zm26.176 0c2.625 0 4.557-2.172 4.557-4.554h-4c0 .124-.054.27-.167.387a.527.527 0 01-.39.167v4zm4.557-4.554v-46.58h-4v46.58h4zm0-46.58c0-2.566-1.993-4.554-4.557-4.554v4c.218 0 .343.075.413.145.069.07.144.194.144.41h4zm-41.812-4.554h-26.176v4h26.176v-4zm-26.176 0c-2.625 0-4.557 2.172-4.557 4.554h4c0-.124.054-.27.167-.387a.527.527 0 01.39-.167v-4zm-4.557 4.554v46.58h4v-46.58h-4zm0 46.58c0 2.628 2.178 4.554 4.557 4.554v-4a.577.577 0 01-.39-.167.523.523 0 01-.167-.387h-4zm4.557 4.554h26.176v-4h-26.176v4zm26.176 0c2.625 0 4.557-2.172 4.557-4.554h-4c0 .124-.054.27-.167.387a.527.527 0 01-.39.167v4zm4.557-4.554v-46.58h-4v46.58h4zm0-46.58c0-2.566-1.993-4.554-4.557-4.554v4c.218 0 .343.075.413.145.069.07.144.194.144.41h4zm-42.177-4.554h-26.176v4h26.176v-4zm-26.176 0c-2.625 0-4.557 2.172-4.557 4.554h4c0-.124.054-.27.167-.387a.526.526 0 01.39-.167v-4zm-4.557 4.554v46.58h4v-46.58h-4zm0 46.58c0 2.628 2.177 4.554 4.557 4.554v-4a.58.58 0 01-.391-.167.522.522 0 01-.166-.387h-4zm4.557 4.554h26.176v-4h-26.176v4zm26.176 0c2.625 0 4.556-2.172 4.556-4.554h-4c0 .124-.053.27-.167.387a.524.524 0 01-.389.167v4zm4.556-4.554v-46.58h-4v46.58h4zm-.007-46.414c.238-2.849-2.155-4.72-4.549-4.72v4c.235 0 .399.088.481.168.04.038.059.071.069.097.009.023.019.06.013.123l3.986.332zm-42.17-4.72h-53.934v4h53.934v-4zm-53.934 0c-2.625 0-4.557 2.172-4.557 4.554h4c0-.124.054-.27.167-.387a.527.527 0 01.39-.167v-4zm-4.557 4.554v18.73h4V63.52h-4zm0 18.73c0 2.627 2.177 4.553 4.557 4.553v-4a.58.58 0 01-.391-.167.52.52 0 01-.166-.387h-4zm4.557 4.553h53.934v-4h-53.934v4zm53.934 0c2.625 0 4.557-2.171 4.557-4.554h-4a.57.57 0 01-.167.388.526.526 0 01-.39.166v4zm4.557-4.554V63.521h-4v18.73h4zm0-18.729c0-2.627-2.177-4.554-4.557-4.554v4c.126 0 .274.054.391.168a.52.52 0 01.166.386h4zm-4.557 23.297h-53.934v4h53.934v-4zm-53.934 0c-2.625 0-4.557 2.172-4.557 4.554h4c0-.124.054-.27.167-.387a.526.526 0 01.39-.167v-4zm-4.557 4.554V110.1h4V91.37h-4zm0 18.729c0 2.628 2.177 4.554 4.557 4.554v-4a.58.58 0 01-.391-.167.522.522 0 01-.166-.387h-4zm4.557 4.554h53.934v-4h-53.934v4zm53.934 0c2.625 0 4.557-2.172 4.557-4.554h-4c0 .124-.053.27-.167.387a.525.525 0 01-.39.167v4zm4.557-4.554v-18.73h-4v18.73h4zm0-18.73c0-2.444-2.115-4.553-4.557-4.553v4c.064 0 .214.036.368.19s.189.302.189.364h4zM112.037 59.684h9.862v-4h-9.862v4zm7.862-2v9.851h4v-9.85h-4zm2 7.851h-9.862v4h9.862v-4zm-7.862 2v-9.85h-4v9.85h4zm-17.34-7.85h9.862v-4h-9.862v4zm7.862-2v9.85h4v-9.85h-4zm2 7.85h-9.862v4h9.862v-4zm-7.862 2v-9.85h-4v9.85h4zm-17.219-7.608h9.862v-4h-9.862v4zm7.862-2v9.852h4v-9.852h-4zm2 7.852h-9.862v4h9.862v-4zm-7.862 2v-9.852h-4v9.852h4zM66.26 59.926h9.861v-4H66.26v4zm7.861-2v9.852h4v-9.852h-4zm2 7.852H66.26v4h9.861v-4zm-7.861 2v-9.852h-4v9.852h4zm-45.586 33.256h86.441v-4H22.674v4zm56.804-98.81V48.44h4V2.225h-4z" fill="#2C373D"/></svg>