<svg width="30" height="30" viewBox="0 0 30 30" fill="none" xmlns="http://www.w3.org/2000/svg">
<path d="M25.0911 4.40511C22.3593 1.67107 18.7264 0.164623 14.8557 0.163086C6.88051 0.163086 0.389649 6.65146 0.386458 14.6267C0.385433 17.176 1.05169 19.6645 2.31786 21.858L0.265137 29.3535L7.93548 27.3422C10.0489 28.4944 12.4283 29.1017 14.85 29.1027H14.8559C22.8303 29.1027 29.3218 22.6136 29.325 14.6382C29.3265 10.7733 27.8229 7.13914 25.0911 4.40511ZM14.8559 26.6598H14.851C12.693 26.659 10.5764 26.0795 8.73 24.9841L8.29081 24.7235L3.73912 25.9172L4.95407 21.4807L4.66804 21.0259C3.46421 19.1117 2.82841 16.8992 2.82935 14.6277C2.83195 7.99899 8.22694 2.60606 14.8606 2.60606C18.0727 2.60728 21.0923 3.8595 23.3628 6.13189C25.6334 8.40429 26.8832 11.4249 26.882 14.6373C26.8794 21.2666 21.4844 26.6598 14.8559 26.6598ZM21.4525 17.6557C21.0909 17.4748 19.3135 16.6004 18.9821 16.4798C18.6507 16.3591 18.4097 16.2989 18.1686 16.6607C17.9277 17.0225 17.2348 17.8366 17.0238 18.0778C16.813 18.319 16.6021 18.3492 16.2406 18.1683C15.879 17.9874 14.7141 17.6057 13.3332 16.3744C12.2585 15.4162 11.5328 14.2325 11.3219 13.8707C11.1111 13.5088 11.2995 13.3133 11.4805 13.133C11.6431 12.9711 11.842 12.7109 12.0228 12.4999C12.2035 12.2889 12.2638 12.1381 12.3843 11.8969C12.5049 11.6556 12.4446 11.4446 12.3542 11.2637C12.2638 11.0828 11.5408 9.30381 11.2395 8.58018C10.946 7.87542 10.6479 7.97078 10.426 7.95971C10.2154 7.94923 9.9741 7.94702 9.73311 7.94702C9.49212 7.94702 9.10042 8.03745 8.76904 8.39928C8.43767 8.76112 7.5037 9.6355 7.5037 11.4144C7.5037 13.1933 8.79915 14.912 8.97993 15.1532C9.16071 15.3944 11.5292 19.045 15.156 20.6105C16.0186 20.9829 16.692 21.2053 17.217 21.3718C18.0831 21.6468 18.8712 21.6081 19.4942 21.515C20.1888 21.4113 21.6332 20.6407 21.9345 19.7965C22.2358 18.9522 22.2358 18.2286 22.1454 18.0779C22.055 17.9271 21.814 17.8366 21.4525 17.6557Z" fill="#454B52"/>
</svg>
