<svg width="31" height="33" viewBox="0 0 31 33" fill="none" xmlns="http://www.w3.org/2000/svg">
<path d="M27.5008 3.20881C26.6885 2.45447 23.406 0.056196 16.0943 0.0236134C16.0943 0.0236134 7.47208 -0.499683 3.26885 3.38061C0.929095 5.73594 0.106011 9.18229 0.0191895 13.455C-0.0676317 17.7278 -0.179961 25.7352 7.48924 27.9064H7.4966L7.4917 31.2195C7.4917 31.2195 7.44264 32.5608 8.32018 32.8343C9.38165 33.166 10.0046 32.1466 11.018 31.0477C11.5743 30.4444 12.3424 29.5583 12.9212 28.8809C18.1663 29.3252 22.2003 28.3097 22.6584 28.1597C23.7174 27.8141 29.7101 27.041 30.6847 19.0346C31.6908 10.7818 30.1981 5.56167 27.5008 3.20881ZM28.3896 18.4427C27.567 25.128 22.7065 25.5481 21.8103 25.8374C21.4292 25.9608 17.8862 26.848 13.4309 26.5552C13.4309 26.5552 10.111 30.5861 9.0741 31.6342C8.91223 31.7981 8.72191 31.8642 8.59486 31.8316C8.41632 31.7877 8.36726 31.5749 8.36923 31.2639C8.37217 30.8196 8.39768 25.7584 8.39768 25.7584C8.39768 25.7584 8.39375 25.7584 8.39768 25.7584C1.91012 23.9457 2.28831 17.1305 2.36189 13.5617C2.43547 9.9929 3.10159 7.06935 5.08032 5.10304C8.63558 1.86206 15.9595 2.34636 15.9595 2.34636C22.1444 2.37351 25.1081 4.248 25.7953 4.87595C28.0771 6.84226 29.2397 11.5475 28.3896 18.4407V18.4427Z" fill="#454B52"/>
<path fill-rule="evenodd" clip-rule="evenodd" d="M16.4495 10.5625C16.4609 10.3065 16.6475 10.1098 16.8662 10.1232C17.6846 10.1732 18.3654 10.463 18.8503 11.0498C19.3334 11.6342 19.5702 12.4508 19.6117 13.4314C19.6226 13.6874 19.4541 13.9052 19.2353 13.9179C19.0165 13.9306 18.8304 13.7334 18.8196 13.4774C18.784 12.6379 18.5872 12.0665 18.2802 11.6951C17.9751 11.3259 17.5095 11.0919 16.8249 11.0501C16.6062 11.0368 16.4381 10.8185 16.4495 10.5625Z" fill="#454B52"/>
<path fill-rule="evenodd" clip-rule="evenodd" d="M15.8173 8.6088C15.833 8.38053 16.0196 8.20903 16.234 8.22573C17.8685 8.3531 19.1842 8.94775 20.1426 10.0616L20.1427 10.0617C21.0907 11.1645 21.5412 12.5365 21.5085 14.1457C21.5038 14.3745 21.3258 14.556 21.1109 14.551C20.896 14.5461 20.7255 14.3566 20.7302 14.1277C20.759 12.7086 20.3671 11.5504 19.5684 10.6213C18.7722 9.69599 17.6592 9.16786 16.1771 9.05237C15.9627 9.03567 15.8016 8.83708 15.8173 8.6088Z" fill="#454B52"/>
<path fill-rule="evenodd" clip-rule="evenodd" d="M15.1837 6.11254C15.1853 5.87968 15.3698 5.69224 15.5959 5.69386C17.9712 5.7109 19.979 6.52547 21.5911 8.14425C23.2166 9.77657 24.0205 11.9988 24.0408 14.7588C24.0426 14.9917 23.8607 15.1819 23.6347 15.1836C23.4086 15.1854 23.224 14.9981 23.2223 14.7652C23.2032 12.179 22.4562 10.1907 21.0196 8.74807C19.5696 7.29194 17.7692 6.55272 15.5902 6.53709C15.3641 6.53546 15.1822 6.34539 15.1837 6.11254Z" fill="#454B52"/>
<path d="M16.8526 18.9024C16.8526 18.9024 17.4341 18.9515 17.7471 18.5658L18.3575 17.798C18.6519 17.4172 19.3625 17.1743 20.0582 17.562C20.5796 17.8593 21.0858 18.1825 21.5749 18.5305C22.0367 18.87 22.9822 19.659 22.9852 19.659C23.4356 20.0392 23.5396 20.5976 23.233 21.1863C23.233 21.1898 23.2305 21.1956 23.2305 21.1986C22.8927 21.7841 22.4639 22.3121 21.9601 22.7628C21.9542 22.7657 21.9542 22.7686 21.9488 22.7716C21.5112 23.1373 21.0812 23.3451 20.6588 23.3952C20.5967 23.4061 20.5335 23.41 20.4704 23.407C20.2842 23.4088 20.0989 23.3803 19.9218 23.3226L19.9081 23.3025C19.2574 23.119 18.1711 22.6597 16.3619 21.6618C15.315 21.091 14.3183 20.4327 13.3825 19.6938C12.9135 19.3236 12.466 18.9269 12.0425 18.5055L11.9973 18.4603L11.9522 18.4152L11.907 18.37C11.8918 18.3553 11.8771 18.3401 11.8619 18.3249C11.4404 17.9014 11.0436 17.454 10.6734 16.985C9.93458 16.0493 9.27619 15.0529 8.70532 14.0063C7.70727 12.1968 7.24799 11.1115 7.06448 10.4599L7.04436 10.4462C6.98684 10.2691 6.9585 10.0838 6.96045 9.89765C6.95702 9.83462 6.96081 9.77141 6.97174 9.70925C7.02441 9.28762 7.23262 8.85733 7.59638 8.41837C7.59932 8.41297 7.60227 8.41297 7.60521 8.40708C8.05581 7.90335 8.58387 7.4747 9.16951 7.1373C9.17245 7.1373 9.17834 7.13436 9.18177 7.13436C9.77059 6.82771 10.329 6.93173 10.7088 7.37968C10.7117 7.38263 11.4993 8.32809 11.8373 8.78978C12.1854 9.27931 12.5086 9.78596 12.806 10.3078C13.1936 11.0031 12.9507 11.715 12.5699 12.0084L11.802 12.6187C11.4144 12.9318 11.4654 13.5132 11.4654 13.5132C11.4654 13.5132 12.6028 17.8176 16.8526 18.9024Z" fill="#454B52"/>
</svg>
