<svg width="30" height="30" viewBox="0 0 30 30" fill="none" xmlns="http://www.w3.org/2000/svg">
<path d="M9.96723 15.0818C9.96723 12.4031 12.1382 10.2311 14.817 10.2311C17.4958 10.2311 19.6679 12.4031 19.6679 15.0818C19.6679 17.7605 17.4958 19.9325 14.817 19.9325C12.1382 19.9325 9.96723 17.7605 9.96723 15.0818ZM7.34491 15.0818C7.34491 19.2085 10.6901 22.5536 14.817 22.5536C18.9438 22.5536 22.2891 19.2085 22.2891 15.0818C22.2891 10.9551 18.9438 7.61001 14.817 7.61001C10.6901 7.61001 7.34491 10.9551 7.34491 15.0818ZM20.8387 7.31375C20.8385 7.6591 20.9408 7.99674 21.1326 8.28396C21.3243 8.57119 21.597 8.7951 21.916 8.92739C22.235 9.05968 22.5861 9.09439 22.9248 9.02715C23.2636 8.95992 23.5748 8.79374 23.8191 8.54964C24.0634 8.30553 24.2299 7.99447 24.2974 7.65578C24.3649 7.3171 24.3304 6.966 24.1984 6.64688C24.0664 6.32777 23.8427 6.05497 23.5556 5.86299C23.2685 5.67101 22.9309 5.56846 22.5856 5.56833H22.5849C22.1219 5.56854 21.678 5.75248 21.3506 6.07974C21.0232 6.40701 20.8391 6.85084 20.8387 7.31375ZM8.93814 26.926C7.51941 26.8614 6.74829 26.625 6.23585 26.4254C5.55646 26.1609 5.07172 25.8459 4.56206 25.337C4.05241 24.8281 3.73693 24.3438 3.4736 23.6644C3.27384 23.1522 3.03752 22.3809 2.97303 20.9623C2.90248 19.4285 2.88839 18.9677 2.88839 15.0819C2.88839 11.1961 2.90364 10.7366 2.97303 9.20154C3.03764 7.78287 3.2757 7.01307 3.4736 6.49936C3.73809 5.82 4.0531 5.33528 4.56206 4.82564C5.07102 4.31601 5.5553 4.00054 6.23585 3.73722C6.74806 3.53747 7.51941 3.30116 8.93814 3.23667C10.472 3.16613 10.9328 3.15204 14.817 3.15204C18.7012 3.15204 19.1624 3.16729 20.6976 3.23667C22.1163 3.30128 22.8861 3.53933 23.3999 3.73722C24.0793 4.00054 24.564 4.3167 25.0737 4.82564C25.5833 5.33458 25.8976 5.82 26.1621 6.49936C26.3619 7.01155 26.5982 7.78287 26.6627 9.20154C26.7332 10.7366 26.7473 11.1961 26.7473 15.0819C26.7473 18.9677 26.7332 19.4272 26.6627 20.9623C26.5981 22.3809 26.3606 23.152 26.1621 23.6644C25.8976 24.3438 25.5826 24.8285 25.0737 25.337C24.5647 25.8455 24.0793 26.1609 23.3999 26.4254C22.8877 26.6252 22.1163 26.8615 20.6976 26.926C19.1637 26.9965 18.703 27.0106 14.817 27.0106C10.931 27.0106 10.4715 26.9965 8.93814 26.926ZM8.81765 0.618883C7.26854 0.689426 6.21 0.935047 5.28557 1.29475C4.32819 1.66621 3.51772 2.16455 2.70784 2.97312C1.89795 3.78169 1.40087 4.59341 1.0294 5.55075C0.669683 6.47573 0.424052 7.53364 0.353505 9.08269C0.281795 10.6342 0.265381 11.1302 0.265381 15.0818C0.265381 19.0334 0.281795 19.5294 0.353505 21.0809C0.424052 22.63 0.669683 23.6878 1.0294 24.6128C1.40087 25.5696 1.89807 26.3822 2.70784 27.1904C3.51761 27.9987 4.32819 28.4963 5.28557 28.8688C6.21175 29.2285 7.26854 29.4741 8.81765 29.5447C10.37 29.6152 10.8652 29.6328 14.817 29.6328C18.7687 29.6328 19.2648 29.6164 20.8163 29.5447C22.3655 29.4741 23.4234 29.2285 24.3484 28.8688C25.3052 28.4963 26.1162 27.999 26.9261 27.1904C27.736 26.3819 28.232 25.5696 28.6046 24.6128C28.9643 23.6878 29.2111 22.6299 29.2805 21.0809C29.351 19.5282 29.3674 19.0334 29.3674 15.0818C29.3674 11.1302 29.351 10.6342 29.2805 9.08269C29.2099 7.53353 28.9643 6.47514 28.6046 5.55075C28.232 4.59399 27.7347 3.78297 26.9261 2.97312C26.1175 2.16327 25.3052 1.66621 24.3496 1.29475C23.4234 0.935047 22.3654 0.688262 20.8175 0.618883C19.2659 0.548339 18.7699 0.530762 14.8181 0.530762C10.8664 0.530762 10.37 0.547175 8.81765 0.618883Z" fill="#454B52"/>
</svg>
