<svg width="215" height="24" viewBox="0 0 215 24" fill="none" xmlns="http://www.w3.org/2000/svg">
<path fill-rule="evenodd" clip-rule="evenodd" d="M16.5171 6.91406V23.2198H8.25854V6.91406H16.5171Z" fill="#003C5F"/>
<path fill-rule="evenodd" clip-rule="evenodd" d="M0 0.799805H8.25852V6.91412H0V0.799805Z" fill="#003C5F"/>
<path fill-rule="evenodd" clip-rule="evenodd" d="M203.965 23.9955C200.478 23.9955 196.532 23.3205 193.537 21.5089L196.288 15.4612C196.951 15.8349 197.585 16.1616 198.297 16.4485C200.394 17.2944 203.095 17.8622 205.37 17.5622C205.856 17.4987 206.709 17.3481 206.709 16.7261C206.709 15.984 205.408 15.7445 204.842 15.599C202.728 15.0538 200.708 14.766 198.597 14.0252C195.706 13.011 193.982 10.8682 193.982 7.84491C193.982 6.38797 194.406 5.04203 195.254 3.83936C197.365 0.845931 201.516 0 205.017 0C206.614 0 208.188 0.167799 209.738 0.503719C211.334 0.849642 212.675 1.34078 214.095 2.12217L211.525 8.1363C209.43 7.10934 207.333 6.36102 204.951 6.36102C204 6.36102 203.298 6.46783 202.843 6.68162C202.025 7.06545 202.079 7.85153 202.959 8.18341C205.15 9.01192 207.903 9.16971 210.317 10.0011C213.228 11.004 215 13.0962 215 16.1506C215 17.6045 214.579 18.9448 213.727 20.1417C211.604 23.1228 207.469 23.9955 203.965 23.9955ZM24.6355 0.805111H49.7742V6.91008H41.3944V23.1904H33.0151V6.91008H24.6357L24.6355 0.805111ZM153.124 23.9955C149.637 23.9955 145.691 23.3205 142.697 21.5089L145.447 15.4612C146.11 15.8349 146.745 16.1616 147.457 16.4485C149.554 17.2944 152.255 17.8622 154.529 17.5622C155.015 17.4987 155.869 17.3481 155.869 16.7261C155.869 15.984 154.567 15.7445 154.002 15.599C151.887 15.0538 149.868 14.766 147.756 14.0252C144.866 13.011 143.142 10.8682 143.142 7.84491C143.142 6.38797 143.565 5.04203 144.413 3.83936C146.525 0.845931 150.675 0 154.177 0C155.775 0 157.348 0.167799 158.898 0.503719C160.494 0.849642 161.834 1.34078 163.255 2.12217L160.684 8.1363C158.59 7.10934 156.492 6.36102 154.111 6.36102C153.16 6.36102 152.457 6.46783 152.002 6.68162C151.184 7.06545 151.239 7.85153 152.119 8.18341C154.31 9.01192 157.063 9.16971 159.477 10.0011C162.387 11.004 164.16 13.0962 164.16 16.1506C164.16 17.6045 163.738 18.9448 162.887 20.1417C160.764 23.1228 156.629 23.9954 153.124 23.9954L153.124 23.9955ZM184.36 0.805111L179.406 9.34945L174.451 0.805111H165.234L175.216 17.0855V23.1904H183.595V17.0855L193.577 0.805111H184.36ZM92.5331 14.033H97.1745L94.8539 5.76695L92.5331 14.033ZM98.8885 20.1379H90.8195L89.9624 23.1903H81.5832L87.8676 0.80495H101.84L108.125 23.1903H99.7455L98.8885 20.1379ZM129.42 0.80495H137.799V23.1903H126.796L120.83 13.1352V23.1903H112.451V0.80495H121.895L129.419 13.4883L129.42 0.80495ZM74.0124 16.2227L77.184 23.1903H68.8047L66.0256 17.0853H61.8918V23.1903H53.5125V0.80495H61.8918H70.2711C74.8794 0.80495 78.6504 4.46845 78.6504 8.94496C78.6504 12.118 76.7565 14.8813 74.0124 16.2227ZM68.1762 6.90992H61.8918V10.98H68.1762C68.7457 10.98 69.2679 10.7494 69.6504 10.3779C70.0329 10.0063 70.2704 9.49837 70.2704 8.94496C70.2704 8.39187 70.0329 7.88444 69.6504 7.51222C69.2679 7.14064 68.7457 6.90992 68.1762 6.90992Z" fill="white"/>
<path fill-rule="evenodd" clip-rule="evenodd" d="M24.7756 6.91406V23.2198H16.5171V6.91406H24.7756Z" fill="#0A6397"/>
<path fill-rule="evenodd" clip-rule="evenodd" d="M8.25854 0.799805H16.5171V6.91412H8.25854V0.799805Z" fill="#0A6397"/>
<path fill-rule="evenodd" clip-rule="evenodd" d="M33.0337 6.91406V23.2198H24.7754V6.91406H33.0337Z" fill="#008DD2"/>
<path fill-rule="evenodd" clip-rule="evenodd" d="M16.5168 0.799805H24.7755V6.91412H16.5168V0.799805Z" fill="#008DD2"/>
</svg>
