<svg width="162" height="18" viewBox="0 0 162 18" fill="none" xmlns="http://www.w3.org/2000/svg">
<path fill-rule="evenodd" clip-rule="evenodd" d="M12.39 5.18652V17.4181H6.19495V5.18652H12.39Z" fill="#D5ECF9"/>
<path fill-rule="evenodd" clip-rule="evenodd" d="M0 0.600098H6.19504V5.18669H0V0.600098Z" fill="#D5ECF9"/>
<path fill-rule="evenodd" clip-rule="evenodd" d="M153.001 18C150.386 18 147.425 17.4936 145.179 16.1347L147.243 11.5981C147.74 11.8784 148.215 12.1235 148.75 12.3386C150.323 12.9732 152.349 13.3991 154.055 13.1741C154.42 13.1264 155.059 13.0135 155.059 12.5469C155.059 11.9902 154.083 11.8106 153.659 11.7014C152.073 11.2925 150.558 11.0765 148.974 10.5209C146.806 9.76008 145.513 8.15266 145.513 5.88478C145.513 4.79187 145.831 3.78222 146.467 2.88006C148.051 0.634566 151.164 0 153.79 0C154.989 0 156.17 0.125872 157.332 0.377859C158.529 0.63735 159.535 1.00577 160.6 1.59192L158.672 6.10336C157.101 5.333 155.528 4.77165 153.741 4.77165C153.028 4.77165 152.501 4.85178 152.16 5.01214C151.546 5.30008 151.587 5.88974 152.247 6.1387C153.89 6.7602 155.956 6.87857 157.767 7.50224C159.95 8.25457 161.279 9.82398 161.279 12.1152C161.279 13.2058 160.963 14.2112 160.324 15.109C158.732 17.3453 155.63 18 153.001 18ZM18.4792 0.603946H37.3368V5.18352H31.0508V17.3961H24.7651V5.18352H18.4794L18.4792 0.603946ZM114.863 18C112.248 18 109.288 17.4936 107.042 16.1347L109.105 11.5981C109.602 11.8784 110.078 12.1235 110.612 12.3386C112.185 12.9732 114.211 13.3991 115.918 13.1741C116.282 13.1264 116.922 13.0135 116.922 12.5469C116.922 11.9902 115.946 11.8106 115.522 11.7014C113.936 11.2925 112.421 11.0765 110.837 10.5209C108.669 9.76008 107.376 8.15266 107.376 5.88478C107.376 4.79187 107.693 3.78222 108.329 2.88006C109.913 0.634566 113.027 0 115.653 0C116.852 0 118.032 0.125872 119.195 0.377859C120.392 0.63735 121.397 1.00577 122.463 1.59192L120.534 6.10336C118.963 5.333 117.39 4.77165 115.604 4.77165C114.891 4.77165 114.364 4.85178 114.022 5.01214C113.409 5.30008 113.45 5.88974 114.11 6.1387C115.753 6.7602 117.818 6.87857 119.63 7.50224C121.812 8.25457 123.142 9.82398 123.142 12.1152C123.142 13.2058 122.825 14.2112 122.187 15.109C120.595 17.3453 117.493 17.9999 114.864 17.9999L114.863 18ZM138.295 0.603946L134.578 7.01339L130.862 0.603946H123.948L131.436 12.8165V17.3961H137.721V12.8165L145.209 0.603946H138.295ZM69.412 10.5267H72.8936L71.1528 4.32602L69.412 10.5267ZM74.1793 15.1063H68.1264L67.4836 17.3959H61.1979L65.9121 0.603825H76.3937L81.1079 17.3959H74.8222L74.1793 15.1063ZM97.0819 0.603825H103.368V17.3959H95.1139L90.6388 9.85327V17.3959H84.3534V0.603825H91.4374L97.0818 10.1181L97.0819 0.603825ZM55.5188 12.1693L57.8979 17.3959H51.6123L49.5276 12.8164H46.4267V17.3959H40.141V0.603825H46.4267H52.7123C56.1691 0.603825 58.9979 3.35196 58.9979 6.70997C58.9979 9.09017 57.5772 11.1631 55.5188 12.1693ZM51.1409 5.1834H46.4267V8.23654H51.1409C51.5681 8.23654 51.9598 8.06358 52.2467 7.78485C52.5336 7.50611 52.7118 7.12511 52.7118 6.70997C52.7118 6.29507 52.5336 5.91443 52.2467 5.63521C51.9598 5.35648 51.5681 5.1834 51.1409 5.1834Z" fill="#3C464E"/>
<path fill-rule="evenodd" clip-rule="evenodd" d="M18.5854 5.18652V17.4181H12.3904V5.18652H18.5854Z" fill="#ACDBF1"/>
<path fill-rule="evenodd" clip-rule="evenodd" d="M6.19495 0.600098H12.39V5.18669H6.19495V0.600098Z" fill="#ACDBF1"/>
<path fill-rule="evenodd" clip-rule="evenodd" d="M24.7809 5.18652V17.4181H18.5859V5.18652H24.7809Z" fill="#008DD2"/>
<path fill-rule="evenodd" clip-rule="evenodd" d="M12.3907 0.600098H18.5859V5.18669H12.3907V0.600098Z" fill="#008DD2"/>
</svg>
